%TF.GenerationSoftware,KiCad,Pcbnew,8.0.0*%
%TF.CreationDate,2024-07-17T15:20:47-07:00*%
%TF.ProjectId,ece16,65636531-362e-46b6-9963-61645f706362,rev?*%
%TF.SameCoordinates,Original*%
%TF.FileFunction,Soldermask,Top*%
%TF.FilePolarity,Negative*%
%FSLAX46Y46*%
G04 Gerber Fmt 4.6, Leading zero omitted, Abs format (unit mm)*
G04 Created by KiCad (PCBNEW 8.0.0) date 2024-07-17 15:20:47*
%MOMM*%
%LPD*%
G01*
G04 APERTURE LIST*
G04 Aperture macros list*
%AMRoundRect*
0 Rectangle with rounded corners*
0 $1 Rounding radius*
0 $2 $3 $4 $5 $6 $7 $8 $9 X,Y pos of 4 corners*
0 Add a 4 corners polygon primitive as box body*
4,1,4,$2,$3,$4,$5,$6,$7,$8,$9,$2,$3,0*
0 Add four circle primitives for the rounded corners*
1,1,$1+$1,$2,$3*
1,1,$1+$1,$4,$5*
1,1,$1+$1,$6,$7*
1,1,$1+$1,$8,$9*
0 Add four rect primitives between the rounded corners*
20,1,$1+$1,$2,$3,$4,$5,0*
20,1,$1+$1,$4,$5,$6,$7,0*
20,1,$1+$1,$6,$7,$8,$9,0*
20,1,$1+$1,$8,$9,$2,$3,0*%
G04 Aperture macros list end*
%ADD10C,0.010000*%
%ADD11RoundRect,0.140000X0.170000X-0.140000X0.170000X0.140000X-0.170000X0.140000X-0.170000X-0.140000X0*%
%ADD12RoundRect,0.135000X0.185000X-0.135000X0.185000X0.135000X-0.185000X0.135000X-0.185000X-0.135000X0*%
%ADD13RoundRect,0.135000X-0.185000X0.135000X-0.185000X-0.135000X0.185000X-0.135000X0.185000X0.135000X0*%
%ADD14RoundRect,0.102000X0.325000X-0.525000X0.325000X0.525000X-0.325000X0.525000X-0.325000X-0.525000X0*%
%ADD15RoundRect,0.218750X0.256250X-0.218750X0.256250X0.218750X-0.256250X0.218750X-0.256250X-0.218750X0*%
%ADD16RoundRect,0.102000X-0.660400X-0.279400X0.660400X-0.279400X0.660400X0.279400X-0.660400X0.279400X0*%
%ADD17C,0.900000*%
%ADD18RoundRect,0.102000X-0.500000X-0.800000X0.500000X-0.800000X0.500000X0.800000X-0.500000X0.800000X0*%
%ADD19RoundRect,0.102000X0.500000X0.800000X-0.500000X0.800000X-0.500000X-0.800000X0.500000X-0.800000X0*%
%ADD20RoundRect,0.140000X-0.170000X0.140000X-0.170000X-0.140000X0.170000X-0.140000X0.170000X0.140000X0*%
%ADD21RoundRect,0.135000X0.135000X0.185000X-0.135000X0.185000X-0.135000X-0.185000X0.135000X-0.185000X0*%
%ADD22RoundRect,0.218750X-0.218750X-0.256250X0.218750X-0.256250X0.218750X0.256250X-0.218750X0.256250X0*%
%ADD23C,3.200000*%
%ADD24RoundRect,0.140000X0.140000X0.170000X-0.140000X0.170000X-0.140000X-0.170000X0.140000X-0.170000X0*%
%ADD25RoundRect,0.140000X-0.140000X-0.170000X0.140000X-0.170000X0.140000X0.170000X-0.140000X0.170000X0*%
%ADD26R,1.700000X1.700000*%
%ADD27O,1.700000X1.700000*%
%ADD28RoundRect,0.218750X0.218750X0.256250X-0.218750X0.256250X-0.218750X-0.256250X0.218750X-0.256250X0*%
%ADD29RoundRect,0.250000X0.300000X0.300000X-0.300000X0.300000X-0.300000X-0.300000X0.300000X-0.300000X0*%
%ADD30RoundRect,0.147500X0.172500X-0.147500X0.172500X0.147500X-0.172500X0.147500X-0.172500X-0.147500X0*%
%ADD31RoundRect,0.135000X-0.135000X-0.185000X0.135000X-0.185000X0.135000X0.185000X-0.135000X0.185000X0*%
%ADD32RoundRect,0.102000X-0.625000X-0.230000X0.625000X-0.230000X0.625000X0.230000X-0.625000X0.230000X0*%
%ADD33RoundRect,0.102000X-0.400000X-0.200000X0.400000X-0.200000X0.400000X0.200000X-0.400000X0.200000X0*%
%ADD34RoundRect,0.102000X-0.200000X-0.400000X0.200000X-0.400000X0.200000X0.400000X-0.200000X0.400000X0*%
%ADD35RoundRect,0.102000X-0.600000X-0.600000X0.600000X-0.600000X0.600000X0.600000X-0.600000X0.600000X0*%
%ADD36RoundRect,0.102000X-0.400000X-0.400000X0.400000X-0.400000X0.400000X0.400000X-0.400000X0.400000X0*%
%ADD37RoundRect,0.150000X0.150000X-0.512500X0.150000X0.512500X-0.150000X0.512500X-0.150000X-0.512500X0*%
%ADD38RoundRect,0.102000X-0.875000X0.875000X-0.875000X-0.875000X0.875000X-0.875000X0.875000X0.875000X0*%
%ADD39RoundRect,0.102000X-0.185000X-0.325000X0.185000X-0.325000X0.185000X0.325000X-0.185000X0.325000X0*%
%ADD40RoundRect,0.102000X-0.325000X0.185000X-0.325000X-0.185000X0.325000X-0.185000X0.325000X0.185000X0*%
%ADD41RoundRect,0.102000X0.185000X0.325000X-0.185000X0.325000X-0.185000X-0.325000X0.185000X-0.325000X0*%
%ADD42RoundRect,0.102000X0.325000X-0.185000X0.325000X0.185000X-0.325000X0.185000X-0.325000X-0.185000X0*%
%ADD43RoundRect,0.102000X-0.325000X0.525000X-0.325000X-0.525000X0.325000X-0.525000X0.325000X0.525000X0*%
%ADD44RoundRect,0.250000X-0.625000X0.350000X-0.625000X-0.350000X0.625000X-0.350000X0.625000X0.350000X0*%
%ADD45O,1.750000X1.200000*%
%ADD46C,0.650000*%
%ADD47RoundRect,0.102000X-0.575000X0.300000X-0.575000X-0.300000X0.575000X-0.300000X0.575000X0.300000X0*%
%ADD48RoundRect,0.102000X-0.575000X0.150000X-0.575000X-0.150000X0.575000X-0.150000X0.575000X0.150000X0*%
%ADD49O,2.304000X1.204000*%
%ADD50RoundRect,0.301000X-0.701000X0.301000X-0.701000X-0.301000X0.701000X-0.301000X0.701000X0.301000X0*%
%ADD51C,2.000000*%
G04 APERTURE END LIST*
D10*
%TO.C,U2*%
X194050000Y-42400000D02*
X192650000Y-42400000D01*
X192650000Y-41650000D01*
X193300000Y-41000000D01*
X194050000Y-41000000D01*
X194050000Y-42400000D01*
G36*
X194050000Y-42400000D02*
G01*
X192650000Y-42400000D01*
X192650000Y-41650000D01*
X193300000Y-41000000D01*
X194050000Y-41000000D01*
X194050000Y-42400000D01*
G37*
%TD*%
D11*
%TO.C,C11*%
X206980000Y-62880000D03*
X206980000Y-61920000D03*
%TD*%
D12*
%TO.C,R7*%
X173500000Y-49010000D03*
X173500000Y-47990000D03*
%TD*%
D11*
%TO.C,C20*%
X184500000Y-38980000D03*
X184500000Y-38020000D03*
%TD*%
D13*
%TO.C,R10*%
X192200000Y-54435000D03*
X192200000Y-55455000D03*
%TD*%
%TO.C,R16*%
X223000000Y-44905000D03*
X223000000Y-45925000D03*
%TD*%
D11*
%TO.C,C21*%
X186000000Y-38980000D03*
X186000000Y-38020000D03*
%TD*%
D14*
%TO.C,SW2*%
X205275000Y-35425000D03*
X205275000Y-31275000D03*
X207425000Y-35425000D03*
X207425000Y-31275000D03*
%TD*%
D15*
%TO.C,D6*%
X194000000Y-58520000D03*
X194000000Y-56945000D03*
%TD*%
D16*
%TO.C,MCP73831T1*%
X174452600Y-58560200D03*
X174452600Y-59500000D03*
X174452600Y-60439800D03*
X177195800Y-60439800D03*
X177195800Y-58560200D03*
%TD*%
D17*
%TO.C,S1*%
X191600000Y-70000000D03*
X198400000Y-70000000D03*
D18*
X192500000Y-68800000D03*
D19*
X192500000Y-71200000D03*
D18*
X195000000Y-68800000D03*
D19*
X195000000Y-71200000D03*
D18*
X197500000Y-68800000D03*
D19*
X197500000Y-71200000D03*
%TD*%
D20*
%TO.C,C16*%
X205500000Y-58920000D03*
X205500000Y-59880000D03*
%TD*%
D11*
%TO.C,C6*%
X178000000Y-51480000D03*
X178000000Y-50520000D03*
%TD*%
D21*
%TO.C,R13*%
X174834200Y-56500000D03*
X173814200Y-56500000D03*
%TD*%
D22*
%TO.C,D4*%
X176556700Y-56480000D03*
X178131700Y-56480000D03*
%TD*%
D21*
%TO.C,R15*%
X177824200Y-63439800D03*
X176804200Y-63439800D03*
%TD*%
D23*
%TO.C,H2*%
X221000000Y-34000000D03*
%TD*%
D12*
%TO.C,R2*%
X205500000Y-42530000D03*
X205500000Y-41510000D03*
%TD*%
D15*
%TO.C,D3*%
X192200000Y-58520000D03*
X192200000Y-56945000D03*
%TD*%
D23*
%TO.C,H3*%
X169000000Y-68500000D03*
%TD*%
D24*
%TO.C,C19*%
X177804200Y-62000000D03*
X176844200Y-62000000D03*
%TD*%
D25*
%TO.C,C1*%
X187995000Y-54250000D03*
X188955000Y-54250000D03*
%TD*%
D26*
%TO.C,J2*%
X213025000Y-69500000D03*
D27*
X210485000Y-69500000D03*
X207945000Y-69500000D03*
%TD*%
D11*
%TO.C,C10*%
X207000000Y-65380000D03*
X207000000Y-64420000D03*
%TD*%
D28*
%TO.C,D7*%
X171747500Y-44000000D03*
X170172500Y-44000000D03*
%TD*%
D20*
%TO.C,C5*%
X178000000Y-48020000D03*
X178000000Y-48980000D03*
%TD*%
D11*
%TO.C,C8*%
X183500000Y-57000000D03*
X183500000Y-56040000D03*
%TD*%
D29*
%TO.C,D2*%
X182900000Y-53100000D03*
X180100000Y-53100000D03*
%TD*%
D14*
%TO.C,SW4*%
X218925000Y-53650000D03*
X218925000Y-49500000D03*
X221075000Y-53650000D03*
X221075000Y-49500000D03*
%TD*%
D30*
%TO.C,L1*%
X205500000Y-57385000D03*
X205500000Y-56415000D03*
%TD*%
D29*
%TO.C,D1*%
X182625000Y-46000000D03*
X179825000Y-46000000D03*
%TD*%
D21*
%TO.C,R19*%
X171520000Y-42000000D03*
X170500000Y-42000000D03*
%TD*%
D13*
%TO.C,R18*%
X193990000Y-54435000D03*
X193990000Y-55455000D03*
%TD*%
D20*
%TO.C,C4*%
X208000000Y-39030000D03*
X208000000Y-39990000D03*
%TD*%
D31*
%TO.C,R3*%
X213500000Y-58900000D03*
X214520000Y-58900000D03*
%TD*%
D26*
%TO.C,J1*%
X187850000Y-69500000D03*
D27*
X185310000Y-69500000D03*
X182770000Y-69500000D03*
X180230000Y-69500000D03*
X177690000Y-69500000D03*
X175150000Y-69500000D03*
%TD*%
D32*
%TO.C,PAM2401-SCADJ1*%
X207390000Y-57525000D03*
X207390000Y-58175000D03*
X207390000Y-58825000D03*
X207390000Y-59475000D03*
X211610000Y-59475000D03*
X211610000Y-58825000D03*
X211610000Y-58175000D03*
X211610000Y-57525000D03*
%TD*%
D33*
%TO.C,U2*%
X188000000Y-37400000D03*
X188000000Y-38250000D03*
X188000000Y-39100000D03*
X188000000Y-39950000D03*
X188000000Y-40800000D03*
X188000000Y-41650000D03*
X188000000Y-42500000D03*
X188000000Y-43350000D03*
X188000000Y-44200000D03*
X188000000Y-45050000D03*
X188000000Y-45900000D03*
X188000000Y-46750000D03*
X188000000Y-47600000D03*
X188000000Y-48450000D03*
X188000000Y-49300000D03*
D34*
X189050000Y-50350000D03*
X189900000Y-50350000D03*
X190750000Y-50350000D03*
X191600000Y-50350000D03*
X192450000Y-50350000D03*
X193300000Y-50350000D03*
X194150000Y-50350000D03*
X195000000Y-50350000D03*
X195850000Y-50350000D03*
X196700000Y-50350000D03*
X197550000Y-50350000D03*
X198400000Y-50350000D03*
X199250000Y-50350000D03*
X200100000Y-50350000D03*
X200950000Y-50350000D03*
D33*
X202000000Y-49300000D03*
X202000000Y-48450000D03*
X202000000Y-47600000D03*
X202000000Y-46750000D03*
X202000000Y-45900000D03*
X202000000Y-45050000D03*
X202000000Y-44200000D03*
X202000000Y-43350000D03*
X202000000Y-42500000D03*
X202000000Y-41650000D03*
X202000000Y-40800000D03*
X202000000Y-39950000D03*
X202000000Y-39100000D03*
X202000000Y-38250000D03*
X202000000Y-37400000D03*
D34*
X200950000Y-36350000D03*
X200100000Y-36350000D03*
X199250000Y-36350000D03*
X198400000Y-36350000D03*
X197550000Y-36350000D03*
X196700000Y-36350000D03*
X195850000Y-36350000D03*
X195000000Y-36350000D03*
X194150000Y-36350000D03*
X193300000Y-36350000D03*
X192450000Y-36350000D03*
X191600000Y-36350000D03*
X190750000Y-36350000D03*
X189900000Y-36350000D03*
X189050000Y-36350000D03*
D35*
X195000000Y-43350000D03*
X195000000Y-41700000D03*
X196650000Y-41700000D03*
X196650000Y-43350000D03*
X196650000Y-45000000D03*
X195000000Y-45000000D03*
X193350000Y-45000000D03*
X193350000Y-43350000D03*
D36*
X188000000Y-36350000D03*
X188000000Y-50350000D03*
X202000000Y-50350000D03*
X202000000Y-36350000D03*
%TD*%
D12*
%TO.C,R4*%
X182000000Y-42670000D03*
X182000000Y-41650000D03*
%TD*%
D20*
%TO.C,C7*%
X190500000Y-56270000D03*
X190500000Y-57230000D03*
%TD*%
D37*
%TO.C,U5*%
X208500000Y-65000000D03*
X209450000Y-65000000D03*
X210400000Y-65000000D03*
X210400000Y-62725000D03*
X208500000Y-62725000D03*
%TD*%
D23*
%TO.C,H4*%
X221000000Y-68500000D03*
%TD*%
D13*
%TO.C,R6*%
X173500000Y-52500000D03*
X173500000Y-53520000D03*
%TD*%
D23*
%TO.C,H1*%
X169000000Y-34000000D03*
%TD*%
D38*
%TO.C,U3*%
X186975000Y-57250000D03*
D39*
X186000000Y-59000000D03*
X186650000Y-59000000D03*
X187300000Y-59000000D03*
X187950000Y-59000000D03*
D40*
X188725000Y-58225000D03*
X188725000Y-57575000D03*
X188725000Y-56925000D03*
X188725000Y-56275000D03*
D41*
X187950000Y-55500000D03*
X187300000Y-55500000D03*
X186650000Y-55500000D03*
X186000000Y-55500000D03*
D42*
X185225000Y-56275000D03*
X185225000Y-56925000D03*
X185225000Y-57575000D03*
X185225000Y-58225000D03*
%TD*%
D37*
%TO.C,U1*%
X180000000Y-50775000D03*
X180950000Y-50775000D03*
X181900000Y-50775000D03*
X181900000Y-48500000D03*
X180000000Y-48500000D03*
%TD*%
D13*
%TO.C,R11*%
X222990000Y-51065000D03*
X222990000Y-52085000D03*
%TD*%
D43*
%TO.C,SW1*%
X184425000Y-31275000D03*
X184425000Y-35425000D03*
X182275000Y-31275000D03*
X182275000Y-35425000D03*
%TD*%
D13*
%TO.C,R12*%
X222990000Y-57565000D03*
X222990000Y-58585000D03*
%TD*%
D11*
%TO.C,C3*%
X208000000Y-42500000D03*
X208000000Y-41540000D03*
%TD*%
D14*
%TO.C,SW5*%
X218925000Y-47500000D03*
X218925000Y-43350000D03*
X221075000Y-47500000D03*
X221075000Y-43350000D03*
%TD*%
D26*
%TO.C,U4*%
X190920000Y-64500000D03*
D27*
X193460000Y-64500000D03*
X196000000Y-64500000D03*
X198540000Y-64500000D03*
%TD*%
D12*
%TO.C,R20*%
X205500000Y-40020000D03*
X205500000Y-39000000D03*
%TD*%
%TO.C,R5*%
X184500000Y-42660000D03*
X184500000Y-41640000D03*
%TD*%
D25*
%TO.C,C17*%
X213530000Y-57400000D03*
X214490000Y-57400000D03*
%TD*%
D44*
%TO.C,BT1*%
X169950000Y-59000000D03*
D45*
X169950000Y-61000000D03*
%TD*%
D14*
%TO.C,SW3*%
X218925000Y-60150000D03*
X218925000Y-56000000D03*
X221075000Y-60150000D03*
X221075000Y-56000000D03*
%TD*%
D31*
%TO.C,R1*%
X213500000Y-60400000D03*
X214520000Y-60400000D03*
%TD*%
D46*
%TO.C,USB4105-GF-A1*%
X170680000Y-47610000D03*
X170680000Y-53390000D03*
D47*
X171755000Y-47300000D03*
X171755000Y-48100000D03*
D48*
X171755000Y-49250000D03*
X171755000Y-50250000D03*
X171755000Y-50750000D03*
X171755000Y-51750000D03*
D47*
X171755000Y-53700000D03*
X171755000Y-52900000D03*
D48*
X171755000Y-52250000D03*
X171755000Y-51250000D03*
X171755000Y-49750000D03*
X171755000Y-48750000D03*
D49*
X171180000Y-46180000D03*
X171180000Y-54820000D03*
D50*
X167000000Y-46180000D03*
X167000000Y-54820000D03*
%TD*%
D24*
%TO.C,C2*%
X185955000Y-54250000D03*
X184995000Y-54250000D03*
%TD*%
D25*
%TO.C,C18*%
X173844200Y-62000000D03*
X174804200Y-62000000D03*
%TD*%
D51*
%TO.C,TP1*%
X186975000Y-61500000D03*
%TD*%
M02*
