%TF.GenerationSoftware,KiCad,Pcbnew,8.0.0*%
%TF.CreationDate,2024-07-17T15:20:48-07:00*%
%TF.ProjectId,ece16,65636531-362e-46b6-9963-61645f706362,rev?*%
%TF.SameCoordinates,Original*%
%TF.FileFunction,Soldermask,Bot*%
%TF.FilePolarity,Negative*%
%FSLAX46Y46*%
G04 Gerber Fmt 4.6, Leading zero omitted, Abs format (unit mm)*
G04 Created by KiCad (PCBNEW 8.0.0) date 2024-07-17 15:20:48*
%MOMM*%
%LPD*%
G01*
G04 APERTURE LIST*
G04 Aperture macros list*
%AMRoundRect*
0 Rectangle with rounded corners*
0 $1 Rounding radius*
0 $2 $3 $4 $5 $6 $7 $8 $9 X,Y pos of 4 corners*
0 Add a 4 corners polygon primitive as box body*
4,1,4,$2,$3,$4,$5,$6,$7,$8,$9,$2,$3,0*
0 Add four circle primitives for the rounded corners*
1,1,$1+$1,$2,$3*
1,1,$1+$1,$4,$5*
1,1,$1+$1,$6,$7*
1,1,$1+$1,$8,$9*
0 Add four rect primitives between the rounded corners*
20,1,$1+$1,$2,$3,$4,$5,0*
20,1,$1+$1,$4,$5,$6,$7,0*
20,1,$1+$1,$6,$7,$8,$9,0*
20,1,$1+$1,$8,$9,$2,$3,0*%
G04 Aperture macros list end*
%ADD10C,0.900000*%
%ADD11C,3.200000*%
%ADD12R,1.700000X1.700000*%
%ADD13O,1.700000X1.700000*%
%ADD14RoundRect,0.250000X-0.625000X0.350000X-0.625000X-0.350000X0.625000X-0.350000X0.625000X0.350000X0*%
%ADD15O,1.750000X1.200000*%
%ADD16C,0.650000*%
%ADD17O,2.304000X1.204000*%
%ADD18RoundRect,0.301000X-0.701000X0.301000X-0.701000X-0.301000X0.701000X-0.301000X0.701000X0.301000X0*%
%ADD19C,2.000000*%
%ADD20RoundRect,0.140000X-0.140000X-0.170000X0.140000X-0.170000X0.140000X0.170000X-0.140000X0.170000X0*%
%ADD21RoundRect,0.140000X0.140000X0.170000X-0.140000X0.170000X-0.140000X-0.170000X0.140000X-0.170000X0*%
%ADD22RoundRect,0.135000X0.135000X0.185000X-0.135000X0.185000X-0.135000X-0.185000X0.135000X-0.185000X0*%
%ADD23RoundRect,0.135000X0.185000X-0.135000X0.185000X0.135000X-0.185000X0.135000X-0.185000X-0.135000X0*%
%ADD24RoundRect,0.135000X-0.135000X-0.185000X0.135000X-0.185000X0.135000X0.185000X-0.135000X0.185000X0*%
%ADD25RoundRect,0.060400X-0.241600X0.461600X-0.241600X-0.461600X0.241600X-0.461600X0.241600X0.461600X0*%
%ADD26RoundRect,0.060400X0.241600X-0.461600X0.241600X0.461600X-0.241600X0.461600X-0.241600X-0.461600X0*%
G04 APERTURE END LIST*
D10*
%TO.C,S1*%
X191600000Y-70000000D03*
X198400000Y-70000000D03*
%TD*%
D11*
%TO.C,H2*%
X221000000Y-34000000D03*
%TD*%
%TO.C,H3*%
X169000000Y-68500000D03*
%TD*%
D12*
%TO.C,J2*%
X213025000Y-69500000D03*
D13*
X210485000Y-69500000D03*
X207945000Y-69500000D03*
%TD*%
D12*
%TO.C,J1*%
X187850000Y-69500000D03*
D13*
X185310000Y-69500000D03*
X182770000Y-69500000D03*
X180230000Y-69500000D03*
X177690000Y-69500000D03*
X175150000Y-69500000D03*
%TD*%
D11*
%TO.C,H4*%
X221000000Y-68500000D03*
%TD*%
%TO.C,H1*%
X169000000Y-34000000D03*
%TD*%
D12*
%TO.C,U4*%
X190920000Y-64500000D03*
D13*
X193460000Y-64500000D03*
X196000000Y-64500000D03*
X198540000Y-64500000D03*
%TD*%
D14*
%TO.C,BT1*%
X169950000Y-59000000D03*
D15*
X169950000Y-61000000D03*
%TD*%
D16*
%TO.C,USB4105-GF-A1*%
X170680000Y-47610000D03*
X170680000Y-53390000D03*
D17*
X171180000Y-46180000D03*
X171180000Y-54820000D03*
D18*
X167000000Y-46180000D03*
X167000000Y-54820000D03*
%TD*%
D19*
%TO.C,TP1*%
X186975000Y-61500000D03*
%TD*%
D20*
%TO.C,C14*%
X193767770Y-61500000D03*
X194727770Y-61500000D03*
%TD*%
D21*
%TO.C,C12*%
X196812230Y-60100000D03*
X195852230Y-60100000D03*
%TD*%
D22*
%TO.C,R14*%
X197000000Y-54500000D03*
X195980000Y-54500000D03*
%TD*%
D20*
%TO.C,C13*%
X195840000Y-61572230D03*
X196800000Y-61572230D03*
%TD*%
D23*
%TO.C,R9*%
X192000000Y-61010000D03*
X192000000Y-59990000D03*
%TD*%
D24*
%TO.C,R8*%
X191990000Y-54500000D03*
X193010000Y-54500000D03*
%TD*%
D25*
%TO.C,U6*%
X192300000Y-56110000D03*
X193100000Y-56110000D03*
X193900000Y-56110000D03*
X194700000Y-56110000D03*
X195500000Y-56110000D03*
X196300000Y-56110000D03*
X197100000Y-56110000D03*
D26*
X197100000Y-58500000D03*
X196300000Y-58500000D03*
X195500000Y-58500000D03*
X194700000Y-58500000D03*
X193900000Y-58500000D03*
X193100000Y-58500000D03*
X192300000Y-58500000D03*
%TD*%
D21*
%TO.C,C15*%
X194727770Y-60040000D03*
X193767770Y-60040000D03*
%TD*%
M02*
