M48
; DRILL file {KiCad 8.0.0} date 2024-07-17T15:20:44-0700
; FORMAT={-:-/ absolute / inch / decimal}
; #@! TF.CreationDate,2024-07-17T15:20:44-07:00
; #@! TF.GenerationSoftware,Kicad,Pcbnew,8.0.0
; #@! TF.FileFunction,Plated,1,2,PTH
FMAT,2
INCH
; #@! TA.AperFunction,Plated,PTH,ViaDrill
T1C0.0079
; #@! TA.AperFunction,Plated,PTH,ComponentDrill
T2C0.0236
; #@! TA.AperFunction,Plated,PTH,ComponentDrill
T3C0.0295
; #@! TA.AperFunction,Plated,PTH,ComponentDrill
T4C0.0394
%
G90
G05
T1
X6.8701Y-1.9488
X6.8799Y-1.9783
X6.9488Y-2.0866
X6.9882Y-1.811
X6.9882Y-2.0866
X7.0855Y-2.5601
X7.1063Y-1.6929
X7.1142Y-2.5118
X7.1457Y-2.2441
X7.3228Y-1.4567
X7.3425Y-1.5748
X7.4646Y-2.1732
X7.5906Y-2.3858
X7.5906Y-2.4055
X7.6575Y-2.0472
X7.6969Y-2.0472
X7.815Y-2.185
X7.815Y-2.2047
X7.815Y-2.3425
X7.8346Y-2.0659
X7.8346Y-2.185
X7.8346Y-2.2047
X7.8425Y-2.3425
X7.874Y-2.0669
X7.9134Y-2.44
X8.0315Y-2.0079
X8.0512Y-2.3819
X8.0906Y-1.7717
X8.0906Y-2.4803
X8.2051Y-2.3819
T3
X6.6909Y-2.3228
X6.6909Y-2.4016
T4
X6.8957Y-2.7362
X6.9957Y-2.7362
X7.0957Y-2.7362
X7.1957Y-2.7362
X7.2957Y-2.7362
X7.3612Y-2.4213
X7.3957Y-2.7362
X7.5165Y-2.5394
X7.6165Y-2.5394
X7.7165Y-2.5394
X7.8165Y-2.5394
X8.1868Y-2.7362
X8.2868Y-2.7362
X8.3868Y-2.7362
T2
G00X6.5906Y-1.8181
M15
G01X6.5591Y-1.8181
M16
G05
G00X6.5906Y-2.1583
M15
G01X6.5591Y-2.1583
M16
G05
G00X6.761Y-1.8181
M15
G01X6.7177Y-1.8181
M16
G05
G00X6.761Y-2.1583
M15
G01X6.7177Y-2.1583
M16
G05
M30
