%TF.GenerationSoftware,KiCad,Pcbnew,8.0.0*%
%TF.CreationDate,2024-07-17T15:20:47-07:00*%
%TF.ProjectId,ece16,65636531-362e-46b6-9963-61645f706362,rev?*%
%TF.SameCoordinates,Original*%
%TF.FileFunction,Copper,L2,Bot*%
%TF.FilePolarity,Positive*%
%FSLAX46Y46*%
G04 Gerber Fmt 4.6, Leading zero omitted, Abs format (unit mm)*
G04 Created by KiCad (PCBNEW 8.0.0) date 2024-07-17 15:20:47*
%MOMM*%
%LPD*%
G01*
G04 APERTURE LIST*
G04 Aperture macros list*
%AMRoundRect*
0 Rectangle with rounded corners*
0 $1 Rounding radius*
0 $2 $3 $4 $5 $6 $7 $8 $9 X,Y pos of 4 corners*
0 Add a 4 corners polygon primitive as box body*
4,1,4,$2,$3,$4,$5,$6,$7,$8,$9,$2,$3,0*
0 Add four circle primitives for the rounded corners*
1,1,$1+$1,$2,$3*
1,1,$1+$1,$4,$5*
1,1,$1+$1,$6,$7*
1,1,$1+$1,$8,$9*
0 Add four rect primitives between the rounded corners*
20,1,$1+$1,$2,$3,$4,$5,0*
20,1,$1+$1,$4,$5,$6,$7,0*
20,1,$1+$1,$6,$7,$8,$9,0*
20,1,$1+$1,$8,$9,$2,$3,0*%
G04 Aperture macros list end*
%TA.AperFunction,ComponentPad*%
%ADD10R,1.700000X1.700000*%
%TD*%
%TA.AperFunction,ComponentPad*%
%ADD11O,1.700000X1.700000*%
%TD*%
%TA.AperFunction,ComponentPad*%
%ADD12RoundRect,0.250000X-0.625000X0.350000X-0.625000X-0.350000X0.625000X-0.350000X0.625000X0.350000X0*%
%TD*%
%TA.AperFunction,ComponentPad*%
%ADD13O,1.750000X1.200000*%
%TD*%
%TA.AperFunction,ComponentPad*%
%ADD14O,2.100000X1.000000*%
%TD*%
%TA.AperFunction,ComponentPad*%
%ADD15RoundRect,0.250000X-0.650000X0.250000X-0.650000X-0.250000X0.650000X-0.250000X0.650000X0.250000X0*%
%TD*%
%TA.AperFunction,ComponentPad*%
%ADD16C,2.000000*%
%TD*%
%TA.AperFunction,SMDPad,CuDef*%
%ADD17RoundRect,0.140000X-0.140000X-0.170000X0.140000X-0.170000X0.140000X0.170000X-0.140000X0.170000X0*%
%TD*%
%TA.AperFunction,SMDPad,CuDef*%
%ADD18RoundRect,0.140000X0.140000X0.170000X-0.140000X0.170000X-0.140000X-0.170000X0.140000X-0.170000X0*%
%TD*%
%TA.AperFunction,SMDPad,CuDef*%
%ADD19RoundRect,0.135000X0.135000X0.185000X-0.135000X0.185000X-0.135000X-0.185000X0.135000X-0.185000X0*%
%TD*%
%TA.AperFunction,SMDPad,CuDef*%
%ADD20RoundRect,0.135000X0.185000X-0.135000X0.185000X0.135000X-0.185000X0.135000X-0.185000X-0.135000X0*%
%TD*%
%TA.AperFunction,SMDPad,CuDef*%
%ADD21RoundRect,0.135000X-0.135000X-0.185000X0.135000X-0.185000X0.135000X0.185000X-0.135000X0.185000X0*%
%TD*%
%TA.AperFunction,SMDPad,CuDef*%
%ADD22RoundRect,0.040000X-0.160000X0.380000X-0.160000X-0.380000X0.160000X-0.380000X0.160000X0.380000X0*%
%TD*%
%TA.AperFunction,SMDPad,CuDef*%
%ADD23RoundRect,0.040000X0.160000X-0.380000X0.160000X0.380000X-0.160000X0.380000X-0.160000X-0.380000X0*%
%TD*%
%TA.AperFunction,ViaPad*%
%ADD24C,0.400000*%
%TD*%
%TA.AperFunction,Conductor*%
%ADD25C,0.250000*%
%TD*%
%TA.AperFunction,Conductor*%
%ADD26C,0.200000*%
%TD*%
G04 APERTURE END LIST*
D10*
%TO.P,J2,1,Pin_1*%
%TO.N,+3V3*%
X213025000Y-69500000D03*
D11*
%TO.P,J2,2,Pin_2*%
%TO.N,/T1*%
X210485000Y-69500000D03*
%TO.P,J2,3,Pin_3*%
%TO.N,GND*%
X207945000Y-69500000D03*
%TD*%
D10*
%TO.P,J1,1,Pin_1*%
%TO.N,GND*%
X187850000Y-69500000D03*
D11*
%TO.P,J1,2,Pin_2*%
%TO.N,+3V3*%
X185310000Y-69500000D03*
%TO.P,J1,3,Pin_3*%
%TO.N,/SDA*%
X182770000Y-69500000D03*
%TO.P,J1,4,Pin_4*%
%TO.N,/SCL*%
X180230000Y-69500000D03*
%TO.P,J1,5,Pin_5*%
%TO.N,unconnected-(J1-Pin_5-Pad5)*%
X177690000Y-69500000D03*
%TO.P,J1,6,Pin_6*%
%TO.N,+1.8V*%
X175150000Y-69500000D03*
%TD*%
D10*
%TO.P,U4,1,GND*%
%TO.N,GND*%
X190920000Y-64500000D03*
D11*
%TO.P,U4,2,VCC_IN*%
%TO.N,+3V3*%
X193460000Y-64500000D03*
%TO.P,U4,3,SCL*%
%TO.N,/SCL*%
X196000000Y-64500000D03*
%TO.P,U4,4,SDA*%
%TO.N,/SDA*%
X198540000Y-64500000D03*
%TD*%
D12*
%TO.P,BT1,1,+*%
%TO.N,Net-(BT1-+)*%
X169950000Y-59000000D03*
D13*
%TO.P,BT1,2,-*%
%TO.N,GND*%
X169950000Y-61000000D03*
%TD*%
D14*
%TO.P,USB4105-GF-A1,S1,SHELL_GND*%
%TO.N,GND*%
X171180000Y-46180000D03*
%TO.P,USB4105-GF-A1,S2,SHELL_GND*%
X171180000Y-54820000D03*
D15*
%TO.P,USB4105-GF-A1,S3,SHELL_GND*%
X167000000Y-46180000D03*
%TO.P,USB4105-GF-A1,S4,SHELL_GND*%
X167000000Y-54820000D03*
%TD*%
D16*
%TO.P,TP1,1,1*%
%TO.N,Net-(U3-ST)*%
X186975000Y-61500000D03*
%TD*%
D17*
%TO.P,C14,1*%
%TO.N,GND*%
X193767770Y-61500000D03*
%TO.P,C14,2*%
%TO.N,+1.8V*%
X194727770Y-61500000D03*
%TD*%
D18*
%TO.P,C12,1*%
%TO.N,GND*%
X196812230Y-60100000D03*
%TO.P,C12,2*%
%TO.N,/VLED*%
X195852230Y-60100000D03*
%TD*%
D19*
%TO.P,R14,1*%
%TO.N,+3V3*%
X197000000Y-54500000D03*
%TO.P,R14,2*%
%TO.N,/SDA*%
X195980000Y-54500000D03*
%TD*%
D17*
%TO.P,C13,1*%
%TO.N,/VLED*%
X195840000Y-61572230D03*
%TO.P,C13,2*%
%TO.N,GND*%
X196800000Y-61572230D03*
%TD*%
D20*
%TO.P,R9,1*%
%TO.N,+3V3*%
X192000000Y-61010000D03*
%TO.P,R9,2*%
%TO.N,Net-(U6-~{INT})*%
X192000000Y-59990000D03*
%TD*%
D21*
%TO.P,R8,1*%
%TO.N,+3V3*%
X191990000Y-54500000D03*
%TO.P,R8,2*%
%TO.N,/SCL*%
X193010000Y-54500000D03*
%TD*%
D22*
%TO.P,U6,1,NC*%
%TO.N,unconnected-(U6-NC-Pad1)*%
X192300000Y-56110000D03*
%TO.P,U6,2,SCL*%
%TO.N,/SCL*%
X193100000Y-56110000D03*
%TO.P,U6,3,SDA*%
%TO.N,/SDA*%
X193900000Y-56110000D03*
%TO.P,U6,4,PGND*%
%TO.N,GND*%
X194700000Y-56110000D03*
%TO.P,U6,5,NC*%
%TO.N,unconnected-(U6-NC-Pad5)*%
X195500000Y-56110000D03*
%TO.P,U6,6,NC*%
%TO.N,unconnected-(U6-NC-Pad6)*%
X196300000Y-56110000D03*
%TO.P,U6,7,NC*%
%TO.N,unconnected-(U6-NC-Pad7)*%
X197100000Y-56110000D03*
D23*
%TO.P,U6,8,NC*%
%TO.N,unconnected-(U6-NC-Pad8)*%
X197100000Y-58500000D03*
%TO.P,U6,9,VLED+*%
%TO.N,/VLED*%
X196300000Y-58500000D03*
%TO.P,U6,10,VLED+*%
X195500000Y-58500000D03*
%TO.P,U6,11,VDD*%
%TO.N,+1.8V*%
X194700000Y-58500000D03*
%TO.P,U6,12,GND*%
%TO.N,GND*%
X193900000Y-58500000D03*
%TO.P,U6,13,~{INT}*%
%TO.N,Net-(U6-~{INT})*%
X193100000Y-58500000D03*
%TO.P,U6,14,NC*%
%TO.N,unconnected-(U6-NC-Pad14)*%
X192300000Y-58500000D03*
%TD*%
D18*
%TO.P,C15,1*%
%TO.N,+1.8V*%
X194727770Y-60040000D03*
%TO.P,C15,2*%
%TO.N,GND*%
X193767770Y-60040000D03*
%TD*%
D24*
%TO.N,+3V3*%
X204000000Y-51000000D03*
X177500000Y-53000000D03*
X205500000Y-45000000D03*
X201000000Y-61975000D03*
X181500000Y-57000000D03*
X180700000Y-63800000D03*
X204500000Y-60500000D03*
%TO.N,/SCL*%
X198500000Y-59500000D03*
X199000000Y-52475000D03*
%TO.N,+1.8V*%
X205500000Y-63000000D03*
%TO.N,/DN*%
X194500000Y-52000000D03*
X174500000Y-49500000D03*
%TO.N,/DP*%
X195500000Y-52000000D03*
X174750000Y-50250000D03*
%TO.N,+BATT*%
X179972817Y-65027183D03*
X177500000Y-46000000D03*
X180500000Y-43000000D03*
X176500000Y-53000000D03*
%TO.N,/SDA*%
X199200000Y-59500000D03*
X200000000Y-52500000D03*
%TO.N,/VLED*%
X208410000Y-60500000D03*
%TO.N,/Boot*%
X186500000Y-40000000D03*
X186000000Y-37000000D03*
%TO.N,GND*%
X199000000Y-55500000D03*
X192800000Y-60600000D03*
X199000000Y-56000000D03*
X198500000Y-56000000D03*
X198500000Y-55500000D03*
X189600000Y-55200000D03*
X192800000Y-61100000D03*
%TD*%
D25*
%TO.N,/Boot*%
X186000000Y-37000000D02*
X186000000Y-39500000D01*
X186000000Y-39500000D02*
X186500000Y-40000000D01*
%TO.N,+3V3*%
X193460000Y-63500000D02*
X192000000Y-62040000D01*
X201000000Y-55500000D02*
X200000000Y-54500000D01*
X180700000Y-65800000D02*
X180000000Y-66500000D01*
X191250000Y-54900000D02*
X191650000Y-54500000D01*
X180000000Y-66500000D02*
X175000000Y-66500000D01*
X180700000Y-63800000D02*
X180700000Y-65800000D01*
X175000000Y-66500000D02*
X173000000Y-68500000D01*
X191250000Y-60260000D02*
X192000000Y-61010000D01*
X203500000Y-61500000D02*
X204500000Y-60500000D01*
X193460000Y-63500000D02*
X193460000Y-64500000D01*
X192000000Y-62040000D02*
X192000000Y-61010000D01*
X191250000Y-54900000D02*
X191250000Y-60260000D01*
X201000000Y-61975000D02*
X201000000Y-55500000D01*
X184500000Y-72000000D02*
X185310000Y-71190000D01*
X205500000Y-45850000D02*
X204000000Y-47350000D01*
X180700000Y-63800000D02*
X180500000Y-63600000D01*
X173000000Y-71000000D02*
X174000000Y-72000000D01*
X201000000Y-61975000D02*
X201475000Y-61500000D01*
X191650000Y-54500000D02*
X191990000Y-54500000D01*
X205500000Y-45000000D02*
X205500000Y-45850000D01*
X200000000Y-54500000D02*
X197000000Y-54500000D01*
X185310000Y-71190000D02*
X185310000Y-69500000D01*
X180500000Y-56000000D02*
X177500000Y-53000000D01*
X173000000Y-68500000D02*
X173000000Y-71000000D01*
X180500000Y-56000000D02*
X181500000Y-57000000D01*
X174000000Y-72000000D02*
X184500000Y-72000000D01*
X201475000Y-61500000D02*
X203500000Y-61500000D01*
X204000000Y-47350000D02*
X204000000Y-51000000D01*
X180500000Y-63600000D02*
X180500000Y-56000000D01*
%TO.N,/SCL*%
X198500000Y-59500000D02*
X198500000Y-58842702D01*
X199000000Y-52475000D02*
X198925000Y-52550000D01*
X196363604Y-53500000D02*
X194010000Y-53500000D01*
X193500000Y-57500000D02*
X193100000Y-57100000D01*
X198500000Y-58842702D02*
X197157298Y-57500000D01*
X193100000Y-54590000D02*
X193010000Y-54500000D01*
X197313604Y-52550000D02*
X196363604Y-53500000D01*
X193100000Y-56110000D02*
X193100000Y-54590000D01*
X198925000Y-52550000D02*
X197313604Y-52550000D01*
X182230000Y-67500000D02*
X193000000Y-67500000D01*
X180230000Y-69500000D02*
X182230000Y-67500000D01*
X193100000Y-57100000D02*
X193100000Y-56110000D01*
X193000000Y-67500000D02*
X196000000Y-64500000D01*
X197157298Y-57500000D02*
X193500000Y-57500000D01*
X194010000Y-53500000D02*
X193010000Y-54500000D01*
%TO.N,Net-(U6-~{INT})*%
X193100000Y-58890000D02*
X193100000Y-58500000D01*
X192000000Y-59990000D02*
X193100000Y-58890000D01*
%TO.N,+1.8V*%
X192621701Y-67000000D02*
X194727770Y-64893931D01*
X177650000Y-67000000D02*
X192621701Y-67000000D01*
X194727770Y-64893931D02*
X194727770Y-63500000D01*
X194727770Y-63500000D02*
X194727770Y-61500000D01*
X195227770Y-63000000D02*
X205500000Y-63000000D01*
X175150000Y-69500000D02*
X177650000Y-67000000D01*
X194727770Y-63500000D02*
X195227770Y-63000000D01*
D26*
%TO.N,/DN*%
X187000000Y-52000000D02*
X194500000Y-52000000D01*
X184000000Y-49500000D02*
X186500000Y-52000000D01*
X186500000Y-52000000D02*
X187000000Y-52000000D01*
X174500000Y-49500000D02*
X184000000Y-49500000D01*
%TO.N,/DP*%
X186250000Y-52500000D02*
X195000000Y-52500000D01*
X175000000Y-50000000D02*
X183750000Y-50000000D01*
X195000000Y-52500000D02*
X195500000Y-52000000D01*
X183750000Y-50000000D02*
X186250000Y-52500000D01*
X174750000Y-50250000D02*
X175000000Y-50000000D01*
D25*
%TO.N,+BATT*%
X180500000Y-43000000D02*
X177500000Y-46000000D01*
X179500000Y-64554366D02*
X179500000Y-56000000D01*
X179972817Y-65027183D02*
X179500000Y-64554366D01*
X179500000Y-56000000D02*
X176500000Y-53000000D01*
%TO.N,/SDA*%
X193900000Y-56530000D02*
X193900000Y-56110000D01*
X199200000Y-59500000D02*
X199200000Y-58600000D01*
X182770000Y-69500000D02*
X184270000Y-68000000D01*
X184270000Y-68000000D02*
X195040000Y-68000000D01*
X197500000Y-53000000D02*
X196000000Y-54500000D01*
X199200000Y-58600000D02*
X197600000Y-57000000D01*
X200000000Y-52500000D02*
X199500000Y-53000000D01*
X199500000Y-53000000D02*
X197500000Y-53000000D01*
X193900000Y-55820001D02*
X193900000Y-56110000D01*
X194500000Y-54500000D02*
X193900000Y-55100000D01*
X195040000Y-68000000D02*
X198540000Y-64500000D01*
X197600000Y-57000000D02*
X194370000Y-57000000D01*
X193900000Y-55100000D02*
X193900000Y-56110000D01*
X195980000Y-54500000D02*
X194500000Y-54500000D01*
X196000000Y-54500000D02*
X195980000Y-54500000D01*
X194370000Y-57000000D02*
X193900000Y-56530000D01*
%TO.N,/VLED*%
X206000000Y-60500000D02*
X204000000Y-62500000D01*
X196457771Y-62500000D02*
X195840000Y-61882229D01*
X204000000Y-62500000D02*
X196457771Y-62500000D01*
X195840000Y-61882229D02*
X195840000Y-61572230D01*
X208410000Y-60500000D02*
X206000000Y-60500000D01*
%TD*%
%TA.AperFunction,Conductor*%
%TO.N,GND*%
G36*
X222500795Y-30000013D02*
G01*
X222658013Y-30002583D01*
X222669309Y-30003416D01*
X222981820Y-30044559D01*
X222994506Y-30047082D01*
X223298204Y-30128458D01*
X223310448Y-30132615D01*
X223600916Y-30252931D01*
X223612519Y-30258652D01*
X223884806Y-30415857D01*
X223895561Y-30423044D01*
X224144979Y-30614429D01*
X224154716Y-30622967D01*
X224377032Y-30845283D01*
X224385570Y-30855020D01*
X224576951Y-31104432D01*
X224584146Y-31115199D01*
X224741344Y-31387475D01*
X224747071Y-31399089D01*
X224867381Y-31689542D01*
X224871544Y-31701805D01*
X224952915Y-32005486D01*
X224955441Y-32018187D01*
X224996582Y-32330686D01*
X224997416Y-32341989D01*
X224999987Y-32499203D01*
X225000000Y-32500822D01*
X225000000Y-70049177D01*
X224999987Y-70050796D01*
X224997416Y-70208010D01*
X224996582Y-70219313D01*
X224955441Y-70531812D01*
X224952915Y-70544513D01*
X224871544Y-70848194D01*
X224867381Y-70860457D01*
X224747071Y-71150910D01*
X224741344Y-71162524D01*
X224584146Y-71434800D01*
X224576951Y-71445567D01*
X224385570Y-71694979D01*
X224377032Y-71704716D01*
X224154716Y-71927032D01*
X224144979Y-71935570D01*
X223895567Y-72126951D01*
X223884800Y-72134146D01*
X223612524Y-72291344D01*
X223600910Y-72297071D01*
X223310457Y-72417381D01*
X223298194Y-72421544D01*
X222994513Y-72502915D01*
X222981812Y-72505441D01*
X222669313Y-72546582D01*
X222658010Y-72547416D01*
X222503599Y-72549941D01*
X222500794Y-72549987D01*
X222499177Y-72550000D01*
X184650172Y-72550000D01*
X184591981Y-72531093D01*
X184556017Y-72481593D01*
X184556017Y-72420407D01*
X184591981Y-72370907D01*
X184624548Y-72355374D01*
X184644934Y-72349911D01*
X184644933Y-72349911D01*
X184644938Y-72349910D01*
X184730562Y-72300475D01*
X184800475Y-72230562D01*
X185610474Y-71420563D01*
X185610475Y-71420562D01*
X185659910Y-71334938D01*
X185685500Y-71239435D01*
X185685500Y-70602543D01*
X185704407Y-70544352D01*
X185748738Y-70510228D01*
X185790130Y-70494193D01*
X185802637Y-70489348D01*
X185976041Y-70381981D01*
X186126764Y-70244579D01*
X186249673Y-70081821D01*
X186340582Y-69899250D01*
X186396397Y-69703083D01*
X186415215Y-69500000D01*
X186396397Y-69296917D01*
X186340582Y-69100750D01*
X186249673Y-68918179D01*
X186126764Y-68755421D01*
X185976041Y-68618019D01*
X185880189Y-68558670D01*
X185840670Y-68511963D01*
X185836151Y-68450944D01*
X185868361Y-68398924D01*
X185924997Y-68375770D01*
X185932308Y-68375500D01*
X186757661Y-68375500D01*
X186815852Y-68394407D01*
X186851816Y-68443907D01*
X186851816Y-68505093D01*
X186839976Y-68529502D01*
X186811603Y-68571963D01*
X186800000Y-68630299D01*
X186800000Y-69399999D01*
X186800001Y-69400000D01*
X187359157Y-69400000D01*
X187350000Y-69434174D01*
X187350000Y-69565826D01*
X187359157Y-69600000D01*
X186800001Y-69600000D01*
X186800000Y-69600001D01*
X186800000Y-70369700D01*
X186811603Y-70428036D01*
X186855806Y-70494189D01*
X186855810Y-70494193D01*
X186921963Y-70538396D01*
X186980299Y-70549999D01*
X186980303Y-70550000D01*
X187749999Y-70550000D01*
X187750000Y-70549999D01*
X187750000Y-69990842D01*
X187784174Y-70000000D01*
X187915826Y-70000000D01*
X187950000Y-69990842D01*
X187950000Y-70549999D01*
X187950001Y-70550000D01*
X188719697Y-70550000D01*
X188719700Y-70549999D01*
X188778036Y-70538396D01*
X188844189Y-70494193D01*
X188844193Y-70494189D01*
X188888396Y-70428036D01*
X188899999Y-70369700D01*
X188900000Y-70369697D01*
X188900000Y-70068995D01*
X190899500Y-70068995D01*
X190926420Y-70204327D01*
X190926420Y-70204329D01*
X190979222Y-70331806D01*
X190979228Y-70331817D01*
X191055885Y-70446541D01*
X191153458Y-70544114D01*
X191268182Y-70620771D01*
X191268193Y-70620777D01*
X191315283Y-70640282D01*
X191395672Y-70673580D01*
X191531007Y-70700500D01*
X191531008Y-70700500D01*
X191668992Y-70700500D01*
X191668993Y-70700500D01*
X191804328Y-70673580D01*
X191931811Y-70620775D01*
X192046542Y-70544114D01*
X192144114Y-70446542D01*
X192220775Y-70331811D01*
X192273580Y-70204328D01*
X192300500Y-70068995D01*
X197699500Y-70068995D01*
X197726420Y-70204327D01*
X197726420Y-70204329D01*
X197779222Y-70331806D01*
X197779228Y-70331817D01*
X197855885Y-70446541D01*
X197953458Y-70544114D01*
X198068182Y-70620771D01*
X198068193Y-70620777D01*
X198115283Y-70640282D01*
X198195672Y-70673580D01*
X198331007Y-70700500D01*
X198331008Y-70700500D01*
X198468992Y-70700500D01*
X198468993Y-70700500D01*
X198604328Y-70673580D01*
X198731811Y-70620775D01*
X198846542Y-70544114D01*
X198944114Y-70446542D01*
X199020775Y-70331811D01*
X199073580Y-70204328D01*
X199100500Y-70068993D01*
X199100500Y-69931007D01*
X199073580Y-69795672D01*
X199020775Y-69668189D01*
X199020774Y-69668187D01*
X199020771Y-69668182D01*
X198975213Y-69600000D01*
X206899767Y-69600000D01*
X206910190Y-69705831D01*
X206910191Y-69705836D01*
X206970232Y-69903762D01*
X206970234Y-69903767D01*
X207067724Y-70086160D01*
X207067731Y-70086170D01*
X207198940Y-70246050D01*
X207198949Y-70246059D01*
X207358829Y-70377268D01*
X207358839Y-70377275D01*
X207541232Y-70474765D01*
X207541237Y-70474767D01*
X207739166Y-70534808D01*
X207844998Y-70545231D01*
X207845000Y-70545230D01*
X207845000Y-69990842D01*
X207879174Y-70000000D01*
X208010826Y-70000000D01*
X208045000Y-69990842D01*
X208045000Y-70545230D01*
X208045001Y-70545231D01*
X208150833Y-70534808D01*
X208348762Y-70474767D01*
X208348767Y-70474765D01*
X208531160Y-70377275D01*
X208531170Y-70377268D01*
X208691050Y-70246059D01*
X208691059Y-70246050D01*
X208822268Y-70086170D01*
X208822275Y-70086160D01*
X208919765Y-69903767D01*
X208919767Y-69903762D01*
X208979808Y-69705836D01*
X208979809Y-69705831D01*
X208990232Y-69600000D01*
X208435843Y-69600000D01*
X208445000Y-69565826D01*
X208445000Y-69500000D01*
X209379785Y-69500000D01*
X209398603Y-69703083D01*
X209454418Y-69899250D01*
X209545327Y-70081821D01*
X209668236Y-70244579D01*
X209818959Y-70381981D01*
X209992363Y-70489348D01*
X210182544Y-70563024D01*
X210383024Y-70600500D01*
X210586976Y-70600500D01*
X210787456Y-70563024D01*
X210977637Y-70489348D01*
X211151041Y-70381981D01*
X211159059Y-70374672D01*
X211924500Y-70374672D01*
X211924501Y-70374684D01*
X211939033Y-70447736D01*
X211939035Y-70447742D01*
X211994397Y-70530599D01*
X211994400Y-70530602D01*
X212023432Y-70550000D01*
X212077260Y-70585966D01*
X212132808Y-70597015D01*
X212150315Y-70600498D01*
X212150320Y-70600498D01*
X212150326Y-70600500D01*
X212150327Y-70600500D01*
X213899673Y-70600500D01*
X213899674Y-70600500D01*
X213972740Y-70585966D01*
X214055601Y-70530601D01*
X214110966Y-70447740D01*
X214125500Y-70374674D01*
X214125500Y-68625326D01*
X214124982Y-68622724D01*
X214124697Y-68621289D01*
X219149500Y-68621289D01*
X219181161Y-68861781D01*
X219181161Y-68861786D01*
X219243944Y-69096092D01*
X219243948Y-69096105D01*
X219336772Y-69320204D01*
X219336774Y-69320208D01*
X219336776Y-69320212D01*
X219440577Y-69500000D01*
X219458066Y-69530292D01*
X219605729Y-69722731D01*
X219605731Y-69722733D01*
X219605735Y-69722738D01*
X219777262Y-69894265D01*
X219777266Y-69894268D01*
X219777268Y-69894270D01*
X219870651Y-69965925D01*
X219969711Y-70041936D01*
X220179788Y-70163224D01*
X220403900Y-70256054D01*
X220638211Y-70318838D01*
X220878712Y-70350500D01*
X220878713Y-70350500D01*
X221121287Y-70350500D01*
X221121288Y-70350500D01*
X221361789Y-70318838D01*
X221596100Y-70256054D01*
X221820212Y-70163224D01*
X222030289Y-70041936D01*
X222222738Y-69894265D01*
X222394265Y-69722738D01*
X222541936Y-69530289D01*
X222663224Y-69320212D01*
X222756054Y-69096100D01*
X222818838Y-68861789D01*
X222850500Y-68621288D01*
X222850500Y-68378712D01*
X222818838Y-68138211D01*
X222756054Y-67903900D01*
X222663224Y-67679788D01*
X222541936Y-67469711D01*
X222541933Y-67469707D01*
X222394270Y-67277268D01*
X222394268Y-67277266D01*
X222394265Y-67277262D01*
X222222738Y-67105735D01*
X222222733Y-67105731D01*
X222222731Y-67105729D01*
X222030292Y-66958066D01*
X221937506Y-66904496D01*
X221820212Y-66836776D01*
X221820208Y-66836774D01*
X221820204Y-66836772D01*
X221596105Y-66743948D01*
X221596104Y-66743947D01*
X221596100Y-66743946D01*
X221361789Y-66681162D01*
X221361786Y-66681161D01*
X221361784Y-66681161D01*
X221121289Y-66649500D01*
X221121288Y-66649500D01*
X220878712Y-66649500D01*
X220878710Y-66649500D01*
X220638218Y-66681161D01*
X220638213Y-66681161D01*
X220403907Y-66743944D01*
X220403894Y-66743948D01*
X220179795Y-66836772D01*
X219969707Y-66958066D01*
X219777268Y-67105729D01*
X219605729Y-67277268D01*
X219458066Y-67469707D01*
X219336772Y-67679795D01*
X219243948Y-67903894D01*
X219243944Y-67903907D01*
X219181161Y-68138213D01*
X219181161Y-68138218D01*
X219149500Y-68378710D01*
X219149500Y-68621289D01*
X214124697Y-68621289D01*
X214112241Y-68558672D01*
X214110966Y-68552260D01*
X214055601Y-68469399D01*
X214055599Y-68469397D01*
X213972742Y-68414035D01*
X213972740Y-68414034D01*
X213972737Y-68414033D01*
X213972736Y-68414033D01*
X213899684Y-68399501D01*
X213899674Y-68399500D01*
X212150326Y-68399500D01*
X212150325Y-68399500D01*
X212150315Y-68399501D01*
X212077263Y-68414033D01*
X212077257Y-68414035D01*
X211994400Y-68469397D01*
X211994397Y-68469400D01*
X211939035Y-68552257D01*
X211939033Y-68552263D01*
X211924501Y-68625315D01*
X211924500Y-68625327D01*
X211924500Y-70374672D01*
X211159059Y-70374672D01*
X211301764Y-70244579D01*
X211424673Y-70081821D01*
X211515582Y-69899250D01*
X211571397Y-69703083D01*
X211590215Y-69500000D01*
X211571397Y-69296917D01*
X211515582Y-69100750D01*
X211424673Y-68918179D01*
X211301764Y-68755421D01*
X211151041Y-68618019D01*
X210977637Y-68510652D01*
X210787456Y-68436976D01*
X210787455Y-68436975D01*
X210787453Y-68436975D01*
X210586976Y-68399500D01*
X210383024Y-68399500D01*
X210182546Y-68436975D01*
X210112632Y-68464059D01*
X209992363Y-68510652D01*
X209818959Y-68618019D01*
X209668237Y-68755420D01*
X209545328Y-68918177D01*
X209545323Y-68918186D01*
X209454419Y-69100747D01*
X209454418Y-69100750D01*
X209398603Y-69296917D01*
X209379785Y-69500000D01*
X208445000Y-69500000D01*
X208445000Y-69434174D01*
X208435843Y-69400000D01*
X208990232Y-69400000D01*
X208990232Y-69399999D01*
X208979809Y-69294168D01*
X208979808Y-69294163D01*
X208919767Y-69096237D01*
X208919765Y-69096232D01*
X208822275Y-68913839D01*
X208822268Y-68913829D01*
X208691059Y-68753949D01*
X208691050Y-68753940D01*
X208531170Y-68622731D01*
X208531160Y-68622724D01*
X208348767Y-68525234D01*
X208348762Y-68525232D01*
X208150836Y-68465191D01*
X208150831Y-68465190D01*
X208045000Y-68454767D01*
X208045000Y-69009157D01*
X208010826Y-69000000D01*
X207879174Y-69000000D01*
X207845000Y-69009157D01*
X207845000Y-68454767D01*
X207844999Y-68454767D01*
X207739168Y-68465190D01*
X207739163Y-68465191D01*
X207541237Y-68525232D01*
X207541232Y-68525234D01*
X207358839Y-68622724D01*
X207358829Y-68622731D01*
X207198949Y-68753940D01*
X207198940Y-68753949D01*
X207067731Y-68913829D01*
X207067724Y-68913839D01*
X206970234Y-69096232D01*
X206970232Y-69096237D01*
X206910191Y-69294163D01*
X206910190Y-69294168D01*
X206899767Y-69399999D01*
X206899768Y-69400000D01*
X207454157Y-69400000D01*
X207445000Y-69434174D01*
X207445000Y-69565826D01*
X207454157Y-69600000D01*
X206899767Y-69600000D01*
X198975213Y-69600000D01*
X198944114Y-69553458D01*
X198846541Y-69455885D01*
X198731817Y-69379228D01*
X198731806Y-69379222D01*
X198604328Y-69326420D01*
X198468995Y-69299500D01*
X198468993Y-69299500D01*
X198331007Y-69299500D01*
X198331004Y-69299500D01*
X198195672Y-69326420D01*
X198195670Y-69326420D01*
X198068193Y-69379222D01*
X198068182Y-69379228D01*
X197953458Y-69455885D01*
X197855885Y-69553458D01*
X197779228Y-69668182D01*
X197779222Y-69668193D01*
X197726420Y-69795670D01*
X197726420Y-69795672D01*
X197699500Y-69931004D01*
X197699500Y-70068995D01*
X192300500Y-70068995D01*
X192300500Y-70068993D01*
X192300500Y-69931007D01*
X192273580Y-69795672D01*
X192220775Y-69668189D01*
X192220774Y-69668187D01*
X192220771Y-69668182D01*
X192144114Y-69553458D01*
X192046541Y-69455885D01*
X191931817Y-69379228D01*
X191931806Y-69379222D01*
X191804328Y-69326420D01*
X191668995Y-69299500D01*
X191668993Y-69299500D01*
X191531007Y-69299500D01*
X191531004Y-69299500D01*
X191395672Y-69326420D01*
X191395670Y-69326420D01*
X191268193Y-69379222D01*
X191268182Y-69379228D01*
X191153458Y-69455885D01*
X191055885Y-69553458D01*
X190979228Y-69668182D01*
X190979222Y-69668193D01*
X190926420Y-69795670D01*
X190926420Y-69795672D01*
X190899500Y-69931004D01*
X190899500Y-70068995D01*
X188900000Y-70068995D01*
X188900000Y-69600001D01*
X188899999Y-69600000D01*
X188340843Y-69600000D01*
X188350000Y-69565826D01*
X188350000Y-69434174D01*
X188340843Y-69400000D01*
X188899999Y-69400000D01*
X188900000Y-69399999D01*
X188900000Y-68630302D01*
X188899999Y-68630299D01*
X188888396Y-68571963D01*
X188860024Y-68529502D01*
X188843415Y-68470614D01*
X188864592Y-68413210D01*
X188915466Y-68379217D01*
X188942339Y-68375500D01*
X195089436Y-68375500D01*
X195137186Y-68362705D01*
X195137187Y-68362705D01*
X195184934Y-68349911D01*
X195184933Y-68349911D01*
X195184938Y-68349910D01*
X195270562Y-68300475D01*
X195340475Y-68230562D01*
X198026491Y-65544544D01*
X198081006Y-65516769D01*
X198132255Y-65522234D01*
X198237544Y-65563024D01*
X198438024Y-65600500D01*
X198641976Y-65600500D01*
X198842456Y-65563024D01*
X199032637Y-65489348D01*
X199206041Y-65381981D01*
X199356764Y-65244579D01*
X199479673Y-65081821D01*
X199570582Y-64899250D01*
X199626397Y-64703083D01*
X199645215Y-64500000D01*
X199626397Y-64296917D01*
X199570582Y-64100750D01*
X199479673Y-63918179D01*
X199356764Y-63755421D01*
X199206041Y-63618019D01*
X199110189Y-63558670D01*
X199070670Y-63511963D01*
X199066151Y-63450944D01*
X199098361Y-63398924D01*
X199154997Y-63375770D01*
X199162308Y-63375500D01*
X205221949Y-63375500D01*
X205275468Y-63391214D01*
X205310931Y-63414004D01*
X205435228Y-63450500D01*
X205435230Y-63450500D01*
X205564770Y-63450500D01*
X205564772Y-63450500D01*
X205689069Y-63414004D01*
X205798049Y-63343967D01*
X205882882Y-63246063D01*
X205936697Y-63128226D01*
X205955133Y-63000000D01*
X205936697Y-62871774D01*
X205882882Y-62753937D01*
X205798049Y-62656033D01*
X205798048Y-62656032D01*
X205798047Y-62656031D01*
X205689073Y-62585998D01*
X205689070Y-62585996D01*
X205689069Y-62585996D01*
X205689066Y-62585995D01*
X205564774Y-62549500D01*
X205564772Y-62549500D01*
X205435228Y-62549500D01*
X205435225Y-62549500D01*
X205310934Y-62585995D01*
X205310931Y-62585996D01*
X205275468Y-62608785D01*
X205221949Y-62624500D01*
X204645545Y-62624500D01*
X204587354Y-62605593D01*
X204551390Y-62556093D01*
X204551390Y-62494907D01*
X204575541Y-62455496D01*
X206126541Y-60904496D01*
X206181058Y-60876719D01*
X206196545Y-60875500D01*
X208131949Y-60875500D01*
X208185468Y-60891214D01*
X208220931Y-60914004D01*
X208345228Y-60950500D01*
X208345230Y-60950500D01*
X208474770Y-60950500D01*
X208474772Y-60950500D01*
X208599069Y-60914004D01*
X208708049Y-60843967D01*
X208792882Y-60746063D01*
X208846697Y-60628226D01*
X208862251Y-60520048D01*
X208865133Y-60500002D01*
X208865133Y-60499997D01*
X208846697Y-60371774D01*
X208837712Y-60352100D01*
X208792882Y-60253937D01*
X208708049Y-60156033D01*
X208708048Y-60156032D01*
X208708047Y-60156031D01*
X208599073Y-60085998D01*
X208599070Y-60085996D01*
X208599069Y-60085996D01*
X208599066Y-60085995D01*
X208474774Y-60049500D01*
X208474772Y-60049500D01*
X208345228Y-60049500D01*
X208345225Y-60049500D01*
X208220934Y-60085995D01*
X208220931Y-60085996D01*
X208185468Y-60108785D01*
X208131949Y-60124500D01*
X206049436Y-60124500D01*
X205950564Y-60124500D01*
X205902813Y-60137295D01*
X205902812Y-60137294D01*
X205855062Y-60150089D01*
X205855058Y-60150091D01*
X205769439Y-60199524D01*
X205769436Y-60199525D01*
X205769437Y-60199526D01*
X203873459Y-62095504D01*
X203818942Y-62123281D01*
X203803455Y-62124500D01*
X201620544Y-62124500D01*
X201562353Y-62105593D01*
X201526389Y-62056093D01*
X201526389Y-61994907D01*
X201550539Y-61955497D01*
X201601541Y-61904495D01*
X201656057Y-61876719D01*
X201671544Y-61875500D01*
X203549436Y-61875500D01*
X203597186Y-61862705D01*
X203597187Y-61862705D01*
X203644934Y-61849911D01*
X203644933Y-61849911D01*
X203644938Y-61849910D01*
X203730562Y-61800475D01*
X203771683Y-61759354D01*
X203800476Y-61730562D01*
X204569222Y-60961814D01*
X204611333Y-60936828D01*
X204689069Y-60914004D01*
X204798049Y-60843967D01*
X204882882Y-60746063D01*
X204936697Y-60628226D01*
X204952251Y-60520048D01*
X204955133Y-60500002D01*
X204955133Y-60499997D01*
X204936697Y-60371774D01*
X204927712Y-60352100D01*
X204882882Y-60253937D01*
X204798049Y-60156033D01*
X204798048Y-60156032D01*
X204798047Y-60156031D01*
X204689073Y-60085998D01*
X204689070Y-60085996D01*
X204689069Y-60085996D01*
X204689066Y-60085995D01*
X204564774Y-60049500D01*
X204564772Y-60049500D01*
X204435228Y-60049500D01*
X204435225Y-60049500D01*
X204310933Y-60085995D01*
X204310926Y-60085998D01*
X204201952Y-60156031D01*
X204117117Y-60253938D01*
X204063304Y-60371770D01*
X204063303Y-60371771D01*
X204062302Y-60378737D01*
X204035303Y-60433643D01*
X204034314Y-60434646D01*
X203373459Y-61095503D01*
X203318942Y-61123281D01*
X203303455Y-61124500D01*
X201474500Y-61124500D01*
X201416309Y-61105593D01*
X201380345Y-61056093D01*
X201375500Y-61025500D01*
X201375500Y-55450565D01*
X201375500Y-55450564D01*
X201349911Y-55355063D01*
X201349909Y-55355060D01*
X201349909Y-55355058D01*
X201300478Y-55269442D01*
X201300477Y-55269441D01*
X201300476Y-55269440D01*
X201300475Y-55269438D01*
X200230563Y-54199526D01*
X200230563Y-54199525D01*
X200144941Y-54150091D01*
X200144934Y-54150088D01*
X200097185Y-54137294D01*
X200097184Y-54137294D01*
X200049438Y-54124500D01*
X200049436Y-54124500D01*
X200049435Y-54124500D01*
X197530169Y-54124500D01*
X197471978Y-54105593D01*
X197459531Y-54093043D01*
X197458876Y-54093699D01*
X197453076Y-54087899D01*
X197453076Y-54087898D01*
X197362102Y-53996924D01*
X197266376Y-53950126D01*
X197222403Y-53907583D01*
X197211834Y-53847317D01*
X197238707Y-53792349D01*
X197239855Y-53791182D01*
X197626542Y-53404496D01*
X197681058Y-53376719D01*
X197696545Y-53375500D01*
X199549436Y-53375500D01*
X199597186Y-53362705D01*
X199597187Y-53362705D01*
X199644934Y-53349911D01*
X199644933Y-53349911D01*
X199644938Y-53349910D01*
X199730562Y-53300475D01*
X199800475Y-53230562D01*
X199800474Y-53230562D01*
X200069223Y-52961813D01*
X200111336Y-52936827D01*
X200189069Y-52914004D01*
X200298049Y-52843967D01*
X200382882Y-52746063D01*
X200436697Y-52628226D01*
X200455133Y-52500000D01*
X200448163Y-52451524D01*
X200436697Y-52371774D01*
X200423998Y-52343967D01*
X200382882Y-52253937D01*
X200298049Y-52156033D01*
X200298048Y-52156032D01*
X200298047Y-52156031D01*
X200189073Y-52085998D01*
X200189070Y-52085996D01*
X200189069Y-52085996D01*
X200189066Y-52085995D01*
X200064774Y-52049500D01*
X200064772Y-52049500D01*
X199935228Y-52049500D01*
X199935225Y-52049500D01*
X199810933Y-52085995D01*
X199810926Y-52085998D01*
X199701952Y-52156031D01*
X199617117Y-52253937D01*
X199595761Y-52300700D01*
X199554388Y-52345777D01*
X199494421Y-52357926D01*
X199438765Y-52332508D01*
X199415655Y-52300698D01*
X199382883Y-52228939D01*
X199382882Y-52228938D01*
X199382882Y-52228937D01*
X199298049Y-52131033D01*
X199298048Y-52131032D01*
X199298047Y-52131031D01*
X199189073Y-52060998D01*
X199189070Y-52060996D01*
X199189069Y-52060996D01*
X199176972Y-52057444D01*
X199064774Y-52024500D01*
X199064772Y-52024500D01*
X198935228Y-52024500D01*
X198935225Y-52024500D01*
X198810933Y-52060995D01*
X198810926Y-52060998D01*
X198701951Y-52131032D01*
X198701950Y-52131033D01*
X198693895Y-52140330D01*
X198641500Y-52171927D01*
X198619075Y-52174500D01*
X197363040Y-52174500D01*
X197264168Y-52174500D01*
X197216417Y-52187295D01*
X197216416Y-52187294D01*
X197168666Y-52200089D01*
X197168664Y-52200090D01*
X197153952Y-52208585D01*
X197153949Y-52208587D01*
X197083041Y-52249525D01*
X196237063Y-53095504D01*
X196182546Y-53123281D01*
X196167059Y-53124500D01*
X194059436Y-53124500D01*
X193960564Y-53124500D01*
X193902113Y-53140161D01*
X193865058Y-53150090D01*
X193779442Y-53199521D01*
X193078459Y-53900504D01*
X193023942Y-53928281D01*
X193008455Y-53929500D01*
X192838418Y-53929500D01*
X192770799Y-53939352D01*
X192763482Y-53940418D01*
X192647899Y-53996923D01*
X192647898Y-53996923D01*
X192647898Y-53996924D01*
X192570001Y-54074820D01*
X192515487Y-54102596D01*
X192455055Y-54093025D01*
X192429999Y-54074821D01*
X192352102Y-53996924D01*
X192236518Y-53940418D01*
X192161582Y-53929500D01*
X191818418Y-53929500D01*
X191750799Y-53939352D01*
X191743482Y-53940418D01*
X191627899Y-53996923D01*
X191536922Y-54087900D01*
X191520362Y-54121773D01*
X191480923Y-54164026D01*
X191419436Y-54199525D01*
X191419437Y-54199526D01*
X191019438Y-54599525D01*
X191019437Y-54599524D01*
X190949524Y-54669438D01*
X190900089Y-54755061D01*
X190900089Y-54755062D01*
X190900090Y-54755063D01*
X190874694Y-54849843D01*
X190874677Y-54849907D01*
X190874500Y-54850563D01*
X190874500Y-54850565D01*
X190874500Y-60309435D01*
X190897067Y-60393657D01*
X190900091Y-60404942D01*
X190948528Y-60488836D01*
X190948529Y-60488836D01*
X190948530Y-60488838D01*
X190949526Y-60490563D01*
X191400505Y-60941542D01*
X191428281Y-60996057D01*
X191429500Y-61011544D01*
X191429500Y-61181582D01*
X191440418Y-61256518D01*
X191496924Y-61372102D01*
X191587898Y-61463076D01*
X191587899Y-61463076D01*
X191593699Y-61468876D01*
X191591503Y-61471071D01*
X191619390Y-61508772D01*
X191624500Y-61540168D01*
X191624500Y-62089435D01*
X191632220Y-62118247D01*
X191632219Y-62118247D01*
X191650089Y-62184936D01*
X191650090Y-62184938D01*
X191698876Y-62269438D01*
X191698884Y-62269452D01*
X191698883Y-62269452D01*
X191699523Y-62270558D01*
X191699523Y-62270559D01*
X191699524Y-62270560D01*
X191699526Y-62270563D01*
X192675023Y-63246061D01*
X192861846Y-63432884D01*
X192889623Y-63487401D01*
X192880052Y-63547833D01*
X192843960Y-63587059D01*
X192793961Y-63618017D01*
X192643237Y-63755420D01*
X192520328Y-63918177D01*
X192520323Y-63918186D01*
X192429419Y-64100747D01*
X192429418Y-64100750D01*
X192373603Y-64296917D01*
X192354785Y-64500000D01*
X192373603Y-64703083D01*
X192429418Y-64899250D01*
X192520327Y-65081821D01*
X192643236Y-65244579D01*
X192793959Y-65381981D01*
X192967363Y-65489348D01*
X193157544Y-65563024D01*
X193284734Y-65586799D01*
X193338459Y-65616076D01*
X193364715Y-65671342D01*
X193353472Y-65731485D01*
X193336546Y-65754117D01*
X192495160Y-66595504D01*
X192440643Y-66623281D01*
X192425156Y-66624500D01*
X180645545Y-66624500D01*
X180587354Y-66605593D01*
X180551390Y-66556093D01*
X180551390Y-66494907D01*
X180575541Y-66455496D01*
X181000474Y-66030563D01*
X181049908Y-65944942D01*
X181049908Y-65944940D01*
X181049910Y-65944938D01*
X181075500Y-65849435D01*
X181075500Y-65369700D01*
X189870000Y-65369700D01*
X189881603Y-65428036D01*
X189925806Y-65494189D01*
X189925810Y-65494193D01*
X189991963Y-65538396D01*
X190050299Y-65549999D01*
X190050303Y-65550000D01*
X190819999Y-65550000D01*
X190820000Y-65549999D01*
X190820000Y-64990842D01*
X190854174Y-65000000D01*
X190985826Y-65000000D01*
X191020000Y-64990842D01*
X191020000Y-65549999D01*
X191020001Y-65550000D01*
X191789697Y-65550000D01*
X191789700Y-65549999D01*
X191848036Y-65538396D01*
X191914189Y-65494193D01*
X191914193Y-65494189D01*
X191958396Y-65428036D01*
X191969999Y-65369700D01*
X191970000Y-65369697D01*
X191970000Y-64600001D01*
X191969999Y-64600000D01*
X191410843Y-64600000D01*
X191420000Y-64565826D01*
X191420000Y-64434174D01*
X191410843Y-64400000D01*
X191969999Y-64400000D01*
X191970000Y-64399999D01*
X191970000Y-63630302D01*
X191969999Y-63630299D01*
X191958396Y-63571963D01*
X191914193Y-63505810D01*
X191914189Y-63505806D01*
X191848036Y-63461603D01*
X191789700Y-63450000D01*
X191020001Y-63450000D01*
X191020000Y-63450001D01*
X191020000Y-64009157D01*
X190985826Y-64000000D01*
X190854174Y-64000000D01*
X190820000Y-64009157D01*
X190820000Y-63450001D01*
X190819999Y-63450000D01*
X190050299Y-63450000D01*
X189991963Y-63461603D01*
X189925810Y-63505806D01*
X189925806Y-63505810D01*
X189881603Y-63571963D01*
X189870000Y-63630299D01*
X189870000Y-64399999D01*
X189870001Y-64400000D01*
X190429157Y-64400000D01*
X190420000Y-64434174D01*
X190420000Y-64565826D01*
X190429157Y-64600000D01*
X189870001Y-64600000D01*
X189870000Y-64600001D01*
X189870000Y-65369700D01*
X181075500Y-65369700D01*
X181075500Y-64083764D01*
X181084447Y-64042637D01*
X181108159Y-63990714D01*
X181136697Y-63928226D01*
X181155133Y-63800000D01*
X181148723Y-63755420D01*
X181136697Y-63671774D01*
X181082882Y-63553937D01*
X180998049Y-63456033D01*
X180939548Y-63418437D01*
X180920976Y-63406501D01*
X180882245Y-63359135D01*
X180875500Y-63323217D01*
X180875500Y-61500003D01*
X185719723Y-61500003D01*
X185738791Y-61717969D01*
X185738792Y-61717976D01*
X185738793Y-61717977D01*
X185795425Y-61929330D01*
X185854536Y-62056093D01*
X185887897Y-62127637D01*
X185987974Y-62270563D01*
X186013402Y-62306877D01*
X186168123Y-62461598D01*
X186347361Y-62587102D01*
X186545670Y-62679575D01*
X186757023Y-62736207D01*
X186757027Y-62736207D01*
X186757030Y-62736208D01*
X186974997Y-62755277D01*
X186975000Y-62755277D01*
X186975003Y-62755277D01*
X187192969Y-62736208D01*
X187192970Y-62736207D01*
X187192977Y-62736207D01*
X187404330Y-62679575D01*
X187602639Y-62587102D01*
X187781877Y-62461598D01*
X187936598Y-62306877D01*
X188062102Y-62127639D01*
X188154575Y-61929330D01*
X188211207Y-61717977D01*
X188212716Y-61700735D01*
X188230277Y-61500003D01*
X188230277Y-61499996D01*
X188211208Y-61282030D01*
X188211207Y-61282027D01*
X188211207Y-61282023D01*
X188154575Y-61070670D01*
X188095483Y-60943947D01*
X188062107Y-60872372D01*
X188062103Y-60872364D01*
X188050123Y-60855255D01*
X187936598Y-60693123D01*
X187781877Y-60538402D01*
X187781873Y-60538399D01*
X187781872Y-60538398D01*
X187662845Y-60455055D01*
X187602639Y-60412898D01*
X187404330Y-60320425D01*
X187192977Y-60263793D01*
X187192976Y-60263792D01*
X187192969Y-60263791D01*
X186975003Y-60244723D01*
X186974997Y-60244723D01*
X186757030Y-60263791D01*
X186545666Y-60320426D01*
X186347372Y-60412892D01*
X186347364Y-60412896D01*
X186168127Y-60538398D01*
X186013398Y-60693127D01*
X185887896Y-60872364D01*
X185887892Y-60872372D01*
X185795426Y-61070666D01*
X185738791Y-61282030D01*
X185719723Y-61499996D01*
X185719723Y-61500003D01*
X180875500Y-61500003D01*
X180875500Y-57172091D01*
X180894407Y-57113900D01*
X180943907Y-57077936D01*
X181005093Y-57077936D01*
X181054593Y-57113900D01*
X181064553Y-57130964D01*
X181094795Y-57197184D01*
X181117118Y-57246063D01*
X181190336Y-57330562D01*
X181201952Y-57343968D01*
X181310926Y-57414001D01*
X181310931Y-57414004D01*
X181435228Y-57450500D01*
X181435230Y-57450500D01*
X181564770Y-57450500D01*
X181564772Y-57450500D01*
X181689069Y-57414004D01*
X181798049Y-57343967D01*
X181882882Y-57246063D01*
X181936697Y-57128226D01*
X181955133Y-57000000D01*
X181936697Y-56871774D01*
X181882882Y-56753937D01*
X181798049Y-56656033D01*
X181798048Y-56656032D01*
X181798047Y-56656031D01*
X181689073Y-56585998D01*
X181689070Y-56585997D01*
X181689069Y-56585996D01*
X181611333Y-56563170D01*
X181569222Y-56538185D01*
X180800476Y-55769439D01*
X180800475Y-55769437D01*
X177965685Y-52934648D01*
X177937909Y-52880132D01*
X177937697Y-52878731D01*
X177936697Y-52871774D01*
X177882882Y-52753937D01*
X177798049Y-52656033D01*
X177798048Y-52656032D01*
X177798047Y-52656031D01*
X177689073Y-52585998D01*
X177689070Y-52585996D01*
X177689069Y-52585996D01*
X177689066Y-52585995D01*
X177564774Y-52549500D01*
X177564772Y-52549500D01*
X177435228Y-52549500D01*
X177435225Y-52549500D01*
X177310933Y-52585995D01*
X177310926Y-52585998D01*
X177201952Y-52656031D01*
X177117117Y-52753938D01*
X177090053Y-52813199D01*
X177048681Y-52858276D01*
X176988714Y-52870427D01*
X176933058Y-52845009D01*
X176909947Y-52813199D01*
X176882882Y-52753938D01*
X176882882Y-52753937D01*
X176798049Y-52656033D01*
X176798048Y-52656032D01*
X176798047Y-52656031D01*
X176689073Y-52585998D01*
X176689070Y-52585996D01*
X176689069Y-52585996D01*
X176689066Y-52585995D01*
X176564774Y-52549500D01*
X176564772Y-52549500D01*
X176435228Y-52549500D01*
X176435225Y-52549500D01*
X176310933Y-52585995D01*
X176310926Y-52585998D01*
X176201952Y-52656031D01*
X176117117Y-52753938D01*
X176063302Y-52871774D01*
X176044867Y-52999997D01*
X176044867Y-53000002D01*
X176063302Y-53128225D01*
X176110039Y-53230562D01*
X176117118Y-53246063D01*
X176201951Y-53343967D01*
X176201952Y-53343968D01*
X176211200Y-53349911D01*
X176310931Y-53414004D01*
X176388662Y-53436826D01*
X176430775Y-53461812D01*
X179095504Y-56126541D01*
X179123281Y-56181058D01*
X179124500Y-56196544D01*
X179124500Y-64603801D01*
X179128751Y-64619665D01*
X179150091Y-64699308D01*
X179199525Y-64784929D01*
X179199526Y-64784929D01*
X179507131Y-65092534D01*
X179534908Y-65147051D01*
X179535113Y-65148412D01*
X179536120Y-65155409D01*
X179589935Y-65273246D01*
X179621134Y-65309252D01*
X179674769Y-65371151D01*
X179773657Y-65434702D01*
X179783748Y-65441187D01*
X179908045Y-65477683D01*
X179908047Y-65477683D01*
X180037587Y-65477683D01*
X180037589Y-65477683D01*
X180161886Y-65441187D01*
X180171977Y-65434701D01*
X180231151Y-65419147D01*
X180288167Y-65441345D01*
X180321247Y-65492817D01*
X180324500Y-65517986D01*
X180324500Y-65603455D01*
X180305593Y-65661646D01*
X180295504Y-65673459D01*
X179873459Y-66095504D01*
X179818942Y-66123281D01*
X179803455Y-66124500D01*
X175049436Y-66124500D01*
X174950564Y-66124500D01*
X174902813Y-66137295D01*
X174902812Y-66137294D01*
X174855062Y-66150089D01*
X174855058Y-66150091D01*
X174769436Y-66199525D01*
X174769437Y-66199526D01*
X172769438Y-68199525D01*
X172769437Y-68199524D01*
X172699524Y-68269438D01*
X172650091Y-68355057D01*
X172638337Y-68398924D01*
X172624500Y-68450565D01*
X172624500Y-71049435D01*
X172628258Y-71063459D01*
X172650091Y-71144942D01*
X172699525Y-71230563D01*
X172699526Y-71230563D01*
X173769438Y-72300475D01*
X173769440Y-72300476D01*
X173769441Y-72300477D01*
X173769442Y-72300478D01*
X173855059Y-72349909D01*
X173855060Y-72349909D01*
X173855063Y-72349911D01*
X173875449Y-72355373D01*
X173926764Y-72388697D01*
X173948691Y-72445818D01*
X173932856Y-72504919D01*
X173885306Y-72543424D01*
X173849827Y-72550000D01*
X167500823Y-72550000D01*
X167499205Y-72549987D01*
X167496338Y-72549940D01*
X167341989Y-72547416D01*
X167330686Y-72546582D01*
X167018187Y-72505441D01*
X167005486Y-72502915D01*
X166701805Y-72421544D01*
X166689542Y-72417381D01*
X166399089Y-72297071D01*
X166387475Y-72291344D01*
X166115199Y-72134146D01*
X166104432Y-72126951D01*
X165855020Y-71935570D01*
X165845283Y-71927032D01*
X165622967Y-71704716D01*
X165614429Y-71694979D01*
X165423044Y-71445561D01*
X165415857Y-71434806D01*
X165258652Y-71162519D01*
X165252931Y-71150916D01*
X165132615Y-70860448D01*
X165128458Y-70848204D01*
X165047082Y-70544506D01*
X165044559Y-70531820D01*
X165003416Y-70219309D01*
X165002583Y-70208009D01*
X165000013Y-70050795D01*
X165000000Y-70049177D01*
X165000000Y-68621289D01*
X167149500Y-68621289D01*
X167181161Y-68861781D01*
X167181161Y-68861786D01*
X167243944Y-69096092D01*
X167243948Y-69096105D01*
X167336772Y-69320204D01*
X167336774Y-69320208D01*
X167336776Y-69320212D01*
X167440577Y-69500000D01*
X167458066Y-69530292D01*
X167605729Y-69722731D01*
X167605731Y-69722733D01*
X167605735Y-69722738D01*
X167777262Y-69894265D01*
X167777266Y-69894268D01*
X167777268Y-69894270D01*
X167870651Y-69965925D01*
X167969711Y-70041936D01*
X168179788Y-70163224D01*
X168403900Y-70256054D01*
X168638211Y-70318838D01*
X168878712Y-70350500D01*
X168878713Y-70350500D01*
X169121287Y-70350500D01*
X169121288Y-70350500D01*
X169361789Y-70318838D01*
X169596100Y-70256054D01*
X169820212Y-70163224D01*
X170030289Y-70041936D01*
X170222738Y-69894265D01*
X170394265Y-69722738D01*
X170541936Y-69530289D01*
X170663224Y-69320212D01*
X170756054Y-69096100D01*
X170818838Y-68861789D01*
X170850500Y-68621288D01*
X170850500Y-68378712D01*
X170818838Y-68138211D01*
X170756054Y-67903900D01*
X170663224Y-67679788D01*
X170541936Y-67469711D01*
X170541933Y-67469707D01*
X170394270Y-67277268D01*
X170394268Y-67277266D01*
X170394265Y-67277262D01*
X170222738Y-67105735D01*
X170222733Y-67105731D01*
X170222731Y-67105729D01*
X170030292Y-66958066D01*
X169937506Y-66904496D01*
X169820212Y-66836776D01*
X169820208Y-66836774D01*
X169820204Y-66836772D01*
X169596105Y-66743948D01*
X169596104Y-66743947D01*
X169596100Y-66743946D01*
X169361789Y-66681162D01*
X169361786Y-66681161D01*
X169361784Y-66681161D01*
X169121289Y-66649500D01*
X169121288Y-66649500D01*
X168878712Y-66649500D01*
X168878710Y-66649500D01*
X168638218Y-66681161D01*
X168638213Y-66681161D01*
X168403907Y-66743944D01*
X168403894Y-66743948D01*
X168179795Y-66836772D01*
X167969707Y-66958066D01*
X167777268Y-67105729D01*
X167605729Y-67277268D01*
X167458066Y-67469707D01*
X167336772Y-67679795D01*
X167243948Y-67903894D01*
X167243944Y-67903907D01*
X167181161Y-68138213D01*
X167181161Y-68138218D01*
X167149500Y-68378710D01*
X167149500Y-68621289D01*
X165000000Y-68621289D01*
X165000000Y-60900000D01*
X168879217Y-60900000D01*
X169588566Y-60900000D01*
X169575000Y-60950630D01*
X169575000Y-61049370D01*
X169588566Y-61100000D01*
X168879218Y-61100000D01*
X168905742Y-61233349D01*
X168966048Y-61378940D01*
X168966052Y-61378949D01*
X169053599Y-61509969D01*
X169053602Y-61509973D01*
X169165026Y-61621397D01*
X169165030Y-61621400D01*
X169296050Y-61708947D01*
X169296059Y-61708951D01*
X169441650Y-61769257D01*
X169596204Y-61799999D01*
X169596208Y-61800000D01*
X169849999Y-61800000D01*
X169850000Y-61799999D01*
X169850000Y-61361433D01*
X169900630Y-61375000D01*
X169999370Y-61375000D01*
X170050000Y-61361433D01*
X170050000Y-61799999D01*
X170050001Y-61800000D01*
X170303792Y-61800000D01*
X170303795Y-61799999D01*
X170458349Y-61769257D01*
X170603940Y-61708951D01*
X170603949Y-61708947D01*
X170734969Y-61621400D01*
X170734973Y-61621397D01*
X170846397Y-61509973D01*
X170846400Y-61509969D01*
X170933947Y-61378949D01*
X170933951Y-61378940D01*
X170994257Y-61233349D01*
X171020782Y-61100000D01*
X170311434Y-61100000D01*
X170325000Y-61049370D01*
X170325000Y-60950630D01*
X170311434Y-60900000D01*
X171020782Y-60900000D01*
X170994257Y-60766650D01*
X170933951Y-60621059D01*
X170933947Y-60621050D01*
X170846400Y-60490030D01*
X170846397Y-60490026D01*
X170734973Y-60378602D01*
X170734969Y-60378599D01*
X170603949Y-60291052D01*
X170603940Y-60291048D01*
X170458349Y-60230742D01*
X170303795Y-60200000D01*
X170050001Y-60200000D01*
X170050000Y-60200001D01*
X170050000Y-60638566D01*
X169999370Y-60625000D01*
X169900630Y-60625000D01*
X169850000Y-60638566D01*
X169850000Y-60200001D01*
X169849999Y-60200000D01*
X169596204Y-60200000D01*
X169441650Y-60230742D01*
X169296059Y-60291048D01*
X169296050Y-60291052D01*
X169165030Y-60378599D01*
X169165026Y-60378602D01*
X169053602Y-60490026D01*
X169053599Y-60490030D01*
X168966052Y-60621050D01*
X168966048Y-60621059D01*
X168905742Y-60766650D01*
X168879217Y-60900000D01*
X165000000Y-60900000D01*
X165000000Y-59397866D01*
X168824500Y-59397866D01*
X168824501Y-59397870D01*
X168830908Y-59457480D01*
X168830909Y-59457485D01*
X168881202Y-59592329D01*
X168951353Y-59686038D01*
X168967454Y-59707546D01*
X168967457Y-59707548D01*
X168967458Y-59707549D01*
X169082670Y-59793797D01*
X169217511Y-59844089D01*
X169217512Y-59844089D01*
X169217517Y-59844091D01*
X169277127Y-59850500D01*
X170622872Y-59850499D01*
X170682483Y-59844091D01*
X170758799Y-59815627D01*
X170817329Y-59793797D01*
X170817329Y-59793796D01*
X170817331Y-59793796D01*
X170932546Y-59707546D01*
X171018796Y-59592331D01*
X171019666Y-59590000D01*
X171069089Y-59457488D01*
X171069090Y-59457485D01*
X171069091Y-59457483D01*
X171075500Y-59397873D01*
X171075499Y-58602128D01*
X171069091Y-58542517D01*
X171068983Y-58542227D01*
X171018797Y-58407670D01*
X170932549Y-58292458D01*
X170932548Y-58292457D01*
X170932546Y-58292454D01*
X170932541Y-58292450D01*
X170817329Y-58206202D01*
X170682488Y-58155910D01*
X170682483Y-58155909D01*
X170682481Y-58155908D01*
X170682477Y-58155908D01*
X170651249Y-58152550D01*
X170622873Y-58149500D01*
X170622870Y-58149500D01*
X169277133Y-58149500D01*
X169277129Y-58149500D01*
X169277128Y-58149501D01*
X169269949Y-58150272D01*
X169217519Y-58155908D01*
X169217514Y-58155909D01*
X169082670Y-58206202D01*
X168967458Y-58292450D01*
X168967450Y-58292458D01*
X168881202Y-58407670D01*
X168830910Y-58542511D01*
X168830908Y-58542522D01*
X168824500Y-58602129D01*
X168824500Y-59397866D01*
X165000000Y-59397866D01*
X165000000Y-54719999D01*
X165900000Y-54719999D01*
X165900001Y-54720000D01*
X166316212Y-54720000D01*
X166300000Y-54780504D01*
X166300000Y-54859496D01*
X166316212Y-54920000D01*
X165900002Y-54920000D01*
X165900001Y-54920001D01*
X165900001Y-55124203D01*
X165902850Y-55154600D01*
X165902850Y-55154602D01*
X165947654Y-55282647D01*
X166028207Y-55391790D01*
X166028209Y-55391792D01*
X166137352Y-55472345D01*
X166265398Y-55517149D01*
X166295789Y-55519999D01*
X166899998Y-55519999D01*
X166900000Y-55519998D01*
X166900000Y-55120000D01*
X167100000Y-55120000D01*
X167100000Y-55519998D01*
X167100001Y-55519999D01*
X167704203Y-55519999D01*
X167734600Y-55517149D01*
X167734602Y-55517149D01*
X167862647Y-55472345D01*
X167971790Y-55391792D01*
X167971792Y-55391790D01*
X168052345Y-55282647D01*
X168097149Y-55154601D01*
X168099999Y-55124211D01*
X168100000Y-55124210D01*
X168100000Y-54920001D01*
X168099999Y-54920000D01*
X167683788Y-54920000D01*
X167700000Y-54859496D01*
X167700000Y-54780504D01*
X167683788Y-54720000D01*
X168099998Y-54720000D01*
X169936177Y-54720000D01*
X170346212Y-54720000D01*
X170330000Y-54780504D01*
X170330000Y-54859496D01*
X170346212Y-54920000D01*
X169936178Y-54920000D01*
X169956901Y-55024181D01*
X169956901Y-55024183D01*
X170009666Y-55151571D01*
X170086271Y-55266220D01*
X170183779Y-55363728D01*
X170298428Y-55440333D01*
X170425816Y-55493098D01*
X170561055Y-55519999D01*
X170561057Y-55520000D01*
X171079999Y-55520000D01*
X171080000Y-55519999D01*
X171080000Y-55120000D01*
X171280000Y-55120000D01*
X171280000Y-55519999D01*
X171280001Y-55520000D01*
X171798943Y-55520000D01*
X171798944Y-55519999D01*
X171934183Y-55493098D01*
X172061571Y-55440333D01*
X172176220Y-55363728D01*
X172273728Y-55266220D01*
X172350333Y-55151571D01*
X172403098Y-55024183D01*
X172403098Y-55024181D01*
X172423822Y-54920000D01*
X172013788Y-54920000D01*
X172030000Y-54859496D01*
X172030000Y-54780504D01*
X172013788Y-54720000D01*
X172423822Y-54720000D01*
X172403098Y-54615818D01*
X172403098Y-54615816D01*
X172350333Y-54488428D01*
X172273728Y-54373779D01*
X172176220Y-54276271D01*
X172061571Y-54199666D01*
X171934183Y-54146901D01*
X171798944Y-54120000D01*
X171280001Y-54120000D01*
X171280000Y-54120001D01*
X171280000Y-54520000D01*
X171080000Y-54520000D01*
X171080000Y-54120001D01*
X171079999Y-54120000D01*
X170931145Y-54120000D01*
X170872954Y-54101093D01*
X170836990Y-54051593D01*
X170836990Y-53990407D01*
X170872954Y-53940907D01*
X170896517Y-53929668D01*
X170896143Y-53928763D01*
X170902129Y-53926282D01*
X170902135Y-53926281D01*
X171033365Y-53850515D01*
X171140515Y-53743365D01*
X171216281Y-53612135D01*
X171255500Y-53465766D01*
X171255500Y-53314234D01*
X171216281Y-53167865D01*
X171216279Y-53167862D01*
X171216279Y-53167860D01*
X171140518Y-53036639D01*
X171140516Y-53036637D01*
X171140515Y-53036635D01*
X171033365Y-52929485D01*
X171033362Y-52929483D01*
X171033360Y-52929481D01*
X170902138Y-52853720D01*
X170902140Y-52853720D01*
X170845347Y-52838503D01*
X170755766Y-52814500D01*
X170604234Y-52814500D01*
X170514652Y-52838503D01*
X170457860Y-52853720D01*
X170326639Y-52929481D01*
X170219481Y-53036639D01*
X170143720Y-53167860D01*
X170143719Y-53167865D01*
X170104500Y-53314234D01*
X170104500Y-53465766D01*
X170139086Y-53594847D01*
X170143720Y-53612139D01*
X170219481Y-53743360D01*
X170219483Y-53743362D01*
X170219485Y-53743365D01*
X170326635Y-53850515D01*
X170326637Y-53850516D01*
X170326639Y-53850518D01*
X170457861Y-53926279D01*
X170457859Y-53926279D01*
X170457863Y-53926280D01*
X170457865Y-53926281D01*
X170506650Y-53939352D01*
X170557963Y-53972676D01*
X170579890Y-54029798D01*
X170564055Y-54088898D01*
X170516505Y-54127403D01*
X170500341Y-54132077D01*
X170425816Y-54146901D01*
X170298428Y-54199666D01*
X170183779Y-54276271D01*
X170086271Y-54373779D01*
X170009666Y-54488428D01*
X169956901Y-54615816D01*
X169956901Y-54615818D01*
X169936177Y-54720000D01*
X168099998Y-54720000D01*
X168099999Y-54719999D01*
X168099999Y-54515796D01*
X168097149Y-54485399D01*
X168097149Y-54485397D01*
X168052345Y-54357352D01*
X167971792Y-54248209D01*
X167971790Y-54248207D01*
X167862647Y-54167654D01*
X167734601Y-54122850D01*
X167704211Y-54120000D01*
X167100001Y-54120000D01*
X167100000Y-54120001D01*
X167100000Y-54520000D01*
X166900000Y-54520000D01*
X166900000Y-54120001D01*
X166899999Y-54120000D01*
X166295796Y-54120000D01*
X166265399Y-54122850D01*
X166265397Y-54122850D01*
X166137352Y-54167654D01*
X166028209Y-54248207D01*
X166028207Y-54248209D01*
X165947654Y-54357352D01*
X165902850Y-54485398D01*
X165900000Y-54515788D01*
X165900000Y-54719999D01*
X165000000Y-54719999D01*
X165000000Y-49500002D01*
X174044867Y-49500002D01*
X174063302Y-49628225D01*
X174117117Y-49746061D01*
X174117118Y-49746063D01*
X174201951Y-49843967D01*
X174201952Y-49843968D01*
X174313954Y-49915947D01*
X174352685Y-49963313D01*
X174356179Y-50024398D01*
X174350485Y-50040357D01*
X174313301Y-50121776D01*
X174294867Y-50249997D01*
X174294867Y-50250002D01*
X174313302Y-50378225D01*
X174327071Y-50408374D01*
X174367118Y-50496063D01*
X174451951Y-50593967D01*
X174451952Y-50593968D01*
X174560926Y-50664001D01*
X174560931Y-50664004D01*
X174685228Y-50700500D01*
X174685230Y-50700500D01*
X174814770Y-50700500D01*
X174814772Y-50700500D01*
X174939069Y-50664004D01*
X175048049Y-50593967D01*
X175132882Y-50496063D01*
X175172929Y-50408374D01*
X175214301Y-50363296D01*
X175262982Y-50350500D01*
X183563810Y-50350500D01*
X183622001Y-50369407D01*
X183633814Y-50379496D01*
X186034788Y-52780470D01*
X186059249Y-52794592D01*
X186090263Y-52812499D01*
X186090268Y-52812501D01*
X186114708Y-52826612D01*
X186114709Y-52826612D01*
X186114712Y-52826614D01*
X186203856Y-52850500D01*
X186203858Y-52850500D01*
X195046142Y-52850500D01*
X195046144Y-52850500D01*
X195135288Y-52826614D01*
X195159734Y-52812500D01*
X195215212Y-52780470D01*
X195519173Y-52476508D01*
X195561284Y-52451524D01*
X195564771Y-52450500D01*
X195564772Y-52450500D01*
X195689069Y-52414004D01*
X195798049Y-52343967D01*
X195882882Y-52246063D01*
X195936697Y-52128226D01*
X195948016Y-52049500D01*
X195955133Y-52000002D01*
X195955133Y-51999997D01*
X195936697Y-51871774D01*
X195882882Y-51753938D01*
X195882882Y-51753937D01*
X195798049Y-51656033D01*
X195798048Y-51656032D01*
X195798047Y-51656031D01*
X195689073Y-51585998D01*
X195689070Y-51585996D01*
X195689069Y-51585996D01*
X195689066Y-51585995D01*
X195564774Y-51549500D01*
X195564772Y-51549500D01*
X195435228Y-51549500D01*
X195435225Y-51549500D01*
X195310933Y-51585995D01*
X195310926Y-51585998D01*
X195201952Y-51656031D01*
X195117117Y-51753938D01*
X195090053Y-51813199D01*
X195048681Y-51858276D01*
X194988714Y-51870427D01*
X194933058Y-51845009D01*
X194909947Y-51813199D01*
X194882882Y-51753938D01*
X194882882Y-51753937D01*
X194798049Y-51656033D01*
X194798048Y-51656032D01*
X194798047Y-51656031D01*
X194689073Y-51585998D01*
X194689070Y-51585996D01*
X194689069Y-51585996D01*
X194689066Y-51585995D01*
X194564774Y-51549500D01*
X194564772Y-51549500D01*
X194435228Y-51549500D01*
X194435225Y-51549500D01*
X194310933Y-51585995D01*
X194310926Y-51585998D01*
X194236571Y-51633784D01*
X194183048Y-51649500D01*
X186686190Y-51649500D01*
X186627999Y-51630593D01*
X186616186Y-51620504D01*
X185995684Y-51000002D01*
X203544867Y-51000002D01*
X203563302Y-51128225D01*
X203617117Y-51246061D01*
X203617118Y-51246063D01*
X203701951Y-51343967D01*
X203701952Y-51343968D01*
X203810926Y-51414001D01*
X203810931Y-51414004D01*
X203935228Y-51450500D01*
X203935230Y-51450500D01*
X204064770Y-51450500D01*
X204064772Y-51450500D01*
X204189069Y-51414004D01*
X204298049Y-51343967D01*
X204382882Y-51246063D01*
X204436697Y-51128226D01*
X204455133Y-51000000D01*
X204436697Y-50871774D01*
X204384446Y-50757363D01*
X204375500Y-50716237D01*
X204375500Y-47546545D01*
X204394407Y-47488354D01*
X204404496Y-47476541D01*
X205800474Y-46080563D01*
X205849908Y-45994942D01*
X205849908Y-45994940D01*
X205849910Y-45994938D01*
X205875500Y-45899435D01*
X205875500Y-45283764D01*
X205884447Y-45242637D01*
X205936697Y-45128225D01*
X205955133Y-45000002D01*
X205955133Y-44999997D01*
X205936697Y-44871774D01*
X205882882Y-44753938D01*
X205882882Y-44753937D01*
X205798049Y-44656033D01*
X205798048Y-44656032D01*
X205798047Y-44656031D01*
X205689073Y-44585998D01*
X205689070Y-44585996D01*
X205689069Y-44585996D01*
X205689066Y-44585995D01*
X205564774Y-44549500D01*
X205564772Y-44549500D01*
X205435228Y-44549500D01*
X205435225Y-44549500D01*
X205310933Y-44585995D01*
X205310926Y-44585998D01*
X205201952Y-44656031D01*
X205117117Y-44753938D01*
X205063302Y-44871774D01*
X205044867Y-44999997D01*
X205044867Y-45000002D01*
X205063302Y-45128225D01*
X205115553Y-45242637D01*
X205124500Y-45283764D01*
X205124500Y-45653455D01*
X205105593Y-45711646D01*
X205095504Y-45723459D01*
X203769438Y-47049525D01*
X203769437Y-47049524D01*
X203699524Y-47119438D01*
X203650091Y-47205057D01*
X203624500Y-47300566D01*
X203624500Y-50716237D01*
X203615553Y-50757364D01*
X203563302Y-50871774D01*
X203544867Y-50999997D01*
X203544867Y-51000002D01*
X185995684Y-51000002D01*
X185491742Y-50496060D01*
X184215212Y-49219530D01*
X184135288Y-49173386D01*
X184046144Y-49149500D01*
X184046142Y-49149500D01*
X174816952Y-49149500D01*
X174763429Y-49133784D01*
X174689073Y-49085998D01*
X174689070Y-49085996D01*
X174689069Y-49085996D01*
X174689066Y-49085995D01*
X174564774Y-49049500D01*
X174564772Y-49049500D01*
X174435228Y-49049500D01*
X174435225Y-49049500D01*
X174310933Y-49085995D01*
X174310926Y-49085998D01*
X174201952Y-49156031D01*
X174117117Y-49253938D01*
X174063302Y-49371774D01*
X174044867Y-49499997D01*
X174044867Y-49500002D01*
X165000000Y-49500002D01*
X165000000Y-46079999D01*
X165900000Y-46079999D01*
X165900001Y-46080000D01*
X166316212Y-46080000D01*
X166300000Y-46140504D01*
X166300000Y-46219496D01*
X166316212Y-46280000D01*
X165900002Y-46280000D01*
X165900001Y-46280001D01*
X165900001Y-46484203D01*
X165902850Y-46514600D01*
X165902850Y-46514602D01*
X165947654Y-46642647D01*
X166028207Y-46751790D01*
X166028209Y-46751792D01*
X166137352Y-46832345D01*
X166265398Y-46877149D01*
X166295789Y-46879999D01*
X166899998Y-46879999D01*
X166900000Y-46879998D01*
X166900000Y-46480000D01*
X167100000Y-46480000D01*
X167100000Y-46879998D01*
X167100001Y-46879999D01*
X167704203Y-46879999D01*
X167734600Y-46877149D01*
X167734602Y-46877149D01*
X167862647Y-46832345D01*
X167971790Y-46751792D01*
X167971792Y-46751790D01*
X168052345Y-46642647D01*
X168097149Y-46514601D01*
X168099999Y-46484211D01*
X168100000Y-46484210D01*
X168100000Y-46280001D01*
X168099999Y-46280000D01*
X167683788Y-46280000D01*
X167700000Y-46219496D01*
X167700000Y-46140504D01*
X167683788Y-46080000D01*
X168099998Y-46080000D01*
X169936177Y-46080000D01*
X170346212Y-46080000D01*
X170330000Y-46140504D01*
X170330000Y-46219496D01*
X170346212Y-46280000D01*
X169936178Y-46280000D01*
X169956901Y-46384181D01*
X169956901Y-46384183D01*
X170009666Y-46511571D01*
X170086271Y-46626220D01*
X170183779Y-46723728D01*
X170298428Y-46800333D01*
X170425817Y-46853098D01*
X170500340Y-46867922D01*
X170553724Y-46897819D01*
X170579340Y-46953384D01*
X170567403Y-47013393D01*
X170522473Y-47054926D01*
X170506650Y-47060646D01*
X170457865Y-47073718D01*
X170457861Y-47073720D01*
X170326639Y-47149481D01*
X170219481Y-47256639D01*
X170143720Y-47387860D01*
X170143719Y-47387865D01*
X170104500Y-47534234D01*
X170104500Y-47685766D01*
X170139086Y-47814847D01*
X170143720Y-47832139D01*
X170219481Y-47963360D01*
X170219483Y-47963362D01*
X170219485Y-47963365D01*
X170326635Y-48070515D01*
X170326637Y-48070516D01*
X170326639Y-48070518D01*
X170457861Y-48146279D01*
X170457859Y-48146279D01*
X170457863Y-48146280D01*
X170457865Y-48146281D01*
X170604234Y-48185500D01*
X170604236Y-48185500D01*
X170755764Y-48185500D01*
X170755766Y-48185500D01*
X170902135Y-48146281D01*
X170902137Y-48146279D01*
X170902139Y-48146279D01*
X171033360Y-48070518D01*
X171033360Y-48070517D01*
X171033365Y-48070515D01*
X171140515Y-47963365D01*
X171216281Y-47832135D01*
X171255500Y-47685766D01*
X171255500Y-47534234D01*
X171216281Y-47387865D01*
X171216279Y-47387862D01*
X171216279Y-47387860D01*
X171140518Y-47256639D01*
X171140516Y-47256637D01*
X171140515Y-47256635D01*
X171033365Y-47149485D01*
X171033362Y-47149483D01*
X171033360Y-47149481D01*
X170902138Y-47073720D01*
X170896143Y-47071237D01*
X170897024Y-47069108D01*
X170854207Y-47041302D01*
X170832281Y-46984180D01*
X170848117Y-46925080D01*
X170895668Y-46886575D01*
X170931145Y-46880000D01*
X171079999Y-46880000D01*
X171080000Y-46879999D01*
X171080000Y-46480000D01*
X171280000Y-46480000D01*
X171280000Y-46879999D01*
X171280001Y-46880000D01*
X171798943Y-46880000D01*
X171798944Y-46879999D01*
X171934183Y-46853098D01*
X172061571Y-46800333D01*
X172176220Y-46723728D01*
X172273728Y-46626220D01*
X172350333Y-46511571D01*
X172403098Y-46384183D01*
X172403098Y-46384181D01*
X172423822Y-46280000D01*
X172013788Y-46280000D01*
X172030000Y-46219496D01*
X172030000Y-46140504D01*
X172013788Y-46080000D01*
X172423822Y-46080000D01*
X172407909Y-46000002D01*
X177044867Y-46000002D01*
X177063302Y-46128225D01*
X177063303Y-46128227D01*
X177117118Y-46246063D01*
X177201951Y-46343967D01*
X177201952Y-46343968D01*
X177233442Y-46364205D01*
X177310931Y-46414004D01*
X177435228Y-46450500D01*
X177435230Y-46450500D01*
X177564770Y-46450500D01*
X177564772Y-46450500D01*
X177689069Y-46414004D01*
X177798049Y-46343967D01*
X177882882Y-46246063D01*
X177936697Y-46128226D01*
X177937697Y-46121266D01*
X177964691Y-46066359D01*
X177965619Y-46065416D01*
X180569226Y-43461810D01*
X180611335Y-43436827D01*
X180689069Y-43414004D01*
X180798049Y-43343967D01*
X180882882Y-43246063D01*
X180936697Y-43128226D01*
X180955133Y-43000000D01*
X180936697Y-42871774D01*
X180882882Y-42753937D01*
X180798049Y-42656033D01*
X180798048Y-42656032D01*
X180798047Y-42656031D01*
X180689073Y-42585998D01*
X180689070Y-42585996D01*
X180689069Y-42585996D01*
X180689066Y-42585995D01*
X180564774Y-42549500D01*
X180564772Y-42549500D01*
X180435228Y-42549500D01*
X180435225Y-42549500D01*
X180310933Y-42585995D01*
X180310926Y-42585998D01*
X180201952Y-42656031D01*
X180117117Y-42753938D01*
X180063303Y-42871771D01*
X180062302Y-42878736D01*
X180035303Y-42933642D01*
X180034314Y-42934646D01*
X177430775Y-45538186D01*
X177388663Y-45563172D01*
X177310931Y-45585996D01*
X177310926Y-45585998D01*
X177201952Y-45656031D01*
X177117117Y-45753938D01*
X177063302Y-45871774D01*
X177044867Y-45999997D01*
X177044867Y-46000002D01*
X172407909Y-46000002D01*
X172403098Y-45975818D01*
X172403098Y-45975816D01*
X172350333Y-45848428D01*
X172273728Y-45733779D01*
X172176220Y-45636271D01*
X172061571Y-45559666D01*
X171934183Y-45506901D01*
X171798944Y-45480000D01*
X171280001Y-45480000D01*
X171280000Y-45480001D01*
X171280000Y-45880000D01*
X171080000Y-45880000D01*
X171080000Y-45480001D01*
X171079999Y-45480000D01*
X170561055Y-45480000D01*
X170425816Y-45506901D01*
X170298428Y-45559666D01*
X170183779Y-45636271D01*
X170086271Y-45733779D01*
X170009666Y-45848428D01*
X169956901Y-45975816D01*
X169956901Y-45975818D01*
X169936177Y-46080000D01*
X168099998Y-46080000D01*
X168099999Y-46079999D01*
X168099999Y-45875796D01*
X168097149Y-45845399D01*
X168097149Y-45845397D01*
X168052345Y-45717352D01*
X167971792Y-45608209D01*
X167971790Y-45608207D01*
X167862647Y-45527654D01*
X167734601Y-45482850D01*
X167704211Y-45480000D01*
X167100001Y-45480000D01*
X167100000Y-45480001D01*
X167100000Y-45880000D01*
X166900000Y-45880000D01*
X166900000Y-45480001D01*
X166899999Y-45480000D01*
X166295796Y-45480000D01*
X166265399Y-45482850D01*
X166265397Y-45482850D01*
X166137352Y-45527654D01*
X166028209Y-45608207D01*
X166028207Y-45608209D01*
X165947654Y-45717352D01*
X165902850Y-45845398D01*
X165900000Y-45875788D01*
X165900000Y-46079999D01*
X165000000Y-46079999D01*
X165000000Y-37000002D01*
X185544867Y-37000002D01*
X185563302Y-37128225D01*
X185615553Y-37242637D01*
X185624500Y-37283764D01*
X185624500Y-39549438D01*
X185637294Y-39597184D01*
X185637294Y-39597185D01*
X185650089Y-39644937D01*
X185666674Y-39673663D01*
X185689331Y-39712905D01*
X185689332Y-39712907D01*
X185699522Y-39730558D01*
X185699524Y-39730560D01*
X185699526Y-39730563D01*
X186034316Y-40065353D01*
X186062091Y-40119867D01*
X186062296Y-40121225D01*
X186063303Y-40128226D01*
X186117118Y-40246063D01*
X186201951Y-40343967D01*
X186201952Y-40343968D01*
X186310926Y-40414001D01*
X186310931Y-40414004D01*
X186435228Y-40450500D01*
X186435230Y-40450500D01*
X186564770Y-40450500D01*
X186564772Y-40450500D01*
X186689069Y-40414004D01*
X186798049Y-40343967D01*
X186882882Y-40246063D01*
X186936697Y-40128226D01*
X186955133Y-40000000D01*
X186936697Y-39871774D01*
X186882882Y-39753937D01*
X186798049Y-39656033D01*
X186798048Y-39656032D01*
X186798047Y-39656031D01*
X186689073Y-39585998D01*
X186689070Y-39585997D01*
X186689069Y-39585996D01*
X186643932Y-39572743D01*
X186611333Y-39563171D01*
X186569221Y-39538184D01*
X186404496Y-39373458D01*
X186376719Y-39318942D01*
X186375500Y-39303455D01*
X186375500Y-37283764D01*
X186384447Y-37242637D01*
X186436697Y-37128225D01*
X186455133Y-37000002D01*
X186455133Y-36999997D01*
X186436697Y-36871774D01*
X186382882Y-36753938D01*
X186382882Y-36753937D01*
X186298049Y-36656033D01*
X186298048Y-36656032D01*
X186298047Y-36656031D01*
X186189073Y-36585998D01*
X186189070Y-36585996D01*
X186189069Y-36585996D01*
X186189066Y-36585995D01*
X186064774Y-36549500D01*
X186064772Y-36549500D01*
X185935228Y-36549500D01*
X185935225Y-36549500D01*
X185810933Y-36585995D01*
X185810926Y-36585998D01*
X185701952Y-36656031D01*
X185617117Y-36753938D01*
X185563302Y-36871774D01*
X185544867Y-36999997D01*
X185544867Y-37000002D01*
X165000000Y-37000002D01*
X165000000Y-34121289D01*
X167149500Y-34121289D01*
X167181161Y-34361781D01*
X167181161Y-34361786D01*
X167243944Y-34596092D01*
X167243948Y-34596105D01*
X167336772Y-34820204D01*
X167336774Y-34820208D01*
X167336776Y-34820212D01*
X167458064Y-35030289D01*
X167458066Y-35030292D01*
X167605729Y-35222731D01*
X167605731Y-35222733D01*
X167605735Y-35222738D01*
X167777262Y-35394265D01*
X167777266Y-35394268D01*
X167777268Y-35394270D01*
X167969707Y-35541933D01*
X167969711Y-35541936D01*
X168179788Y-35663224D01*
X168403900Y-35756054D01*
X168638211Y-35818838D01*
X168878712Y-35850500D01*
X168878713Y-35850500D01*
X169121287Y-35850500D01*
X169121288Y-35850500D01*
X169361789Y-35818838D01*
X169596100Y-35756054D01*
X169820212Y-35663224D01*
X170030289Y-35541936D01*
X170222738Y-35394265D01*
X170394265Y-35222738D01*
X170541936Y-35030289D01*
X170663224Y-34820212D01*
X170756054Y-34596100D01*
X170818838Y-34361789D01*
X170850500Y-34121288D01*
X170850500Y-33878712D01*
X170818838Y-33638211D01*
X170756054Y-33403900D01*
X170663224Y-33179788D01*
X170541936Y-32969711D01*
X170394265Y-32777262D01*
X170222738Y-32605735D01*
X170222733Y-32605731D01*
X170222731Y-32605729D01*
X170030292Y-32458066D01*
X170030289Y-32458064D01*
X169820212Y-32336776D01*
X169820208Y-32336774D01*
X169820204Y-32336772D01*
X169596105Y-32243948D01*
X169596104Y-32243947D01*
X169596100Y-32243946D01*
X169361789Y-32181162D01*
X169361786Y-32181161D01*
X169361784Y-32181161D01*
X169121289Y-32149500D01*
X169121288Y-32149500D01*
X168878712Y-32149500D01*
X168878710Y-32149500D01*
X168638218Y-32181161D01*
X168638213Y-32181161D01*
X168403907Y-32243944D01*
X168403894Y-32243948D01*
X168179795Y-32336772D01*
X167969707Y-32458066D01*
X167777268Y-32605729D01*
X167605729Y-32777268D01*
X167458066Y-32969707D01*
X167336772Y-33179795D01*
X167243948Y-33403894D01*
X167243944Y-33403907D01*
X167181161Y-33638213D01*
X167181161Y-33638218D01*
X167149500Y-33878710D01*
X167149500Y-34121289D01*
X165000000Y-34121289D01*
X165000000Y-32500822D01*
X165000013Y-32499204D01*
X165000013Y-32499203D01*
X165002583Y-32341985D01*
X165003417Y-32330686D01*
X165044560Y-32018176D01*
X165047081Y-32005496D01*
X165128459Y-31701790D01*
X165132613Y-31689555D01*
X165252933Y-31399076D01*
X165258649Y-31387486D01*
X165415861Y-31115185D01*
X165423039Y-31104444D01*
X165614436Y-30855011D01*
X165622959Y-30845291D01*
X165845291Y-30622959D01*
X165855011Y-30614436D01*
X165906405Y-30575000D01*
X187300000Y-30575000D01*
X187300000Y-35625000D01*
X187300001Y-35625000D01*
X202699999Y-35625000D01*
X202700000Y-35625000D01*
X202700000Y-34121289D01*
X219149500Y-34121289D01*
X219181161Y-34361781D01*
X219181161Y-34361786D01*
X219243944Y-34596092D01*
X219243948Y-34596105D01*
X219336772Y-34820204D01*
X219336774Y-34820208D01*
X219336776Y-34820212D01*
X219458064Y-35030289D01*
X219458066Y-35030292D01*
X219605729Y-35222731D01*
X219605731Y-35222733D01*
X219605735Y-35222738D01*
X219777262Y-35394265D01*
X219777266Y-35394268D01*
X219777268Y-35394270D01*
X219969707Y-35541933D01*
X219969711Y-35541936D01*
X220179788Y-35663224D01*
X220403900Y-35756054D01*
X220638211Y-35818838D01*
X220878712Y-35850500D01*
X220878713Y-35850500D01*
X221121287Y-35850500D01*
X221121288Y-35850500D01*
X221361789Y-35818838D01*
X221596100Y-35756054D01*
X221820212Y-35663224D01*
X222030289Y-35541936D01*
X222222738Y-35394265D01*
X222394265Y-35222738D01*
X222541936Y-35030289D01*
X222663224Y-34820212D01*
X222756054Y-34596100D01*
X222818838Y-34361789D01*
X222850500Y-34121288D01*
X222850500Y-33878712D01*
X222818838Y-33638211D01*
X222756054Y-33403900D01*
X222663224Y-33179788D01*
X222541936Y-32969711D01*
X222394265Y-32777262D01*
X222222738Y-32605735D01*
X222222733Y-32605731D01*
X222222731Y-32605729D01*
X222030292Y-32458066D01*
X222030289Y-32458064D01*
X221820212Y-32336776D01*
X221820208Y-32336774D01*
X221820204Y-32336772D01*
X221596105Y-32243948D01*
X221596104Y-32243947D01*
X221596100Y-32243946D01*
X221361789Y-32181162D01*
X221361786Y-32181161D01*
X221361784Y-32181161D01*
X221121289Y-32149500D01*
X221121288Y-32149500D01*
X220878712Y-32149500D01*
X220878710Y-32149500D01*
X220638218Y-32181161D01*
X220638213Y-32181161D01*
X220403907Y-32243944D01*
X220403894Y-32243948D01*
X220179795Y-32336772D01*
X219969707Y-32458066D01*
X219777268Y-32605729D01*
X219605729Y-32777268D01*
X219458066Y-32969707D01*
X219336772Y-33179795D01*
X219243948Y-33403894D01*
X219243944Y-33403907D01*
X219181161Y-33638213D01*
X219181161Y-33638218D01*
X219149500Y-33878710D01*
X219149500Y-34121289D01*
X202700000Y-34121289D01*
X202700000Y-30575000D01*
X187300000Y-30575000D01*
X165906405Y-30575000D01*
X166104444Y-30423039D01*
X166115185Y-30415861D01*
X166387486Y-30258649D01*
X166399076Y-30252933D01*
X166689555Y-30132613D01*
X166701790Y-30128459D01*
X167005496Y-30047081D01*
X167018176Y-30044560D01*
X167330691Y-30003416D01*
X167341985Y-30002583D01*
X167499205Y-30000013D01*
X167500823Y-30000000D01*
X222499177Y-30000000D01*
X222500795Y-30000013D01*
G37*
%TD.AperFunction*%
%TA.AperFunction,Conductor*%
G36*
X193959191Y-58418907D02*
G01*
X193995155Y-58468407D01*
X194000000Y-58499000D01*
X194000000Y-59119999D01*
X194000001Y-59120000D01*
X194088502Y-59120000D01*
X194088502Y-59121092D01*
X194143323Y-59133115D01*
X194183969Y-59178848D01*
X194192270Y-59218530D01*
X194192270Y-59472117D01*
X194173363Y-59530308D01*
X194123863Y-59566272D01*
X194062677Y-59566272D01*
X194051431Y-59561842D01*
X193997125Y-59536519D01*
X193947609Y-59530000D01*
X193867771Y-59530000D01*
X193867770Y-59530001D01*
X193867770Y-60549999D01*
X193867771Y-60550000D01*
X193947608Y-60550000D01*
X193997124Y-60543480D01*
X193997128Y-60543479D01*
X194051430Y-60518158D01*
X194112160Y-60510701D01*
X194165674Y-60540364D01*
X194191532Y-60595816D01*
X194192270Y-60607882D01*
X194192270Y-60932117D01*
X194173363Y-60990308D01*
X194123863Y-61026272D01*
X194062677Y-61026272D01*
X194051431Y-61021842D01*
X193997125Y-60996519D01*
X193947609Y-60990000D01*
X193867771Y-60990000D01*
X193867770Y-60990001D01*
X193867770Y-62009999D01*
X193867771Y-62010000D01*
X193947608Y-62010000D01*
X193997124Y-62003480D01*
X193997131Y-62003478D01*
X194105791Y-61952809D01*
X194105793Y-61952808D01*
X194142056Y-61916545D01*
X194196572Y-61888767D01*
X194257004Y-61898338D01*
X194282063Y-61916544D01*
X194323273Y-61957753D01*
X194351051Y-62012269D01*
X194352270Y-62027757D01*
X194352270Y-63600041D01*
X194333363Y-63658232D01*
X194283863Y-63694196D01*
X194222677Y-63694196D01*
X194186576Y-63673204D01*
X194126041Y-63618019D01*
X193952637Y-63510652D01*
X193952633Y-63510650D01*
X193952631Y-63510649D01*
X193886754Y-63485128D01*
X193839323Y-63446477D01*
X193826891Y-63418437D01*
X193809911Y-63355063D01*
X193760475Y-63269437D01*
X192404496Y-61913458D01*
X192376719Y-61858941D01*
X192375500Y-61843454D01*
X192375500Y-61709838D01*
X193287770Y-61709838D01*
X193294289Y-61759354D01*
X193294291Y-61759361D01*
X193344960Y-61868021D01*
X193429748Y-61952809D01*
X193538408Y-62003478D01*
X193538415Y-62003480D01*
X193587931Y-62010000D01*
X193667769Y-62010000D01*
X193667770Y-62009999D01*
X193667770Y-61600001D01*
X193667769Y-61600000D01*
X193287771Y-61600000D01*
X193287770Y-61600001D01*
X193287770Y-61709838D01*
X192375500Y-61709838D01*
X192375500Y-61540168D01*
X192394407Y-61481977D01*
X192406957Y-61469532D01*
X192406301Y-61468876D01*
X192412099Y-61463077D01*
X192412102Y-61463076D01*
X192475179Y-61399999D01*
X193287770Y-61399999D01*
X193287771Y-61400000D01*
X193667769Y-61400000D01*
X193667770Y-61399999D01*
X193667770Y-60990001D01*
X193667769Y-60990000D01*
X193587931Y-60990000D01*
X193538415Y-60996519D01*
X193538408Y-60996521D01*
X193429748Y-61047190D01*
X193344960Y-61131978D01*
X193294291Y-61240638D01*
X193294289Y-61240645D01*
X193287770Y-61290161D01*
X193287770Y-61399999D01*
X192475179Y-61399999D01*
X192503076Y-61372102D01*
X192559582Y-61256518D01*
X192570500Y-61181582D01*
X192570500Y-60838418D01*
X192559582Y-60763482D01*
X192503076Y-60647898D01*
X192425179Y-60570001D01*
X192397404Y-60515487D01*
X192406975Y-60455055D01*
X192425178Y-60429999D01*
X192503076Y-60352102D01*
X192553070Y-60249838D01*
X193287770Y-60249838D01*
X193294289Y-60299354D01*
X193294291Y-60299361D01*
X193344960Y-60408021D01*
X193429748Y-60492809D01*
X193538408Y-60543478D01*
X193538415Y-60543480D01*
X193587931Y-60550000D01*
X193667769Y-60550000D01*
X193667770Y-60549999D01*
X193667770Y-60140001D01*
X193667769Y-60140000D01*
X193287771Y-60140000D01*
X193287770Y-60140001D01*
X193287770Y-60249838D01*
X192553070Y-60249838D01*
X192559582Y-60236518D01*
X192570500Y-60161582D01*
X192570500Y-59991544D01*
X192587248Y-59939999D01*
X193287770Y-59939999D01*
X193287771Y-59940000D01*
X193667769Y-59940000D01*
X193667770Y-59939999D01*
X193667770Y-59530001D01*
X193667769Y-59530000D01*
X193587931Y-59530000D01*
X193538415Y-59536519D01*
X193538408Y-59536521D01*
X193429748Y-59587190D01*
X193344960Y-59671978D01*
X193294291Y-59780638D01*
X193294289Y-59780645D01*
X193287770Y-59830161D01*
X193287770Y-59939999D01*
X192587248Y-59939999D01*
X192589407Y-59933353D01*
X192599490Y-59921546D01*
X193360586Y-59160449D01*
X193390599Y-59139891D01*
X193427016Y-59123813D01*
X193468054Y-59082775D01*
X193522570Y-59054997D01*
X193583002Y-59064568D01*
X193593060Y-59070463D01*
X193646353Y-59106072D01*
X193646360Y-59106075D01*
X193716351Y-59119998D01*
X193716363Y-59120000D01*
X193799999Y-59120000D01*
X193800000Y-59119999D01*
X193800000Y-58499000D01*
X193818907Y-58440809D01*
X193868407Y-58404845D01*
X193899000Y-58400000D01*
X193901000Y-58400000D01*
X193959191Y-58418907D01*
G37*
%TD.AperFunction*%
%TA.AperFunction,Conductor*%
G36*
X195508022Y-54894407D02*
G01*
X195520468Y-54906956D01*
X195521124Y-54906301D01*
X195526923Y-54912100D01*
X195526924Y-54912102D01*
X195617898Y-55003076D01*
X195733482Y-55059582D01*
X195808418Y-55070500D01*
X195808421Y-55070500D01*
X196151578Y-55070500D01*
X196151582Y-55070500D01*
X196226518Y-55059582D01*
X196342102Y-55003076D01*
X196419998Y-54925179D01*
X196474513Y-54897404D01*
X196534945Y-54906975D01*
X196560000Y-54925178D01*
X196637898Y-55003076D01*
X196753482Y-55059582D01*
X196828418Y-55070500D01*
X196828421Y-55070500D01*
X197171578Y-55070500D01*
X197171582Y-55070500D01*
X197246518Y-55059582D01*
X197362102Y-55003076D01*
X197453076Y-54912102D01*
X197453077Y-54912099D01*
X197458876Y-54906301D01*
X197461067Y-54908492D01*
X197498808Y-54880599D01*
X197530169Y-54875500D01*
X199803455Y-54875500D01*
X199861646Y-54894407D01*
X199873459Y-54904496D01*
X200595504Y-55626541D01*
X200623281Y-55681058D01*
X200624500Y-55696545D01*
X200624500Y-61691237D01*
X200615553Y-61732364D01*
X200563302Y-61846774D01*
X200544921Y-61974621D01*
X200544867Y-61975000D01*
X200548961Y-62003478D01*
X200550102Y-62011410D01*
X200539669Y-62071699D01*
X200495791Y-62114342D01*
X200452110Y-62124500D01*
X197277569Y-62124500D01*
X197219378Y-62105593D01*
X197183414Y-62056093D01*
X197183414Y-61994907D01*
X197207565Y-61955496D01*
X197222809Y-61940251D01*
X197273478Y-61831591D01*
X197273480Y-61831584D01*
X197280000Y-61782068D01*
X197280000Y-61672231D01*
X197279999Y-61672230D01*
X196799000Y-61672230D01*
X196740809Y-61653323D01*
X196704845Y-61603823D01*
X196700000Y-61573230D01*
X196700000Y-61246628D01*
X196712622Y-61198256D01*
X196714626Y-61194679D01*
X196759555Y-61153150D01*
X196820317Y-61145960D01*
X196873700Y-61175858D01*
X196899314Y-61231424D01*
X196900000Y-61243057D01*
X196900000Y-61472229D01*
X196900001Y-61472230D01*
X197279999Y-61472230D01*
X197280000Y-61472229D01*
X197280000Y-61362391D01*
X197273480Y-61312875D01*
X197273478Y-61312868D01*
X197222809Y-61204208D01*
X197138021Y-61119420D01*
X197029361Y-61068751D01*
X197029354Y-61068749D01*
X196979839Y-61062230D01*
X196876413Y-61062230D01*
X196869987Y-61065504D01*
X196809555Y-61055933D01*
X196766290Y-61012668D01*
X196755500Y-60967723D01*
X196755500Y-60692277D01*
X196774407Y-60634086D01*
X196823907Y-60598122D01*
X196885093Y-60598122D01*
X196904476Y-60610000D01*
X196992068Y-60610000D01*
X197041584Y-60603480D01*
X197041591Y-60603478D01*
X197150251Y-60552809D01*
X197235039Y-60468021D01*
X197285708Y-60359361D01*
X197285710Y-60359354D01*
X197292230Y-60309838D01*
X197292230Y-60200001D01*
X197292229Y-60200000D01*
X196912231Y-60200000D01*
X196912230Y-60200001D01*
X196912230Y-60441118D01*
X196893323Y-60499309D01*
X196843823Y-60535273D01*
X196782637Y-60535273D01*
X196733137Y-60499309D01*
X196725017Y-60486056D01*
X196723017Y-60482130D01*
X196712230Y-60437192D01*
X196712230Y-59763833D01*
X196723202Y-59721788D01*
X196722124Y-59721317D01*
X196722512Y-59720429D01*
X196723992Y-59718761D01*
X196724856Y-59715454D01*
X196726468Y-59712576D01*
X196728482Y-59713704D01*
X196763136Y-59674676D01*
X196822895Y-59661540D01*
X196878962Y-59686038D01*
X196909921Y-59738812D01*
X196912230Y-59760067D01*
X196912230Y-59999999D01*
X196912231Y-60000000D01*
X197292229Y-60000000D01*
X197292230Y-59999999D01*
X197292230Y-59890161D01*
X197285710Y-59840645D01*
X197285708Y-59840638D01*
X197235039Y-59731978D01*
X197150251Y-59647190D01*
X197041591Y-59596521D01*
X197041584Y-59596519D01*
X196992069Y-59590000D01*
X196900416Y-59590000D01*
X196869987Y-59605504D01*
X196809555Y-59595933D01*
X196766290Y-59552668D01*
X196755500Y-59507723D01*
X196755500Y-59265276D01*
X196774407Y-59207085D01*
X196823907Y-59171121D01*
X196865911Y-59166936D01*
X196872336Y-59167681D01*
X196872338Y-59167682D01*
X196896627Y-59170500D01*
X197303372Y-59170499D01*
X197327662Y-59167682D01*
X197427016Y-59123813D01*
X197503813Y-59047016D01*
X197547682Y-58947662D01*
X197550500Y-58923373D01*
X197550499Y-58663244D01*
X197569406Y-58605056D01*
X197618906Y-58569092D01*
X197680091Y-58569091D01*
X197719503Y-58593242D01*
X198095504Y-58969243D01*
X198123281Y-59023760D01*
X198124500Y-59039247D01*
X198124500Y-59216237D01*
X198115553Y-59257364D01*
X198063302Y-59371774D01*
X198044867Y-59499997D01*
X198044867Y-59500002D01*
X198063302Y-59628225D01*
X198117117Y-59746061D01*
X198117118Y-59746063D01*
X198199073Y-59840645D01*
X198201952Y-59843968D01*
X198273830Y-59890161D01*
X198310931Y-59914004D01*
X198435228Y-59950500D01*
X198435230Y-59950500D01*
X198564770Y-59950500D01*
X198564772Y-59950500D01*
X198689069Y-59914004D01*
X198796478Y-59844976D01*
X198855652Y-59829422D01*
X198903521Y-59844976D01*
X199010931Y-59914004D01*
X199135228Y-59950500D01*
X199135230Y-59950500D01*
X199264770Y-59950500D01*
X199264772Y-59950500D01*
X199389069Y-59914004D01*
X199498049Y-59843967D01*
X199582882Y-59746063D01*
X199636697Y-59628226D01*
X199649882Y-59536521D01*
X199655133Y-59500002D01*
X199655133Y-59499997D01*
X199636697Y-59371774D01*
X199584447Y-59257364D01*
X199575500Y-59216237D01*
X199575500Y-58550567D01*
X199575500Y-58550565D01*
X199573266Y-58542227D01*
X199549911Y-58455063D01*
X199500475Y-58369437D01*
X197830563Y-56699526D01*
X197830563Y-56699525D01*
X197744941Y-56650091D01*
X197744934Y-56650088D01*
X197697185Y-56637294D01*
X197697184Y-56637294D01*
X197649438Y-56624500D01*
X197643003Y-56623653D01*
X197643162Y-56622440D01*
X197591309Y-56605593D01*
X197555345Y-56556093D01*
X197550500Y-56525500D01*
X197550499Y-55686630D01*
X197550499Y-55686628D01*
X197547682Y-55662338D01*
X197503813Y-55562984D01*
X197427016Y-55486187D01*
X197327662Y-55442318D01*
X197327661Y-55442317D01*
X197327659Y-55442317D01*
X197303376Y-55439500D01*
X196896630Y-55439500D01*
X196896627Y-55439501D01*
X196872338Y-55442317D01*
X196772982Y-55486188D01*
X196772981Y-55486188D01*
X196770000Y-55489170D01*
X196715482Y-55516945D01*
X196655050Y-55507370D01*
X196630000Y-55489170D01*
X196627018Y-55486188D01*
X196627016Y-55486187D01*
X196527662Y-55442318D01*
X196527661Y-55442317D01*
X196527659Y-55442317D01*
X196503376Y-55439500D01*
X196096630Y-55439500D01*
X196096627Y-55439501D01*
X196072338Y-55442317D01*
X195972982Y-55486188D01*
X195972981Y-55486188D01*
X195970000Y-55489170D01*
X195915482Y-55516945D01*
X195855050Y-55507370D01*
X195830000Y-55489170D01*
X195827018Y-55486188D01*
X195827016Y-55486187D01*
X195727662Y-55442318D01*
X195727661Y-55442317D01*
X195727659Y-55442317D01*
X195703376Y-55439500D01*
X195296630Y-55439500D01*
X195296627Y-55439501D01*
X195272338Y-55442317D01*
X195172982Y-55486188D01*
X195131944Y-55527226D01*
X195077427Y-55555003D01*
X195016995Y-55545431D01*
X195006938Y-55539537D01*
X194953643Y-55503925D01*
X194953639Y-55503924D01*
X194883648Y-55490001D01*
X194883637Y-55490000D01*
X194800001Y-55490000D01*
X194800000Y-55490001D01*
X194800000Y-56111000D01*
X194781093Y-56169191D01*
X194731593Y-56205155D01*
X194701000Y-56210000D01*
X194699000Y-56210000D01*
X194640809Y-56191093D01*
X194604845Y-56141593D01*
X194600000Y-56111000D01*
X194600000Y-55490001D01*
X194599999Y-55490000D01*
X194516363Y-55490000D01*
X194516351Y-55490001D01*
X194446360Y-55503924D01*
X194446354Y-55503926D01*
X194429500Y-55515188D01*
X194370611Y-55531795D01*
X194313208Y-55510616D01*
X194279216Y-55459742D01*
X194275500Y-55432871D01*
X194275500Y-55296545D01*
X194294407Y-55238354D01*
X194304496Y-55226541D01*
X194626541Y-54904496D01*
X194681058Y-54876719D01*
X194696545Y-54875500D01*
X195449831Y-54875500D01*
X195508022Y-54894407D01*
G37*
%TD.AperFunction*%
%TD*%
%TA.AperFunction,Conductor*%
%TO.N,/VLED*%
G36*
X196359191Y-58418907D02*
G01*
X196395155Y-58468407D01*
X196400000Y-58499000D01*
X196400000Y-59119999D01*
X196400001Y-59120000D01*
X196401000Y-59120000D01*
X196459191Y-59138907D01*
X196495155Y-59188407D01*
X196500000Y-59219000D01*
X196500000Y-59579682D01*
X196481093Y-59637873D01*
X196471003Y-59649686D01*
X196401878Y-59718810D01*
X196347361Y-59746587D01*
X196286929Y-59737015D01*
X196261871Y-59718810D01*
X196190251Y-59647190D01*
X196081591Y-59596521D01*
X196081584Y-59596519D01*
X196032069Y-59590000D01*
X195952231Y-59590000D01*
X195952230Y-59590001D01*
X195952230Y-60609999D01*
X195952231Y-60610000D01*
X196032068Y-60610000D01*
X196081584Y-60603480D01*
X196081591Y-60603478D01*
X196190251Y-60552809D01*
X196261872Y-60481189D01*
X196316389Y-60453412D01*
X196376821Y-60462983D01*
X196401876Y-60481186D01*
X196471005Y-60550315D01*
X196498781Y-60604830D01*
X196500000Y-60620317D01*
X196500000Y-61040640D01*
X196481093Y-61098831D01*
X196467307Y-61112380D01*
X196467809Y-61112882D01*
X196461685Y-61119005D01*
X196461684Y-61119006D01*
X196389647Y-61191042D01*
X196335133Y-61218818D01*
X196274701Y-61209247D01*
X196249642Y-61191041D01*
X196178021Y-61119420D01*
X196069361Y-61068751D01*
X196069354Y-61068749D01*
X196019839Y-61062230D01*
X195940001Y-61062230D01*
X195940000Y-61062231D01*
X195940000Y-61573230D01*
X195921093Y-61631421D01*
X195871593Y-61667385D01*
X195841000Y-61672230D01*
X195839000Y-61672230D01*
X195780809Y-61653323D01*
X195744845Y-61603823D01*
X195740000Y-61573230D01*
X195740000Y-61062231D01*
X195739999Y-61062230D01*
X195660161Y-61062230D01*
X195610645Y-61068749D01*
X195610638Y-61068751D01*
X195501978Y-61119420D01*
X195417190Y-61204208D01*
X195388993Y-61264677D01*
X195347264Y-61309425D01*
X195287203Y-61321099D01*
X195231750Y-61295240D01*
X195205226Y-61247387D01*
X195203862Y-61247785D01*
X195202104Y-61241756D01*
X195202088Y-61241726D01*
X195202077Y-61241663D01*
X195201742Y-61240511D01*
X195150995Y-61131686D01*
X195150994Y-61131685D01*
X195150994Y-61131684D01*
X195066086Y-61046776D01*
X195066084Y-61046775D01*
X195066082Y-61046773D01*
X195057160Y-61042613D01*
X195012412Y-61000884D01*
X195000000Y-60952889D01*
X195000000Y-60587110D01*
X195018907Y-60528919D01*
X195057161Y-60497385D01*
X195066086Y-60493224D01*
X195150994Y-60408316D01*
X195190088Y-60324478D01*
X195231814Y-60279732D01*
X195291875Y-60268057D01*
X195347328Y-60293914D01*
X195376992Y-60347428D01*
X195377963Y-60353391D01*
X195378747Y-60359349D01*
X195378751Y-60359361D01*
X195429420Y-60468021D01*
X195514208Y-60552809D01*
X195622868Y-60603478D01*
X195622875Y-60603480D01*
X195672391Y-60610000D01*
X195752229Y-60610000D01*
X195752230Y-60609999D01*
X195752230Y-59590001D01*
X195752229Y-59590000D01*
X195672391Y-59590000D01*
X195622875Y-59596519D01*
X195622868Y-59596521D01*
X195514208Y-59647190D01*
X195429420Y-59731978D01*
X195390430Y-59815593D01*
X195348702Y-59860341D01*
X195288640Y-59872015D01*
X195233188Y-59846157D01*
X195203525Y-59792642D01*
X195202552Y-59786670D01*
X195201741Y-59780509D01*
X195150995Y-59671686D01*
X195150994Y-59671685D01*
X195150994Y-59671684D01*
X195066086Y-59586776D01*
X195066084Y-59586775D01*
X195066082Y-59586773D01*
X195057160Y-59582613D01*
X195012412Y-59540884D01*
X195000000Y-59492889D01*
X195000000Y-59127789D01*
X195018907Y-59069598D01*
X195028996Y-59057785D01*
X195030357Y-59056424D01*
X195084874Y-59028647D01*
X195145306Y-59038218D01*
X195158658Y-59047918D01*
X195158863Y-59047613D01*
X195246353Y-59106072D01*
X195246360Y-59106075D01*
X195316351Y-59119998D01*
X195316363Y-59120000D01*
X195399999Y-59120000D01*
X195400000Y-59119999D01*
X195600000Y-59119999D01*
X195600001Y-59120000D01*
X195683637Y-59120000D01*
X195683648Y-59119998D01*
X195753639Y-59106075D01*
X195753646Y-59106072D01*
X195841137Y-59047613D01*
X195842519Y-59049682D01*
X195884513Y-59028286D01*
X195944945Y-59037857D01*
X195958702Y-59047852D01*
X195958863Y-59047613D01*
X196046353Y-59106072D01*
X196046360Y-59106075D01*
X196116351Y-59119998D01*
X196116363Y-59120000D01*
X196199999Y-59120000D01*
X196200000Y-59119999D01*
X196200000Y-58600001D01*
X196199999Y-58600000D01*
X195600001Y-58600000D01*
X195600000Y-58600001D01*
X195600000Y-59119999D01*
X195400000Y-59119999D01*
X195400000Y-58499000D01*
X195418907Y-58440809D01*
X195468407Y-58404845D01*
X195499000Y-58400000D01*
X196301000Y-58400000D01*
X196359191Y-58418907D01*
G37*
%TD.AperFunction*%
%TD*%
%TA.AperFunction,Conductor*%
%TO.N,+1.8V*%
G36*
X194759191Y-58418907D02*
G01*
X194795155Y-58468407D01*
X194800000Y-58499000D01*
X194800000Y-59085269D01*
X194798781Y-59100755D01*
X194796781Y-59113383D01*
X194793018Y-59120767D01*
X194793499Y-59123805D01*
X194794805Y-59123908D01*
X194794500Y-59127785D01*
X194794500Y-59492894D01*
X194794957Y-59496488D01*
X194783537Y-59556599D01*
X194774946Y-59564678D01*
X194806863Y-59587867D01*
X194820982Y-59615643D01*
X194822982Y-59621838D01*
X194827770Y-59652253D01*
X194827770Y-60436483D01*
X194822924Y-60467077D01*
X194820924Y-60473232D01*
X194784959Y-60522732D01*
X194782544Y-60523516D01*
X194785033Y-60526005D01*
X194794093Y-60583173D01*
X194794805Y-60583229D01*
X194794571Y-60586191D01*
X194794608Y-60586419D01*
X194794500Y-60587097D01*
X194794500Y-60952894D01*
X194794957Y-60956488D01*
X194783537Y-61016599D01*
X194774946Y-61024678D01*
X194806863Y-61047867D01*
X194820982Y-61075643D01*
X194822982Y-61081838D01*
X194827770Y-61112253D01*
X194827770Y-61501000D01*
X194808863Y-61559191D01*
X194759363Y-61595155D01*
X194728770Y-61600000D01*
X194726770Y-61600000D01*
X194668579Y-61581093D01*
X194632615Y-61531593D01*
X194627770Y-61501000D01*
X194627770Y-61106058D01*
X194646219Y-61049276D01*
X194628683Y-61040000D01*
X194546770Y-61040000D01*
X194488579Y-61021093D01*
X194452615Y-60971593D01*
X194447770Y-60941000D01*
X194447770Y-60599000D01*
X194466677Y-60540809D01*
X194516177Y-60504845D01*
X194546770Y-60500000D01*
X194628683Y-60500000D01*
X194645747Y-60491304D01*
X194632615Y-60473229D01*
X194627770Y-60442638D01*
X194627770Y-59646058D01*
X194646219Y-59589276D01*
X194628683Y-59580000D01*
X194546770Y-59580000D01*
X194488579Y-59561093D01*
X194452615Y-59511593D01*
X194447770Y-59481000D01*
X194447770Y-59169000D01*
X194466677Y-59110809D01*
X194516177Y-59074845D01*
X194546770Y-59070000D01*
X194599999Y-59070000D01*
X194600000Y-59069999D01*
X194600000Y-58499000D01*
X194618907Y-58440809D01*
X194668407Y-58404845D01*
X194699000Y-58400000D01*
X194701000Y-58400000D01*
X194759191Y-58418907D01*
G37*
%TD.AperFunction*%
%TD*%
M02*
