%TF.GenerationSoftware,KiCad,Pcbnew,8.0.0*%
%TF.CreationDate,2024-05-02T00:18:50-07:00*%
%TF.ProjectId,ece16,65636531-362e-46b6-9963-61645f706362,rev?*%
%TF.SameCoordinates,Original*%
%TF.FileFunction,Copper,L1,Top*%
%TF.FilePolarity,Positive*%
%FSLAX46Y46*%
G04 Gerber Fmt 4.6, Leading zero omitted, Abs format (unit mm)*
G04 Created by KiCad (PCBNEW 8.0.0) date 2024-05-02 00:18:50*
%MOMM*%
%LPD*%
G01*
G04 APERTURE LIST*
G04 Aperture macros list*
%AMRoundRect*
0 Rectangle with rounded corners*
0 $1 Rounding radius*
0 $2 $3 $4 $5 $6 $7 $8 $9 X,Y pos of 4 corners*
0 Add a 4 corners polygon primitive as box body*
4,1,4,$2,$3,$4,$5,$6,$7,$8,$9,$2,$3,0*
0 Add four circle primitives for the rounded corners*
1,1,$1+$1,$2,$3*
1,1,$1+$1,$4,$5*
1,1,$1+$1,$6,$7*
1,1,$1+$1,$8,$9*
0 Add four rect primitives between the rounded corners*
20,1,$1+$1,$2,$3,$4,$5,0*
20,1,$1+$1,$4,$5,$6,$7,0*
20,1,$1+$1,$6,$7,$8,$9,0*
20,1,$1+$1,$8,$9,$2,$3,0*%
%AMFreePoly0*
4,1,14,0.603536,0.603536,0.605000,0.600000,0.605000,-0.600000,0.603536,-0.603536,0.600000,-0.605000,-0.600000,-0.605000,-0.603536,-0.603536,-0.605000,-0.600000,-0.605000,0.000000,-0.603536,0.003536,-0.003536,0.603536,0.000000,0.605000,0.600000,0.605000,0.603536,0.603536,0.603536,0.603536,$1*%
G04 Aperture macros list end*
%TA.AperFunction,SMDPad,CuDef*%
%ADD10R,1.050000X0.650000*%
%TD*%
%TA.AperFunction,SMDPad,CuDef*%
%ADD11RoundRect,0.218750X0.256250X-0.218750X0.256250X0.218750X-0.256250X0.218750X-0.256250X-0.218750X0*%
%TD*%
%TA.AperFunction,SMDPad,CuDef*%
%ADD12R,1.000000X1.600000*%
%TD*%
%TA.AperFunction,SMDPad,CuDef*%
%ADD13RoundRect,0.135000X-0.185000X0.135000X-0.185000X-0.135000X0.185000X-0.135000X0.185000X0.135000X0*%
%TD*%
%TA.AperFunction,SMDPad,CuDef*%
%ADD14RoundRect,0.150000X-0.512500X-0.150000X0.512500X-0.150000X0.512500X0.150000X-0.512500X0.150000X0*%
%TD*%
%TA.AperFunction,SMDPad,CuDef*%
%ADD15RoundRect,0.140000X0.170000X-0.140000X0.170000X0.140000X-0.170000X0.140000X-0.170000X-0.140000X0*%
%TD*%
%TA.AperFunction,SMDPad,CuDef*%
%ADD16R,0.800000X0.400000*%
%TD*%
%TA.AperFunction,SMDPad,CuDef*%
%ADD17R,0.400000X0.800000*%
%TD*%
%TA.AperFunction,SMDPad,CuDef*%
%ADD18R,1.200000X1.200000*%
%TD*%
%TA.AperFunction,SMDPad,CuDef*%
%ADD19FreePoly0,0.000000*%
%TD*%
%TA.AperFunction,SMDPad,CuDef*%
%ADD20R,0.800000X0.800000*%
%TD*%
%TA.AperFunction,SMDPad,CuDef*%
%ADD21RoundRect,0.135000X0.135000X0.185000X-0.135000X0.185000X-0.135000X-0.185000X0.135000X-0.185000X0*%
%TD*%
%TA.AperFunction,SMDPad,CuDef*%
%ADD22R,1.320800X0.558800*%
%TD*%
%TA.AperFunction,ComponentPad*%
%ADD23R,1.700000X1.700000*%
%TD*%
%TA.AperFunction,ComponentPad*%
%ADD24O,1.700000X1.700000*%
%TD*%
%TA.AperFunction,SMDPad,CuDef*%
%ADD25RoundRect,0.140000X-0.170000X0.140000X-0.170000X-0.140000X0.170000X-0.140000X0.170000X0.140000X0*%
%TD*%
%TA.AperFunction,SMDPad,CuDef*%
%ADD26RoundRect,0.140000X-0.140000X-0.170000X0.140000X-0.170000X0.140000X0.170000X-0.140000X0.170000X0*%
%TD*%
%TA.AperFunction,SMDPad,CuDef*%
%ADD27RoundRect,0.150000X0.512500X0.150000X-0.512500X0.150000X-0.512500X-0.150000X0.512500X-0.150000X0*%
%TD*%
%TA.AperFunction,SMDPad,CuDef*%
%ADD28R,1.150000X0.600000*%
%TD*%
%TA.AperFunction,SMDPad,CuDef*%
%ADD29R,1.150000X0.300000*%
%TD*%
%TA.AperFunction,ComponentPad*%
%ADD30O,2.100000X1.000000*%
%TD*%
%TA.AperFunction,ComponentPad*%
%ADD31RoundRect,0.250000X0.650000X-0.250000X0.650000X0.250000X-0.650000X0.250000X-0.650000X-0.250000X0*%
%TD*%
%TA.AperFunction,SMDPad,CuDef*%
%ADD32RoundRect,0.140000X0.140000X0.170000X-0.140000X0.170000X-0.140000X-0.170000X0.140000X-0.170000X0*%
%TD*%
%TA.AperFunction,SMDPad,CuDef*%
%ADD33RoundRect,0.250000X0.300000X-0.300000X0.300000X0.300000X-0.300000X0.300000X-0.300000X-0.300000X0*%
%TD*%
%TA.AperFunction,SMDPad,CuDef*%
%ADD34R,1.750000X1.750000*%
%TD*%
%TA.AperFunction,SMDPad,CuDef*%
%ADD35R,0.370000X0.650000*%
%TD*%
%TA.AperFunction,SMDPad,CuDef*%
%ADD36R,0.650000X0.370000*%
%TD*%
%TA.AperFunction,ComponentPad*%
%ADD37C,2.000000*%
%TD*%
%TA.AperFunction,SMDPad,CuDef*%
%ADD38RoundRect,0.147500X-0.172500X0.147500X-0.172500X-0.147500X0.172500X-0.147500X0.172500X0.147500X0*%
%TD*%
%TA.AperFunction,SMDPad,CuDef*%
%ADD39RoundRect,0.250000X-0.300000X0.300000X-0.300000X-0.300000X0.300000X-0.300000X0.300000X0.300000X0*%
%TD*%
%TA.AperFunction,SMDPad,CuDef*%
%ADD40R,1.250000X0.460000*%
%TD*%
%TA.AperFunction,SMDPad,CuDef*%
%ADD41RoundRect,0.135000X-0.135000X-0.185000X0.135000X-0.185000X0.135000X0.185000X-0.135000X0.185000X0*%
%TD*%
%TA.AperFunction,ComponentPad*%
%ADD42RoundRect,0.250000X-0.625000X0.350000X-0.625000X-0.350000X0.625000X-0.350000X0.625000X0.350000X0*%
%TD*%
%TA.AperFunction,ComponentPad*%
%ADD43O,1.750000X1.200000*%
%TD*%
%TA.AperFunction,ViaPad*%
%ADD44C,0.400000*%
%TD*%
%TA.AperFunction,Conductor*%
%ADD45C,0.250000*%
%TD*%
%TA.AperFunction,Conductor*%
%ADD46C,0.200000*%
%TD*%
G04 APERTURE END LIST*
D10*
%TO.P,SW2,1*%
%TO.N,/EN*%
X144925000Y-47925000D03*
%TO.P,SW2,2*%
%TO.N,GND*%
X149075000Y-47925000D03*
%TO.P,SW2,3*%
%TO.N,N/C*%
X144925000Y-50075000D03*
%TO.P,SW2,4*%
X149075000Y-50075000D03*
%TD*%
D11*
%TO.P,D4,1,K*%
%TO.N,Net-(D4-K)*%
X112500000Y-63287500D03*
%TO.P,D4,2,A*%
%TO.N,Net-(D4-A)*%
X112500000Y-61712500D03*
%TD*%
D12*
%TO.P,S1,1,1*%
%TO.N,unconnected-(S1-1-Pad1.1)*%
X133600000Y-71500000D03*
%TO.P,S1,1.1,1*%
%TO.N,unconnected-(S1-1-Pad1.1)_0*%
X133600000Y-73900000D03*
%TO.P,S1,2,2*%
%TO.N,+BATT*%
X136100000Y-71500000D03*
%TO.P,S1,2.1,2*%
X136100000Y-73900000D03*
%TO.P,S1,3,3*%
%TO.N,Net-(BT1-+)*%
X138600000Y-71500000D03*
%TO.P,S1,3.1,3*%
X138600000Y-73900000D03*
%TD*%
D13*
%TO.P,R4,1*%
%TO.N,+BATT*%
X125000000Y-45990000D03*
%TO.P,R4,2*%
%TO.N,Net-(U2-IO4)*%
X125000000Y-47010000D03*
%TD*%
D14*
%TO.P,U1,1,IN*%
%TO.N,Net-(D1-K)*%
X114362500Y-50050000D03*
%TO.P,U1,2,GND*%
%TO.N,GND*%
X114362500Y-51000000D03*
%TO.P,U1,3,EN*%
%TO.N,Net-(D1-K)*%
X114362500Y-51950000D03*
%TO.P,U1,4,NC*%
%TO.N,unconnected-(U1-NC-Pad4)*%
X116637500Y-51950000D03*
%TO.P,U1,5,OUT*%
%TO.N,+3V3*%
X116637500Y-50050000D03*
%TD*%
D15*
%TO.P,C10,1*%
%TO.N,+3V3*%
X148000000Y-60480000D03*
%TO.P,C10,2*%
%TO.N,GND*%
X148000000Y-59520000D03*
%TD*%
D16*
%TO.P,U2,1,GND*%
%TO.N,GND*%
X128500000Y-41050000D03*
%TO.P,U2,2,GND*%
X128500000Y-41900000D03*
%TO.P,U2,3,3V3*%
%TO.N,+3V3*%
X128500000Y-42750000D03*
%TO.P,U2,4,IO0*%
%TO.N,/Boot*%
X128500000Y-43600000D03*
%TO.P,U2,5,IO1*%
%TO.N,unconnected-(U2-IO1-Pad5)*%
X128500000Y-44450000D03*
%TO.P,U2,6,IO2*%
%TO.N,unconnected-(U2-IO2-Pad6)*%
X128500000Y-45300000D03*
%TO.P,U2,7,IO3*%
%TO.N,unconnected-(U2-IO3-Pad7)*%
X128500000Y-46150000D03*
%TO.P,U2,8,IO4*%
%TO.N,Net-(U2-IO4)*%
X128500000Y-47000000D03*
%TO.P,U2,9,IO5*%
%TO.N,unconnected-(U2-IO5-Pad9)*%
X128500000Y-47850000D03*
%TO.P,U2,10,IO6*%
%TO.N,unconnected-(U2-IO6-Pad10)*%
X128500000Y-48700000D03*
%TO.P,U2,11,IO7*%
%TO.N,unconnected-(U2-IO7-Pad11)*%
X128500000Y-49550000D03*
%TO.P,U2,12,IO8*%
%TO.N,/SDA*%
X128500000Y-50400000D03*
%TO.P,U2,13,IO9*%
%TO.N,/SCL*%
X128500000Y-51250000D03*
%TO.P,U2,14,IO10*%
%TO.N,unconnected-(U2-IO10-Pad14)*%
X128500000Y-52100000D03*
%TO.P,U2,15,IO11*%
%TO.N,unconnected-(U2-IO11-Pad15)*%
X128500000Y-52950000D03*
D17*
%TO.P,U2,16,IO12*%
%TO.N,/Ax*%
X129550000Y-54000000D03*
%TO.P,U2,17,IO13*%
%TO.N,/Ay*%
X130400000Y-54000000D03*
%TO.P,U2,18,IO14*%
%TO.N,/Az*%
X131250000Y-54000000D03*
%TO.P,U2,19,IO15*%
%TO.N,unconnected-(U2-IO15-Pad19)*%
X132100000Y-54000000D03*
%TO.P,U2,20,IO16*%
%TO.N,unconnected-(U2-IO16-Pad20)*%
X132950000Y-54000000D03*
%TO.P,U2,21,IO17*%
%TO.N,unconnected-(U2-IO17-Pad21)*%
X133800000Y-54000000D03*
%TO.P,U2,22,IO18*%
%TO.N,unconnected-(U2-IO18-Pad22)*%
X134650000Y-54000000D03*
%TO.P,U2,23,IO19*%
%TO.N,/DN*%
X135500000Y-54000000D03*
%TO.P,U2,24,IO20*%
%TO.N,/DP*%
X136350000Y-54000000D03*
%TO.P,U2,25,IO21*%
%TO.N,unconnected-(U2-IO21-Pad25)*%
X137200000Y-54000000D03*
%TO.P,U2,26,IO26*%
%TO.N,unconnected-(U2-IO26-Pad26)*%
X138050000Y-54000000D03*
%TO.P,U2,27,IO47*%
%TO.N,unconnected-(U2-IO47-Pad27)*%
X138900000Y-54000000D03*
%TO.P,U2,28,IO33*%
%TO.N,unconnected-(U2-IO33-Pad28)*%
X139750000Y-54000000D03*
%TO.P,U2,29,IO34*%
%TO.N,unconnected-(U2-IO34-Pad29)*%
X140600000Y-54000000D03*
%TO.P,U2,30,IO48*%
%TO.N,unconnected-(U2-IO48-Pad30)*%
X141450000Y-54000000D03*
D16*
%TO.P,U2,31,IO35*%
%TO.N,unconnected-(U2-IO35-Pad31)*%
X142500000Y-52950000D03*
%TO.P,U2,32,IO36*%
%TO.N,unconnected-(U2-IO36-Pad32)*%
X142500000Y-52100000D03*
%TO.P,U2,33,IO37*%
%TO.N,unconnected-(U2-IO37-Pad33)*%
X142500000Y-51250000D03*
%TO.P,U2,34,IO38*%
%TO.N,unconnected-(U2-IO38-Pad34)*%
X142500000Y-50400000D03*
%TO.P,U2,35,IO39*%
%TO.N,unconnected-(U2-IO39-Pad35)*%
X142500000Y-49550000D03*
%TO.P,U2,36,IO40*%
%TO.N,unconnected-(U2-IO40-Pad36)*%
X142500000Y-48700000D03*
%TO.P,U2,37,IO41*%
%TO.N,unconnected-(U2-IO41-Pad37)*%
X142500000Y-47850000D03*
%TO.P,U2,38,IO42*%
%TO.N,unconnected-(U2-IO42-Pad38)*%
X142500000Y-47000000D03*
%TO.P,U2,39,TXD0*%
%TO.N,unconnected-(U2-TXD0-Pad39)*%
X142500000Y-46150000D03*
%TO.P,U2,40,RXD0*%
%TO.N,unconnected-(U2-RXD0-Pad40)*%
X142500000Y-45300000D03*
%TO.P,U2,41,IO45*%
%TO.N,unconnected-(U2-IO45-Pad41)*%
X142500000Y-44450000D03*
%TO.P,U2,42,GND*%
%TO.N,GND*%
X142500000Y-43600000D03*
%TO.P,U2,43,GND*%
X142500000Y-42750000D03*
%TO.P,U2,44,IO46*%
%TO.N,unconnected-(U2-IO46-Pad44)*%
X142500000Y-41900000D03*
%TO.P,U2,45,EN*%
%TO.N,/EN*%
X142500000Y-41050000D03*
D17*
%TO.P,U2,46,GND*%
%TO.N,GND*%
X141450000Y-40000000D03*
%TO.P,U2,47,GND*%
X140600000Y-40000000D03*
%TO.P,U2,48,GND*%
X139750000Y-40000000D03*
%TO.P,U2,49,GND*%
X138900000Y-40000000D03*
%TO.P,U2,50,GND*%
X138050000Y-40000000D03*
%TO.P,U2,51,GND*%
X137200000Y-40000000D03*
%TO.P,U2,52,GND*%
X136350000Y-40000000D03*
%TO.P,U2,53,GND*%
X135500000Y-40000000D03*
%TO.P,U2,54,GND*%
X134650000Y-40000000D03*
%TO.P,U2,55,GND*%
X133800000Y-40000000D03*
%TO.P,U2,56,GND*%
X132950000Y-40000000D03*
%TO.P,U2,57,GND*%
X132100000Y-40000000D03*
%TO.P,U2,58,GND*%
X131250000Y-40000000D03*
%TO.P,U2,59,GND*%
X130400000Y-40000000D03*
%TO.P,U2,60,GND*%
X129550000Y-40000000D03*
D18*
%TO.P,U2,61,GND*%
X135500000Y-47000000D03*
D19*
%TO.P,U2,61_1,GND*%
X133850000Y-45350000D03*
D18*
%TO.P,U2,61_2,GND*%
X135500000Y-45350000D03*
%TO.P,U2,61_3,GND*%
X137150000Y-45350000D03*
%TO.P,U2,61_4,GND*%
X137150000Y-47000000D03*
%TO.P,U2,61_5,GND*%
X137150000Y-48650000D03*
%TO.P,U2,61_6,GND*%
X135500000Y-48650000D03*
%TO.P,U2,61_7,GND*%
X133850000Y-48650000D03*
%TO.P,U2,61_8,GND*%
X133850000Y-47000000D03*
D20*
%TO.P,U2,62,GND*%
X128500000Y-40000000D03*
%TO.P,U2,63,GND*%
X128500000Y-54000000D03*
%TO.P,U2,64,GND*%
X142500000Y-54000000D03*
%TO.P,U2,65,GND*%
X142500000Y-40000000D03*
%TD*%
D21*
%TO.P,R15,1*%
%TO.N,GND*%
X115448400Y-65000000D03*
%TO.P,R15,2*%
%TO.N,Net-(MCP73831T1-PROG)*%
X114428400Y-65000000D03*
%TD*%
D22*
%TO.P,MCP73831T1,1,STAT*%
%TO.N,/STAT*%
X117300000Y-63439800D03*
%TO.P,MCP73831T1,2,VSS*%
%TO.N,GND*%
X117300000Y-62500000D03*
%TO.P,MCP73831T1,3,VBAT*%
%TO.N,Net-(BT1-+)*%
X117300000Y-61560200D03*
%TO.P,MCP73831T1,4,VDD*%
%TO.N,Net-(D4-A)*%
X114556800Y-61560200D03*
%TO.P,MCP73831T1,5,PROG*%
%TO.N,Net-(MCP73831T1-PROG)*%
X114556800Y-63439800D03*
%TD*%
D13*
%TO.P,R5,1*%
%TO.N,Net-(U2-IO4)*%
X126500000Y-45990000D03*
%TO.P,R5,2*%
%TO.N,GND*%
X126500000Y-47010000D03*
%TD*%
D23*
%TO.P,U4,1,GND*%
%TO.N,GND*%
X132200000Y-64500000D03*
D24*
%TO.P,U4,2,VCC_IN*%
%TO.N,+3V3*%
X134740000Y-64500000D03*
%TO.P,U4,3,SCL*%
%TO.N,/SCL*%
X137280000Y-64500000D03*
%TO.P,U4,4,SDA*%
%TO.N,/SDA*%
X139820000Y-64500000D03*
%TD*%
D25*
%TO.P,C19,1*%
%TO.N,Net-(D4-A)*%
X111000000Y-62020000D03*
%TO.P,C19,2*%
%TO.N,GND*%
X111000000Y-62980000D03*
%TD*%
%TO.P,C7,1*%
%TO.N,/Az*%
X130750000Y-60020000D03*
%TO.P,C7,2*%
%TO.N,GND*%
X130750000Y-60980000D03*
%TD*%
D15*
%TO.P,C1,1*%
%TO.N,/Ay*%
X128500000Y-56980000D03*
%TO.P,C1,2*%
%TO.N,GND*%
X128500000Y-56020000D03*
%TD*%
D26*
%TO.P,C17,1*%
%TO.N,/VLED*%
X154500000Y-48965000D03*
%TO.P,C17,2*%
%TO.N,GND*%
X155460000Y-48965000D03*
%TD*%
D15*
%TO.P,C16,1*%
%TO.N,+3V3*%
X158980000Y-50945000D03*
%TO.P,C16,2*%
%TO.N,GND*%
X158980000Y-49985000D03*
%TD*%
D27*
%TO.P,U5,1,IN*%
%TO.N,+3V3*%
X146137500Y-61275000D03*
%TO.P,U5,2,GND*%
%TO.N,GND*%
X146137500Y-60325000D03*
%TO.P,U5,3,EN*%
%TO.N,+3V3*%
X146137500Y-59375000D03*
%TO.P,U5,4,NC*%
%TO.N,unconnected-(U5-NC-Pad4)*%
X143862500Y-59375000D03*
%TO.P,U5,5,OUT*%
%TO.N,+1.8V*%
X143862500Y-61275000D03*
%TD*%
D28*
%TO.P,USB4105-GF-A1,A1_B12,GND*%
%TO.N,GND*%
X152407500Y-62200000D03*
%TO.P,USB4105-GF-A1,A4_B9,VBUS*%
%TO.N,+5V*%
X152407500Y-61400000D03*
D29*
%TO.P,USB4105-GF-A1,A5,CC1*%
%TO.N,Net-(USB4105-GF-A1-CC1)*%
X152407500Y-60250000D03*
%TO.P,USB4105-GF-A1,A6,DP1*%
%TO.N,/DP*%
X152407500Y-59250000D03*
%TO.P,USB4105-GF-A1,A7,DN1*%
%TO.N,/DN*%
X152407500Y-58750000D03*
%TO.P,USB4105-GF-A1,A8,SBU1*%
%TO.N,unconnected-(USB4105-GF-A1-SBU1-PadA8)*%
X152407500Y-57750000D03*
D28*
%TO.P,USB4105-GF-A1,B1_A12,GND*%
%TO.N,GND*%
X152407500Y-55800000D03*
%TO.P,USB4105-GF-A1,B4_A9,VBUS*%
%TO.N,+5V*%
X152407500Y-56600000D03*
D29*
%TO.P,USB4105-GF-A1,B5,CC2*%
%TO.N,Net-(USB4105-GF-A1-CC2)*%
X152407500Y-57250000D03*
%TO.P,USB4105-GF-A1,B6,DP2*%
%TO.N,/DP*%
X152407500Y-58250000D03*
%TO.P,USB4105-GF-A1,B7,DN1*%
%TO.N,/DN*%
X152407500Y-59750000D03*
%TO.P,USB4105-GF-A1,B8,SBU2*%
%TO.N,unconnected-(USB4105-GF-A1-SBU2-PadB8)*%
X152407500Y-60750000D03*
D30*
%TO.P,USB4105-GF-A1,S1,SHELL_GND*%
%TO.N,GND*%
X152982500Y-63320000D03*
%TO.P,USB4105-GF-A1,S2,SHELL_GND*%
X152982500Y-54680000D03*
D31*
%TO.P,USB4105-GF-A1,S3,SHELL_GND*%
X157162500Y-63320000D03*
%TO.P,USB4105-GF-A1,S4,SHELL_GND*%
X157162500Y-54680000D03*
%TD*%
D13*
%TO.P,R2,1*%
%TO.N,+3V3*%
X148000000Y-39490000D03*
%TO.P,R2,2*%
%TO.N,/EN*%
X148000000Y-40510000D03*
%TD*%
D32*
%TO.P,C4,1*%
%TO.N,GND*%
X151480000Y-47500000D03*
%TO.P,C4,2*%
%TO.N,/EN*%
X150520000Y-47500000D03*
%TD*%
D33*
%TO.P,D1,1,K*%
%TO.N,Net-(D1-K)*%
X122500000Y-51900000D03*
%TO.P,D1,2,A*%
%TO.N,+BATT*%
X122500000Y-49100000D03*
%TD*%
D15*
%TO.P,C21,1*%
%TO.N,+3V3*%
X125000000Y-44980000D03*
%TO.P,C21,2*%
%TO.N,GND*%
X125000000Y-44020000D03*
%TD*%
D10*
%TO.P,SW1,1*%
%TO.N,/Boot*%
X144925000Y-42925000D03*
%TO.P,SW1,2*%
%TO.N,GND*%
X149075000Y-42925000D03*
%TO.P,SW1,3*%
%TO.N,N/C*%
X144925000Y-45075000D03*
%TO.P,SW1,4*%
X149075000Y-45075000D03*
%TD*%
D34*
%TO.P,U3,0,MI*%
%TO.N,GND*%
X127750000Y-59675000D03*
D35*
%TO.P,U3,1,NC*%
%TO.N,unconnected-(U3-NC-Pad1)*%
X126775000Y-61425000D03*
%TO.P,U3,2,ST*%
%TO.N,Net-(U3-ST)*%
X127425000Y-61425000D03*
%TO.P,U3,3*%
%TO.N,GND*%
X128075000Y-61425000D03*
%TO.P,U3,4,NC*%
%TO.N,unconnected-(U3-NC-Pad4)*%
X128725000Y-61425000D03*
D36*
%TO.P,U3,5*%
%TO.N,GND*%
X129500000Y-60650000D03*
%TO.P,U3,6,COM@6*%
X129500000Y-60000000D03*
%TO.P,U3,7*%
X129500000Y-59350000D03*
%TO.P,U3,8,ZOUT*%
%TO.N,/Az*%
X129500000Y-58700000D03*
D35*
%TO.P,U3,9,NC*%
%TO.N,unconnected-(U3-NC-Pad9)*%
X128725000Y-57925000D03*
%TO.P,U3,10,YOUT*%
%TO.N,/Ay*%
X128075000Y-57925000D03*
%TO.P,U3,11,NC*%
%TO.N,unconnected-(U3-NC-Pad11)*%
X127425000Y-57925000D03*
%TO.P,U3,12,XOUT*%
%TO.N,/Ax*%
X126775000Y-57925000D03*
D36*
%TO.P,U3,13,NC*%
%TO.N,unconnected-(U3-NC-Pad13)*%
X126000000Y-58700000D03*
%TO.P,U3,14,VS@14*%
%TO.N,+3V3*%
X126000000Y-59350000D03*
%TO.P,U3,15*%
X126000000Y-60000000D03*
%TO.P,U3,16,NC*%
%TO.N,unconnected-(U3-NC-Pad16)*%
X126000000Y-60650000D03*
%TD*%
D21*
%TO.P,R7,1*%
%TO.N,Net-(USB4105-GF-A1-CC1)*%
X151010000Y-60500000D03*
%TO.P,R7,2*%
%TO.N,GND*%
X149990000Y-60500000D03*
%TD*%
D37*
%TO.P,TP1,1,1*%
%TO.N,Net-(U3-ST)*%
X127500000Y-64000000D03*
%TD*%
D13*
%TO.P,R1,1*%
%TO.N,Net-(PAM2401-SCADJ1-FB)*%
X150980000Y-51955000D03*
%TO.P,R1,2*%
%TO.N,GND*%
X150980000Y-52975000D03*
%TD*%
D15*
%TO.P,C11,1*%
%TO.N,+1.8V*%
X142000000Y-60480000D03*
%TO.P,C11,2*%
%TO.N,GND*%
X142000000Y-59520000D03*
%TD*%
D25*
%TO.P,C5,1*%
%TO.N,+3V3*%
X117000000Y-47520000D03*
%TO.P,C5,2*%
%TO.N,GND*%
X117000000Y-48480000D03*
%TD*%
D21*
%TO.P,R6,1*%
%TO.N,Net-(USB4105-GF-A1-CC2)*%
X151010000Y-57500000D03*
%TO.P,R6,2*%
%TO.N,GND*%
X149990000Y-57500000D03*
%TD*%
D38*
%TO.P,L1,1,1*%
%TO.N,+3V3*%
X158980000Y-51980000D03*
%TO.P,L1,2,2*%
%TO.N,Net-(PAM2401-SCADJ1-LX)*%
X158980000Y-52950000D03*
%TD*%
D32*
%TO.P,C9,1*%
%TO.N,GND*%
X148480000Y-41575000D03*
%TO.P,C9,2*%
%TO.N,/Boot*%
X147520000Y-41575000D03*
%TD*%
D25*
%TO.P,C18,1*%
%TO.N,Net-(BT1-+)*%
X118928400Y-61520000D03*
%TO.P,C18,2*%
%TO.N,GND*%
X118928400Y-62480000D03*
%TD*%
D39*
%TO.P,D2,1,K*%
%TO.N,Net-(D1-K)*%
X125000000Y-49145000D03*
%TO.P,D2,2,A*%
%TO.N,+5V*%
X125000000Y-51945000D03*
%TD*%
D15*
%TO.P,C20,1*%
%TO.N,+3V3*%
X126500000Y-44980000D03*
%TO.P,C20,2*%
%TO.N,GND*%
X126500000Y-44020000D03*
%TD*%
%TO.P,C2,1*%
%TO.N,/Ax*%
X127000000Y-56980000D03*
%TO.P,C2,2*%
%TO.N,GND*%
X127000000Y-56020000D03*
%TD*%
D40*
%TO.P,PAM2401-SCADJ1,1,LX*%
%TO.N,Net-(PAM2401-SCADJ1-LX)*%
X157090000Y-52440000D03*
%TO.P,PAM2401-SCADJ1,2,EN*%
%TO.N,+3V3*%
X157090000Y-51790000D03*
%TO.P,PAM2401-SCADJ1,3,Vin*%
X157090000Y-51140000D03*
%TO.P,PAM2401-SCADJ1,4,AGND*%
%TO.N,GND*%
X157090000Y-50490000D03*
%TO.P,PAM2401-SCADJ1,5,FB*%
%TO.N,Net-(PAM2401-SCADJ1-FB)*%
X152870000Y-50490000D03*
%TO.P,PAM2401-SCADJ1,6,RSET*%
%TO.N,unconnected-(PAM2401-SCADJ1-RSET-Pad6)*%
X152870000Y-51140000D03*
%TO.P,PAM2401-SCADJ1,7,OUT*%
%TO.N,/VLED*%
X152870000Y-51790000D03*
%TO.P,PAM2401-SCADJ1,8,PGND*%
%TO.N,GND*%
X152870000Y-52440000D03*
%TD*%
D25*
%TO.P,C6,1*%
%TO.N,Net-(D1-K)*%
X114000000Y-47520000D03*
%TO.P,C6,2*%
%TO.N,GND*%
X114000000Y-48480000D03*
%TD*%
%TO.P,C3,1*%
%TO.N,GND*%
X146000000Y-39520000D03*
%TO.P,C3,2*%
%TO.N,/EN*%
X146000000Y-40480000D03*
%TD*%
D41*
%TO.P,R13,1*%
%TO.N,Net-(D4-K)*%
X116418400Y-65000000D03*
%TO.P,R13,2*%
%TO.N,/STAT*%
X117438400Y-65000000D03*
%TD*%
D13*
%TO.P,R3,1*%
%TO.N,Net-(PAM2401-SCADJ1-FB)*%
X150980000Y-49955000D03*
%TO.P,R3,2*%
%TO.N,/VLED*%
X150980000Y-50975000D03*
%TD*%
D42*
%TO.P,BT1,1,+*%
%TO.N,Net-(BT1-+)*%
X116450000Y-56000000D03*
D43*
%TO.P,BT1,2,-*%
%TO.N,GND*%
X116450000Y-58000000D03*
%TD*%
D25*
%TO.P,C8,1*%
%TO.N,+3V3*%
X124500000Y-60020000D03*
%TO.P,C8,2*%
%TO.N,GND*%
X124500000Y-60980000D03*
%TD*%
D44*
%TO.N,+3V3*%
X144000000Y-65500000D03*
X120500000Y-52000000D03*
X132510000Y-57990000D03*
X153000000Y-48500000D03*
X147000000Y-58000000D03*
X132500000Y-61000000D03*
X119000000Y-52000000D03*
%TO.N,/SCL*%
X130000000Y-51500000D03*
%TO.N,Net-(D1-K)*%
X119000000Y-53000000D03*
X122000000Y-53000000D03*
%TO.N,+1.8V*%
X140500000Y-60500000D03*
%TO.N,+5V*%
X127000000Y-49500000D03*
X144000000Y-54500000D03*
%TO.N,/SDA*%
X130000000Y-50500000D03*
%TO.N,Net-(BT1-+)*%
X131500000Y-68500000D03*
X137500000Y-69000000D03*
%TO.N,/VLED*%
X148500000Y-55000000D03*
%TO.N,/Boot*%
X141000000Y-42500000D03*
X144000000Y-42000000D03*
%TO.N,GND*%
X129500000Y-56000000D03*
X120000000Y-44000000D03*
X119500000Y-44000000D03*
X151000000Y-56000000D03*
X119500000Y-43500000D03*
X150500000Y-58500000D03*
X119000000Y-49000000D03*
X125000000Y-54000000D03*
X125000000Y-54500000D03*
X119500000Y-48500000D03*
X119500000Y-49000000D03*
X151500000Y-48500000D03*
X152000000Y-48500000D03*
X120000000Y-43500000D03*
X125500000Y-54500000D03*
X129500000Y-55500000D03*
X125500000Y-54000000D03*
X154000000Y-47500000D03*
X151000000Y-58500000D03*
X150500000Y-56000000D03*
X154500000Y-47500000D03*
X119000000Y-48500000D03*
%TD*%
D45*
%TO.N,+3V3*%
X153170000Y-48330000D02*
X153000000Y-48500000D01*
X147988510Y-60480000D02*
X148000000Y-60480000D01*
X157090000Y-51140000D02*
X156215000Y-51140000D01*
X132000000Y-58500000D02*
X132510000Y-57990000D01*
X122480000Y-47500000D02*
X125000000Y-44980000D01*
X117020000Y-47500000D02*
X122480000Y-47500000D01*
X132000000Y-58500000D02*
X132000000Y-61000000D01*
X126258510Y-44980000D02*
X126500000Y-44980000D01*
X132500000Y-61500000D02*
X133500000Y-62500000D01*
X116000000Y-48210001D02*
X116000000Y-49412500D01*
X134120000Y-64500000D02*
X134740000Y-64500000D01*
X126500000Y-44980000D02*
X125000000Y-44980000D01*
X116000000Y-49412500D02*
X116637500Y-50050000D01*
X123980000Y-60020000D02*
X123500000Y-60500000D01*
X153000000Y-47500000D02*
X153000000Y-48500000D01*
X158980000Y-51980000D02*
X158980000Y-50945000D01*
X146500000Y-59012500D02*
X146500000Y-58500000D01*
X158785000Y-51140000D02*
X157090000Y-51140000D01*
X132500000Y-61000000D02*
X132510000Y-60990000D01*
X116637500Y-50050000D02*
X118587500Y-52000000D01*
X155830000Y-48330000D02*
X153170000Y-48330000D01*
X121000000Y-52500000D02*
X121000000Y-54000000D01*
X126136396Y-67000000D02*
X132500000Y-67000000D01*
X147205000Y-61275000D02*
X148000000Y-60480000D01*
X151000000Y-45500000D02*
X153000000Y-47500000D01*
X148000000Y-60480000D02*
X148480000Y-60480000D01*
X148990000Y-39490000D02*
X151000000Y-41500000D01*
X124500000Y-56500000D02*
X124500000Y-60020000D01*
X125000000Y-62863604D02*
X125000000Y-65863604D01*
X132000000Y-61000000D02*
X132500000Y-61500000D01*
X156065000Y-48565000D02*
X155830000Y-48330000D01*
X146883510Y-59375000D02*
X147988510Y-60480000D01*
X156065000Y-50990000D02*
X156065000Y-48565000D01*
X143500000Y-66000000D02*
X144000000Y-65500000D01*
X118587500Y-52000000D02*
X119000000Y-52000000D01*
X124500000Y-60020000D02*
X123980000Y-60020000D01*
X125980000Y-60020000D02*
X126000000Y-60000000D01*
X126500000Y-44980000D02*
X126534999Y-44980000D01*
X121000000Y-54000000D02*
X122475000Y-55475000D01*
X146137500Y-59375000D02*
X146500000Y-59012500D01*
X123475000Y-55475000D02*
X124500000Y-56500000D01*
X147000000Y-66000000D02*
X149000000Y-64000000D01*
X146500000Y-58500000D02*
X147000000Y-58000000D01*
X146137500Y-61275000D02*
X147205000Y-61275000D01*
X148000000Y-39490000D02*
X148990000Y-39490000D01*
X117000000Y-47520000D02*
X117020000Y-47500000D01*
X148480000Y-60480000D02*
X149000000Y-61000000D01*
X127500000Y-44014999D02*
X127500000Y-43100000D01*
X122475000Y-55475000D02*
X123475000Y-55475000D01*
X124500000Y-60020000D02*
X124511490Y-60020000D01*
X158980000Y-50945000D02*
X158785000Y-51140000D01*
X144500000Y-66000000D02*
X147000000Y-66000000D01*
X133500000Y-67000000D02*
X133000000Y-66500000D01*
X146137500Y-59375000D02*
X146883510Y-59375000D01*
X158790000Y-51790000D02*
X158980000Y-51980000D01*
X123500000Y-60500000D02*
X123500000Y-61363604D01*
X133000000Y-66240000D02*
X134740000Y-64500000D01*
X143500000Y-66000000D02*
X142500000Y-67000000D01*
X133500000Y-63260000D02*
X134740000Y-64500000D01*
X133500000Y-62500000D02*
X133500000Y-63260000D01*
X132500000Y-67000000D02*
X133000000Y-66500000D01*
X117000000Y-47520000D02*
X116690001Y-47520000D01*
X126534999Y-44980000D02*
X127500000Y-44014999D01*
X125000000Y-65863604D02*
X126136396Y-67000000D01*
X127500000Y-43100000D02*
X127850000Y-42750000D01*
X151000000Y-41500000D02*
X151000000Y-45500000D01*
X142500000Y-67000000D02*
X133500000Y-67000000D01*
X143500000Y-66000000D02*
X144500000Y-66000000D01*
X123500000Y-61363604D02*
X125000000Y-62863604D01*
X133000000Y-66500000D02*
X133000000Y-66240000D01*
X116690001Y-47520000D02*
X116000000Y-48210001D01*
X120500000Y-52000000D02*
X121000000Y-52500000D01*
X132500000Y-61000000D02*
X132500000Y-61500000D01*
X125000000Y-44980000D02*
X125011490Y-44980000D01*
X157090000Y-51790000D02*
X158790000Y-51790000D01*
X156215000Y-51140000D02*
X156065000Y-50990000D01*
X149000000Y-64000000D02*
X149000000Y-61000000D01*
X127850000Y-42750000D02*
X128500000Y-42750000D01*
%TO.N,/Ay*%
X128075000Y-57925000D02*
X128075000Y-57405000D01*
X129420000Y-56980000D02*
X130400000Y-56000000D01*
X128075000Y-57405000D02*
X128500000Y-56980000D01*
X130400000Y-56000000D02*
X130400000Y-54000000D01*
X128500000Y-56980000D02*
X129420000Y-56980000D01*
%TO.N,Net-(USB4105-GF-A1-CC2)*%
X151010000Y-57500000D02*
X151260000Y-57250000D01*
X151260000Y-57250000D02*
X152407500Y-57250000D01*
%TO.N,Net-(USB4105-GF-A1-CC1)*%
X151010000Y-60500000D02*
X151260000Y-60250000D01*
X151260000Y-60250000D02*
X152407500Y-60250000D01*
%TO.N,/SCL*%
X129750000Y-51250000D02*
X130000000Y-51500000D01*
X128500000Y-51250000D02*
X129750000Y-51250000D01*
%TO.N,Net-(D1-K)*%
X122000000Y-53000000D02*
X122500000Y-52500000D01*
X122500000Y-52500000D02*
X122500000Y-51900000D01*
X122500000Y-51900000D02*
X122500000Y-51645000D01*
X114362500Y-51950000D02*
X115412500Y-53000000D01*
X115412500Y-53000000D02*
X118500000Y-53000000D01*
X114362500Y-50050000D02*
X115024999Y-50050000D01*
X115024999Y-50050000D02*
X115350000Y-50375001D01*
X114309999Y-47520000D02*
X115000000Y-48210001D01*
X118500000Y-53000000D02*
X119000000Y-53000000D01*
X115024999Y-51950000D02*
X114362500Y-51950000D01*
X115350000Y-51624999D02*
X115024999Y-51950000D01*
X114000000Y-47520000D02*
X114309999Y-47520000D01*
X115000000Y-48210001D02*
X115000000Y-49412500D01*
X122500000Y-51645000D02*
X125000000Y-49145000D01*
X115000000Y-49412500D02*
X114362500Y-50050000D01*
X115350000Y-50375001D02*
X115350000Y-51624999D01*
%TO.N,/Ax*%
X129550000Y-54000000D02*
X129550000Y-54450000D01*
X126365000Y-55635000D02*
X127000000Y-55000000D01*
X126775000Y-57205000D02*
X127000000Y-56980000D01*
X127000000Y-56980000D02*
X126690001Y-56980000D01*
X126365000Y-56654999D02*
X126365000Y-55635000D01*
X129000000Y-55000000D02*
X127000000Y-55000000D01*
X126775000Y-57925000D02*
X126775000Y-57205000D01*
X129550000Y-54450000D02*
X129000000Y-55000000D01*
X126690001Y-56980000D02*
X126365000Y-56654999D01*
%TO.N,+1.8V*%
X142000000Y-60480000D02*
X143067500Y-60480000D01*
X141980000Y-60500000D02*
X142000000Y-60480000D01*
X140500000Y-60500000D02*
X141980000Y-60500000D01*
X143067500Y-60480000D02*
X143862500Y-61275000D01*
%TO.N,/EN*%
X150520000Y-47500000D02*
X149520000Y-46500000D01*
X144458510Y-41050000D02*
X145028510Y-40480000D01*
X149520000Y-46500000D02*
X146350000Y-46500000D01*
X150500000Y-47520000D02*
X150520000Y-47500000D01*
X150500000Y-42000000D02*
X149010000Y-40510000D01*
X146350000Y-46500000D02*
X144925000Y-47925000D01*
X145028510Y-40480000D02*
X146000000Y-40480000D01*
X146000000Y-40480000D02*
X147970000Y-40480000D01*
X149010000Y-40510000D02*
X148000000Y-40510000D01*
X142500000Y-41050000D02*
X144458510Y-41050000D01*
X147970000Y-40480000D02*
X148000000Y-40510000D01*
X149520000Y-46500000D02*
X150000000Y-46500000D01*
X150000000Y-46500000D02*
X150500000Y-46000000D01*
X150500000Y-46000000D02*
X150500000Y-42000000D01*
D46*
%TO.N,/DN*%
X153282500Y-58800000D02*
X153282500Y-59700000D01*
X153282500Y-59700000D02*
X153232500Y-59750000D01*
X153232500Y-59750000D02*
X152407500Y-59750000D01*
X149750000Y-59750000D02*
X152407500Y-59750000D01*
X145750000Y-55750000D02*
X149750000Y-59750000D01*
X153232500Y-58750000D02*
X153282500Y-58800000D01*
X137050000Y-55750000D02*
X145750000Y-55750000D01*
X152407500Y-58750000D02*
X153232500Y-58750000D01*
X135500000Y-54200000D02*
X137050000Y-55750000D01*
X135500000Y-54000000D02*
X135500000Y-54200000D01*
%TO.N,/DP*%
X151500000Y-58750000D02*
X151000000Y-59250000D01*
X149815686Y-59250000D02*
X151000000Y-59250000D01*
X137215686Y-55350000D02*
X145915686Y-55350000D01*
X145915686Y-55350000D02*
X149815686Y-59250000D01*
X151582500Y-58250000D02*
X151500000Y-58332500D01*
X152407500Y-58250000D02*
X151582500Y-58250000D01*
X136350000Y-54484314D02*
X137215686Y-55350000D01*
X136350000Y-54000000D02*
X136350000Y-54484314D01*
X151000000Y-59250000D02*
X152407500Y-59250000D01*
X151500000Y-58332500D02*
X151500000Y-58750000D01*
D45*
%TO.N,+5V*%
X153707500Y-57324949D02*
X152982551Y-56600000D01*
X152982551Y-56600000D02*
X152407500Y-56600000D01*
X153707500Y-60675051D02*
X153707500Y-57324949D01*
X146091726Y-54925000D02*
X147766726Y-56600000D01*
X125000000Y-51000000D02*
X126500000Y-49500000D01*
X152982551Y-61400000D02*
X153707500Y-60675051D01*
X144000000Y-54500000D02*
X144425000Y-54925000D01*
X147766726Y-56600000D02*
X152407500Y-56600000D01*
X152407500Y-61400000D02*
X152982551Y-61400000D01*
X126500000Y-49500000D02*
X127000000Y-49500000D01*
X125000000Y-51945000D02*
X125000000Y-51000000D01*
X144425000Y-54925000D02*
X146091726Y-54925000D01*
%TO.N,+BATT*%
X122500000Y-48490000D02*
X122500000Y-49100000D01*
X133000000Y-69000000D02*
X134300000Y-69000000D01*
X131500000Y-67500000D02*
X133000000Y-69000000D01*
X136100000Y-70800000D02*
X136100000Y-73200000D01*
X124500000Y-66000000D02*
X126000000Y-67500000D01*
X123000000Y-56575000D02*
X123000000Y-61500000D01*
X122350000Y-55925000D02*
X123000000Y-56575000D01*
X125000000Y-45990000D02*
X122500000Y-48490000D01*
X134300000Y-69000000D02*
X136100000Y-70800000D01*
X124500000Y-63000000D02*
X124500000Y-66000000D01*
X120500000Y-54136396D02*
X122288604Y-55925000D01*
X119975000Y-51625000D02*
X119975000Y-52217463D01*
X123000000Y-61500000D02*
X124500000Y-63000000D01*
X120500000Y-52742463D02*
X120500000Y-54136396D01*
X122500000Y-49100000D02*
X119975000Y-51625000D01*
X126000000Y-67500000D02*
X131500000Y-67500000D01*
X122288604Y-55925000D02*
X122350000Y-55925000D01*
X119975000Y-52217463D02*
X120500000Y-52742463D01*
%TO.N,/Az*%
X131250000Y-56250000D02*
X131250000Y-54000000D01*
X130075000Y-58700000D02*
X130750000Y-59375000D01*
X129500000Y-58700000D02*
X129500000Y-58000000D01*
X129500000Y-58000000D02*
X131250000Y-56250000D01*
X129500000Y-58700000D02*
X130075000Y-58700000D01*
X130750000Y-59375000D02*
X130750000Y-60020000D01*
%TO.N,/SDA*%
X129900000Y-50400000D02*
X130000000Y-50500000D01*
X128500000Y-50400000D02*
X129900000Y-50400000D01*
%TO.N,Net-(PAM2401-SCADJ1-LX)*%
X158980000Y-52950000D02*
X157600000Y-52950000D01*
X157600000Y-52950000D02*
X157090000Y-52440000D01*
%TO.N,Net-(PAM2401-SCADJ1-FB)*%
X150335000Y-50600000D02*
X150980000Y-49955000D01*
X151515000Y-50490000D02*
X150980000Y-49955000D01*
X150980000Y-51955000D02*
X150335000Y-51310000D01*
X150335000Y-51310000D02*
X150335000Y-50600000D01*
X152870000Y-50490000D02*
X151515000Y-50490000D01*
%TO.N,Net-(BT1-+)*%
X117650000Y-57200000D02*
X117650000Y-61210200D01*
X124000000Y-63136396D02*
X124000000Y-66136396D01*
X125813604Y-67950000D02*
X130950000Y-67950000D01*
X116450000Y-56000000D02*
X117650000Y-57200000D01*
X124000000Y-66136396D02*
X125813604Y-67950000D01*
X118888200Y-61560200D02*
X118928400Y-61520000D01*
X122383604Y-61520000D02*
X124000000Y-63136396D01*
X137500000Y-69700000D02*
X138600000Y-70800000D01*
X137500000Y-69000000D02*
X137500000Y-69700000D01*
X118928400Y-61520000D02*
X122383604Y-61520000D01*
X117650000Y-61210200D02*
X117300000Y-61560200D01*
X138600000Y-73200000D02*
X138600000Y-70800000D01*
X130950000Y-67950000D02*
X131500000Y-68500000D01*
X117300000Y-61560200D02*
X118888200Y-61560200D01*
%TO.N,/VLED*%
X153745000Y-51790000D02*
X152870000Y-51790000D01*
X154500000Y-48965000D02*
X154500000Y-51035000D01*
X152000000Y-53500000D02*
X153315000Y-53500000D01*
X154267500Y-52547500D02*
X154267500Y-51267500D01*
X152870000Y-51790000D02*
X151795000Y-51790000D01*
X150500000Y-55000000D02*
X152000000Y-53500000D01*
X151795000Y-51790000D02*
X150980000Y-50975000D01*
X154267500Y-51267500D02*
X153745000Y-51790000D01*
X154500000Y-51035000D02*
X154267500Y-51267500D01*
X148500000Y-55000000D02*
X150500000Y-55000000D01*
X153315000Y-53500000D02*
X154267500Y-52547500D01*
%TO.N,/Boot*%
X146510000Y-41575000D02*
X146575000Y-41575000D01*
X145160000Y-42925000D02*
X146510000Y-41575000D01*
X144425000Y-41575000D02*
X146575000Y-41575000D01*
X139900000Y-43600000D02*
X141000000Y-42500000D01*
X144000000Y-42000000D02*
X144425000Y-41575000D01*
X146575000Y-41575000D02*
X147520000Y-41575000D01*
X128500000Y-43600000D02*
X139900000Y-43600000D01*
X144925000Y-42925000D02*
X145160000Y-42925000D01*
%TO.N,Net-(U2-IO4)*%
X128490000Y-47010000D02*
X128500000Y-47000000D01*
X127510000Y-47000000D02*
X128500000Y-47000000D01*
X125480000Y-47010000D02*
X126500000Y-45990000D01*
X126500000Y-45990000D02*
X127510000Y-47000000D01*
X125000000Y-47010000D02*
X125480000Y-47010000D01*
%TO.N,GND*%
X128075000Y-61425000D02*
X128075000Y-60000000D01*
X128075000Y-60000000D02*
X127750000Y-59675000D01*
X118908400Y-62500000D02*
X118928400Y-62480000D01*
X151515000Y-52440000D02*
X152870000Y-52440000D01*
X150980000Y-52975000D02*
X151515000Y-52440000D01*
X117300000Y-62500000D02*
X118908400Y-62500000D01*
%TO.N,Net-(D4-A)*%
X111000000Y-62020000D02*
X112192500Y-62020000D01*
X112192500Y-62020000D02*
X112500000Y-61712500D01*
X114404500Y-61712500D02*
X114556800Y-61560200D01*
X112500000Y-61712500D02*
X114404500Y-61712500D01*
%TO.N,Net-(U3-ST)*%
X127500000Y-61500000D02*
X127425000Y-61425000D01*
X127500000Y-64000000D02*
X127500000Y-61500000D01*
%TO.N,Net-(D4-K)*%
X112952100Y-62835400D02*
X115835400Y-62835400D01*
X116000000Y-63625800D02*
X116418400Y-64044200D01*
X116418400Y-64044200D02*
X116418400Y-65000000D01*
X112500000Y-63287500D02*
X112952100Y-62835400D01*
X115835400Y-62835400D02*
X116000000Y-63000000D01*
X116000000Y-63000000D02*
X116000000Y-63625800D01*
%TO.N,/STAT*%
X117300000Y-63439800D02*
X117300000Y-64861600D01*
X117300000Y-64861600D02*
X117438400Y-65000000D01*
%TO.N,Net-(MCP73831T1-PROG)*%
X114556800Y-64871600D02*
X114428400Y-65000000D01*
X114556800Y-63439800D02*
X114556800Y-64871600D01*
%TD*%
%TA.AperFunction,Conductor*%
%TO.N,+3V3*%
G36*
X125367539Y-58519685D02*
G01*
X125413294Y-58572489D01*
X125424500Y-58624000D01*
X125424500Y-58909674D01*
X125424500Y-58909676D01*
X125424499Y-58909676D01*
X125441416Y-58994717D01*
X125438986Y-58995200D01*
X125444624Y-59047696D01*
X125440937Y-59060251D01*
X125425000Y-59140373D01*
X125425000Y-59165000D01*
X126061000Y-59165000D01*
X126128039Y-59184685D01*
X126173794Y-59237489D01*
X126185000Y-59289000D01*
X126185000Y-60061000D01*
X126165315Y-60128039D01*
X126112511Y-60173794D01*
X126061000Y-60185000D01*
X125425000Y-60185000D01*
X125425000Y-60209628D01*
X125441887Y-60294524D01*
X125439114Y-60295075D01*
X125444625Y-60346359D01*
X125440178Y-60361503D01*
X125423538Y-60445158D01*
X125391153Y-60507069D01*
X125330437Y-60541643D01*
X125297634Y-60544892D01*
X125112875Y-60538500D01*
X125046556Y-60516509D01*
X125002654Y-60462155D01*
X124995108Y-60392694D01*
X125006678Y-60358277D01*
X125045534Y-60282019D01*
X125047438Y-60270000D01*
X124374000Y-60270000D01*
X124306961Y-60250315D01*
X124261206Y-60197511D01*
X124250000Y-60146000D01*
X124250000Y-59497809D01*
X124750000Y-59497809D01*
X124750000Y-59770000D01*
X125047438Y-59770000D01*
X125045535Y-59757983D01*
X124989447Y-59647906D01*
X124989444Y-59647901D01*
X124902098Y-59560555D01*
X124902093Y-59560551D01*
X124900278Y-59559626D01*
X125424999Y-59559626D01*
X125441887Y-59644522D01*
X125439315Y-59645033D01*
X125444901Y-59697029D01*
X125440767Y-59711105D01*
X125425000Y-59790373D01*
X125425000Y-59815000D01*
X125815000Y-59815000D01*
X125815000Y-59535000D01*
X125425000Y-59535000D01*
X125425000Y-59559626D01*
X125424999Y-59559626D01*
X124900278Y-59559626D01*
X124792018Y-59504465D01*
X124750000Y-59497809D01*
X124250000Y-59497809D01*
X124207984Y-59504463D01*
X124207983Y-59504463D01*
X124180295Y-59518572D01*
X124111625Y-59531468D01*
X124046885Y-59505192D01*
X124006628Y-59448085D01*
X124000000Y-59408087D01*
X124000000Y-58624000D01*
X124019685Y-58556961D01*
X124072489Y-58511206D01*
X124124000Y-58500000D01*
X125300500Y-58500000D01*
X125367539Y-58519685D01*
G37*
%TD.AperFunction*%
%TD*%
%TA.AperFunction,Conductor*%
%TO.N,GND*%
G36*
X127758531Y-39019213D02*
G01*
X127795076Y-39069513D01*
X127800000Y-39100600D01*
X127800000Y-39275000D01*
X127828276Y-39275000D01*
X127887407Y-39294213D01*
X127923952Y-39344513D01*
X127923952Y-39406687D01*
X127911922Y-39431491D01*
X127864504Y-39502455D01*
X127850000Y-39575376D01*
X127850000Y-39750000D01*
X129101330Y-39750000D01*
X129160461Y-39769213D01*
X129172465Y-39779465D01*
X129193000Y-39800000D01*
X141807000Y-39800000D01*
X141827535Y-39779465D01*
X141882933Y-39751239D01*
X141898670Y-39750000D01*
X143150000Y-39750000D01*
X143150000Y-39575376D01*
X143135495Y-39502455D01*
X143088078Y-39431491D01*
X143071202Y-39371651D01*
X143092721Y-39313319D01*
X143144417Y-39278777D01*
X143171724Y-39275000D01*
X143200000Y-39275000D01*
X143200000Y-39100600D01*
X143219213Y-39041469D01*
X143269513Y-39004924D01*
X143300600Y-39000000D01*
X145421749Y-39000000D01*
X145480880Y-39019213D01*
X145517425Y-39069513D01*
X145517425Y-39131687D01*
X145511384Y-39146272D01*
X145454466Y-39257979D01*
X145454465Y-39257982D01*
X145452561Y-39270000D01*
X146547438Y-39270000D01*
X146547438Y-39269999D01*
X146545535Y-39257983D01*
X146488616Y-39146272D01*
X146478890Y-39084863D01*
X146507116Y-39029465D01*
X146562514Y-39001239D01*
X146578251Y-39000000D01*
X147332031Y-39000000D01*
X147391162Y-39019213D01*
X147427707Y-39069513D01*
X147427707Y-39131687D01*
X147421667Y-39145965D01*
X147377490Y-39272216D01*
X147377490Y-39272219D01*
X147374700Y-39301970D01*
X147374700Y-39678030D01*
X147376870Y-39701169D01*
X147377490Y-39707783D01*
X147421327Y-39833062D01*
X147462878Y-39889362D01*
X147482532Y-39948348D01*
X147463762Y-40007621D01*
X147413737Y-40044541D01*
X147381935Y-40049700D01*
X146572380Y-40049700D01*
X146513249Y-40030487D01*
X146476704Y-39980187D01*
X146476704Y-39918013D01*
X146486220Y-39899333D01*
X146485855Y-39899147D01*
X146545533Y-39782020D01*
X146545534Y-39782017D01*
X146547439Y-39770000D01*
X145452561Y-39770000D01*
X145454464Y-39782018D01*
X145514145Y-39899148D01*
X145512296Y-39900089D01*
X145528220Y-39949105D01*
X145509004Y-40008235D01*
X145458702Y-40044778D01*
X145427620Y-40049700D01*
X144971854Y-40049700D01*
X144862423Y-40079022D01*
X144862422Y-40079022D01*
X144831547Y-40096848D01*
X144810459Y-40109024D01*
X144764300Y-40135674D01*
X144764297Y-40135676D01*
X144309739Y-40590235D01*
X144254341Y-40618461D01*
X144238604Y-40619700D01*
X143233778Y-40619700D01*
X143174647Y-40600487D01*
X143138102Y-40550187D01*
X143135111Y-40499474D01*
X143150000Y-40424623D01*
X143150000Y-40250000D01*
X141898670Y-40250000D01*
X141839539Y-40230787D01*
X141827535Y-40220535D01*
X141807000Y-40200000D01*
X141650000Y-40200000D01*
X141650000Y-40650000D01*
X141674625Y-40650000D01*
X141682421Y-40648449D01*
X141744165Y-40655755D01*
X141789822Y-40697957D01*
X141801953Y-40758937D01*
X141799121Y-40773525D01*
X141797662Y-40778885D01*
X141794700Y-40804418D01*
X141794700Y-41295571D01*
X141794701Y-41295586D01*
X141797662Y-41321108D01*
X141797662Y-41321111D01*
X141847531Y-41434053D01*
X141843882Y-41435663D01*
X141856276Y-41477878D01*
X141844361Y-41514547D01*
X141847531Y-41515947D01*
X141797662Y-41628888D01*
X141797662Y-41628889D01*
X141794700Y-41654418D01*
X141794700Y-42145571D01*
X141794701Y-42145586D01*
X141797662Y-42171108D01*
X141797662Y-42171111D01*
X141843765Y-42275524D01*
X141868687Y-42300446D01*
X141896913Y-42355844D01*
X141887187Y-42417252D01*
X141881198Y-42427471D01*
X141864505Y-42452453D01*
X141850000Y-42525376D01*
X141850000Y-42550000D01*
X143150000Y-42550000D01*
X143150000Y-42525376D01*
X143135495Y-42452455D01*
X143118802Y-42427473D01*
X143101924Y-42367633D01*
X143123443Y-42309301D01*
X143131305Y-42300453D01*
X143156234Y-42275525D01*
X143160778Y-42265235D01*
X143202337Y-42171111D01*
X143202338Y-42171109D01*
X143205300Y-42145579D01*
X143205299Y-41654422D01*
X143202338Y-41628891D01*
X143199088Y-41621532D01*
X143192782Y-41559680D01*
X143224035Y-41505932D01*
X143280912Y-41480819D01*
X143291118Y-41480300D01*
X143561431Y-41480300D01*
X143620562Y-41499513D01*
X143657107Y-41549813D01*
X143657107Y-41611987D01*
X143637460Y-41646779D01*
X143570542Y-41724006D01*
X143510182Y-41856176D01*
X143489504Y-42000000D01*
X143510182Y-42143823D01*
X143557604Y-42247662D01*
X143570543Y-42275995D01*
X143633823Y-42349024D01*
X143665426Y-42385496D01*
X143665696Y-42385807D01*
X143787932Y-42464363D01*
X143927349Y-42505300D01*
X143927350Y-42505300D01*
X143994100Y-42505300D01*
X144053231Y-42524513D01*
X144089776Y-42574813D01*
X144094700Y-42605900D01*
X144094700Y-43295571D01*
X144094701Y-43295586D01*
X144097662Y-43321108D01*
X144097662Y-43321111D01*
X144143765Y-43425524D01*
X144143766Y-43425525D01*
X144224475Y-43506234D01*
X144328891Y-43552338D01*
X144354421Y-43555300D01*
X145495578Y-43555299D01*
X145521109Y-43552338D01*
X145625525Y-43506234D01*
X145706234Y-43425525D01*
X145752338Y-43321109D01*
X145755300Y-43295579D01*
X145755300Y-43175000D01*
X148300000Y-43175000D01*
X148300000Y-43274623D01*
X148314504Y-43347544D01*
X148369760Y-43430239D01*
X148452455Y-43485495D01*
X148525377Y-43500000D01*
X148825000Y-43500000D01*
X148825000Y-43175000D01*
X149325000Y-43175000D01*
X149325000Y-43500000D01*
X149624623Y-43500000D01*
X149697544Y-43485495D01*
X149780239Y-43430239D01*
X149835495Y-43347544D01*
X149850000Y-43274623D01*
X149850000Y-43175000D01*
X149325000Y-43175000D01*
X148825000Y-43175000D01*
X148300000Y-43175000D01*
X145755300Y-43175000D01*
X145755299Y-42979904D01*
X145774512Y-42920774D01*
X145784757Y-42908777D01*
X146018535Y-42675000D01*
X148300000Y-42675000D01*
X148825000Y-42675000D01*
X148825000Y-42350000D01*
X149325000Y-42350000D01*
X149325000Y-42675000D01*
X149850000Y-42675000D01*
X149850000Y-42575376D01*
X149835495Y-42502455D01*
X149780239Y-42419760D01*
X149697544Y-42364504D01*
X149624623Y-42350000D01*
X149325000Y-42350000D01*
X148825000Y-42350000D01*
X148525377Y-42350000D01*
X148452455Y-42364504D01*
X148369760Y-42419760D01*
X148314504Y-42502455D01*
X148300000Y-42575376D01*
X148300000Y-42675000D01*
X146018535Y-42675000D01*
X146658771Y-42034765D01*
X146714169Y-42006539D01*
X146729906Y-42005300D01*
X146967881Y-42005300D01*
X147027012Y-42024513D01*
X147048823Y-42046161D01*
X147061569Y-42063431D01*
X147169575Y-42143144D01*
X147296278Y-42187479D01*
X147326361Y-42190300D01*
X147713638Y-42190299D01*
X147743722Y-42187479D01*
X147870425Y-42143144D01*
X147978431Y-42063431D01*
X147978434Y-42063426D01*
X147982691Y-42060285D01*
X148041677Y-42040629D01*
X148100950Y-42059398D01*
X148101565Y-42059841D01*
X148107910Y-42064451D01*
X148217981Y-42120535D01*
X148229999Y-42122438D01*
X148230000Y-42122438D01*
X148230000Y-41825000D01*
X148730000Y-41825000D01*
X148730000Y-42122438D01*
X148742018Y-42120535D01*
X148852091Y-42064450D01*
X148939449Y-41977092D01*
X148995534Y-41867021D01*
X149002189Y-41825000D01*
X148730000Y-41825000D01*
X148230000Y-41825000D01*
X148230000Y-41425600D01*
X148249213Y-41366469D01*
X148299513Y-41329924D01*
X148330600Y-41325000D01*
X149002190Y-41325000D01*
X149030216Y-41292185D01*
X149083228Y-41259699D01*
X149145210Y-41264577D01*
X149177848Y-41286384D01*
X150040235Y-42148771D01*
X150068461Y-42204169D01*
X150069700Y-42219906D01*
X150069700Y-44581033D01*
X150050487Y-44640164D01*
X150000187Y-44676709D01*
X149938013Y-44676709D01*
X149887713Y-44640164D01*
X149877072Y-44621668D01*
X149856234Y-44574475D01*
X149775524Y-44493765D01*
X149671110Y-44447662D01*
X149645579Y-44444700D01*
X148504428Y-44444700D01*
X148504413Y-44444701D01*
X148478891Y-44447662D01*
X148478888Y-44447662D01*
X148374475Y-44493765D01*
X148293765Y-44574475D01*
X148247662Y-44678888D01*
X148247662Y-44678889D01*
X148244700Y-44704418D01*
X148244700Y-45445571D01*
X148244701Y-45445586D01*
X148247662Y-45471108D01*
X148247662Y-45471111D01*
X148293765Y-45575524D01*
X148293766Y-45575525D01*
X148374475Y-45656234D01*
X148478891Y-45702338D01*
X148504421Y-45705300D01*
X149645578Y-45705299D01*
X149671109Y-45702338D01*
X149775525Y-45656234D01*
X149856234Y-45575525D01*
X149869460Y-45545571D01*
X149877072Y-45528332D01*
X149918532Y-45481999D01*
X149979307Y-45468885D01*
X150036184Y-45493998D01*
X150067437Y-45547747D01*
X150069700Y-45568966D01*
X150069700Y-45780094D01*
X150050487Y-45839225D01*
X150040235Y-45851229D01*
X149851229Y-46040235D01*
X149795831Y-46068461D01*
X149780094Y-46069700D01*
X146293344Y-46069700D01*
X146183913Y-46099022D01*
X146183912Y-46099022D01*
X146085787Y-46155676D01*
X144976227Y-47265235D01*
X144920829Y-47293461D01*
X144905092Y-47294700D01*
X144354428Y-47294700D01*
X144354413Y-47294701D01*
X144328891Y-47297662D01*
X144328888Y-47297662D01*
X144224475Y-47343765D01*
X144143765Y-47424475D01*
X144097662Y-47528888D01*
X144097662Y-47528889D01*
X144094700Y-47554418D01*
X144094700Y-48295571D01*
X144094701Y-48295586D01*
X144097662Y-48321108D01*
X144097662Y-48321111D01*
X144143765Y-48425524D01*
X144143766Y-48425525D01*
X144224475Y-48506234D01*
X144328891Y-48552338D01*
X144354421Y-48555300D01*
X145495578Y-48555299D01*
X145521109Y-48552338D01*
X145625525Y-48506234D01*
X145706234Y-48425525D01*
X145752338Y-48321109D01*
X145755300Y-48295579D01*
X145755300Y-48175000D01*
X148300000Y-48175000D01*
X148300000Y-48274623D01*
X148314504Y-48347544D01*
X148369760Y-48430239D01*
X148452455Y-48485495D01*
X148525377Y-48500000D01*
X148825000Y-48500000D01*
X148825000Y-48175000D01*
X149325000Y-48175000D01*
X149325000Y-48500000D01*
X149624623Y-48500000D01*
X149697544Y-48485495D01*
X149780239Y-48430239D01*
X149835495Y-48347544D01*
X149850000Y-48274623D01*
X149850000Y-48175000D01*
X149325000Y-48175000D01*
X148825000Y-48175000D01*
X148300000Y-48175000D01*
X145755300Y-48175000D01*
X145755299Y-47744904D01*
X145774512Y-47685774D01*
X145783713Y-47675000D01*
X148300000Y-47675000D01*
X148825000Y-47675000D01*
X148825000Y-47350000D01*
X148525377Y-47350000D01*
X148452455Y-47364504D01*
X148369760Y-47419760D01*
X148314504Y-47502455D01*
X148300000Y-47575376D01*
X148300000Y-47675000D01*
X145783713Y-47675000D01*
X145784757Y-47673777D01*
X146498771Y-46959765D01*
X146554169Y-46931539D01*
X146569906Y-46930300D01*
X149300094Y-46930300D01*
X149359225Y-46949513D01*
X149371229Y-46959765D01*
X149589729Y-47178265D01*
X149617955Y-47233663D01*
X149608229Y-47295071D01*
X149564265Y-47339035D01*
X149518594Y-47350000D01*
X149325000Y-47350000D01*
X149325000Y-47675000D01*
X149839328Y-47675000D01*
X149898459Y-47694213D01*
X149935004Y-47744513D01*
X149937423Y-47753441D01*
X149937520Y-47753720D01*
X149937521Y-47753722D01*
X149961080Y-47821051D01*
X149981856Y-47880425D01*
X150057783Y-47983302D01*
X150061569Y-47988431D01*
X150169575Y-48068144D01*
X150296278Y-48112479D01*
X150326361Y-48115300D01*
X150713638Y-48115299D01*
X150743722Y-48112479D01*
X150870425Y-48068144D01*
X150978431Y-47988431D01*
X150978434Y-47988426D01*
X150982691Y-47985285D01*
X151041677Y-47965629D01*
X151100950Y-47984398D01*
X151101565Y-47984841D01*
X151107910Y-47989451D01*
X151217981Y-48045535D01*
X151229999Y-48047438D01*
X151230000Y-48047438D01*
X151230000Y-47750000D01*
X151730000Y-47750000D01*
X151730000Y-48047438D01*
X151742018Y-48045535D01*
X151852091Y-47989450D01*
X151939449Y-47902092D01*
X151995534Y-47792021D01*
X152002189Y-47750000D01*
X151730000Y-47750000D01*
X151230000Y-47750000D01*
X151230000Y-46952561D01*
X151217982Y-46954465D01*
X151217979Y-46954466D01*
X151107903Y-47010552D01*
X151101560Y-47015161D01*
X151042428Y-47034372D01*
X150983298Y-47015157D01*
X150982693Y-47014714D01*
X150870424Y-46931855D01*
X150809406Y-46910504D01*
X150743722Y-46887521D01*
X150743723Y-46887521D01*
X150739424Y-46887118D01*
X150713639Y-46884700D01*
X150713633Y-46884700D01*
X150554906Y-46884700D01*
X150495775Y-46865487D01*
X150483771Y-46855235D01*
X150439671Y-46811135D01*
X150411445Y-46755737D01*
X150421171Y-46694329D01*
X150439671Y-46668865D01*
X150621694Y-46486842D01*
X150844326Y-46264210D01*
X150892735Y-46180362D01*
X150938939Y-46138760D01*
X151000773Y-46132261D01*
X151050992Y-46159528D01*
X151714545Y-46823081D01*
X151742771Y-46878479D01*
X151733045Y-46939887D01*
X151730000Y-46943749D01*
X151730000Y-47250000D01*
X152008128Y-47250000D01*
X152048677Y-47225150D01*
X152110660Y-47230027D01*
X152143299Y-47251835D01*
X152540235Y-47648771D01*
X152568461Y-47704169D01*
X152569700Y-47719906D01*
X152569700Y-48203966D01*
X152560609Y-48245756D01*
X152510184Y-48356172D01*
X152510182Y-48356180D01*
X152489504Y-48500000D01*
X152510182Y-48643823D01*
X152561651Y-48756524D01*
X152570543Y-48775995D01*
X152617177Y-48829813D01*
X152665692Y-48885803D01*
X152665696Y-48885807D01*
X152787932Y-48964363D01*
X152927349Y-49005300D01*
X152927350Y-49005300D01*
X153072650Y-49005300D01*
X153072651Y-49005300D01*
X153212068Y-48964363D01*
X153334304Y-48885807D01*
X153334307Y-48885803D01*
X153334308Y-48885803D01*
X153412972Y-48795021D01*
X153466215Y-48762914D01*
X153489000Y-48760300D01*
X153814100Y-48760300D01*
X153873231Y-48779513D01*
X153909776Y-48829813D01*
X153914700Y-48860900D01*
X153914700Y-49188630D01*
X153914701Y-49188641D01*
X153917520Y-49218719D01*
X153917520Y-49218721D01*
X153917521Y-49218722D01*
X153938574Y-49278888D01*
X153961856Y-49345425D01*
X154046046Y-49459497D01*
X154044563Y-49460591D01*
X154068461Y-49507495D01*
X154069700Y-49523232D01*
X154069700Y-50815094D01*
X154050487Y-50874225D01*
X154040235Y-50886229D01*
X154003289Y-50923175D01*
X153972033Y-50954430D01*
X153916635Y-50982656D01*
X153855226Y-50972929D01*
X153811263Y-50928964D01*
X153800299Y-50883294D01*
X153800299Y-50864428D01*
X153800298Y-50864413D01*
X153796466Y-50831375D01*
X153798021Y-50831194D01*
X153798024Y-50798805D01*
X153796466Y-50798625D01*
X153797991Y-50785477D01*
X153800300Y-50765579D01*
X153800299Y-50214422D01*
X153797338Y-50188891D01*
X153789895Y-50172035D01*
X153751234Y-50084475D01*
X153670524Y-50003765D01*
X153566110Y-49957662D01*
X153540579Y-49954700D01*
X152199428Y-49954700D01*
X152199413Y-49954701D01*
X152173891Y-49957662D01*
X152173888Y-49957662D01*
X152069475Y-50003765D01*
X152043006Y-50030235D01*
X151987608Y-50058461D01*
X151971871Y-50059700D01*
X151734906Y-50059700D01*
X151675775Y-50040487D01*
X151663771Y-50030235D01*
X151634765Y-50001229D01*
X151606539Y-49945831D01*
X151605300Y-49930094D01*
X151605300Y-49766976D01*
X151605300Y-49766970D01*
X151602510Y-49737219D01*
X151558673Y-49611938D01*
X151479856Y-49505144D01*
X151373062Y-49426327D01*
X151357269Y-49420801D01*
X151247782Y-49382490D01*
X151247785Y-49382490D01*
X151236962Y-49381475D01*
X151218030Y-49379700D01*
X150741970Y-49379700D01*
X150721144Y-49381653D01*
X150712216Y-49382490D01*
X150586937Y-49426327D01*
X150480144Y-49505144D01*
X150401327Y-49611937D01*
X150357490Y-49737216D01*
X150357490Y-49737219D01*
X150354700Y-49766970D01*
X150354700Y-49766976D01*
X150354700Y-49930094D01*
X150335487Y-49989225D01*
X150325235Y-50001229D01*
X150077034Y-50249429D01*
X150021636Y-50277655D01*
X149960227Y-50267929D01*
X149916264Y-50223965D01*
X149905299Y-50178296D01*
X149905299Y-49704422D01*
X149902338Y-49678891D01*
X149901375Y-49676711D01*
X149856234Y-49574475D01*
X149775524Y-49493765D01*
X149671110Y-49447662D01*
X149645579Y-49444700D01*
X148504428Y-49444700D01*
X148504413Y-49444701D01*
X148478891Y-49447662D01*
X148478888Y-49447662D01*
X148374475Y-49493765D01*
X148293765Y-49574475D01*
X148247662Y-49678888D01*
X148247662Y-49678889D01*
X148244700Y-49704418D01*
X148244700Y-50445571D01*
X148244701Y-50445586D01*
X148247662Y-50471108D01*
X148247662Y-50471111D01*
X148293765Y-50575524D01*
X148293766Y-50575525D01*
X148374475Y-50656234D01*
X148478891Y-50702338D01*
X148504421Y-50705300D01*
X149645578Y-50705299D01*
X149671109Y-50702338D01*
X149763467Y-50661557D01*
X149825318Y-50655249D01*
X149879067Y-50686502D01*
X149904181Y-50743378D01*
X149904700Y-50753586D01*
X149904700Y-51366653D01*
X149914555Y-51403430D01*
X149914555Y-51403431D01*
X149934022Y-51476086D01*
X149934024Y-51476091D01*
X149970733Y-51539672D01*
X149979972Y-51555674D01*
X149987289Y-51568348D01*
X149990673Y-51574208D01*
X149990674Y-51574210D01*
X150325235Y-51908771D01*
X150353461Y-51964169D01*
X150354700Y-51979906D01*
X150354700Y-52143030D01*
X150355808Y-52154846D01*
X150357490Y-52172783D01*
X150401327Y-52298062D01*
X150480144Y-52404856D01*
X150480145Y-52404857D01*
X150504338Y-52422712D01*
X150540507Y-52473283D01*
X150540043Y-52535456D01*
X150515738Y-52574788D01*
X150477334Y-52613193D01*
X150422676Y-52725000D01*
X151537324Y-52725000D01*
X151482666Y-52613193D01*
X151444262Y-52574789D01*
X151416036Y-52519391D01*
X151425763Y-52457983D01*
X151455660Y-52422713D01*
X151479856Y-52404856D01*
X151558673Y-52298062D01*
X151568123Y-52271054D01*
X151605784Y-52221588D01*
X151665331Y-52203705D01*
X151689114Y-52207108D01*
X151738344Y-52220299D01*
X151738346Y-52220299D01*
X151738349Y-52220300D01*
X151738350Y-52220300D01*
X151971871Y-52220300D01*
X152031002Y-52239513D01*
X152043006Y-52249765D01*
X152069475Y-52276234D01*
X152173891Y-52322338D01*
X152199421Y-52325300D01*
X152999401Y-52325299D01*
X153058531Y-52344512D01*
X153095076Y-52394812D01*
X153100000Y-52425899D01*
X153100000Y-52569400D01*
X153080787Y-52628531D01*
X153030487Y-52665076D01*
X152999400Y-52670000D01*
X151995000Y-52670000D01*
X151995000Y-52694623D01*
X152009504Y-52767544D01*
X152064760Y-52850239D01*
X152117462Y-52885454D01*
X152155953Y-52934281D01*
X152158394Y-52996407D01*
X152123852Y-53048103D01*
X152065520Y-53069622D01*
X152061571Y-53069700D01*
X151943346Y-53069700D01*
X151895516Y-53082516D01*
X151879572Y-53086789D01*
X151879571Y-53086789D01*
X151833914Y-53099022D01*
X151833912Y-53099022D01*
X151767074Y-53137612D01*
X151742083Y-53152041D01*
X151735787Y-53155676D01*
X151735788Y-53155676D01*
X151676425Y-53215038D01*
X151621027Y-53243264D01*
X151559619Y-53233537D01*
X151550307Y-53225000D01*
X151230000Y-53225000D01*
X151230000Y-53490851D01*
X151239684Y-53499227D01*
X151271840Y-53552440D01*
X151266578Y-53614391D01*
X151245011Y-53646452D01*
X150351229Y-54540235D01*
X150295831Y-54568461D01*
X150280094Y-54569700D01*
X148794610Y-54569700D01*
X148740221Y-54553730D01*
X148712068Y-54535637D01*
X148672508Y-54524021D01*
X148572651Y-54494700D01*
X148427349Y-54494700D01*
X148386652Y-54506650D01*
X148287931Y-54535637D01*
X148165694Y-54614194D01*
X148070542Y-54724006D01*
X148010182Y-54856176D01*
X147989504Y-55000000D01*
X148010182Y-55143823D01*
X148063788Y-55261204D01*
X148070543Y-55275995D01*
X148108466Y-55319760D01*
X148156578Y-55375285D01*
X148165696Y-55385807D01*
X148287932Y-55464363D01*
X148427349Y-55505300D01*
X148427350Y-55505300D01*
X148572650Y-55505300D01*
X148572651Y-55505300D01*
X148712068Y-55464363D01*
X148740221Y-55446269D01*
X148794610Y-55430300D01*
X150556649Y-55430300D01*
X150556651Y-55430300D01*
X150657196Y-55403359D01*
X150666090Y-55400976D01*
X150764210Y-55344326D01*
X150844326Y-55264210D01*
X151649072Y-54459463D01*
X151704468Y-54431239D01*
X151720205Y-54430000D01*
X152265512Y-54430000D01*
X152248295Y-54439940D01*
X152192440Y-54495795D01*
X152152944Y-54564204D01*
X152132500Y-54640504D01*
X152132500Y-54719496D01*
X152152944Y-54795796D01*
X152192440Y-54864205D01*
X152248295Y-54920060D01*
X152265512Y-54930000D01*
X151724259Y-54930000D01*
X151767858Y-55035257D01*
X151815560Y-55106647D01*
X151832436Y-55166487D01*
X151810917Y-55224819D01*
X151759221Y-55259361D01*
X151751544Y-55261204D01*
X151734956Y-55264504D01*
X151652260Y-55319760D01*
X151597004Y-55402455D01*
X151582500Y-55475376D01*
X151582500Y-55550000D01*
X152556900Y-55550000D01*
X152616031Y-55569213D01*
X152652576Y-55619513D01*
X152657500Y-55650600D01*
X152657500Y-55894100D01*
X152638287Y-55953231D01*
X152587987Y-55989776D01*
X152556900Y-55994700D01*
X151786928Y-55994700D01*
X151786913Y-55994701D01*
X151761391Y-55997662D01*
X151761388Y-55997662D01*
X151662269Y-56041428D01*
X151621635Y-56050000D01*
X151582500Y-56050000D01*
X151582500Y-56069100D01*
X151563287Y-56128231D01*
X151512987Y-56164776D01*
X151481900Y-56169700D01*
X147986632Y-56169700D01*
X147927501Y-56150487D01*
X147915497Y-56140235D01*
X146355938Y-54580676D01*
X146355936Y-54580674D01*
X146257816Y-54524024D01*
X146257813Y-54524022D01*
X146257811Y-54524021D01*
X146192976Y-54506650D01*
X146192975Y-54506650D01*
X146178109Y-54502666D01*
X146148379Y-54494700D01*
X146148377Y-54494700D01*
X146148376Y-54494700D01*
X144644906Y-54494700D01*
X144585775Y-54475487D01*
X144573771Y-54465235D01*
X144517707Y-54409171D01*
X144493913Y-54362472D01*
X144491843Y-54363080D01*
X144489818Y-54356187D01*
X144489817Y-54356177D01*
X144429457Y-54224005D01*
X144334304Y-54114193D01*
X144212068Y-54035637D01*
X144072651Y-53994700D01*
X143927349Y-53994700D01*
X143857640Y-54015168D01*
X143787931Y-54035637D01*
X143665694Y-54114194D01*
X143570542Y-54224006D01*
X143510182Y-54356176D01*
X143489504Y-54500000D01*
X143510182Y-54643823D01*
X143570542Y-54775993D01*
X143570543Y-54775995D01*
X143572472Y-54778222D01*
X143573430Y-54780488D01*
X143574433Y-54782048D01*
X143574163Y-54782221D01*
X143596675Y-54835490D01*
X143582593Y-54896049D01*
X143535605Y-54936765D01*
X143496444Y-54944700D01*
X137425237Y-54944700D01*
X137366106Y-54925487D01*
X137354102Y-54915235D01*
X137315901Y-54877034D01*
X137287675Y-54821636D01*
X137297401Y-54760228D01*
X137341365Y-54716264D01*
X137387036Y-54705299D01*
X137445572Y-54705299D01*
X137445578Y-54705299D01*
X137471109Y-54702338D01*
X137471111Y-54702337D01*
X137584053Y-54652469D01*
X137585674Y-54656141D01*
X137627659Y-54643717D01*
X137664522Y-54655694D01*
X137665947Y-54652469D01*
X137756241Y-54692337D01*
X137778891Y-54702338D01*
X137804421Y-54705300D01*
X138295578Y-54705299D01*
X138321109Y-54702338D01*
X138321111Y-54702337D01*
X138434053Y-54652469D01*
X138435674Y-54656141D01*
X138477659Y-54643717D01*
X138514522Y-54655694D01*
X138515947Y-54652469D01*
X138606241Y-54692337D01*
X138628891Y-54702338D01*
X138654421Y-54705300D01*
X139145578Y-54705299D01*
X139171109Y-54702338D01*
X139171111Y-54702337D01*
X139284053Y-54652469D01*
X139285674Y-54656141D01*
X139327659Y-54643717D01*
X139364522Y-54655694D01*
X139365947Y-54652469D01*
X139456241Y-54692337D01*
X139478891Y-54702338D01*
X139504421Y-54705300D01*
X139995578Y-54705299D01*
X140021109Y-54702338D01*
X140021111Y-54702337D01*
X140134053Y-54652469D01*
X140135674Y-54656141D01*
X140177659Y-54643717D01*
X140214522Y-54655694D01*
X140215947Y-54652469D01*
X140306241Y-54692337D01*
X140328891Y-54702338D01*
X140354421Y-54705300D01*
X140845578Y-54705299D01*
X140871109Y-54702338D01*
X140871111Y-54702337D01*
X140984053Y-54652469D01*
X140985674Y-54656141D01*
X141027659Y-54643717D01*
X141064522Y-54655694D01*
X141065947Y-54652469D01*
X141156241Y-54692337D01*
X141178891Y-54702338D01*
X141204421Y-54705300D01*
X141695578Y-54705299D01*
X141721109Y-54702338D01*
X141825525Y-54656234D01*
X141850447Y-54631311D01*
X141905842Y-54603086D01*
X141967251Y-54612811D01*
X141977473Y-54618802D01*
X142002455Y-54635495D01*
X142075377Y-54650000D01*
X142250000Y-54650000D01*
X142250000Y-54250000D01*
X142750000Y-54250000D01*
X142750000Y-54650000D01*
X142924623Y-54650000D01*
X142997544Y-54635495D01*
X143080239Y-54580239D01*
X143135495Y-54497544D01*
X143150000Y-54424623D01*
X143150000Y-54250000D01*
X142750000Y-54250000D01*
X142250000Y-54250000D01*
X142250000Y-53850600D01*
X142269213Y-53791469D01*
X142319513Y-53754924D01*
X142350600Y-53750000D01*
X143150000Y-53750000D01*
X143150000Y-53575376D01*
X143135495Y-53502455D01*
X143118802Y-53477473D01*
X143101924Y-53417633D01*
X143123443Y-53359301D01*
X143131305Y-53350453D01*
X143156234Y-53325525D01*
X143200620Y-53225000D01*
X150422676Y-53225000D01*
X150477333Y-53336805D01*
X150568192Y-53427665D01*
X150683621Y-53484095D01*
X150683629Y-53484097D01*
X150730000Y-53490853D01*
X150730000Y-53225000D01*
X150422676Y-53225000D01*
X143200620Y-53225000D01*
X143202338Y-53221109D01*
X143205300Y-53195579D01*
X143205299Y-52704422D01*
X143202338Y-52678891D01*
X143202337Y-52678888D01*
X143152469Y-52565947D01*
X143156141Y-52564325D01*
X143143717Y-52522341D01*
X143155694Y-52485477D01*
X143152469Y-52484053D01*
X143202337Y-52371111D01*
X143202338Y-52371109D01*
X143205300Y-52345579D01*
X143205299Y-51854422D01*
X143202338Y-51828891D01*
X143188730Y-51798071D01*
X143152469Y-51715947D01*
X143156141Y-51714325D01*
X143143717Y-51672341D01*
X143155694Y-51635477D01*
X143152469Y-51634053D01*
X143202337Y-51521111D01*
X143202338Y-51521109D01*
X143205300Y-51495579D01*
X143205299Y-51004422D01*
X143202338Y-50978891D01*
X143202337Y-50978888D01*
X143152469Y-50865947D01*
X143156141Y-50864325D01*
X143143717Y-50822341D01*
X143155694Y-50785477D01*
X143152469Y-50784053D01*
X143202337Y-50671111D01*
X143202338Y-50671109D01*
X143205300Y-50645579D01*
X143205300Y-50445571D01*
X144094700Y-50445571D01*
X144094701Y-50445586D01*
X144097662Y-50471108D01*
X144097662Y-50471111D01*
X144143765Y-50575524D01*
X144143766Y-50575525D01*
X144224475Y-50656234D01*
X144328891Y-50702338D01*
X144354421Y-50705300D01*
X145495578Y-50705299D01*
X145521109Y-50702338D01*
X145625525Y-50656234D01*
X145706234Y-50575525D01*
X145752338Y-50471109D01*
X145755300Y-50445579D01*
X145755299Y-49704422D01*
X145752338Y-49678891D01*
X145751375Y-49676711D01*
X145706234Y-49574475D01*
X145625524Y-49493765D01*
X145521110Y-49447662D01*
X145495579Y-49444700D01*
X144354428Y-49444700D01*
X144354413Y-49444701D01*
X144328891Y-49447662D01*
X144328888Y-49447662D01*
X144224475Y-49493765D01*
X144143765Y-49574475D01*
X144097662Y-49678888D01*
X144097662Y-49678889D01*
X144094700Y-49704418D01*
X144094700Y-50445571D01*
X143205300Y-50445571D01*
X143205299Y-50154422D01*
X143202338Y-50128891D01*
X143195849Y-50114194D01*
X143152469Y-50015947D01*
X143156141Y-50014325D01*
X143143717Y-49972341D01*
X143155694Y-49935477D01*
X143152469Y-49934053D01*
X143202337Y-49821111D01*
X143202338Y-49821109D01*
X143205300Y-49795579D01*
X143205299Y-49304422D01*
X143202338Y-49278891D01*
X143175770Y-49218719D01*
X143152469Y-49165947D01*
X143156141Y-49164325D01*
X143143717Y-49122341D01*
X143155694Y-49085477D01*
X143152469Y-49084053D01*
X143202337Y-48971111D01*
X143202338Y-48971109D01*
X143205300Y-48945579D01*
X143205299Y-48454422D01*
X143202338Y-48428891D01*
X143200852Y-48425525D01*
X143152469Y-48315947D01*
X143156141Y-48314325D01*
X143143717Y-48272341D01*
X143155694Y-48235477D01*
X143152469Y-48234053D01*
X143202337Y-48121111D01*
X143202338Y-48121109D01*
X143205300Y-48095579D01*
X143205299Y-47604422D01*
X143202338Y-47578891D01*
X143200786Y-47575376D01*
X143152469Y-47465947D01*
X143156141Y-47464325D01*
X143143717Y-47422341D01*
X143155694Y-47385477D01*
X143152469Y-47384053D01*
X143194651Y-47288518D01*
X143202338Y-47271109D01*
X143205300Y-47245579D01*
X143205299Y-46754422D01*
X143202338Y-46728891D01*
X143202337Y-46728888D01*
X143152469Y-46615947D01*
X143156141Y-46614325D01*
X143143717Y-46572341D01*
X143155694Y-46535477D01*
X143152469Y-46534053D01*
X143192337Y-46443758D01*
X143202338Y-46421109D01*
X143205300Y-46395579D01*
X143205299Y-45904422D01*
X143202338Y-45878891D01*
X143168377Y-45801976D01*
X143152469Y-45765947D01*
X143156141Y-45764325D01*
X143143717Y-45722341D01*
X143155694Y-45685477D01*
X143152469Y-45684053D01*
X143202337Y-45571111D01*
X143202338Y-45571109D01*
X143205300Y-45545579D01*
X143205300Y-45445571D01*
X144094700Y-45445571D01*
X144094701Y-45445586D01*
X144097662Y-45471108D01*
X144097662Y-45471111D01*
X144143765Y-45575524D01*
X144143766Y-45575525D01*
X144224475Y-45656234D01*
X144328891Y-45702338D01*
X144354421Y-45705300D01*
X145495578Y-45705299D01*
X145521109Y-45702338D01*
X145625525Y-45656234D01*
X145706234Y-45575525D01*
X145752338Y-45471109D01*
X145755300Y-45445579D01*
X145755299Y-44704422D01*
X145752338Y-44678891D01*
X145740665Y-44652455D01*
X145706234Y-44574475D01*
X145625524Y-44493765D01*
X145521110Y-44447662D01*
X145495579Y-44444700D01*
X144354428Y-44444700D01*
X144354413Y-44444701D01*
X144328891Y-44447662D01*
X144328888Y-44447662D01*
X144224475Y-44493765D01*
X144143765Y-44574475D01*
X144097662Y-44678888D01*
X144097662Y-44678889D01*
X144094700Y-44704418D01*
X144094700Y-45445571D01*
X143205300Y-45445571D01*
X143205299Y-45054422D01*
X143202338Y-45028891D01*
X143202337Y-45028888D01*
X143152469Y-44915947D01*
X143156141Y-44914325D01*
X143143717Y-44872341D01*
X143155694Y-44835477D01*
X143152469Y-44834053D01*
X143202337Y-44721111D01*
X143202338Y-44721109D01*
X143205300Y-44695579D01*
X143205299Y-44204422D01*
X143202338Y-44178891D01*
X143200144Y-44173923D01*
X143156234Y-44074475D01*
X143131312Y-44049553D01*
X143103086Y-43994155D01*
X143112812Y-43932747D01*
X143118803Y-43922525D01*
X143135494Y-43897545D01*
X143150000Y-43824623D01*
X143150000Y-43800000D01*
X141850000Y-43800000D01*
X141850000Y-43824623D01*
X141864505Y-43897546D01*
X141881197Y-43922527D01*
X141898074Y-43982367D01*
X141876555Y-44040698D01*
X141868688Y-44049552D01*
X141843765Y-44074475D01*
X141797662Y-44178888D01*
X141797662Y-44178889D01*
X141794700Y-44204418D01*
X141794700Y-44695571D01*
X141794701Y-44695586D01*
X141797662Y-44721108D01*
X141797662Y-44721111D01*
X141847531Y-44834053D01*
X141843882Y-44835663D01*
X141856276Y-44877878D01*
X141844361Y-44914547D01*
X141847531Y-44915947D01*
X141797662Y-45028888D01*
X141797662Y-45028889D01*
X141794700Y-45054418D01*
X141794700Y-45545571D01*
X141794701Y-45545586D01*
X141797333Y-45568272D01*
X141797595Y-45570535D01*
X141797662Y-45571108D01*
X141797662Y-45571111D01*
X141847531Y-45684053D01*
X141843882Y-45685663D01*
X141856276Y-45727878D01*
X141844361Y-45764547D01*
X141847531Y-45765947D01*
X141797662Y-45878888D01*
X141797662Y-45878889D01*
X141794700Y-45904418D01*
X141794700Y-46395571D01*
X141794701Y-46395586D01*
X141797662Y-46421108D01*
X141797662Y-46421111D01*
X141847531Y-46534053D01*
X141843882Y-46535663D01*
X141856276Y-46577878D01*
X141844361Y-46614547D01*
X141847531Y-46615947D01*
X141797662Y-46728888D01*
X141797662Y-46728889D01*
X141794700Y-46754418D01*
X141794700Y-47245571D01*
X141794701Y-47245586D01*
X141797662Y-47271108D01*
X141797662Y-47271111D01*
X141847531Y-47384053D01*
X141843882Y-47385663D01*
X141856276Y-47427878D01*
X141844361Y-47464547D01*
X141847531Y-47465947D01*
X141797662Y-47578888D01*
X141797662Y-47578889D01*
X141794700Y-47604418D01*
X141794700Y-48095571D01*
X141794701Y-48095586D01*
X141797662Y-48121108D01*
X141797662Y-48121111D01*
X141847531Y-48234053D01*
X141843882Y-48235663D01*
X141856276Y-48277878D01*
X141844361Y-48314547D01*
X141847531Y-48315947D01*
X141797662Y-48428888D01*
X141797662Y-48428889D01*
X141794700Y-48454418D01*
X141794700Y-48945571D01*
X141794701Y-48945586D01*
X141797662Y-48971108D01*
X141797662Y-48971111D01*
X141847531Y-49084053D01*
X141843882Y-49085663D01*
X141856276Y-49127878D01*
X141844361Y-49164547D01*
X141847531Y-49165947D01*
X141797662Y-49278888D01*
X141797662Y-49278889D01*
X141794700Y-49304418D01*
X141794700Y-49795571D01*
X141794701Y-49795586D01*
X141797662Y-49821108D01*
X141797662Y-49821111D01*
X141847531Y-49934053D01*
X141843882Y-49935663D01*
X141856276Y-49977878D01*
X141844361Y-50014547D01*
X141847531Y-50015947D01*
X141797662Y-50128888D01*
X141797662Y-50128889D01*
X141794700Y-50154418D01*
X141794700Y-50645571D01*
X141794701Y-50645586D01*
X141797662Y-50671108D01*
X141797662Y-50671111D01*
X141847531Y-50784053D01*
X141843882Y-50785663D01*
X141856276Y-50827878D01*
X141844361Y-50864547D01*
X141847531Y-50865947D01*
X141797662Y-50978888D01*
X141797662Y-50978889D01*
X141794700Y-51004418D01*
X141794700Y-51495571D01*
X141794701Y-51495586D01*
X141797662Y-51521108D01*
X141797662Y-51521111D01*
X141847531Y-51634053D01*
X141843882Y-51635663D01*
X141856276Y-51677878D01*
X141844361Y-51714547D01*
X141847531Y-51715947D01*
X141797662Y-51828888D01*
X141797662Y-51828889D01*
X141794700Y-51854418D01*
X141794700Y-52345571D01*
X141794701Y-52345586D01*
X141797662Y-52371108D01*
X141797662Y-52371111D01*
X141847531Y-52484053D01*
X141843882Y-52485663D01*
X141856276Y-52527878D01*
X141844361Y-52564547D01*
X141847531Y-52565947D01*
X141797662Y-52678888D01*
X141797662Y-52678889D01*
X141794700Y-52704418D01*
X141794700Y-53194100D01*
X141775487Y-53253231D01*
X141725187Y-53289776D01*
X141694100Y-53294700D01*
X141204428Y-53294700D01*
X141204413Y-53294701D01*
X141178891Y-53297662D01*
X141178888Y-53297662D01*
X141065947Y-53347531D01*
X141064336Y-53343882D01*
X141022122Y-53356276D01*
X140985452Y-53344361D01*
X140984053Y-53347531D01*
X140871110Y-53297662D01*
X140845579Y-53294700D01*
X140354428Y-53294700D01*
X140354413Y-53294701D01*
X140328891Y-53297662D01*
X140328888Y-53297662D01*
X140215947Y-53347531D01*
X140214336Y-53343882D01*
X140172122Y-53356276D01*
X140135452Y-53344361D01*
X140134053Y-53347531D01*
X140021110Y-53297662D01*
X139995579Y-53294700D01*
X139504428Y-53294700D01*
X139504413Y-53294701D01*
X139478891Y-53297662D01*
X139478888Y-53297662D01*
X139365947Y-53347531D01*
X139364336Y-53343882D01*
X139322122Y-53356276D01*
X139285452Y-53344361D01*
X139284053Y-53347531D01*
X139171110Y-53297662D01*
X139145579Y-53294700D01*
X138654428Y-53294700D01*
X138654413Y-53294701D01*
X138628891Y-53297662D01*
X138628888Y-53297662D01*
X138515947Y-53347531D01*
X138514336Y-53343882D01*
X138472122Y-53356276D01*
X138435452Y-53344361D01*
X138434053Y-53347531D01*
X138321110Y-53297662D01*
X138295579Y-53294700D01*
X137804428Y-53294700D01*
X137804413Y-53294701D01*
X137778891Y-53297662D01*
X137778888Y-53297662D01*
X137665947Y-53347531D01*
X137664336Y-53343882D01*
X137622122Y-53356276D01*
X137585452Y-53344361D01*
X137584053Y-53347531D01*
X137471110Y-53297662D01*
X137445579Y-53294700D01*
X136954428Y-53294700D01*
X136954413Y-53294701D01*
X136928891Y-53297662D01*
X136928888Y-53297662D01*
X136815947Y-53347531D01*
X136814336Y-53343882D01*
X136772122Y-53356276D01*
X136735452Y-53344361D01*
X136734053Y-53347531D01*
X136621110Y-53297662D01*
X136595579Y-53294700D01*
X136104428Y-53294700D01*
X136104413Y-53294701D01*
X136078891Y-53297662D01*
X136078888Y-53297662D01*
X135965947Y-53347531D01*
X135964336Y-53343882D01*
X135922122Y-53356276D01*
X135885452Y-53344361D01*
X135884053Y-53347531D01*
X135771110Y-53297662D01*
X135745579Y-53294700D01*
X135254428Y-53294700D01*
X135254413Y-53294701D01*
X135228891Y-53297662D01*
X135228888Y-53297662D01*
X135115947Y-53347531D01*
X135114336Y-53343882D01*
X135072122Y-53356276D01*
X135035452Y-53344361D01*
X135034053Y-53347531D01*
X134921110Y-53297662D01*
X134895579Y-53294700D01*
X134404428Y-53294700D01*
X134404413Y-53294701D01*
X134378891Y-53297662D01*
X134378888Y-53297662D01*
X134265947Y-53347531D01*
X134264336Y-53343882D01*
X134222122Y-53356276D01*
X134185452Y-53344361D01*
X134184053Y-53347531D01*
X134071110Y-53297662D01*
X134045579Y-53294700D01*
X133554428Y-53294700D01*
X133554413Y-53294701D01*
X133528891Y-53297662D01*
X133528888Y-53297662D01*
X133415947Y-53347531D01*
X133414336Y-53343882D01*
X133372122Y-53356276D01*
X133335452Y-53344361D01*
X133334053Y-53347531D01*
X133221110Y-53297662D01*
X133195579Y-53294700D01*
X132704428Y-53294700D01*
X132704413Y-53294701D01*
X132678891Y-53297662D01*
X132678888Y-53297662D01*
X132565947Y-53347531D01*
X132564336Y-53343882D01*
X132522122Y-53356276D01*
X132485452Y-53344361D01*
X132484053Y-53347531D01*
X132371110Y-53297662D01*
X132345579Y-53294700D01*
X131854428Y-53294700D01*
X131854413Y-53294701D01*
X131828891Y-53297662D01*
X131828888Y-53297662D01*
X131715947Y-53347531D01*
X131714336Y-53343882D01*
X131672122Y-53356276D01*
X131635452Y-53344361D01*
X131634053Y-53347531D01*
X131521110Y-53297662D01*
X131495579Y-53294700D01*
X131004428Y-53294700D01*
X131004413Y-53294701D01*
X130978891Y-53297662D01*
X130978888Y-53297662D01*
X130865947Y-53347531D01*
X130864336Y-53343882D01*
X130822122Y-53356276D01*
X130785452Y-53344361D01*
X130784053Y-53347531D01*
X130671110Y-53297662D01*
X130645579Y-53294700D01*
X130154428Y-53294700D01*
X130154413Y-53294701D01*
X130128891Y-53297662D01*
X130128888Y-53297662D01*
X130015947Y-53347531D01*
X130014336Y-53343882D01*
X129972122Y-53356276D01*
X129935452Y-53344361D01*
X129934053Y-53347531D01*
X129821110Y-53297662D01*
X129795581Y-53294700D01*
X129305899Y-53294700D01*
X129246768Y-53275487D01*
X129210223Y-53225187D01*
X129205299Y-53194106D01*
X129205299Y-52704422D01*
X129202338Y-52678891D01*
X129202337Y-52678888D01*
X129152469Y-52565947D01*
X129156141Y-52564325D01*
X129143717Y-52522341D01*
X129155694Y-52485477D01*
X129152469Y-52484053D01*
X129202337Y-52371111D01*
X129202338Y-52371109D01*
X129205300Y-52345579D01*
X129205299Y-51854422D01*
X129202338Y-51828891D01*
X129199088Y-51821532D01*
X129192782Y-51759680D01*
X129224035Y-51705932D01*
X129280912Y-51680819D01*
X129291118Y-51680300D01*
X129462189Y-51680300D01*
X129521320Y-51699513D01*
X129553697Y-51739108D01*
X129570543Y-51775995D01*
X129600074Y-51810075D01*
X129665426Y-51885496D01*
X129665696Y-51885807D01*
X129787932Y-51964363D01*
X129927349Y-52005300D01*
X129927350Y-52005300D01*
X130072650Y-52005300D01*
X130072651Y-52005300D01*
X130212068Y-51964363D01*
X130334304Y-51885807D01*
X130429457Y-51775995D01*
X130489817Y-51643823D01*
X130510496Y-51500000D01*
X130489817Y-51356177D01*
X130479568Y-51333735D01*
X130443251Y-51254210D01*
X130429457Y-51224005D01*
X130334304Y-51114193D01*
X130329978Y-51111413D01*
X130288301Y-51084628D01*
X130248945Y-51036496D01*
X130245396Y-50974423D01*
X130279011Y-50922120D01*
X130288288Y-50915379D01*
X130334304Y-50885807D01*
X130429457Y-50775995D01*
X130489817Y-50643823D01*
X130510496Y-50500000D01*
X130490324Y-50359700D01*
X130489817Y-50356176D01*
X130445895Y-50260000D01*
X130429457Y-50224005D01*
X130334304Y-50114193D01*
X130212068Y-50035637D01*
X130072651Y-49994700D01*
X130072650Y-49994700D01*
X130063196Y-49994700D01*
X130037159Y-49991272D01*
X130011370Y-49984362D01*
X129987172Y-49977878D01*
X129956653Y-49969700D01*
X129956651Y-49969700D01*
X129956650Y-49969700D01*
X129291118Y-49969700D01*
X129231987Y-49950487D01*
X129195442Y-49900187D01*
X129195442Y-49838013D01*
X129199090Y-49828464D01*
X129202338Y-49821109D01*
X129205300Y-49795579D01*
X129205299Y-49304422D01*
X129202338Y-49278891D01*
X129175770Y-49218719D01*
X129152469Y-49165947D01*
X129156141Y-49164325D01*
X129143717Y-49122341D01*
X129155694Y-49085477D01*
X129152469Y-49084053D01*
X129202337Y-48971111D01*
X129202338Y-48971109D01*
X129205300Y-48945579D01*
X129205300Y-48900000D01*
X133000000Y-48900000D01*
X133000000Y-49274623D01*
X133014504Y-49347544D01*
X133069760Y-49430239D01*
X133152455Y-49485495D01*
X133225377Y-49500000D01*
X133600000Y-49500000D01*
X133600000Y-48900000D01*
X134100000Y-48900000D01*
X134100000Y-49500000D01*
X134474623Y-49500000D01*
X134547544Y-49485495D01*
X134619109Y-49437677D01*
X134678949Y-49420801D01*
X134730891Y-49437677D01*
X134802455Y-49485495D01*
X134875377Y-49500000D01*
X135250000Y-49500000D01*
X135250000Y-48900000D01*
X135750000Y-48900000D01*
X135750000Y-49500000D01*
X136124623Y-49500000D01*
X136197544Y-49485495D01*
X136269109Y-49437677D01*
X136328949Y-49420801D01*
X136380891Y-49437677D01*
X136452455Y-49485495D01*
X136525377Y-49500000D01*
X136900000Y-49500000D01*
X136900000Y-48900000D01*
X137400000Y-48900000D01*
X137400000Y-49500000D01*
X137774623Y-49500000D01*
X137847544Y-49485495D01*
X137930239Y-49430239D01*
X137985495Y-49347544D01*
X138000000Y-49274623D01*
X138000000Y-48900000D01*
X137400000Y-48900000D01*
X136900000Y-48900000D01*
X135750000Y-48900000D01*
X135250000Y-48900000D01*
X134100000Y-48900000D01*
X133600000Y-48900000D01*
X133000000Y-48900000D01*
X129205300Y-48900000D01*
X129205299Y-48454422D01*
X129202338Y-48428891D01*
X129200852Y-48425525D01*
X129152469Y-48315947D01*
X129156141Y-48314325D01*
X129143717Y-48272341D01*
X129155694Y-48235477D01*
X129152469Y-48234053D01*
X129202337Y-48121111D01*
X129202338Y-48121109D01*
X129205300Y-48095579D01*
X129205299Y-47604422D01*
X129202338Y-47578891D01*
X129200786Y-47575376D01*
X129152469Y-47465947D01*
X129156141Y-47464325D01*
X129143717Y-47422341D01*
X129155694Y-47385477D01*
X129152469Y-47384053D01*
X129194651Y-47288518D01*
X129202338Y-47271109D01*
X129204787Y-47250000D01*
X133000000Y-47250000D01*
X133000000Y-47624623D01*
X133014505Y-47697546D01*
X133062322Y-47769110D01*
X133079198Y-47828950D01*
X133062322Y-47880890D01*
X133014505Y-47952453D01*
X133000000Y-48025376D01*
X133000000Y-48400000D01*
X133600000Y-48400000D01*
X133600000Y-47250000D01*
X134100000Y-47250000D01*
X134100000Y-48400000D01*
X135250000Y-48400000D01*
X135250000Y-47250000D01*
X135750000Y-47250000D01*
X135750000Y-48400000D01*
X136900000Y-48400000D01*
X136900000Y-47250000D01*
X137400000Y-47250000D01*
X137400000Y-48400000D01*
X138000000Y-48400000D01*
X138000000Y-48025376D01*
X137985495Y-47952455D01*
X137937677Y-47880891D01*
X137920801Y-47821051D01*
X137937677Y-47769109D01*
X137985495Y-47697544D01*
X138000000Y-47624623D01*
X138000000Y-47250000D01*
X137400000Y-47250000D01*
X136900000Y-47250000D01*
X135750000Y-47250000D01*
X135250000Y-47250000D01*
X134100000Y-47250000D01*
X133600000Y-47250000D01*
X133000000Y-47250000D01*
X129204787Y-47250000D01*
X129205300Y-47245579D01*
X129205299Y-46754422D01*
X129202338Y-46728891D01*
X129202337Y-46728888D01*
X129152469Y-46615947D01*
X129156141Y-46614325D01*
X129143717Y-46572341D01*
X129155694Y-46535477D01*
X129152469Y-46534053D01*
X129192337Y-46443758D01*
X129202338Y-46421109D01*
X129205300Y-46395579D01*
X129205299Y-45904422D01*
X129202338Y-45878891D01*
X129168377Y-45801976D01*
X129152469Y-45765947D01*
X129156141Y-45764325D01*
X129143717Y-45722341D01*
X129155694Y-45685477D01*
X129152469Y-45684053D01*
X129202337Y-45571111D01*
X129202338Y-45571109D01*
X129204787Y-45550000D01*
X132985000Y-45550000D01*
X132985000Y-45950006D01*
X133004410Y-46047582D01*
X133004413Y-46047592D01*
X133007338Y-46054652D01*
X133007337Y-46054652D01*
X133056364Y-46128026D01*
X133073240Y-46187866D01*
X133056364Y-46239805D01*
X133014506Y-46302450D01*
X133014505Y-46302453D01*
X133000000Y-46375376D01*
X133000000Y-46750000D01*
X133600000Y-46750000D01*
X133600000Y-46198670D01*
X133619213Y-46139539D01*
X133629465Y-46127535D01*
X133650000Y-46107000D01*
X133650000Y-45550000D01*
X134050000Y-45550000D01*
X134050000Y-46107000D01*
X134070535Y-46127535D01*
X134098761Y-46182933D01*
X134100000Y-46198670D01*
X134100000Y-46750000D01*
X135250000Y-46750000D01*
X135250000Y-45600000D01*
X135750000Y-45600000D01*
X135750000Y-46750000D01*
X136900000Y-46750000D01*
X136900000Y-45600000D01*
X137400000Y-45600000D01*
X137400000Y-46750000D01*
X138000000Y-46750000D01*
X138000000Y-46375376D01*
X137985495Y-46302455D01*
X137937677Y-46230891D01*
X137920801Y-46171051D01*
X137937677Y-46119109D01*
X137985495Y-46047544D01*
X138000000Y-45974623D01*
X138000000Y-45600000D01*
X137400000Y-45600000D01*
X136900000Y-45600000D01*
X135750000Y-45600000D01*
X135250000Y-45600000D01*
X134698670Y-45600000D01*
X134639539Y-45580787D01*
X134627535Y-45570535D01*
X134607000Y-45550000D01*
X134050000Y-45550000D01*
X133650000Y-45550000D01*
X132985000Y-45550000D01*
X129204787Y-45550000D01*
X129205300Y-45545579D01*
X129205299Y-45150000D01*
X133075234Y-45150000D01*
X133650000Y-45150000D01*
X133650000Y-44575234D01*
X133075234Y-45150000D01*
X129205299Y-45150000D01*
X129205299Y-45054422D01*
X129202338Y-45028891D01*
X129202337Y-45028888D01*
X129152469Y-44915947D01*
X129156141Y-44914325D01*
X129143717Y-44872341D01*
X129155694Y-44835477D01*
X129152469Y-44834053D01*
X129202337Y-44721111D01*
X129202338Y-44721109D01*
X129205300Y-44695579D01*
X129205300Y-44485000D01*
X134050000Y-44485000D01*
X134050000Y-45150000D01*
X134607000Y-45150000D01*
X134627535Y-45129465D01*
X134682933Y-45101239D01*
X134698670Y-45100000D01*
X135250000Y-45100000D01*
X135250000Y-44500000D01*
X135750000Y-44500000D01*
X135750000Y-45100000D01*
X136900000Y-45100000D01*
X136900000Y-44500000D01*
X137400000Y-44500000D01*
X137400000Y-45100000D01*
X138000000Y-45100000D01*
X138000000Y-44725376D01*
X137985495Y-44652455D01*
X137930239Y-44569760D01*
X137847544Y-44514504D01*
X137774623Y-44500000D01*
X137400000Y-44500000D01*
X136900000Y-44500000D01*
X136525377Y-44500000D01*
X136452453Y-44514505D01*
X136380890Y-44562322D01*
X136321050Y-44579198D01*
X136269110Y-44562322D01*
X136197546Y-44514505D01*
X136124623Y-44500000D01*
X135750000Y-44500000D01*
X135250000Y-44500000D01*
X134875377Y-44500000D01*
X134802453Y-44514505D01*
X134739806Y-44556365D01*
X134679966Y-44573241D01*
X134628025Y-44556364D01*
X134554665Y-44507345D01*
X134554650Y-44507337D01*
X134547602Y-44504417D01*
X134547583Y-44504411D01*
X134449998Y-44485000D01*
X134050000Y-44485000D01*
X129205300Y-44485000D01*
X129205299Y-44204422D01*
X129202338Y-44178891D01*
X129199088Y-44171532D01*
X129192782Y-44109680D01*
X129224035Y-44055932D01*
X129280912Y-44030819D01*
X129291118Y-44030300D01*
X139956649Y-44030300D01*
X139956651Y-44030300D01*
X140011370Y-44015638D01*
X140011371Y-44015638D01*
X140035496Y-44009173D01*
X140066086Y-44000977D01*
X140066087Y-44000977D01*
X140066087Y-44000976D01*
X140066090Y-44000976D01*
X140164210Y-43944326D01*
X140244326Y-43864210D01*
X141097795Y-43010739D01*
X141140584Y-42985352D01*
X141212068Y-42964363D01*
X141234417Y-42950000D01*
X141850000Y-42950000D01*
X141850000Y-42974623D01*
X141864505Y-43047546D01*
X141912322Y-43119110D01*
X141929198Y-43178950D01*
X141912322Y-43230890D01*
X141864505Y-43302453D01*
X141850000Y-43375376D01*
X141850000Y-43400000D01*
X142300000Y-43400000D01*
X142300000Y-42950000D01*
X142700000Y-42950000D01*
X142700000Y-43400000D01*
X143150000Y-43400000D01*
X143150000Y-43375376D01*
X143135495Y-43302455D01*
X143087677Y-43230891D01*
X143070801Y-43171051D01*
X143087677Y-43119109D01*
X143135495Y-43047544D01*
X143150000Y-42974623D01*
X143150000Y-42950000D01*
X142700000Y-42950000D01*
X142300000Y-42950000D01*
X141850000Y-42950000D01*
X141234417Y-42950000D01*
X141334304Y-42885807D01*
X141429457Y-42775995D01*
X141489817Y-42643823D01*
X141510496Y-42500000D01*
X141510495Y-42499996D01*
X141489817Y-42356176D01*
X141452985Y-42275525D01*
X141429457Y-42224005D01*
X141334304Y-42114193D01*
X141212068Y-42035637D01*
X141072651Y-41994700D01*
X140927349Y-41994700D01*
X140887033Y-42006538D01*
X140787931Y-42035637D01*
X140665694Y-42114194D01*
X140570542Y-42224006D01*
X140510183Y-42356175D01*
X140508156Y-42363081D01*
X140505801Y-42362389D01*
X140483285Y-42408162D01*
X140482291Y-42409171D01*
X139751229Y-43140235D01*
X139695831Y-43168461D01*
X139680094Y-43169700D01*
X129291118Y-43169700D01*
X129231987Y-43150487D01*
X129195442Y-43100187D01*
X129195442Y-43038013D01*
X129199090Y-43028464D01*
X129202338Y-43021109D01*
X129205300Y-42995579D01*
X129205299Y-42504422D01*
X129202338Y-42478891D01*
X129198284Y-42469710D01*
X129156234Y-42374475D01*
X129131312Y-42349553D01*
X129103086Y-42294155D01*
X129112812Y-42232747D01*
X129118803Y-42222525D01*
X129135494Y-42197545D01*
X129150000Y-42124623D01*
X129150000Y-42100000D01*
X127850000Y-42100000D01*
X127850000Y-42124623D01*
X127865591Y-42203005D01*
X127858283Y-42264748D01*
X127816079Y-42310404D01*
X127792961Y-42319803D01*
X127683913Y-42349022D01*
X127683912Y-42349022D01*
X127641466Y-42373529D01*
X127612474Y-42390268D01*
X127586440Y-42405299D01*
X127585787Y-42405676D01*
X127155676Y-42835787D01*
X127099022Y-42933912D01*
X127099022Y-42933913D01*
X127069700Y-43043344D01*
X127069700Y-43485288D01*
X127050487Y-43544419D01*
X127000187Y-43580964D01*
X126938013Y-43580964D01*
X126909667Y-43563594D01*
X126908498Y-43565204D01*
X126902095Y-43560551D01*
X126792019Y-43504465D01*
X126750000Y-43497809D01*
X126750000Y-44114792D01*
X126730787Y-44173923D01*
X126720535Y-44185927D01*
X126665927Y-44240535D01*
X126610529Y-44268761D01*
X126594792Y-44270000D01*
X125952561Y-44270000D01*
X125954464Y-44282018D01*
X126014145Y-44399148D01*
X126012296Y-44400089D01*
X126028220Y-44449105D01*
X126009004Y-44508235D01*
X125958702Y-44544778D01*
X125927620Y-44549700D01*
X125572380Y-44549700D01*
X125513249Y-44530487D01*
X125476704Y-44480187D01*
X125476704Y-44418013D01*
X125486220Y-44399333D01*
X125485855Y-44399147D01*
X125545533Y-44282020D01*
X125545534Y-44282017D01*
X125547439Y-44270000D01*
X124452561Y-44270000D01*
X124454464Y-44282018D01*
X124510549Y-44392091D01*
X124515159Y-44398436D01*
X124534372Y-44457567D01*
X124515159Y-44516698D01*
X124514715Y-44517305D01*
X124431855Y-44629576D01*
X124387521Y-44756277D01*
X124384700Y-44786366D01*
X124384700Y-44945092D01*
X124365487Y-45004223D01*
X124355235Y-45016227D01*
X123843131Y-45528332D01*
X122835363Y-46536101D01*
X122331229Y-47040235D01*
X122275831Y-47068461D01*
X122260094Y-47069700D01*
X117532552Y-47069700D01*
X117473421Y-47050487D01*
X117472813Y-47050042D01*
X117380424Y-46981855D01*
X117302145Y-46954465D01*
X117253722Y-46937521D01*
X117253723Y-46937521D01*
X117249424Y-46937118D01*
X117223639Y-46934700D01*
X117223633Y-46934700D01*
X116776369Y-46934700D01*
X116776358Y-46934701D01*
X116746280Y-46937520D01*
X116619574Y-46981856D01*
X116511569Y-47061568D01*
X116511567Y-47061570D01*
X116436235Y-47163640D01*
X116426428Y-47175036D01*
X115735790Y-47865675D01*
X115655674Y-47945790D01*
X115599024Y-48043910D01*
X115599023Y-48043914D01*
X115597172Y-48050822D01*
X115563309Y-48102966D01*
X115505264Y-48125246D01*
X115445208Y-48109154D01*
X115406081Y-48060835D01*
X115402828Y-48050821D01*
X115400977Y-48043913D01*
X115399687Y-48041679D01*
X115344326Y-47945791D01*
X115264210Y-47865675D01*
X114574209Y-47175674D01*
X114573570Y-47175035D01*
X114563763Y-47163639D01*
X114488431Y-47061569D01*
X114488430Y-47061568D01*
X114380424Y-46981855D01*
X114302145Y-46954465D01*
X114253722Y-46937521D01*
X114253723Y-46937521D01*
X114249424Y-46937118D01*
X114223639Y-46934700D01*
X114223633Y-46934700D01*
X113776369Y-46934700D01*
X113776358Y-46934701D01*
X113746280Y-46937520D01*
X113619574Y-46981856D01*
X113511569Y-47061568D01*
X113511568Y-47061569D01*
X113431855Y-47169575D01*
X113387943Y-47295071D01*
X113387521Y-47296278D01*
X113385682Y-47315897D01*
X113384700Y-47326366D01*
X113384700Y-47713630D01*
X113384701Y-47713641D01*
X113387520Y-47743719D01*
X113431856Y-47870425D01*
X113514714Y-47982693D01*
X113534369Y-48041679D01*
X113515599Y-48100953D01*
X113515161Y-48101560D01*
X113510552Y-48107903D01*
X113454466Y-48217979D01*
X113454465Y-48217982D01*
X113452561Y-48230000D01*
X114149400Y-48230000D01*
X114208531Y-48249213D01*
X114245076Y-48299513D01*
X114250000Y-48330600D01*
X114250000Y-49002188D01*
X114292021Y-48995533D01*
X114402094Y-48939448D01*
X114408498Y-48934796D01*
X114410308Y-48937287D01*
X114453363Y-48915351D01*
X114514771Y-48925077D01*
X114558735Y-48969041D01*
X114569700Y-49014712D01*
X114569700Y-49192593D01*
X114550487Y-49251724D01*
X114540235Y-49263728D01*
X114388729Y-49415235D01*
X114333332Y-49443461D01*
X114317594Y-49444700D01*
X113795154Y-49444700D01*
X113774650Y-49446622D01*
X113764395Y-49447584D01*
X113634848Y-49492915D01*
X113524418Y-49574417D01*
X113524417Y-49574418D01*
X113442915Y-49684848D01*
X113397584Y-49814395D01*
X113396622Y-49824650D01*
X113394700Y-49845154D01*
X113394700Y-49845160D01*
X113394700Y-50254838D01*
X113394699Y-50254838D01*
X113397584Y-50285604D01*
X113442915Y-50415151D01*
X113512318Y-50509188D01*
X113531973Y-50568174D01*
X113521011Y-50614598D01*
X113464836Y-50724848D01*
X113460853Y-50750000D01*
X114511900Y-50750000D01*
X114571031Y-50769213D01*
X114607576Y-50819513D01*
X114612500Y-50850600D01*
X114612500Y-51149400D01*
X114593287Y-51208531D01*
X114542987Y-51245076D01*
X114511900Y-51250000D01*
X113460853Y-51250000D01*
X113464835Y-51275150D01*
X113521011Y-51385400D01*
X113530737Y-51446809D01*
X113512319Y-51490810D01*
X113442914Y-51584849D01*
X113397584Y-51714395D01*
X113397584Y-51714398D01*
X113394700Y-51745154D01*
X113394700Y-52154846D01*
X113395598Y-52164418D01*
X113397584Y-52185604D01*
X113442915Y-52315151D01*
X113521863Y-52422121D01*
X113524418Y-52425582D01*
X113634849Y-52507085D01*
X113764395Y-52552415D01*
X113764398Y-52552416D01*
X113795154Y-52555300D01*
X114317594Y-52555300D01*
X114376725Y-52574513D01*
X114388729Y-52584765D01*
X115068174Y-53264210D01*
X115148290Y-53344326D01*
X115220136Y-53385806D01*
X115220137Y-53385808D01*
X115243876Y-53399513D01*
X115246410Y-53400976D01*
X115246411Y-53400976D01*
X115246413Y-53400977D01*
X115355844Y-53430299D01*
X115355846Y-53430299D01*
X115355849Y-53430300D01*
X115355850Y-53430300D01*
X118443350Y-53430300D01*
X118705390Y-53430300D01*
X118759778Y-53446269D01*
X118787932Y-53464363D01*
X118927349Y-53505300D01*
X118927350Y-53505300D01*
X119072650Y-53505300D01*
X119072651Y-53505300D01*
X119212068Y-53464363D01*
X119334304Y-53385807D01*
X119429457Y-53275995D01*
X119489817Y-53143823D01*
X119510496Y-53000000D01*
X119489817Y-52856177D01*
X119487105Y-52850239D01*
X119443395Y-52754526D01*
X119429457Y-52724005D01*
X119334304Y-52614193D01*
X119334303Y-52614192D01*
X119288303Y-52584630D01*
X119248946Y-52536499D01*
X119245396Y-52474426D01*
X119279010Y-52422121D01*
X119288303Y-52415370D01*
X119297653Y-52409361D01*
X119334304Y-52385807D01*
X119393728Y-52317227D01*
X119446968Y-52285122D01*
X119508914Y-52290441D01*
X119555903Y-52331156D01*
X119566927Y-52357069D01*
X119572459Y-52377714D01*
X119574024Y-52383553D01*
X119609328Y-52444701D01*
X119628960Y-52478705D01*
X119630673Y-52481671D01*
X119630674Y-52481673D01*
X120040235Y-52891234D01*
X120068461Y-52946632D01*
X120069700Y-52962369D01*
X120069700Y-54193051D01*
X120099022Y-54302482D01*
X120099022Y-54302483D01*
X120123181Y-54344326D01*
X120134008Y-54363080D01*
X120155674Y-54400606D01*
X122024394Y-56269326D01*
X122122514Y-56325976D01*
X122123369Y-56326205D01*
X122123693Y-56326292D01*
X122124750Y-56326902D01*
X122128607Y-56328500D01*
X122128396Y-56329007D01*
X122168794Y-56352330D01*
X122540235Y-56723771D01*
X122568461Y-56779169D01*
X122569700Y-56794906D01*
X122569700Y-60993279D01*
X122550487Y-61052410D01*
X122500187Y-61088955D01*
X122446823Y-61090354D01*
X122446796Y-61090561D01*
X122445492Y-61090389D01*
X122443070Y-61090453D01*
X122440263Y-61089701D01*
X122440255Y-61089700D01*
X122440254Y-61089700D01*
X119486632Y-61089700D01*
X119427501Y-61070487D01*
X119418507Y-61062806D01*
X119308824Y-60981855D01*
X119247806Y-60960504D01*
X119182122Y-60937521D01*
X119182123Y-60937521D01*
X119177824Y-60937118D01*
X119152039Y-60934700D01*
X119152033Y-60934700D01*
X118704769Y-60934700D01*
X118704758Y-60934701D01*
X118674680Y-60937520D01*
X118547974Y-60981856D01*
X118439969Y-61061568D01*
X118439965Y-61061572D01*
X118419695Y-61089038D01*
X118369124Y-61125206D01*
X118338753Y-61129900D01*
X118282929Y-61129900D01*
X118223798Y-61110687D01*
X118211794Y-61100435D01*
X118135923Y-61024564D01*
X118128235Y-61019298D01*
X118129755Y-61017078D01*
X118093931Y-60985018D01*
X118080300Y-60934454D01*
X118080300Y-57143350D01*
X118080299Y-57143347D01*
X118070543Y-57106938D01*
X118064745Y-57085299D01*
X118050976Y-57033910D01*
X118023194Y-56985790D01*
X117994326Y-56935790D01*
X117914210Y-56855674D01*
X117644086Y-56585550D01*
X117615860Y-56530152D01*
X117620320Y-56489552D01*
X117618003Y-56488967D01*
X117619584Y-56482710D01*
X117630300Y-56393476D01*
X117630300Y-55606524D01*
X117619584Y-55517289D01*
X117563584Y-55375283D01*
X117471348Y-55253652D01*
X117349717Y-55161416D01*
X117349716Y-55161415D01*
X117349714Y-55161414D01*
X117349711Y-55161413D01*
X117207714Y-55105417D01*
X117207712Y-55105416D01*
X117207711Y-55105416D01*
X117207709Y-55105415D01*
X117207706Y-55105415D01*
X117118489Y-55094701D01*
X117118480Y-55094700D01*
X117118476Y-55094700D01*
X115781524Y-55094700D01*
X115781519Y-55094700D01*
X115781510Y-55094701D01*
X115692293Y-55105415D01*
X115692285Y-55105417D01*
X115550288Y-55161413D01*
X115550285Y-55161414D01*
X115428652Y-55253652D01*
X115336414Y-55375285D01*
X115336413Y-55375288D01*
X115280417Y-55517285D01*
X115280415Y-55517293D01*
X115269701Y-55606510D01*
X115269700Y-55606530D01*
X115269700Y-56393469D01*
X115269701Y-56393489D01*
X115280415Y-56482706D01*
X115280416Y-56482711D01*
X115293819Y-56516698D01*
X115336413Y-56624711D01*
X115336414Y-56624714D01*
X115402339Y-56711650D01*
X115428652Y-56746348D01*
X115550283Y-56838584D01*
X115550284Y-56838584D01*
X115550285Y-56838585D01*
X115550288Y-56838586D01*
X115692289Y-56894584D01*
X115781524Y-56905300D01*
X116705094Y-56905300D01*
X116764225Y-56924513D01*
X116776229Y-56934765D01*
X116819729Y-56978265D01*
X116847955Y-57033663D01*
X116838229Y-57095071D01*
X116794265Y-57139035D01*
X116748594Y-57150000D01*
X116700000Y-57150000D01*
X116700000Y-57719670D01*
X116680255Y-57699925D01*
X116594745Y-57650556D01*
X116499370Y-57625000D01*
X116400630Y-57625000D01*
X116305255Y-57650556D01*
X116219745Y-57699925D01*
X116200000Y-57719670D01*
X116200000Y-57150000D01*
X116091283Y-57150000D01*
X115927061Y-57182665D01*
X115772378Y-57246738D01*
X115772374Y-57246739D01*
X115633152Y-57339765D01*
X115514765Y-57458152D01*
X115421739Y-57597374D01*
X115421738Y-57597377D01*
X115358519Y-57750000D01*
X116169670Y-57750000D01*
X116149925Y-57769745D01*
X116100556Y-57855255D01*
X116075000Y-57950630D01*
X116075000Y-58049370D01*
X116100556Y-58144745D01*
X116149925Y-58230255D01*
X116169670Y-58250000D01*
X115358520Y-58250000D01*
X115421738Y-58402622D01*
X115421739Y-58402625D01*
X115514765Y-58541847D01*
X115633152Y-58660234D01*
X115772374Y-58753260D01*
X115772378Y-58753261D01*
X115927061Y-58817334D01*
X116091283Y-58850000D01*
X116200000Y-58850000D01*
X116200000Y-58280330D01*
X116219745Y-58300075D01*
X116305255Y-58349444D01*
X116400630Y-58375000D01*
X116499370Y-58375000D01*
X116594745Y-58349444D01*
X116680255Y-58300075D01*
X116700000Y-58280330D01*
X116700000Y-58850000D01*
X116808717Y-58850000D01*
X116972936Y-58817335D01*
X117080601Y-58772738D01*
X117142584Y-58767859D01*
X117195596Y-58800345D01*
X117219390Y-58857786D01*
X117219700Y-58865680D01*
X117219700Y-60874900D01*
X117200487Y-60934031D01*
X117150187Y-60970576D01*
X117119100Y-60975500D01*
X116594028Y-60975500D01*
X116594013Y-60975501D01*
X116568491Y-60978462D01*
X116568488Y-60978462D01*
X116464075Y-61024565D01*
X116383365Y-61105275D01*
X116337262Y-61209688D01*
X116337262Y-61209689D01*
X116334300Y-61235218D01*
X116334300Y-61885171D01*
X116334301Y-61885186D01*
X116337262Y-61910708D01*
X116337262Y-61910711D01*
X116383365Y-62015124D01*
X116388634Y-62022816D01*
X116387177Y-62023813D01*
X116410337Y-62069268D01*
X116405145Y-62113159D01*
X116406038Y-62113337D01*
X116389600Y-62195976D01*
X116389600Y-62250000D01*
X117449400Y-62250000D01*
X117508531Y-62269213D01*
X117545076Y-62319513D01*
X117550000Y-62350600D01*
X117550000Y-62649400D01*
X117530787Y-62708531D01*
X117480487Y-62745076D01*
X117449400Y-62750000D01*
X116400206Y-62750000D01*
X116341075Y-62730787D01*
X116329071Y-62720535D01*
X116099610Y-62491074D01*
X116099608Y-62491073D01*
X116077712Y-62478431D01*
X116001491Y-62434424D01*
X116001485Y-62434422D01*
X115946771Y-62419762D01*
X115946770Y-62419762D01*
X115925602Y-62414090D01*
X115892053Y-62405100D01*
X115892051Y-62405100D01*
X115892050Y-62405100D01*
X113257149Y-62405100D01*
X113198018Y-62385887D01*
X113161473Y-62335587D01*
X113161473Y-62273413D01*
X113176990Y-62243714D01*
X113221496Y-62185024D01*
X113223510Y-62186551D01*
X113261047Y-62151970D01*
X113303010Y-62142800D01*
X113826901Y-62142800D01*
X113838495Y-62143469D01*
X113850821Y-62144900D01*
X115262778Y-62144899D01*
X115288309Y-62141938D01*
X115392725Y-62095834D01*
X115473434Y-62015125D01*
X115519538Y-61910709D01*
X115522500Y-61885179D01*
X115522499Y-61235222D01*
X115519538Y-61209691D01*
X115508798Y-61185368D01*
X115473434Y-61105275D01*
X115392724Y-61024565D01*
X115288310Y-60978462D01*
X115262779Y-60975500D01*
X113850828Y-60975500D01*
X113850813Y-60975501D01*
X113825291Y-60978462D01*
X113825288Y-60978462D01*
X113720875Y-61024565D01*
X113640165Y-61105275D01*
X113591005Y-61216613D01*
X113589359Y-61215886D01*
X113560461Y-61260020D01*
X113502332Y-61282081D01*
X113497448Y-61282200D01*
X113303010Y-61282200D01*
X113243879Y-61262987D01*
X113222630Y-61239115D01*
X113221496Y-61239976D01*
X113130293Y-61119707D01*
X113118398Y-61110687D01*
X113015507Y-61032662D01*
X112915640Y-60993279D01*
X112881491Y-60979812D01*
X112881493Y-60979812D01*
X112797292Y-60969701D01*
X112797283Y-60969700D01*
X112797279Y-60969700D01*
X112797272Y-60969700D01*
X112202729Y-60969700D01*
X112202721Y-60969701D01*
X112118509Y-60979812D01*
X112018381Y-61019298D01*
X111984493Y-61032662D01*
X111869707Y-61119707D01*
X111786070Y-61230000D01*
X111782664Y-61234491D01*
X111782663Y-61234491D01*
X111782662Y-61234492D01*
X111782662Y-61234493D01*
X111773443Y-61257868D01*
X111729812Y-61368507D01*
X111719701Y-61452707D01*
X111719700Y-61452727D01*
X111719700Y-61489100D01*
X111700487Y-61548231D01*
X111650187Y-61584776D01*
X111619100Y-61589700D01*
X111558232Y-61589700D01*
X111499101Y-61570487D01*
X111490107Y-61562806D01*
X111380424Y-61481855D01*
X111319406Y-61460504D01*
X111253722Y-61437521D01*
X111253723Y-61437521D01*
X111249424Y-61437118D01*
X111223639Y-61434700D01*
X111223633Y-61434700D01*
X110776369Y-61434700D01*
X110776358Y-61434701D01*
X110746280Y-61437520D01*
X110619574Y-61481856D01*
X110511569Y-61561568D01*
X110511568Y-61561569D01*
X110431855Y-61669575D01*
X110387765Y-61795581D01*
X110387521Y-61796278D01*
X110385193Y-61821111D01*
X110384700Y-61826366D01*
X110384700Y-62213630D01*
X110384701Y-62213641D01*
X110387520Y-62243719D01*
X110387520Y-62243721D01*
X110387521Y-62243722D01*
X110414041Y-62319513D01*
X110431856Y-62370425D01*
X110514714Y-62482693D01*
X110534369Y-62541679D01*
X110515599Y-62600953D01*
X110515161Y-62601560D01*
X110510552Y-62607903D01*
X110454466Y-62717979D01*
X110454465Y-62717982D01*
X110452561Y-62730000D01*
X111149400Y-62730000D01*
X111208531Y-62749213D01*
X111245076Y-62799513D01*
X111250000Y-62830600D01*
X111250000Y-63502188D01*
X111292021Y-63495533D01*
X111402092Y-63439449D01*
X111489450Y-63352091D01*
X111529465Y-63273558D01*
X111573428Y-63229594D01*
X111634837Y-63219868D01*
X111690235Y-63248094D01*
X111718461Y-63303491D01*
X111719700Y-63319229D01*
X111719700Y-63547274D01*
X111729812Y-63631490D01*
X111729812Y-63631492D01*
X111729813Y-63631493D01*
X111782662Y-63765507D01*
X111869707Y-63880293D01*
X111984493Y-63967338D01*
X112118507Y-64020187D01*
X112118506Y-64020187D01*
X112129757Y-64021538D01*
X112202721Y-64030300D01*
X112797278Y-64030299D01*
X112881493Y-64020187D01*
X113015507Y-63967338D01*
X113130293Y-63880293D01*
X113217338Y-63765507D01*
X113270187Y-63631493D01*
X113280300Y-63547279D01*
X113280299Y-63366299D01*
X113299512Y-63307169D01*
X113349811Y-63270624D01*
X113380899Y-63265700D01*
X113490500Y-63265700D01*
X113549631Y-63284913D01*
X113586176Y-63335213D01*
X113591100Y-63366300D01*
X113591100Y-63764771D01*
X113591101Y-63764786D01*
X113594062Y-63790308D01*
X113594062Y-63790311D01*
X113640165Y-63894724D01*
X113640166Y-63894725D01*
X113720875Y-63975434D01*
X113825291Y-64021538D01*
X113850821Y-64024500D01*
X114025900Y-64024499D01*
X114085031Y-64043712D01*
X114121576Y-64094011D01*
X114126500Y-64125099D01*
X114126500Y-64340162D01*
X114107287Y-64399293D01*
X114085638Y-64421104D01*
X113978547Y-64500140D01*
X113978544Y-64500143D01*
X113899727Y-64606937D01*
X113855890Y-64732216D01*
X113855890Y-64732219D01*
X113853100Y-64761970D01*
X113853100Y-65238030D01*
X113855270Y-65261169D01*
X113855890Y-65267783D01*
X113888994Y-65362389D01*
X113899727Y-65393062D01*
X113978544Y-65499856D01*
X114085338Y-65578673D01*
X114210616Y-65622509D01*
X114210619Y-65622510D01*
X114240370Y-65625300D01*
X114240377Y-65625300D01*
X114616423Y-65625300D01*
X114616430Y-65625300D01*
X114646181Y-65622510D01*
X114771462Y-65578673D01*
X114878256Y-65499856D01*
X114896112Y-65475660D01*
X114946682Y-65439493D01*
X115008854Y-65439956D01*
X115048189Y-65464262D01*
X115086593Y-65502666D01*
X115198400Y-65557323D01*
X115198400Y-64442674D01*
X115131884Y-64475193D01*
X115070322Y-64483903D01*
X115015399Y-64454764D01*
X114988092Y-64398908D01*
X114987100Y-64384815D01*
X114987100Y-64125099D01*
X115006313Y-64065968D01*
X115056613Y-64029423D01*
X115087700Y-64024499D01*
X115262772Y-64024499D01*
X115262778Y-64024499D01*
X115288309Y-64021538D01*
X115392725Y-63975434D01*
X115473434Y-63894725D01*
X115473532Y-63894502D01*
X115473764Y-63894243D01*
X115478702Y-63887035D01*
X115479639Y-63887677D01*
X115514988Y-63848169D01*
X115575763Y-63835050D01*
X115632641Y-63860160D01*
X115652683Y-63884831D01*
X115655670Y-63890005D01*
X115655674Y-63890010D01*
X115958635Y-64192971D01*
X115986861Y-64248369D01*
X115988100Y-64264106D01*
X115988100Y-64432357D01*
X115968887Y-64491488D01*
X115918587Y-64528033D01*
X115856413Y-64528033D01*
X115816365Y-64503492D01*
X115810208Y-64497335D01*
X115698400Y-64442674D01*
X115698400Y-65557323D01*
X115810205Y-65502666D01*
X115819838Y-65493033D01*
X115875234Y-65464805D01*
X115936644Y-65474529D01*
X115961848Y-65495889D01*
X115963213Y-65494525D01*
X115968543Y-65499855D01*
X115968544Y-65499856D01*
X116075338Y-65578673D01*
X116200616Y-65622509D01*
X116200619Y-65622510D01*
X116230370Y-65625300D01*
X116230377Y-65625300D01*
X116606423Y-65625300D01*
X116606430Y-65625300D01*
X116636181Y-65622510D01*
X116761462Y-65578673D01*
X116868256Y-65499856D01*
X116868256Y-65499855D01*
X116868662Y-65499556D01*
X116927648Y-65479902D01*
X116986921Y-65498672D01*
X116988138Y-65499556D01*
X116988543Y-65499855D01*
X116988544Y-65499856D01*
X117095338Y-65578673D01*
X117220616Y-65622509D01*
X117220619Y-65622510D01*
X117250370Y-65625300D01*
X117250377Y-65625300D01*
X117626423Y-65625300D01*
X117626430Y-65625300D01*
X117656181Y-65622510D01*
X117781462Y-65578673D01*
X117888256Y-65499856D01*
X117967073Y-65393062D01*
X118010910Y-65267781D01*
X118013700Y-65238030D01*
X118013700Y-64761970D01*
X118010910Y-64732219D01*
X117967073Y-64606938D01*
X117888256Y-64500144D01*
X117781462Y-64421327D01*
X117781461Y-64421326D01*
X117775397Y-64416851D01*
X117776650Y-64415152D01*
X117740586Y-64377982D01*
X117730300Y-64333669D01*
X117730300Y-64125099D01*
X117749513Y-64065968D01*
X117799813Y-64029423D01*
X117830900Y-64024499D01*
X118005972Y-64024499D01*
X118005978Y-64024499D01*
X118031509Y-64021538D01*
X118135925Y-63975434D01*
X118216634Y-63894725D01*
X118262738Y-63790309D01*
X118265700Y-63764779D01*
X118265699Y-63114822D01*
X118262738Y-63089291D01*
X118241015Y-63040094D01*
X118216634Y-62984875D01*
X118211366Y-62977184D01*
X118212821Y-62976186D01*
X118189661Y-62930730D01*
X118194858Y-62886842D01*
X118193962Y-62886664D01*
X118211097Y-62800517D01*
X118241476Y-62746270D01*
X118297939Y-62720239D01*
X118358919Y-62732369D01*
X118399399Y-62774470D01*
X118438950Y-62852092D01*
X118526307Y-62939449D01*
X118636378Y-62995534D01*
X118678400Y-63002189D01*
X118678400Y-62730000D01*
X119178400Y-62730000D01*
X119178400Y-63002188D01*
X119220421Y-62995533D01*
X119330492Y-62939449D01*
X119417849Y-62852092D01*
X119473933Y-62742020D01*
X119473934Y-62742017D01*
X119475839Y-62730000D01*
X119178400Y-62730000D01*
X118678400Y-62730000D01*
X118678400Y-62330600D01*
X118697613Y-62271469D01*
X118747913Y-62234924D01*
X118779000Y-62230000D01*
X119475838Y-62230000D01*
X119475838Y-62229999D01*
X119473935Y-62217981D01*
X119414255Y-62100852D01*
X119416103Y-62099910D01*
X119400180Y-62050895D01*
X119419396Y-61991765D01*
X119469698Y-61955222D01*
X119500780Y-61950300D01*
X122163698Y-61950300D01*
X122222829Y-61969513D01*
X122234833Y-61979765D01*
X123540235Y-63285167D01*
X123568461Y-63340565D01*
X123569700Y-63356302D01*
X123569700Y-66193051D01*
X123599022Y-66302482D01*
X123599022Y-66302483D01*
X123599024Y-66302486D01*
X123623181Y-66344326D01*
X123655674Y-66400606D01*
X125469278Y-68214210D01*
X125549394Y-68294326D01*
X125617955Y-68333910D01*
X125647514Y-68350976D01*
X125647516Y-68350977D01*
X125756948Y-68380299D01*
X125756950Y-68380299D01*
X125756953Y-68380300D01*
X125756954Y-68380300D01*
X130730094Y-68380300D01*
X130789225Y-68399513D01*
X130801229Y-68409765D01*
X130982291Y-68590827D01*
X131006085Y-68637527D01*
X131008156Y-68636919D01*
X131010183Y-68643824D01*
X131035199Y-68698601D01*
X131070543Y-68775995D01*
X131165696Y-68885807D01*
X131287932Y-68964363D01*
X131427349Y-69005300D01*
X131427350Y-69005300D01*
X131572650Y-69005300D01*
X131572651Y-69005300D01*
X131712068Y-68964363D01*
X131834304Y-68885807D01*
X131929457Y-68775995D01*
X131943883Y-68744405D01*
X131985921Y-68698601D01*
X132046857Y-68686253D01*
X132103413Y-68712080D01*
X132106526Y-68715062D01*
X132655674Y-69264210D01*
X132735790Y-69344326D01*
X132807636Y-69385806D01*
X132807637Y-69385808D01*
X132833908Y-69400975D01*
X132833910Y-69400976D01*
X132833911Y-69400976D01*
X132833913Y-69400977D01*
X132943344Y-69430299D01*
X132943346Y-69430299D01*
X132943349Y-69430300D01*
X132943350Y-69430300D01*
X134080094Y-69430300D01*
X134139225Y-69449513D01*
X134151229Y-69459765D01*
X135265619Y-70574155D01*
X135293845Y-70629553D01*
X135294306Y-70651481D01*
X135294868Y-70651514D01*
X135294700Y-70654423D01*
X135294700Y-72345571D01*
X135294701Y-72345586D01*
X135297662Y-72371108D01*
X135297662Y-72371111D01*
X135343765Y-72475524D01*
X135343766Y-72475525D01*
X135424475Y-72556234D01*
X135528891Y-72602338D01*
X135528897Y-72602338D01*
X135531061Y-72602928D01*
X135532789Y-72604060D01*
X135535813Y-72605395D01*
X135535592Y-72605895D01*
X135583074Y-72636991D01*
X135605133Y-72695120D01*
X135588810Y-72755114D01*
X135540342Y-72794056D01*
X135531063Y-72797071D01*
X135528889Y-72797662D01*
X135424475Y-72843765D01*
X135343765Y-72924475D01*
X135297662Y-73028888D01*
X135297662Y-73028889D01*
X135294700Y-73054418D01*
X135294700Y-74745571D01*
X135294701Y-74745586D01*
X135297662Y-74771108D01*
X135297662Y-74771111D01*
X135336366Y-74858766D01*
X135342675Y-74920619D01*
X135311422Y-74974367D01*
X135254545Y-74999481D01*
X135244338Y-75000000D01*
X134455662Y-75000000D01*
X134396531Y-74980787D01*
X134359986Y-74930487D01*
X134359986Y-74868313D01*
X134363634Y-74858765D01*
X134368738Y-74847206D01*
X134402338Y-74771109D01*
X134405300Y-74745579D01*
X134405299Y-73054422D01*
X134402338Y-73028891D01*
X134356234Y-72924475D01*
X134275525Y-72843766D01*
X134275524Y-72843765D01*
X134171111Y-72797662D01*
X134168931Y-72797069D01*
X134167200Y-72795935D01*
X134164187Y-72794605D01*
X134164407Y-72794106D01*
X134116920Y-72763003D01*
X134094866Y-72704871D01*
X134111192Y-72644879D01*
X134159663Y-72605941D01*
X134168948Y-72602925D01*
X134171098Y-72602339D01*
X134171109Y-72602338D01*
X134275525Y-72556234D01*
X134356234Y-72475525D01*
X134402338Y-72371109D01*
X134405300Y-72345579D01*
X134405299Y-70654422D01*
X134402338Y-70628891D01*
X134356234Y-70524475D01*
X134275525Y-70443766D01*
X134275524Y-70443765D01*
X134171110Y-70397662D01*
X134145579Y-70394700D01*
X133054428Y-70394700D01*
X133054413Y-70394701D01*
X133028891Y-70397662D01*
X133028888Y-70397662D01*
X132924475Y-70443765D01*
X132843765Y-70524475D01*
X132797662Y-70628888D01*
X132797662Y-70628889D01*
X132794700Y-70654417D01*
X132794700Y-71898900D01*
X132775487Y-71958031D01*
X132725187Y-71994576D01*
X132694100Y-71999500D01*
X132631007Y-71999500D01*
X132597173Y-72006230D01*
X132495669Y-72026420D01*
X132368192Y-72079223D01*
X132368189Y-72079224D01*
X132253456Y-72155887D01*
X132155887Y-72253456D01*
X132079224Y-72368189D01*
X132079223Y-72368192D01*
X132026420Y-72495669D01*
X132004495Y-72605895D01*
X131999500Y-72631007D01*
X131999500Y-72768993D01*
X132004614Y-72794701D01*
X132026420Y-72904330D01*
X132079223Y-73031807D01*
X132079224Y-73031810D01*
X132094333Y-73054422D01*
X132155886Y-73146542D01*
X132253458Y-73244114D01*
X132368189Y-73320775D01*
X132416324Y-73340713D01*
X132495669Y-73373579D01*
X132495670Y-73373579D01*
X132495672Y-73373580D01*
X132631007Y-73400500D01*
X132631008Y-73400500D01*
X132694100Y-73400500D01*
X132753231Y-73419713D01*
X132789776Y-73470013D01*
X132794700Y-73501100D01*
X132794700Y-74745571D01*
X132794701Y-74745586D01*
X132797662Y-74771108D01*
X132797662Y-74771111D01*
X132836366Y-74858766D01*
X132842675Y-74920619D01*
X132811422Y-74974367D01*
X132754545Y-74999481D01*
X132744338Y-75000000D01*
X116001858Y-75000000D01*
X115998154Y-74999932D01*
X115035512Y-74964465D01*
X114821189Y-74962196D01*
X114813487Y-74961819D01*
X114386962Y-74924506D01*
X114378261Y-74923361D01*
X113957125Y-74849106D01*
X113948556Y-74847206D01*
X113535506Y-74736531D01*
X113527136Y-74733892D01*
X113125305Y-74587639D01*
X113117197Y-74584281D01*
X112729630Y-74403557D01*
X112721845Y-74399504D01*
X112351520Y-74185698D01*
X112344118Y-74180983D01*
X111993818Y-73935700D01*
X111986856Y-73930357D01*
X111659286Y-73655495D01*
X111652815Y-73649566D01*
X111350433Y-73347184D01*
X111344504Y-73340713D01*
X111069642Y-73013143D01*
X111064299Y-73006181D01*
X110819016Y-72655881D01*
X110814301Y-72648479D01*
X110600495Y-72278154D01*
X110596442Y-72270369D01*
X110415718Y-71882802D01*
X110412360Y-71874694D01*
X110266107Y-71472863D01*
X110263468Y-71464493D01*
X110152789Y-71051428D01*
X110150896Y-71042890D01*
X110076635Y-70621722D01*
X110076578Y-70621290D01*
X112649500Y-70621290D01*
X112681159Y-70861774D01*
X112681160Y-70861783D01*
X112743945Y-71096100D01*
X112743946Y-71096102D01*
X112836775Y-71320211D01*
X112958063Y-71530289D01*
X113105730Y-71722733D01*
X113277266Y-71894269D01*
X113469710Y-72041936D01*
X113679788Y-72163224D01*
X113903897Y-72256053D01*
X113903899Y-72256054D01*
X114007214Y-72283737D01*
X114138211Y-72318838D01*
X114138213Y-72318838D01*
X114138216Y-72318839D01*
X114138225Y-72318840D01*
X114378710Y-72350500D01*
X114378712Y-72350500D01*
X114621290Y-72350500D01*
X114861774Y-72318840D01*
X114861783Y-72318839D01*
X114861784Y-72318838D01*
X114861789Y-72318838D01*
X115096100Y-72256054D01*
X115320212Y-72163224D01*
X115530289Y-72041936D01*
X115676184Y-71929987D01*
X115722733Y-71894269D01*
X115722733Y-71894268D01*
X115722738Y-71894265D01*
X115894265Y-71722738D01*
X116041936Y-71530289D01*
X116163224Y-71320212D01*
X116256054Y-71096100D01*
X116318838Y-70861789D01*
X116349499Y-70628891D01*
X116350500Y-70621290D01*
X116350500Y-70378709D01*
X116318840Y-70138225D01*
X116318839Y-70138216D01*
X116256054Y-69903899D01*
X116256053Y-69903897D01*
X116163224Y-69679788D01*
X116041936Y-69469710D01*
X115894269Y-69277266D01*
X115722733Y-69105730D01*
X115530289Y-68958063D01*
X115320211Y-68836775D01*
X115096102Y-68743946D01*
X115096100Y-68743945D01*
X114861783Y-68681160D01*
X114861774Y-68681159D01*
X114621290Y-68649500D01*
X114621288Y-68649500D01*
X114378712Y-68649500D01*
X114378710Y-68649500D01*
X114138225Y-68681159D01*
X114138216Y-68681160D01*
X113903899Y-68743945D01*
X113903897Y-68743946D01*
X113679788Y-68836775D01*
X113469710Y-68958063D01*
X113277266Y-69105730D01*
X113105730Y-69277266D01*
X112958063Y-69469710D01*
X112836775Y-69679788D01*
X112743946Y-69903897D01*
X112743945Y-69903899D01*
X112681160Y-70138216D01*
X112681159Y-70138225D01*
X112649500Y-70378709D01*
X112649500Y-70621290D01*
X110076578Y-70621290D01*
X110075495Y-70613053D01*
X110038179Y-70186509D01*
X110037803Y-70178810D01*
X110035539Y-69964979D01*
X110035533Y-69964052D01*
X110035399Y-69866086D01*
X110026317Y-63230000D01*
X110452561Y-63230000D01*
X110454464Y-63242018D01*
X110510549Y-63352091D01*
X110597907Y-63439449D01*
X110707978Y-63495534D01*
X110750000Y-63502189D01*
X110750000Y-63230000D01*
X110452561Y-63230000D01*
X110026317Y-63230000D01*
X110006473Y-48730000D01*
X113452561Y-48730000D01*
X113454464Y-48742018D01*
X113510549Y-48852091D01*
X113597907Y-48939449D01*
X113707978Y-48995534D01*
X113750000Y-49002189D01*
X113750000Y-48730000D01*
X113452561Y-48730000D01*
X110006473Y-48730000D01*
X110000000Y-44000474D01*
X110000006Y-43999448D01*
X110002338Y-43785634D01*
X110002715Y-43777968D01*
X110014094Y-43647907D01*
X110016423Y-43621290D01*
X112649500Y-43621290D01*
X112681159Y-43861774D01*
X112681160Y-43861783D01*
X112743945Y-44096100D01*
X112743946Y-44096102D01*
X112836775Y-44320211D01*
X112958063Y-44530289D01*
X113105730Y-44722733D01*
X113277266Y-44894269D01*
X113469710Y-45041936D01*
X113679788Y-45163224D01*
X113903897Y-45256053D01*
X113903899Y-45256054D01*
X113993614Y-45280093D01*
X114138211Y-45318838D01*
X114138213Y-45318838D01*
X114138216Y-45318839D01*
X114138225Y-45318840D01*
X114378710Y-45350500D01*
X114378712Y-45350500D01*
X114621290Y-45350500D01*
X114861774Y-45318840D01*
X114861783Y-45318839D01*
X114861784Y-45318838D01*
X114861789Y-45318838D01*
X115096100Y-45256054D01*
X115320212Y-45163224D01*
X115530289Y-45041936D01*
X115656499Y-44945092D01*
X115722733Y-44894269D01*
X115722733Y-44894268D01*
X115722738Y-44894265D01*
X115894265Y-44722738D01*
X115895514Y-44721111D01*
X116041936Y-44530289D01*
X116059423Y-44500000D01*
X116163224Y-44320212D01*
X116256054Y-44096100D01*
X116318838Y-43861789D01*
X116330922Y-43770000D01*
X124452561Y-43770000D01*
X124750000Y-43770000D01*
X124750000Y-43497810D01*
X124707978Y-43504465D01*
X124597907Y-43560550D01*
X124510550Y-43647907D01*
X124454466Y-43757979D01*
X124454465Y-43757982D01*
X124452561Y-43770000D01*
X116330922Y-43770000D01*
X116332505Y-43757979D01*
X116350500Y-43621290D01*
X116350500Y-43497809D01*
X125250000Y-43497809D01*
X125250000Y-43770000D01*
X125547438Y-43770000D01*
X125952561Y-43770000D01*
X126250000Y-43770000D01*
X126250000Y-43497810D01*
X126207978Y-43504465D01*
X126097907Y-43560550D01*
X126010550Y-43647907D01*
X125954466Y-43757979D01*
X125954465Y-43757982D01*
X125952561Y-43770000D01*
X125547438Y-43770000D01*
X125547438Y-43769999D01*
X125545535Y-43757981D01*
X125489450Y-43647908D01*
X125402092Y-43560550D01*
X125292019Y-43504465D01*
X125250000Y-43497809D01*
X116350500Y-43497809D01*
X116350500Y-43378709D01*
X116318840Y-43138225D01*
X116318839Y-43138216D01*
X116315438Y-43125525D01*
X116275004Y-42974623D01*
X116256054Y-42903899D01*
X116256053Y-42903897D01*
X116163224Y-42679788D01*
X116041936Y-42469710D01*
X115894269Y-42277266D01*
X115722733Y-42105730D01*
X115530289Y-41958063D01*
X115320211Y-41836775D01*
X115096102Y-41743946D01*
X115096100Y-41743945D01*
X114861783Y-41681160D01*
X114861774Y-41681159D01*
X114621290Y-41649500D01*
X114621288Y-41649500D01*
X114378712Y-41649500D01*
X114378710Y-41649500D01*
X114138225Y-41681159D01*
X114138216Y-41681160D01*
X113903899Y-41743945D01*
X113903897Y-41743946D01*
X113679788Y-41836775D01*
X113469710Y-41958063D01*
X113277266Y-42105730D01*
X113105730Y-42277266D01*
X112958063Y-42469710D01*
X112836775Y-42679788D01*
X112743946Y-42903897D01*
X112743945Y-42903899D01*
X112681160Y-43138216D01*
X112681159Y-43138225D01*
X112649500Y-43378709D01*
X112649500Y-43621290D01*
X110016423Y-43621290D01*
X110040033Y-43351422D01*
X110041173Y-43342754D01*
X110115435Y-42921595D01*
X110117330Y-42913048D01*
X110228007Y-42499996D01*
X110230646Y-42491628D01*
X110235283Y-42478888D01*
X110376901Y-42089793D01*
X110380252Y-42081703D01*
X110560982Y-41694124D01*
X110565025Y-41686358D01*
X110778849Y-41316005D01*
X110783533Y-41308652D01*
X110824602Y-41250000D01*
X127850000Y-41250000D01*
X127850000Y-41274623D01*
X127864505Y-41347546D01*
X127912322Y-41419110D01*
X127929198Y-41478950D01*
X127912322Y-41530890D01*
X127864505Y-41602453D01*
X127850000Y-41675376D01*
X127850000Y-41700000D01*
X128300000Y-41700000D01*
X128300000Y-41250000D01*
X128700000Y-41250000D01*
X128700000Y-41700000D01*
X129150000Y-41700000D01*
X129150000Y-41675376D01*
X129135495Y-41602455D01*
X129087677Y-41530891D01*
X129070801Y-41471051D01*
X129087677Y-41419109D01*
X129135495Y-41347544D01*
X129150000Y-41274623D01*
X129150000Y-41250000D01*
X128700000Y-41250000D01*
X128300000Y-41250000D01*
X127850000Y-41250000D01*
X110824602Y-41250000D01*
X111028835Y-40958325D01*
X111034165Y-40951380D01*
X111309040Y-40623796D01*
X111314948Y-40617348D01*
X111617348Y-40314948D01*
X111623796Y-40309040D01*
X111694157Y-40250000D01*
X127850000Y-40250000D01*
X127850000Y-40424623D01*
X127864505Y-40497546D01*
X127912322Y-40569110D01*
X127929198Y-40628950D01*
X127912322Y-40680890D01*
X127864505Y-40752453D01*
X127850000Y-40825376D01*
X127850000Y-40850000D01*
X128300000Y-40850000D01*
X128700000Y-40850000D01*
X129150000Y-40850000D01*
X129150000Y-40825376D01*
X129135826Y-40754119D01*
X129143134Y-40692376D01*
X129185338Y-40646720D01*
X129246317Y-40634590D01*
X129254119Y-40635826D01*
X129325377Y-40650000D01*
X129350000Y-40650000D01*
X129350000Y-40200000D01*
X129750000Y-40200000D01*
X129750000Y-40650000D01*
X129774623Y-40650000D01*
X129847544Y-40635495D01*
X129919109Y-40587677D01*
X129978949Y-40570801D01*
X130030891Y-40587677D01*
X130102455Y-40635495D01*
X130175377Y-40650000D01*
X130200000Y-40650000D01*
X130200000Y-40200000D01*
X130600000Y-40200000D01*
X130600000Y-40650000D01*
X130624623Y-40650000D01*
X130697544Y-40635495D01*
X130769109Y-40587677D01*
X130828949Y-40570801D01*
X130880891Y-40587677D01*
X130952455Y-40635495D01*
X131025377Y-40650000D01*
X131050000Y-40650000D01*
X131050000Y-40200000D01*
X131450000Y-40200000D01*
X131450000Y-40650000D01*
X131474623Y-40650000D01*
X131547544Y-40635495D01*
X131619109Y-40587677D01*
X131678949Y-40570801D01*
X131730891Y-40587677D01*
X131802455Y-40635495D01*
X131875377Y-40650000D01*
X131900000Y-40650000D01*
X131900000Y-40200000D01*
X132300000Y-40200000D01*
X132300000Y-40650000D01*
X132324623Y-40650000D01*
X132397544Y-40635495D01*
X132469109Y-40587677D01*
X132528949Y-40570801D01*
X132580891Y-40587677D01*
X132652455Y-40635495D01*
X132725377Y-40650000D01*
X132750000Y-40650000D01*
X132750000Y-40200000D01*
X133150000Y-40200000D01*
X133150000Y-40650000D01*
X133174623Y-40650000D01*
X133247544Y-40635495D01*
X133319109Y-40587677D01*
X133378949Y-40570801D01*
X133430891Y-40587677D01*
X133502455Y-40635495D01*
X133575377Y-40650000D01*
X133600000Y-40650000D01*
X133600000Y-40200000D01*
X134000000Y-40200000D01*
X134000000Y-40650000D01*
X134024623Y-40650000D01*
X134097544Y-40635495D01*
X134169109Y-40587677D01*
X134228949Y-40570801D01*
X134280891Y-40587677D01*
X134352455Y-40635495D01*
X134425377Y-40650000D01*
X134450000Y-40650000D01*
X134450000Y-40200000D01*
X134850000Y-40200000D01*
X134850000Y-40650000D01*
X134874623Y-40650000D01*
X134947544Y-40635495D01*
X135019109Y-40587677D01*
X135078949Y-40570801D01*
X135130891Y-40587677D01*
X135202455Y-40635495D01*
X135275377Y-40650000D01*
X135300000Y-40650000D01*
X135300000Y-40200000D01*
X135700000Y-40200000D01*
X135700000Y-40650000D01*
X135724623Y-40650000D01*
X135797544Y-40635495D01*
X135869109Y-40587677D01*
X135928949Y-40570801D01*
X135980891Y-40587677D01*
X136052455Y-40635495D01*
X136125377Y-40650000D01*
X136150000Y-40650000D01*
X136150000Y-40200000D01*
X136550000Y-40200000D01*
X136550000Y-40650000D01*
X136574623Y-40650000D01*
X136647544Y-40635495D01*
X136719109Y-40587677D01*
X136778949Y-40570801D01*
X136830891Y-40587677D01*
X136902455Y-40635495D01*
X136975377Y-40650000D01*
X137000000Y-40650000D01*
X137000000Y-40200000D01*
X137400000Y-40200000D01*
X137400000Y-40650000D01*
X137424623Y-40650000D01*
X137497544Y-40635495D01*
X137569109Y-40587677D01*
X137628949Y-40570801D01*
X137680891Y-40587677D01*
X137752455Y-40635495D01*
X137825377Y-40650000D01*
X137850000Y-40650000D01*
X137850000Y-40200000D01*
X138250000Y-40200000D01*
X138250000Y-40650000D01*
X138274623Y-40650000D01*
X138347544Y-40635495D01*
X138419109Y-40587677D01*
X138478949Y-40570801D01*
X138530891Y-40587677D01*
X138602455Y-40635495D01*
X138675377Y-40650000D01*
X138700000Y-40650000D01*
X138700000Y-40200000D01*
X139100000Y-40200000D01*
X139100000Y-40650000D01*
X139124623Y-40650000D01*
X139197544Y-40635495D01*
X139269109Y-40587677D01*
X139328949Y-40570801D01*
X139380891Y-40587677D01*
X139452455Y-40635495D01*
X139525377Y-40650000D01*
X139550000Y-40650000D01*
X139550000Y-40200000D01*
X139950000Y-40200000D01*
X139950000Y-40650000D01*
X139974623Y-40650000D01*
X140047544Y-40635495D01*
X140119109Y-40587677D01*
X140178949Y-40570801D01*
X140230891Y-40587677D01*
X140302455Y-40635495D01*
X140375377Y-40650000D01*
X140400000Y-40650000D01*
X140400000Y-40200000D01*
X140800000Y-40200000D01*
X140800000Y-40650000D01*
X140824623Y-40650000D01*
X140897544Y-40635495D01*
X140969109Y-40587677D01*
X141028949Y-40570801D01*
X141080891Y-40587677D01*
X141152455Y-40635495D01*
X141225377Y-40650000D01*
X141250000Y-40650000D01*
X141250000Y-40200000D01*
X140800000Y-40200000D01*
X140400000Y-40200000D01*
X139950000Y-40200000D01*
X139550000Y-40200000D01*
X139100000Y-40200000D01*
X138700000Y-40200000D01*
X138250000Y-40200000D01*
X137850000Y-40200000D01*
X137400000Y-40200000D01*
X137000000Y-40200000D01*
X136550000Y-40200000D01*
X136150000Y-40200000D01*
X135700000Y-40200000D01*
X135300000Y-40200000D01*
X134850000Y-40200000D01*
X134450000Y-40200000D01*
X134000000Y-40200000D01*
X133600000Y-40200000D01*
X133150000Y-40200000D01*
X132750000Y-40200000D01*
X132300000Y-40200000D01*
X131900000Y-40200000D01*
X131450000Y-40200000D01*
X131050000Y-40200000D01*
X130600000Y-40200000D01*
X130200000Y-40200000D01*
X129750000Y-40200000D01*
X129350000Y-40200000D01*
X129193000Y-40200000D01*
X129172465Y-40220535D01*
X129117067Y-40248761D01*
X129101330Y-40250000D01*
X128750000Y-40250000D01*
X128750000Y-40601330D01*
X128730787Y-40660461D01*
X128720535Y-40672465D01*
X128700000Y-40693000D01*
X128700000Y-40850000D01*
X128300000Y-40850000D01*
X128300000Y-40693000D01*
X128279465Y-40672465D01*
X128251239Y-40617067D01*
X128250000Y-40601330D01*
X128250000Y-40250000D01*
X127850000Y-40250000D01*
X111694157Y-40250000D01*
X111951380Y-40034165D01*
X111958325Y-40028835D01*
X112308652Y-39783533D01*
X112316005Y-39778849D01*
X112686358Y-39565025D01*
X112694124Y-39560982D01*
X113081703Y-39380252D01*
X113089793Y-39376901D01*
X113491630Y-39230645D01*
X113499998Y-39228007D01*
X113913048Y-39117330D01*
X113921595Y-39115435D01*
X114342754Y-39041173D01*
X114351422Y-39040033D01*
X114777972Y-39002714D01*
X114785635Y-39002338D01*
X114999450Y-39000006D01*
X115000547Y-39000000D01*
X127699400Y-39000000D01*
X127758531Y-39019213D01*
G37*
%TD.AperFunction*%
%TA.AperFunction,Conductor*%
G36*
X155000550Y-39000006D02*
G01*
X155214362Y-39002338D01*
X155222028Y-39002714D01*
X155648574Y-39040032D01*
X155657248Y-39041174D01*
X156078399Y-39115434D01*
X156086956Y-39117331D01*
X156194963Y-39146272D01*
X156500001Y-39228007D01*
X156508371Y-39230646D01*
X156910197Y-39376898D01*
X156918304Y-39380255D01*
X157028179Y-39431491D01*
X157305865Y-39560978D01*
X157313650Y-39565031D01*
X157683983Y-39778843D01*
X157691357Y-39783540D01*
X157857806Y-39900089D01*
X158041665Y-40028829D01*
X158048627Y-40034172D01*
X158376191Y-40309030D01*
X158382662Y-40314959D01*
X158685040Y-40617337D01*
X158690969Y-40623808D01*
X158965827Y-40951372D01*
X158971170Y-40958334D01*
X159216455Y-41308636D01*
X159221160Y-41316022D01*
X159250286Y-41366469D01*
X159434968Y-41686349D01*
X159439021Y-41694134D01*
X159619743Y-42081694D01*
X159623101Y-42089802D01*
X159769353Y-42491628D01*
X159771992Y-42499998D01*
X159882666Y-42913037D01*
X159884566Y-42921605D01*
X159958823Y-43342738D01*
X159959968Y-43351439D01*
X159997284Y-43777968D01*
X159997661Y-43785638D01*
X159999994Y-43999448D01*
X160000000Y-44000546D01*
X160000000Y-69999453D01*
X159999994Y-70000551D01*
X159997661Y-70214361D01*
X159997284Y-70222031D01*
X159959968Y-70648560D01*
X159958823Y-70657261D01*
X159884566Y-71078394D01*
X159882666Y-71086962D01*
X159771992Y-71500001D01*
X159769353Y-71508371D01*
X159623101Y-71910197D01*
X159619743Y-71918305D01*
X159439021Y-72305865D01*
X159434968Y-72313650D01*
X159221165Y-72683969D01*
X159216450Y-72691371D01*
X158971170Y-73041665D01*
X158965827Y-73048627D01*
X158690969Y-73376191D01*
X158685040Y-73382662D01*
X158382662Y-73685040D01*
X158376191Y-73690969D01*
X158048627Y-73965827D01*
X158041665Y-73971170D01*
X157691371Y-74216450D01*
X157683969Y-74221165D01*
X157313650Y-74434968D01*
X157305865Y-74439021D01*
X156918305Y-74619743D01*
X156910197Y-74623101D01*
X156508371Y-74769353D01*
X156500001Y-74771992D01*
X156086962Y-74882666D01*
X156078394Y-74884566D01*
X155657261Y-74958823D01*
X155648560Y-74959968D01*
X155222031Y-74997284D01*
X155214361Y-74997661D01*
X155002933Y-74999968D01*
X155000549Y-74999994D01*
X154999453Y-75000000D01*
X139455662Y-75000000D01*
X139396531Y-74980787D01*
X139359986Y-74930487D01*
X139359986Y-74868313D01*
X139363634Y-74858765D01*
X139368738Y-74847206D01*
X139402338Y-74771109D01*
X139405300Y-74745579D01*
X139405299Y-73501099D01*
X139424512Y-73441969D01*
X139474812Y-73405424D01*
X139505899Y-73400500D01*
X139568992Y-73400500D01*
X139568993Y-73400500D01*
X139704328Y-73373580D01*
X139831811Y-73320775D01*
X139946542Y-73244114D01*
X140044114Y-73146542D01*
X140120775Y-73031811D01*
X140173580Y-72904328D01*
X140200500Y-72768993D01*
X140200500Y-72631007D01*
X140173580Y-72495672D01*
X140165234Y-72475524D01*
X140120776Y-72368192D01*
X140120775Y-72368189D01*
X140044114Y-72253458D01*
X139946542Y-72155886D01*
X139831811Y-72079225D01*
X139831812Y-72079225D01*
X139831810Y-72079224D01*
X139831807Y-72079223D01*
X139704330Y-72026420D01*
X139614104Y-72008473D01*
X139568993Y-71999500D01*
X139505899Y-71999500D01*
X139446768Y-71980287D01*
X139410223Y-71929987D01*
X139405299Y-71898900D01*
X139405299Y-70654428D01*
X139405298Y-70654413D01*
X139404619Y-70648560D01*
X139402338Y-70628891D01*
X139398982Y-70621290D01*
X153649500Y-70621290D01*
X153681159Y-70861774D01*
X153681160Y-70861783D01*
X153743945Y-71096100D01*
X153743946Y-71096102D01*
X153836775Y-71320211D01*
X153958063Y-71530289D01*
X154105730Y-71722733D01*
X154277266Y-71894269D01*
X154469710Y-72041936D01*
X154679788Y-72163224D01*
X154903897Y-72256053D01*
X154903899Y-72256054D01*
X155007214Y-72283737D01*
X155138211Y-72318838D01*
X155138213Y-72318838D01*
X155138216Y-72318839D01*
X155138225Y-72318840D01*
X155378710Y-72350500D01*
X155378712Y-72350500D01*
X155621290Y-72350500D01*
X155861774Y-72318840D01*
X155861783Y-72318839D01*
X155861784Y-72318838D01*
X155861789Y-72318838D01*
X156096100Y-72256054D01*
X156320212Y-72163224D01*
X156530289Y-72041936D01*
X156676184Y-71929987D01*
X156722733Y-71894269D01*
X156722733Y-71894268D01*
X156722738Y-71894265D01*
X156894265Y-71722738D01*
X157041936Y-71530289D01*
X157163224Y-71320212D01*
X157256054Y-71096100D01*
X157318838Y-70861789D01*
X157349499Y-70628891D01*
X157350500Y-70621290D01*
X157350500Y-70378709D01*
X157318840Y-70138225D01*
X157318839Y-70138216D01*
X157256054Y-69903899D01*
X157256053Y-69903897D01*
X157163224Y-69679788D01*
X157041936Y-69469710D01*
X156894269Y-69277266D01*
X156722733Y-69105730D01*
X156530289Y-68958063D01*
X156320211Y-68836775D01*
X156096102Y-68743946D01*
X156096100Y-68743945D01*
X155861783Y-68681160D01*
X155861774Y-68681159D01*
X155621290Y-68649500D01*
X155621288Y-68649500D01*
X155378712Y-68649500D01*
X155378710Y-68649500D01*
X155138225Y-68681159D01*
X155138216Y-68681160D01*
X154903899Y-68743945D01*
X154903897Y-68743946D01*
X154679788Y-68836775D01*
X154469710Y-68958063D01*
X154277266Y-69105730D01*
X154105730Y-69277266D01*
X153958063Y-69469710D01*
X153836775Y-69679788D01*
X153743946Y-69903897D01*
X153743945Y-69903899D01*
X153681160Y-70138216D01*
X153681159Y-70138225D01*
X153649500Y-70378709D01*
X153649500Y-70621290D01*
X139398982Y-70621290D01*
X139356234Y-70524475D01*
X139275525Y-70443766D01*
X139275524Y-70443765D01*
X139171110Y-70397662D01*
X139145582Y-70394700D01*
X139145579Y-70394700D01*
X138844906Y-70394700D01*
X138785775Y-70375487D01*
X138773771Y-70365235D01*
X137959765Y-69551229D01*
X137931539Y-69495831D01*
X137930300Y-69480094D01*
X137930300Y-69296032D01*
X137939390Y-69254243D01*
X137989817Y-69143823D01*
X138010496Y-69000000D01*
X137989817Y-68856177D01*
X137929457Y-68724005D01*
X137834304Y-68614193D01*
X137712068Y-68535637D01*
X137572651Y-68494700D01*
X137427349Y-68494700D01*
X137357640Y-68515168D01*
X137287931Y-68535637D01*
X137165694Y-68614194D01*
X137070542Y-68724006D01*
X137010182Y-68856176D01*
X136989504Y-69000000D01*
X137010182Y-69143823D01*
X137042862Y-69215382D01*
X137060609Y-69254243D01*
X137069700Y-69296032D01*
X137069700Y-69756655D01*
X137099022Y-69866086D01*
X137099024Y-69866091D01*
X137120848Y-69903891D01*
X137120854Y-69903900D01*
X137155674Y-69964210D01*
X137765619Y-70574155D01*
X137793845Y-70629553D01*
X137794306Y-70651481D01*
X137794868Y-70651514D01*
X137794700Y-70654423D01*
X137794700Y-72345571D01*
X137794701Y-72345586D01*
X137797662Y-72371108D01*
X137797662Y-72371111D01*
X137843765Y-72475524D01*
X137843766Y-72475525D01*
X137924475Y-72556234D01*
X138028891Y-72602338D01*
X138028897Y-72602338D01*
X138031061Y-72602928D01*
X138032789Y-72604060D01*
X138035813Y-72605395D01*
X138035592Y-72605895D01*
X138083074Y-72636991D01*
X138105133Y-72695120D01*
X138088810Y-72755114D01*
X138040342Y-72794056D01*
X138031063Y-72797071D01*
X138028889Y-72797662D01*
X137924475Y-72843765D01*
X137843765Y-72924475D01*
X137797662Y-73028888D01*
X137797662Y-73028889D01*
X137794700Y-73054418D01*
X137794700Y-74745571D01*
X137794701Y-74745586D01*
X137797662Y-74771108D01*
X137797662Y-74771111D01*
X137836366Y-74858766D01*
X137842675Y-74920619D01*
X137811422Y-74974367D01*
X137754545Y-74999481D01*
X137744338Y-75000000D01*
X136955662Y-75000000D01*
X136896531Y-74980787D01*
X136859986Y-74930487D01*
X136859986Y-74868313D01*
X136863634Y-74858765D01*
X136868738Y-74847206D01*
X136902338Y-74771109D01*
X136905300Y-74745579D01*
X136905299Y-73054422D01*
X136902338Y-73028891D01*
X136856234Y-72924475D01*
X136775525Y-72843766D01*
X136775524Y-72843765D01*
X136671111Y-72797662D01*
X136668931Y-72797069D01*
X136667200Y-72795935D01*
X136664187Y-72794605D01*
X136664407Y-72794106D01*
X136616920Y-72763003D01*
X136594866Y-72704871D01*
X136611192Y-72644879D01*
X136659663Y-72605941D01*
X136668948Y-72602925D01*
X136671098Y-72602339D01*
X136671109Y-72602338D01*
X136775525Y-72556234D01*
X136856234Y-72475525D01*
X136902338Y-72371109D01*
X136905300Y-72345579D01*
X136905299Y-70654422D01*
X136902338Y-70628891D01*
X136856234Y-70524475D01*
X136775525Y-70443766D01*
X136775524Y-70443765D01*
X136671110Y-70397662D01*
X136645582Y-70394700D01*
X136645579Y-70394700D01*
X136344906Y-70394700D01*
X136285775Y-70375487D01*
X136273771Y-70365235D01*
X134564211Y-68655675D01*
X134564210Y-68655674D01*
X134553516Y-68649500D01*
X134466090Y-68599024D01*
X134466088Y-68599023D01*
X134466086Y-68599022D01*
X134411371Y-68584362D01*
X134411370Y-68584362D01*
X134393130Y-68579474D01*
X134356653Y-68569700D01*
X134356651Y-68569700D01*
X134356650Y-68569700D01*
X133219906Y-68569700D01*
X133160775Y-68550487D01*
X133148771Y-68540235D01*
X132210571Y-67602035D01*
X132182345Y-67546637D01*
X132192071Y-67485229D01*
X132236035Y-67441265D01*
X132281706Y-67430300D01*
X132556649Y-67430300D01*
X132556651Y-67430300D01*
X132611370Y-67415638D01*
X132611371Y-67415638D01*
X132635496Y-67409173D01*
X132666086Y-67400977D01*
X132666087Y-67400977D01*
X132666087Y-67400976D01*
X132666090Y-67400976D01*
X132764210Y-67344326D01*
X132844326Y-67264210D01*
X132928865Y-67179671D01*
X132984263Y-67151445D01*
X133045671Y-67161171D01*
X133071135Y-67179671D01*
X133155674Y-67264210D01*
X133235790Y-67344326D01*
X133333910Y-67400976D01*
X133333912Y-67400977D01*
X133443344Y-67430299D01*
X133443348Y-67430299D01*
X133443350Y-67430300D01*
X133443352Y-67430300D01*
X142556649Y-67430300D01*
X142556651Y-67430300D01*
X142611370Y-67415638D01*
X142611371Y-67415638D01*
X142635496Y-67409173D01*
X142666086Y-67400977D01*
X142666087Y-67400977D01*
X142666087Y-67400976D01*
X142666090Y-67400976D01*
X142764210Y-67344326D01*
X142844326Y-67264210D01*
X143648771Y-66459765D01*
X143704169Y-66431539D01*
X143719906Y-66430300D01*
X147056649Y-66430300D01*
X147056651Y-66430300D01*
X147111370Y-66415638D01*
X147111371Y-66415638D01*
X147135496Y-66409173D01*
X147166086Y-66400977D01*
X147166087Y-66400977D01*
X147166087Y-66400976D01*
X147166090Y-66400976D01*
X147264210Y-66344326D01*
X147344326Y-66264210D01*
X147344325Y-66264210D01*
X149344326Y-64264211D01*
X149400976Y-64166090D01*
X149430300Y-64056651D01*
X149430300Y-63943350D01*
X149430300Y-61047642D01*
X149449513Y-60988511D01*
X149499813Y-60951966D01*
X149561987Y-60951966D01*
X149602035Y-60976507D01*
X149628194Y-61002666D01*
X149740000Y-61057323D01*
X149740000Y-60750000D01*
X149458499Y-60750000D01*
X149438064Y-60762348D01*
X149376113Y-60757084D01*
X149344054Y-60735518D01*
X148744212Y-60135676D01*
X148744210Y-60135674D01*
X148691601Y-60105300D01*
X148646090Y-60079024D01*
X148646087Y-60079022D01*
X148646085Y-60079021D01*
X148562593Y-60056651D01*
X148562589Y-60056648D01*
X148562589Y-60056650D01*
X148542674Y-60051313D01*
X148490532Y-60017449D01*
X148468253Y-59959403D01*
X148484347Y-59899348D01*
X148487334Y-59895003D01*
X148489450Y-59892090D01*
X148545533Y-59782020D01*
X148545534Y-59782017D01*
X148547439Y-59770000D01*
X147928716Y-59770000D01*
X147869585Y-59750787D01*
X147857581Y-59740535D01*
X147779465Y-59662419D01*
X147751239Y-59607021D01*
X147750000Y-59591284D01*
X147750000Y-58997810D01*
X147707978Y-59004465D01*
X147597907Y-59060550D01*
X147510549Y-59147908D01*
X147490511Y-59187234D01*
X147446547Y-59231197D01*
X147385138Y-59240922D01*
X147329742Y-59212696D01*
X147147720Y-59030674D01*
X147147721Y-59030674D01*
X147111650Y-59009849D01*
X147111649Y-59009848D01*
X147049602Y-58974024D01*
X147048134Y-58973416D01*
X147046964Y-58972501D01*
X147043890Y-58970726D01*
X147044140Y-58970292D01*
X147005690Y-58940213D01*
X146975582Y-58899418D01*
X146975581Y-58899417D01*
X146971155Y-58896150D01*
X146934992Y-58845575D01*
X146930300Y-58815212D01*
X146930300Y-58719905D01*
X146949513Y-58660774D01*
X146959760Y-58648775D01*
X147097795Y-58510739D01*
X147140584Y-58485352D01*
X147212068Y-58464363D01*
X147334304Y-58385807D01*
X147429457Y-58275995D01*
X147454968Y-58220132D01*
X147497006Y-58174330D01*
X147557941Y-58161982D01*
X147614497Y-58187809D01*
X147617610Y-58190791D01*
X148267232Y-58840413D01*
X148295458Y-58895811D01*
X148285732Y-58957219D01*
X148261431Y-58988045D01*
X148250000Y-58997807D01*
X148250000Y-59270000D01*
X148549135Y-59270000D01*
X148598584Y-59239699D01*
X148660566Y-59244577D01*
X148693203Y-59266384D01*
X149479215Y-60052396D01*
X149507441Y-60107794D01*
X149498459Y-60167713D01*
X149480903Y-60203623D01*
X149474146Y-60249999D01*
X149474147Y-60250000D01*
X150139400Y-60250000D01*
X150198531Y-60269213D01*
X150235076Y-60319513D01*
X150240000Y-60350600D01*
X150240000Y-61057323D01*
X150351805Y-61002666D01*
X150390209Y-60964263D01*
X150445607Y-60936037D01*
X150507015Y-60945763D01*
X150542286Y-60975659D01*
X150560144Y-60999856D01*
X150666938Y-61078673D01*
X150792216Y-61122509D01*
X150792219Y-61122510D01*
X150821970Y-61125300D01*
X150821977Y-61125300D01*
X151198023Y-61125300D01*
X151198030Y-61125300D01*
X151227781Y-61122510D01*
X151353062Y-61078673D01*
X151366861Y-61068489D01*
X151425847Y-61048834D01*
X151485120Y-61067603D01*
X151522041Y-61117628D01*
X151527200Y-61149431D01*
X151527200Y-61745571D01*
X151527201Y-61745586D01*
X151530162Y-61771108D01*
X151530162Y-61771111D01*
X151573928Y-61870230D01*
X151582500Y-61910864D01*
X151582500Y-61950000D01*
X151621635Y-61950000D01*
X151662269Y-61958572D01*
X151734580Y-61990500D01*
X151761391Y-62002338D01*
X151786921Y-62005300D01*
X152556900Y-62005299D01*
X152616031Y-62024512D01*
X152652576Y-62074812D01*
X152657500Y-62105899D01*
X152657500Y-62349400D01*
X152638287Y-62408531D01*
X152587987Y-62445076D01*
X152556900Y-62450000D01*
X151582500Y-62450000D01*
X151582500Y-62524623D01*
X151597004Y-62597544D01*
X151652260Y-62680239D01*
X151734955Y-62735495D01*
X151751540Y-62738794D01*
X151805787Y-62769174D01*
X151831817Y-62825637D01*
X151819687Y-62886616D01*
X151815560Y-62893351D01*
X151767861Y-62964737D01*
X151767858Y-62964742D01*
X151724259Y-63070000D01*
X152265512Y-63070000D01*
X152248295Y-63079940D01*
X152192440Y-63135795D01*
X152152944Y-63204204D01*
X152132500Y-63280504D01*
X152132500Y-63359496D01*
X152152944Y-63435796D01*
X152192440Y-63504205D01*
X152248295Y-63560060D01*
X152265512Y-63570000D01*
X151724259Y-63570000D01*
X151767858Y-63675257D01*
X151849940Y-63798100D01*
X151954399Y-63902559D01*
X152077242Y-63984641D01*
X152077245Y-63984642D01*
X152213735Y-64041178D01*
X152213733Y-64041178D01*
X152358632Y-64070000D01*
X152732500Y-64070000D01*
X152732500Y-63620000D01*
X153232500Y-63620000D01*
X153232500Y-64070000D01*
X153606368Y-64070000D01*
X153751265Y-64041178D01*
X153887754Y-63984642D01*
X153887757Y-63984641D01*
X154010600Y-63902559D01*
X154115059Y-63798100D01*
X154197141Y-63675257D01*
X154220930Y-63617827D01*
X156012500Y-63617827D01*
X156018902Y-63677375D01*
X156018903Y-63677380D01*
X156069144Y-63812085D01*
X156069145Y-63812087D01*
X156155311Y-63927188D01*
X156270412Y-64013354D01*
X156270414Y-64013355D01*
X156405119Y-64063596D01*
X156405124Y-64063597D01*
X156464672Y-64070000D01*
X156912500Y-64070000D01*
X156912500Y-63620000D01*
X157412500Y-63620000D01*
X157412500Y-64070000D01*
X157860328Y-64070000D01*
X157919875Y-64063597D01*
X157919880Y-64063596D01*
X158054585Y-64013355D01*
X158054587Y-64013354D01*
X158169688Y-63927188D01*
X158255854Y-63812087D01*
X158255855Y-63812085D01*
X158306096Y-63677380D01*
X158306097Y-63677375D01*
X158312500Y-63617827D01*
X158312500Y-63570000D01*
X157729488Y-63570000D01*
X157746705Y-63560060D01*
X157802560Y-63504205D01*
X157842056Y-63435796D01*
X157862500Y-63359496D01*
X157862500Y-63280504D01*
X157842056Y-63204204D01*
X157802560Y-63135795D01*
X157746705Y-63079940D01*
X157729488Y-63070000D01*
X158312500Y-63070000D01*
X158312500Y-63022172D01*
X158306097Y-62962624D01*
X158306096Y-62962619D01*
X158255855Y-62827914D01*
X158255854Y-62827912D01*
X158169688Y-62712811D01*
X158054587Y-62626645D01*
X158054585Y-62626644D01*
X157919880Y-62576403D01*
X157919875Y-62576402D01*
X157860328Y-62570000D01*
X157412500Y-62570000D01*
X157412500Y-63020000D01*
X156912500Y-63020000D01*
X156912500Y-62570000D01*
X156464672Y-62570000D01*
X156405124Y-62576402D01*
X156405119Y-62576403D01*
X156270414Y-62626644D01*
X156270412Y-62626645D01*
X156155311Y-62712811D01*
X156069145Y-62827912D01*
X156069144Y-62827914D01*
X156018903Y-62962619D01*
X156018902Y-62962624D01*
X156012500Y-63022172D01*
X156012500Y-63070000D01*
X156595512Y-63070000D01*
X156578295Y-63079940D01*
X156522440Y-63135795D01*
X156482944Y-63204204D01*
X156462500Y-63280504D01*
X156462500Y-63359496D01*
X156482944Y-63435796D01*
X156522440Y-63504205D01*
X156578295Y-63560060D01*
X156595512Y-63570000D01*
X156012500Y-63570000D01*
X156012500Y-63617827D01*
X154220930Y-63617827D01*
X154240741Y-63570000D01*
X153699488Y-63570000D01*
X153716705Y-63560060D01*
X153772560Y-63504205D01*
X153812056Y-63435796D01*
X153832500Y-63359496D01*
X153832500Y-63280504D01*
X153812056Y-63204204D01*
X153772560Y-63135795D01*
X153716705Y-63079940D01*
X153699488Y-63070000D01*
X154240740Y-63070000D01*
X154197141Y-62964742D01*
X154115059Y-62841899D01*
X154010600Y-62737440D01*
X153887757Y-62655358D01*
X153887754Y-62655357D01*
X153751261Y-62598820D01*
X153746833Y-62597476D01*
X153695830Y-62561919D01*
X153675468Y-62503173D01*
X153693525Y-62443679D01*
X153725746Y-62414092D01*
X153835865Y-62350515D01*
X153943015Y-62243365D01*
X154018781Y-62112135D01*
X154042714Y-62022816D01*
X154057999Y-61965771D01*
X154058000Y-61965764D01*
X154058000Y-61814235D01*
X154057999Y-61814228D01*
X154018782Y-61667868D01*
X154018780Y-61667863D01*
X153970809Y-61584776D01*
X153943015Y-61536635D01*
X153835865Y-61429485D01*
X153775526Y-61394648D01*
X153733925Y-61348444D01*
X153727427Y-61286610D01*
X153754691Y-61236394D01*
X154051826Y-60939261D01*
X154085707Y-60880578D01*
X154108476Y-60841141D01*
X154120126Y-60797662D01*
X154137799Y-60731706D01*
X154137800Y-60731699D01*
X154137800Y-57268300D01*
X154137799Y-57268293D01*
X154108477Y-57158862D01*
X154108477Y-57158861D01*
X154103361Y-57150000D01*
X154051826Y-57060739D01*
X153971710Y-56980623D01*
X153754694Y-56763607D01*
X153726468Y-56708209D01*
X153736194Y-56646801D01*
X153775529Y-56605350D01*
X153835865Y-56570515D01*
X153943015Y-56463365D01*
X154018781Y-56332135D01*
X154035430Y-56270000D01*
X154057999Y-56185771D01*
X154058000Y-56185764D01*
X154058000Y-56034235D01*
X154057999Y-56034228D01*
X154018782Y-55887868D01*
X154018780Y-55887863D01*
X153975694Y-55813236D01*
X153943015Y-55756635D01*
X153835865Y-55649485D01*
X153835866Y-55649485D01*
X153725749Y-55585909D01*
X153684146Y-55539704D01*
X153677647Y-55477871D01*
X153708735Y-55424026D01*
X153746843Y-55402520D01*
X153751266Y-55401178D01*
X153887754Y-55344642D01*
X153887757Y-55344641D01*
X154010600Y-55262559D01*
X154115059Y-55158100D01*
X154197141Y-55035257D01*
X154220930Y-54977827D01*
X156012500Y-54977827D01*
X156018902Y-55037375D01*
X156018903Y-55037380D01*
X156069144Y-55172085D01*
X156069145Y-55172087D01*
X156155311Y-55287188D01*
X156270412Y-55373354D01*
X156270414Y-55373355D01*
X156405119Y-55423596D01*
X156405124Y-55423597D01*
X156464672Y-55430000D01*
X156912500Y-55430000D01*
X156912500Y-54980000D01*
X157412500Y-54980000D01*
X157412500Y-55430000D01*
X157860328Y-55430000D01*
X157919875Y-55423597D01*
X157919880Y-55423596D01*
X158054585Y-55373355D01*
X158054587Y-55373354D01*
X158169688Y-55287188D01*
X158255854Y-55172087D01*
X158255855Y-55172085D01*
X158306096Y-55037380D01*
X158306097Y-55037375D01*
X158312500Y-54977827D01*
X158312500Y-54930000D01*
X157729488Y-54930000D01*
X157746705Y-54920060D01*
X157802560Y-54864205D01*
X157842056Y-54795796D01*
X157862500Y-54719496D01*
X157862500Y-54640504D01*
X157842056Y-54564204D01*
X157802560Y-54495795D01*
X157746705Y-54439940D01*
X157729488Y-54430000D01*
X158312500Y-54430000D01*
X158312500Y-54382172D01*
X158306097Y-54322624D01*
X158306096Y-54322619D01*
X158255855Y-54187914D01*
X158255854Y-54187912D01*
X158169688Y-54072811D01*
X158054587Y-53986645D01*
X158054585Y-53986644D01*
X157919880Y-53936403D01*
X157919875Y-53936402D01*
X157860328Y-53930000D01*
X157412500Y-53930000D01*
X157412500Y-54380000D01*
X156912500Y-54380000D01*
X156912500Y-53930000D01*
X156464672Y-53930000D01*
X156405124Y-53936402D01*
X156405119Y-53936403D01*
X156270414Y-53986644D01*
X156270412Y-53986645D01*
X156155311Y-54072811D01*
X156069145Y-54187912D01*
X156069144Y-54187914D01*
X156018903Y-54322619D01*
X156018902Y-54322624D01*
X156012500Y-54382172D01*
X156012500Y-54430000D01*
X156595512Y-54430000D01*
X156578295Y-54439940D01*
X156522440Y-54495795D01*
X156482944Y-54564204D01*
X156462500Y-54640504D01*
X156462500Y-54719496D01*
X156482944Y-54795796D01*
X156522440Y-54864205D01*
X156578295Y-54920060D01*
X156595512Y-54930000D01*
X156012500Y-54930000D01*
X156012500Y-54977827D01*
X154220930Y-54977827D01*
X154240741Y-54930000D01*
X153699488Y-54930000D01*
X153716705Y-54920060D01*
X153772560Y-54864205D01*
X153812056Y-54795796D01*
X153832500Y-54719496D01*
X153832500Y-54640504D01*
X153812056Y-54564204D01*
X153772560Y-54495795D01*
X153716705Y-54439940D01*
X153699488Y-54430000D01*
X154240740Y-54430000D01*
X154197141Y-54324742D01*
X154115059Y-54201899D01*
X154010600Y-54097440D01*
X153887757Y-54015358D01*
X153887754Y-54015357D01*
X153751265Y-53958821D01*
X153696848Y-53947997D01*
X153642602Y-53917617D01*
X153616572Y-53861154D01*
X153628702Y-53800174D01*
X153645343Y-53778193D01*
X153659326Y-53764210D01*
X154135348Y-53288188D01*
X154611825Y-52811711D01*
X154618414Y-52800300D01*
X154668476Y-52713590D01*
X154675925Y-52685790D01*
X154697800Y-52604151D01*
X154697800Y-52490850D01*
X154697800Y-51487406D01*
X154717013Y-51428275D01*
X154727265Y-51416271D01*
X154782747Y-51360789D01*
X154844326Y-51299210D01*
X154887735Y-51224024D01*
X154900976Y-51201090D01*
X154914826Y-51149400D01*
X154930299Y-51091655D01*
X154930300Y-51091648D01*
X154930300Y-49537379D01*
X154949513Y-49478248D01*
X154999813Y-49441703D01*
X155061987Y-49441703D01*
X155080665Y-49451221D01*
X155080852Y-49450855D01*
X155197981Y-49510535D01*
X155209999Y-49512438D01*
X155210000Y-49512438D01*
X155210000Y-48860900D01*
X155229213Y-48801769D01*
X155279513Y-48765224D01*
X155310600Y-48760300D01*
X155534100Y-48760300D01*
X155593231Y-48779513D01*
X155629776Y-48829813D01*
X155634700Y-48860900D01*
X155634700Y-51046655D01*
X155664022Y-51156086D01*
X155664022Y-51156087D01*
X155664024Y-51156090D01*
X155703246Y-51224024D01*
X155720674Y-51254210D01*
X155950790Y-51484326D01*
X156048910Y-51540976D01*
X156048912Y-51540976D01*
X156048913Y-51540977D01*
X156085136Y-51550683D01*
X156137280Y-51584544D01*
X156159562Y-51642589D01*
X156159700Y-51647855D01*
X156159700Y-52065571D01*
X156159701Y-52065586D01*
X156163534Y-52098624D01*
X156161978Y-52098804D01*
X156161978Y-52131195D01*
X156163534Y-52131376D01*
X156159700Y-52164418D01*
X156159700Y-52715571D01*
X156159701Y-52715586D01*
X156162662Y-52741108D01*
X156162662Y-52741111D01*
X156208765Y-52845524D01*
X156208766Y-52845525D01*
X156289475Y-52926234D01*
X156393891Y-52972338D01*
X156419421Y-52975300D01*
X156975093Y-52975299D01*
X157034224Y-52994512D01*
X157046228Y-53004764D01*
X157255674Y-53214210D01*
X157335790Y-53294326D01*
X157433910Y-53350976D01*
X157433912Y-53350976D01*
X157433913Y-53350977D01*
X157488629Y-53365638D01*
X157488630Y-53365638D01*
X157543349Y-53380300D01*
X157543350Y-53380300D01*
X158402665Y-53380300D01*
X158461796Y-53399513D01*
X158478375Y-53415969D01*
X158478378Y-53415967D01*
X158478917Y-53416506D01*
X158483603Y-53421157D01*
X158483705Y-53421295D01*
X158593531Y-53502350D01*
X158722368Y-53547432D01*
X158752953Y-53550300D01*
X159207046Y-53550299D01*
X159237632Y-53547432D01*
X159366469Y-53502350D01*
X159476295Y-53421295D01*
X159557350Y-53311469D01*
X159602432Y-53182632D01*
X159605300Y-53152047D01*
X159605299Y-52747954D01*
X159602432Y-52717368D01*
X159557350Y-52588531D01*
X159510267Y-52524736D01*
X159490614Y-52465752D01*
X159509384Y-52406479D01*
X159510219Y-52405329D01*
X159557350Y-52341469D01*
X159602432Y-52212632D01*
X159605300Y-52182047D01*
X159605299Y-51777954D01*
X159602432Y-51747368D01*
X159557350Y-51618531D01*
X159477602Y-51510476D01*
X159457949Y-51451492D01*
X159476719Y-51392219D01*
X159477548Y-51391076D01*
X159548144Y-51295425D01*
X159592479Y-51168722D01*
X159595300Y-51138639D01*
X159595299Y-50751362D01*
X159592479Y-50721278D01*
X159548144Y-50594575D01*
X159468431Y-50486569D01*
X159465285Y-50482306D01*
X159445630Y-50423320D01*
X159464400Y-50364047D01*
X159464843Y-50363431D01*
X159469451Y-50357089D01*
X159525533Y-50247020D01*
X159525534Y-50247017D01*
X159527439Y-50235000D01*
X158432561Y-50235000D01*
X158434464Y-50247018D01*
X158490549Y-50357091D01*
X158495159Y-50363436D01*
X158514372Y-50422567D01*
X158495159Y-50481698D01*
X158494715Y-50482305D01*
X158411855Y-50594575D01*
X158395147Y-50642326D01*
X158357482Y-50691794D01*
X158300192Y-50709700D01*
X157988129Y-50709700D01*
X157928998Y-50690487D01*
X157916994Y-50680235D01*
X157890524Y-50653765D01*
X157786110Y-50607662D01*
X157760582Y-50604700D01*
X157760579Y-50604700D01*
X156960600Y-50604700D01*
X156901469Y-50585487D01*
X156864924Y-50535187D01*
X156860000Y-50504100D01*
X156860000Y-50010000D01*
X157320000Y-50010000D01*
X157320000Y-50260000D01*
X157965000Y-50260000D01*
X157965000Y-50235376D01*
X157950495Y-50162455D01*
X157895239Y-50079760D01*
X157812544Y-50024504D01*
X157739623Y-50010000D01*
X157320000Y-50010000D01*
X156860000Y-50010000D01*
X156595900Y-50010000D01*
X156536769Y-49990787D01*
X156500224Y-49940487D01*
X156495300Y-49909400D01*
X156495300Y-49735000D01*
X158432561Y-49735000D01*
X158730000Y-49735000D01*
X158730000Y-49462810D01*
X158687978Y-49469465D01*
X158577907Y-49525550D01*
X158490550Y-49612907D01*
X158434466Y-49722979D01*
X158434465Y-49722982D01*
X158432561Y-49735000D01*
X156495300Y-49735000D01*
X156495300Y-49462809D01*
X159230000Y-49462809D01*
X159230000Y-49735000D01*
X159527438Y-49735000D01*
X159527438Y-49734999D01*
X159525535Y-49722981D01*
X159469450Y-49612908D01*
X159382092Y-49525550D01*
X159272019Y-49469465D01*
X159230000Y-49462809D01*
X156495300Y-49462809D01*
X156495300Y-48508350D01*
X156486784Y-48476569D01*
X156465976Y-48398910D01*
X156409326Y-48300789D01*
X156094210Y-47985674D01*
X156081665Y-47978431D01*
X156069066Y-47971157D01*
X155996091Y-47929024D01*
X155996085Y-47929022D01*
X155941371Y-47914362D01*
X155941370Y-47914362D01*
X155923130Y-47909474D01*
X155886653Y-47899700D01*
X155886651Y-47899700D01*
X155886650Y-47899700D01*
X153530900Y-47899700D01*
X153471769Y-47880487D01*
X153435224Y-47830187D01*
X153430300Y-47799100D01*
X153430300Y-47443353D01*
X153430300Y-47443350D01*
X153426803Y-47430300D01*
X153400976Y-47333910D01*
X153344326Y-47235789D01*
X151459765Y-45351228D01*
X151431539Y-45295830D01*
X151430300Y-45280093D01*
X151430300Y-43621290D01*
X153649500Y-43621290D01*
X153681159Y-43861774D01*
X153681160Y-43861783D01*
X153743945Y-44096100D01*
X153743946Y-44096102D01*
X153836775Y-44320211D01*
X153958063Y-44530289D01*
X154105730Y-44722733D01*
X154277266Y-44894269D01*
X154469710Y-45041936D01*
X154679788Y-45163224D01*
X154903897Y-45256053D01*
X154903899Y-45256054D01*
X154993614Y-45280093D01*
X155138211Y-45318838D01*
X155138213Y-45318838D01*
X155138216Y-45318839D01*
X155138225Y-45318840D01*
X155378710Y-45350500D01*
X155378712Y-45350500D01*
X155621290Y-45350500D01*
X155861774Y-45318840D01*
X155861783Y-45318839D01*
X155861784Y-45318838D01*
X155861789Y-45318838D01*
X156096100Y-45256054D01*
X156320212Y-45163224D01*
X156530289Y-45041936D01*
X156656499Y-44945092D01*
X156722733Y-44894269D01*
X156722733Y-44894268D01*
X156722738Y-44894265D01*
X156894265Y-44722738D01*
X156895514Y-44721111D01*
X157041936Y-44530289D01*
X157059423Y-44500000D01*
X157163224Y-44320212D01*
X157256054Y-44096100D01*
X157318838Y-43861789D01*
X157332505Y-43757979D01*
X157350500Y-43621290D01*
X157350500Y-43378709D01*
X157318840Y-43138225D01*
X157318839Y-43138216D01*
X157315438Y-43125525D01*
X157275004Y-42974623D01*
X157256054Y-42903899D01*
X157256053Y-42903897D01*
X157163224Y-42679788D01*
X157041936Y-42469710D01*
X156894269Y-42277266D01*
X156722733Y-42105730D01*
X156530289Y-41958063D01*
X156320211Y-41836775D01*
X156096102Y-41743946D01*
X156096100Y-41743945D01*
X155861783Y-41681160D01*
X155861774Y-41681159D01*
X155621290Y-41649500D01*
X155621288Y-41649500D01*
X155378712Y-41649500D01*
X155378710Y-41649500D01*
X155138225Y-41681159D01*
X155138216Y-41681160D01*
X154903899Y-41743945D01*
X154903897Y-41743946D01*
X154679788Y-41836775D01*
X154469710Y-41958063D01*
X154277266Y-42105730D01*
X154105730Y-42277266D01*
X153958063Y-42469710D01*
X153836775Y-42679788D01*
X153743946Y-42903897D01*
X153743945Y-42903899D01*
X153681160Y-43138216D01*
X153681159Y-43138225D01*
X153649500Y-43378709D01*
X153649500Y-43621290D01*
X151430300Y-43621290D01*
X151430300Y-41443350D01*
X151430299Y-41443347D01*
X151425544Y-41425600D01*
X151417264Y-41394700D01*
X151400976Y-41333910D01*
X151389602Y-41314210D01*
X151344326Y-41235790D01*
X151264210Y-41155674D01*
X149280271Y-39171735D01*
X149252045Y-39116337D01*
X149261771Y-39054929D01*
X149305735Y-39010965D01*
X149351406Y-39000000D01*
X154999453Y-39000000D01*
X155000550Y-39000006D01*
G37*
%TD.AperFunction*%
%TA.AperFunction,Conductor*%
G36*
X135114522Y-54655694D02*
G01*
X135115947Y-54652469D01*
X135206241Y-54692337D01*
X135228891Y-54702338D01*
X135254421Y-54705300D01*
X135390447Y-54705299D01*
X135449579Y-54724511D01*
X135461583Y-54734764D01*
X136801140Y-56074321D01*
X136893560Y-56127679D01*
X136996641Y-56155300D01*
X145540449Y-56155300D01*
X145599580Y-56174513D01*
X145611584Y-56184765D01*
X146805903Y-57379084D01*
X146834129Y-57434482D01*
X146824403Y-57495890D01*
X146789157Y-57534849D01*
X146665694Y-57614194D01*
X146570542Y-57724006D01*
X146510183Y-57856175D01*
X146508156Y-57863081D01*
X146505801Y-57862389D01*
X146483285Y-57908162D01*
X146482291Y-57909171D01*
X146235790Y-58155674D01*
X146155676Y-58235787D01*
X146155674Y-58235789D01*
X146155674Y-58235790D01*
X146143704Y-58256522D01*
X146099023Y-58333910D01*
X146089921Y-58367886D01*
X146089920Y-58367888D01*
X146071727Y-58435786D01*
X146071726Y-58435789D01*
X146069700Y-58443346D01*
X146069700Y-58669100D01*
X146050487Y-58728231D01*
X146000187Y-58764776D01*
X145969100Y-58769700D01*
X145570154Y-58769700D01*
X145549650Y-58771622D01*
X145539395Y-58772584D01*
X145409848Y-58817915D01*
X145299418Y-58899417D01*
X145299417Y-58899418D01*
X145217915Y-59009848D01*
X145172584Y-59139395D01*
X145172584Y-59139398D01*
X145169700Y-59170154D01*
X145169700Y-59579846D01*
X145169769Y-59580579D01*
X145172584Y-59610604D01*
X145217915Y-59740151D01*
X145287318Y-59834188D01*
X145306973Y-59893174D01*
X145296011Y-59939598D01*
X145239836Y-60049848D01*
X145235853Y-60075000D01*
X146933304Y-60075000D01*
X146992435Y-60094213D01*
X147004439Y-60104465D01*
X147314583Y-60414609D01*
X147342809Y-60470007D01*
X147333083Y-60531415D01*
X147314583Y-60556879D01*
X147209654Y-60661809D01*
X147154257Y-60690035D01*
X147092848Y-60680309D01*
X147048884Y-60636346D01*
X147039171Y-60575027D01*
X147039148Y-60575000D01*
X145235853Y-60575000D01*
X145239835Y-60600150D01*
X145296011Y-60710400D01*
X145305737Y-60771809D01*
X145287319Y-60815810D01*
X145217914Y-60909849D01*
X145172584Y-61039395D01*
X145172584Y-61039398D01*
X145169700Y-61070154D01*
X145169700Y-61479846D01*
X145170568Y-61489100D01*
X145172584Y-61510604D01*
X145217915Y-61640151D01*
X145299416Y-61750580D01*
X145299418Y-61750582D01*
X145409849Y-61832085D01*
X145539395Y-61877415D01*
X145539398Y-61877416D01*
X145570154Y-61880300D01*
X145570160Y-61880300D01*
X146704840Y-61880300D01*
X146704846Y-61880300D01*
X146735602Y-61877416D01*
X146865151Y-61832085D01*
X146975582Y-61750582D01*
X146978844Y-61746161D01*
X147029416Y-61709994D01*
X147059787Y-61705300D01*
X147261649Y-61705300D01*
X147261651Y-61705300D01*
X147321699Y-61689210D01*
X147371090Y-61675976D01*
X147469210Y-61619326D01*
X147549326Y-61539210D01*
X147993771Y-61094763D01*
X148049169Y-61066538D01*
X148064906Y-61065299D01*
X148223630Y-61065299D01*
X148223638Y-61065299D01*
X148253722Y-61062479D01*
X148342381Y-61031455D01*
X148404537Y-61030061D01*
X148446740Y-61055276D01*
X148540235Y-61148771D01*
X148568461Y-61204169D01*
X148569700Y-61219906D01*
X148569700Y-63780093D01*
X148550487Y-63839224D01*
X148540235Y-63851228D01*
X146851229Y-65540235D01*
X146795831Y-65568461D01*
X146780094Y-65569700D01*
X144607688Y-65569700D01*
X144548557Y-65550487D01*
X144512012Y-65500187D01*
X144508112Y-65483417D01*
X144489817Y-65356177D01*
X144489816Y-65356175D01*
X144429457Y-65224005D01*
X144334304Y-65114193D01*
X144212068Y-65035637D01*
X144072651Y-64994700D01*
X143927349Y-64994700D01*
X143857640Y-65015168D01*
X143787931Y-65035637D01*
X143665694Y-65114194D01*
X143570542Y-65224006D01*
X143510183Y-65356175D01*
X143508156Y-65363081D01*
X143505801Y-65362389D01*
X143483285Y-65408162D01*
X143482291Y-65409171D01*
X143235790Y-65655674D01*
X142351229Y-66540235D01*
X142295831Y-66568461D01*
X142280094Y-66569700D01*
X133719906Y-66569700D01*
X133660775Y-66550487D01*
X133648771Y-66540235D01*
X133549670Y-66441134D01*
X133521444Y-66385736D01*
X133531170Y-66324328D01*
X133549664Y-66298870D01*
X134239255Y-65609279D01*
X134294651Y-65581055D01*
X134346729Y-65586609D01*
X134422483Y-65615957D01*
X134570882Y-65643698D01*
X134632944Y-65655300D01*
X134632946Y-65655300D01*
X134847056Y-65655300D01*
X134913349Y-65642907D01*
X135057517Y-65615957D01*
X135257167Y-65538612D01*
X135439206Y-65425899D01*
X135597434Y-65281655D01*
X135726464Y-65110792D01*
X135821900Y-64919130D01*
X135880494Y-64713195D01*
X135900249Y-64500000D01*
X136119751Y-64500000D01*
X136139505Y-64713190D01*
X136139505Y-64713191D01*
X136139505Y-64713194D01*
X136139506Y-64713195D01*
X136158652Y-64780487D01*
X136198100Y-64919131D01*
X136198103Y-64919138D01*
X136293531Y-65110783D01*
X136293532Y-65110785D01*
X136293536Y-65110792D01*
X136384514Y-65231266D01*
X136422566Y-65281655D01*
X136580792Y-65425898D01*
X136580794Y-65425899D01*
X136762833Y-65538612D01*
X136962483Y-65615957D01*
X137094258Y-65640590D01*
X137172944Y-65655300D01*
X137172946Y-65655300D01*
X137387056Y-65655300D01*
X137453349Y-65642907D01*
X137597517Y-65615957D01*
X137797167Y-65538612D01*
X137979206Y-65425899D01*
X138137434Y-65281655D01*
X138266464Y-65110792D01*
X138361900Y-64919130D01*
X138420494Y-64713195D01*
X138440249Y-64500000D01*
X138659751Y-64500000D01*
X138679505Y-64713190D01*
X138679505Y-64713191D01*
X138679505Y-64713194D01*
X138679506Y-64713195D01*
X138698652Y-64780487D01*
X138738100Y-64919131D01*
X138738103Y-64919138D01*
X138833531Y-65110783D01*
X138833532Y-65110785D01*
X138833536Y-65110792D01*
X138924514Y-65231266D01*
X138962566Y-65281655D01*
X139120792Y-65425898D01*
X139120794Y-65425899D01*
X139302833Y-65538612D01*
X139502483Y-65615957D01*
X139634258Y-65640590D01*
X139712944Y-65655300D01*
X139712946Y-65655300D01*
X139927056Y-65655300D01*
X139993349Y-65642907D01*
X140137517Y-65615957D01*
X140337167Y-65538612D01*
X140519206Y-65425899D01*
X140677434Y-65281655D01*
X140806464Y-65110792D01*
X140901900Y-64919130D01*
X140960494Y-64713195D01*
X140980249Y-64500000D01*
X140960494Y-64286805D01*
X140901900Y-64080870D01*
X140896487Y-64070000D01*
X140806468Y-63889216D01*
X140806467Y-63889215D01*
X140806464Y-63889208D01*
X140677434Y-63718345D01*
X140646670Y-63690300D01*
X140519207Y-63574101D01*
X140337167Y-63461388D01*
X140337163Y-63461386D01*
X140137518Y-63384043D01*
X139927056Y-63344700D01*
X139927054Y-63344700D01*
X139712946Y-63344700D01*
X139712944Y-63344700D01*
X139502481Y-63384043D01*
X139302836Y-63461386D01*
X139302832Y-63461388D01*
X139120792Y-63574101D01*
X138962566Y-63718344D01*
X138926951Y-63765507D01*
X138833536Y-63889208D01*
X138833534Y-63889211D01*
X138833534Y-63889212D01*
X138833531Y-63889216D01*
X138738103Y-64080861D01*
X138738100Y-64080868D01*
X138679505Y-64286808D01*
X138679505Y-64286809D01*
X138659751Y-64500000D01*
X138440249Y-64500000D01*
X138420494Y-64286805D01*
X138361900Y-64080870D01*
X138356487Y-64070000D01*
X138266468Y-63889216D01*
X138266467Y-63889215D01*
X138266464Y-63889208D01*
X138137434Y-63718345D01*
X138106670Y-63690300D01*
X137979207Y-63574101D01*
X137797167Y-63461388D01*
X137797163Y-63461386D01*
X137597518Y-63384043D01*
X137387056Y-63344700D01*
X137387054Y-63344700D01*
X137172946Y-63344700D01*
X137172944Y-63344700D01*
X136962481Y-63384043D01*
X136762836Y-63461386D01*
X136762832Y-63461388D01*
X136580792Y-63574101D01*
X136422566Y-63718344D01*
X136386951Y-63765507D01*
X136293536Y-63889208D01*
X136293534Y-63889211D01*
X136293534Y-63889212D01*
X136293531Y-63889216D01*
X136198103Y-64080861D01*
X136198100Y-64080868D01*
X136139505Y-64286808D01*
X136139505Y-64286809D01*
X136119751Y-64500000D01*
X135900249Y-64500000D01*
X135880494Y-64286805D01*
X135821900Y-64080870D01*
X135816487Y-64070000D01*
X135726468Y-63889216D01*
X135726467Y-63889215D01*
X135726464Y-63889208D01*
X135597434Y-63718345D01*
X135566670Y-63690300D01*
X135439207Y-63574101D01*
X135257167Y-63461388D01*
X135257163Y-63461386D01*
X135057518Y-63384043D01*
X134847056Y-63344700D01*
X134847054Y-63344700D01*
X134632946Y-63344700D01*
X134632944Y-63344700D01*
X134422477Y-63384044D01*
X134346727Y-63413389D01*
X134284649Y-63416833D01*
X134239253Y-63390717D01*
X133959765Y-63111229D01*
X133931539Y-63055831D01*
X133930300Y-63040094D01*
X133930300Y-62443354D01*
X133930300Y-62443350D01*
X133927608Y-62433304D01*
X133900977Y-62333911D01*
X133844326Y-62235790D01*
X132964761Y-61356225D01*
X132936535Y-61300827D01*
X132944386Y-61243303D01*
X132989817Y-61143823D01*
X133010496Y-61000000D01*
X132989817Y-60856177D01*
X132989282Y-60855006D01*
X132951133Y-60771469D01*
X132929457Y-60724005D01*
X132834304Y-60614193D01*
X132712068Y-60535637D01*
X132590701Y-60500000D01*
X139989504Y-60500000D01*
X140010182Y-60643823D01*
X140059369Y-60751527D01*
X140070543Y-60775995D01*
X140165696Y-60885807D01*
X140287932Y-60964363D01*
X140427349Y-61005300D01*
X140427350Y-61005300D01*
X140572650Y-61005300D01*
X140572651Y-61005300D01*
X140712068Y-60964363D01*
X140740221Y-60946269D01*
X140794610Y-60930300D01*
X141467448Y-60930300D01*
X141526579Y-60949513D01*
X141527187Y-60949958D01*
X141594796Y-60999856D01*
X141619575Y-61018144D01*
X141746278Y-61062479D01*
X141776361Y-61065300D01*
X142223638Y-61065299D01*
X142253722Y-61062479D01*
X142380425Y-61018144D01*
X142481766Y-60943350D01*
X142494496Y-60933955D01*
X142495590Y-60935437D01*
X142542495Y-60911539D01*
X142558232Y-60910300D01*
X142800974Y-60910300D01*
X142860105Y-60929513D01*
X142896650Y-60979813D01*
X142896650Y-61032923D01*
X142898891Y-61033413D01*
X142897584Y-61039394D01*
X142897584Y-61039398D01*
X142894700Y-61070154D01*
X142894700Y-61479846D01*
X142895568Y-61489100D01*
X142897584Y-61510604D01*
X142942915Y-61640151D01*
X143024416Y-61750580D01*
X143024418Y-61750582D01*
X143134849Y-61832085D01*
X143264395Y-61877415D01*
X143264398Y-61877416D01*
X143295154Y-61880300D01*
X143295160Y-61880300D01*
X144429840Y-61880300D01*
X144429846Y-61880300D01*
X144460602Y-61877416D01*
X144590151Y-61832085D01*
X144700582Y-61750582D01*
X144782085Y-61640151D01*
X144827416Y-61510602D01*
X144830300Y-61479846D01*
X144830300Y-61070154D01*
X144827416Y-61039398D01*
X144782085Y-60909849D01*
X144700582Y-60799418D01*
X144694189Y-60794700D01*
X144590151Y-60717915D01*
X144460603Y-60672584D01*
X144460605Y-60672584D01*
X144450350Y-60671622D01*
X144429846Y-60669700D01*
X144429840Y-60669700D01*
X143907406Y-60669700D01*
X143848275Y-60650487D01*
X143836271Y-60640235D01*
X143348071Y-60152035D01*
X143319845Y-60096637D01*
X143329571Y-60035229D01*
X143373535Y-59991265D01*
X143419206Y-59980300D01*
X144429840Y-59980300D01*
X144429846Y-59980300D01*
X144460602Y-59977416D01*
X144590151Y-59932085D01*
X144700582Y-59850582D01*
X144782085Y-59740151D01*
X144827416Y-59610602D01*
X144830300Y-59579846D01*
X144830300Y-59170154D01*
X144827416Y-59139398D01*
X144782085Y-59009849D01*
X144700582Y-58899418D01*
X144654869Y-58865680D01*
X144590151Y-58817915D01*
X144460603Y-58772584D01*
X144460605Y-58772584D01*
X144450350Y-58771622D01*
X144429846Y-58769700D01*
X143295154Y-58769700D01*
X143274650Y-58771622D01*
X143264395Y-58772584D01*
X143134848Y-58817915D01*
X143024418Y-58899417D01*
X143024417Y-58899418D01*
X142942915Y-59009848D01*
X142897584Y-59139395D01*
X142897584Y-59139398D01*
X142894700Y-59170154D01*
X142894700Y-59579846D01*
X142894769Y-59580579D01*
X142897584Y-59610604D01*
X142942915Y-59740151D01*
X143024417Y-59850581D01*
X143024418Y-59850582D01*
X143048232Y-59868158D01*
X143084399Y-59918730D01*
X143083934Y-59980902D01*
X143047013Y-60030928D01*
X142988493Y-60049700D01*
X142572380Y-60049700D01*
X142513249Y-60030487D01*
X142476704Y-59980187D01*
X142476704Y-59918013D01*
X142486220Y-59899333D01*
X142485855Y-59899147D01*
X142545533Y-59782020D01*
X142545534Y-59782017D01*
X142547439Y-59770000D01*
X141452561Y-59770000D01*
X141454464Y-59782018D01*
X141510549Y-59892091D01*
X141515159Y-59898436D01*
X141534372Y-59957567D01*
X141515159Y-60016698D01*
X141514717Y-60017302D01*
X141506206Y-60028835D01*
X141455636Y-60065005D01*
X141425261Y-60069700D01*
X140794610Y-60069700D01*
X140740221Y-60053730D01*
X140712068Y-60035637D01*
X140647568Y-60016698D01*
X140572651Y-59994700D01*
X140427349Y-59994700D01*
X140357640Y-60015168D01*
X140287931Y-60035637D01*
X140165694Y-60114194D01*
X140070542Y-60224006D01*
X140010182Y-60356176D01*
X139989504Y-60500000D01*
X132590701Y-60500000D01*
X132572651Y-60494700D01*
X132572650Y-60494700D01*
X132530900Y-60494700D01*
X132471769Y-60475487D01*
X132435224Y-60425187D01*
X132430300Y-60394100D01*
X132430300Y-59270000D01*
X141452561Y-59270000D01*
X141750000Y-59270000D01*
X141750000Y-58997810D01*
X141707978Y-59004465D01*
X141597907Y-59060550D01*
X141510550Y-59147907D01*
X141454466Y-59257979D01*
X141454465Y-59257982D01*
X141452561Y-59270000D01*
X132430300Y-59270000D01*
X132430300Y-58997809D01*
X142250000Y-58997809D01*
X142250000Y-59270000D01*
X142547438Y-59270000D01*
X142547438Y-59269999D01*
X142545535Y-59257981D01*
X142489450Y-59147908D01*
X142402092Y-59060550D01*
X142292019Y-59004465D01*
X142250000Y-58997809D01*
X132430300Y-58997809D01*
X132430300Y-58719905D01*
X132449513Y-58660774D01*
X132459760Y-58648775D01*
X132607795Y-58500739D01*
X132650584Y-58475352D01*
X132722068Y-58454363D01*
X132844304Y-58375807D01*
X132939457Y-58265995D01*
X132999817Y-58133823D01*
X133020496Y-57990000D01*
X132999817Y-57846177D01*
X132999816Y-57846175D01*
X132955895Y-57750000D01*
X132939457Y-57714005D01*
X132844304Y-57604193D01*
X132722068Y-57525637D01*
X132582651Y-57484700D01*
X132437349Y-57484700D01*
X132399240Y-57495890D01*
X132297931Y-57525637D01*
X132175694Y-57604194D01*
X132080542Y-57714006D01*
X132020183Y-57846175D01*
X132018156Y-57853081D01*
X132015801Y-57852389D01*
X131993285Y-57898162D01*
X131992291Y-57899171D01*
X131735790Y-58155674D01*
X131655676Y-58235787D01*
X131655674Y-58235789D01*
X131655674Y-58235790D01*
X131643704Y-58256522D01*
X131599023Y-58333910D01*
X131589921Y-58367886D01*
X131589920Y-58367888D01*
X131571727Y-58435786D01*
X131571726Y-58435789D01*
X131569700Y-58443346D01*
X131569700Y-58443350D01*
X131569700Y-60943349D01*
X131569700Y-61056651D01*
X131573318Y-61070154D01*
X131599022Y-61166086D01*
X131599022Y-61166087D01*
X131608133Y-61181867D01*
X131627767Y-61215874D01*
X131655674Y-61264210D01*
X131655676Y-61264212D01*
X133040235Y-62648771D01*
X133068461Y-62704169D01*
X133069700Y-62719906D01*
X133069700Y-63299400D01*
X133050487Y-63358531D01*
X133000187Y-63395076D01*
X132969100Y-63400000D01*
X132450000Y-63400000D01*
X132450000Y-64066988D01*
X132392993Y-64034075D01*
X132265826Y-64000000D01*
X132134174Y-64000000D01*
X132007007Y-64034075D01*
X131950000Y-64066988D01*
X131950000Y-63400000D01*
X131325377Y-63400000D01*
X131252455Y-63414504D01*
X131169760Y-63469760D01*
X131114504Y-63552455D01*
X131100000Y-63625376D01*
X131100000Y-64250000D01*
X131766988Y-64250000D01*
X131734075Y-64307007D01*
X131700000Y-64434174D01*
X131700000Y-64565826D01*
X131734075Y-64692993D01*
X131766988Y-64750000D01*
X131100000Y-64750000D01*
X131100000Y-65374623D01*
X131114504Y-65447544D01*
X131169760Y-65530239D01*
X131252455Y-65585495D01*
X131325377Y-65600000D01*
X131950000Y-65600000D01*
X131950000Y-64933012D01*
X132007007Y-64965925D01*
X132134174Y-65000000D01*
X132265826Y-65000000D01*
X132392993Y-64965925D01*
X132450000Y-64933012D01*
X132450000Y-65600000D01*
X132788594Y-65600000D01*
X132847725Y-65619213D01*
X132884270Y-65669513D01*
X132884270Y-65731687D01*
X132859729Y-65771735D01*
X132655676Y-65975787D01*
X132599022Y-66073912D01*
X132599022Y-66073913D01*
X132569700Y-66183344D01*
X132569700Y-66280094D01*
X132550487Y-66339225D01*
X132540235Y-66351229D01*
X132351229Y-66540235D01*
X132295831Y-66568461D01*
X132280094Y-66569700D01*
X126356302Y-66569700D01*
X126297171Y-66550487D01*
X126285167Y-66540235D01*
X125459765Y-65714833D01*
X125431539Y-65659435D01*
X125430300Y-65643698D01*
X125430300Y-62806955D01*
X125430299Y-62806948D01*
X125400977Y-62697517D01*
X125400977Y-62697516D01*
X125391002Y-62680239D01*
X125344326Y-62599394D01*
X125264210Y-62519278D01*
X124279465Y-61534533D01*
X124251239Y-61479135D01*
X124250000Y-61463398D01*
X124250000Y-61230000D01*
X124750000Y-61230000D01*
X124750000Y-61502188D01*
X124792021Y-61495533D01*
X124902092Y-61439449D01*
X124989449Y-61352092D01*
X125045533Y-61242020D01*
X125045534Y-61242017D01*
X125047439Y-61230000D01*
X124750000Y-61230000D01*
X124250000Y-61230000D01*
X124250000Y-60830600D01*
X124269213Y-60771469D01*
X124319513Y-60734924D01*
X124350600Y-60730000D01*
X124781512Y-60730000D01*
X124840643Y-60749213D01*
X124843346Y-60751534D01*
X124843352Y-60751527D01*
X124849086Y-60755865D01*
X124849090Y-60755869D01*
X124948892Y-60811039D01*
X125015211Y-60833030D01*
X125102146Y-60848614D01*
X125286905Y-60855006D01*
X125286910Y-60855005D01*
X125288015Y-60855044D01*
X125346447Y-60876290D01*
X125376565Y-60914950D01*
X125418765Y-61010524D01*
X125418766Y-61010525D01*
X125499475Y-61091234D01*
X125603891Y-61137338D01*
X125629421Y-61140300D01*
X126184100Y-61140299D01*
X126243231Y-61159512D01*
X126279776Y-61209812D01*
X126284700Y-61240899D01*
X126284700Y-61795571D01*
X126284701Y-61795586D01*
X126287662Y-61821108D01*
X126287662Y-61821111D01*
X126333765Y-61925524D01*
X126333766Y-61925525D01*
X126414475Y-62006234D01*
X126518891Y-62052338D01*
X126544421Y-62055300D01*
X126969100Y-62055299D01*
X127028231Y-62074512D01*
X127064776Y-62124812D01*
X127069700Y-62155899D01*
X127069700Y-62696324D01*
X127050487Y-62755455D01*
X127011615Y-62787498D01*
X126964448Y-62809493D01*
X126844857Y-62865259D01*
X126844854Y-62865261D01*
X126657761Y-62996265D01*
X126496265Y-63157761D01*
X126365261Y-63344854D01*
X126365256Y-63344862D01*
X126268735Y-63551851D01*
X126209621Y-63772465D01*
X126209620Y-63772469D01*
X126209620Y-63772471D01*
X126208059Y-63790310D01*
X126191058Y-63984642D01*
X126189714Y-64000000D01*
X126209174Y-64222436D01*
X126209620Y-64227526D01*
X126209621Y-64227534D01*
X126268735Y-64448148D01*
X126365256Y-64655137D01*
X126365259Y-64655143D01*
X126496263Y-64842236D01*
X126657764Y-65003737D01*
X126844857Y-65134741D01*
X126898442Y-65159728D01*
X127051851Y-65231264D01*
X127051852Y-65231264D01*
X127051856Y-65231266D01*
X127272471Y-65290380D01*
X127470507Y-65307705D01*
X127499998Y-65310286D01*
X127500000Y-65310286D01*
X127500002Y-65310286D01*
X127527697Y-65307862D01*
X127727529Y-65290380D01*
X127948144Y-65231266D01*
X128155143Y-65134741D01*
X128342236Y-65003737D01*
X128503737Y-64842236D01*
X128634741Y-64655143D01*
X128731266Y-64448144D01*
X128790380Y-64227529D01*
X128810286Y-64000000D01*
X128790380Y-63772471D01*
X128731266Y-63551856D01*
X128729137Y-63547291D01*
X128666698Y-63413389D01*
X128634741Y-63344857D01*
X128503737Y-63157764D01*
X128342236Y-62996263D01*
X128155143Y-62865259D01*
X127988384Y-62787498D01*
X127942913Y-62745096D01*
X127930300Y-62696324D01*
X127930300Y-61443352D01*
X127930300Y-61443350D01*
X127929694Y-61441090D01*
X127928738Y-61437521D01*
X127918727Y-61400158D01*
X127915299Y-61374122D01*
X127915299Y-61340600D01*
X127934512Y-61281469D01*
X127984812Y-61244924D01*
X128015899Y-61240000D01*
X128134100Y-61240000D01*
X128193231Y-61259213D01*
X128229776Y-61309513D01*
X128234700Y-61340600D01*
X128234700Y-61795571D01*
X128234701Y-61795586D01*
X128236865Y-61814235D01*
X128237662Y-61821109D01*
X128251428Y-61852288D01*
X128260000Y-61892920D01*
X128260000Y-62000000D01*
X128284623Y-62000000D01*
X128298757Y-61997188D01*
X128359022Y-62003826D01*
X128364474Y-62006233D01*
X128364475Y-62006234D01*
X128468891Y-62052338D01*
X128494421Y-62055300D01*
X128955578Y-62055299D01*
X128981109Y-62052338D01*
X129085525Y-62006234D01*
X129166234Y-61925525D01*
X129212338Y-61821109D01*
X129215300Y-61795579D01*
X129215299Y-61185599D01*
X129234512Y-61126469D01*
X129284812Y-61089924D01*
X129314830Y-61085169D01*
X129315000Y-61085000D01*
X129315000Y-59290899D01*
X129334213Y-59231768D01*
X129384513Y-59195223D01*
X129415596Y-59190299D01*
X129584401Y-59190299D01*
X129643531Y-59209512D01*
X129680076Y-59259812D01*
X129685000Y-59290899D01*
X129685000Y-61085000D01*
X129849623Y-61085000D01*
X129922544Y-61070495D01*
X130005239Y-61015239D01*
X130005749Y-61014477D01*
X130006950Y-61013529D01*
X130012246Y-61008234D01*
X130012872Y-61008860D01*
X130054571Y-60975980D01*
X130116697Y-60973533D01*
X130168397Y-61008070D01*
X130189922Y-61066400D01*
X130190000Y-61070358D01*
X130190000Y-61150687D01*
X130204466Y-61242021D01*
X130260550Y-61352092D01*
X130347907Y-61439449D01*
X130457978Y-61495534D01*
X130500000Y-61502189D01*
X130500000Y-61230000D01*
X131000000Y-61230000D01*
X131000000Y-61502188D01*
X131042021Y-61495533D01*
X131152092Y-61439449D01*
X131239449Y-61352092D01*
X131295533Y-61242020D01*
X131295534Y-61242017D01*
X131297439Y-61230000D01*
X131000000Y-61230000D01*
X130500000Y-61230000D01*
X130500000Y-60830600D01*
X130519213Y-60771469D01*
X130569513Y-60734924D01*
X130600600Y-60730000D01*
X131297438Y-60730000D01*
X131297438Y-60729999D01*
X131295535Y-60717981D01*
X131239451Y-60607910D01*
X131234841Y-60601565D01*
X131215626Y-60542434D01*
X131234837Y-60483302D01*
X131235285Y-60482691D01*
X131238426Y-60478434D01*
X131238431Y-60478431D01*
X131318144Y-60370425D01*
X131362479Y-60243722D01*
X131365300Y-60213639D01*
X131365299Y-59826362D01*
X131362479Y-59796278D01*
X131318144Y-59669575D01*
X131238431Y-59561569D01*
X131238428Y-59561566D01*
X131221159Y-59548820D01*
X131184993Y-59498247D01*
X131180300Y-59467880D01*
X131180300Y-59318350D01*
X131173963Y-59294701D01*
X131173963Y-59294699D01*
X131150978Y-59208917D01*
X131150977Y-59208915D01*
X131150976Y-59208910D01*
X131094326Y-59110789D01*
X130339210Y-58355674D01*
X130339207Y-58355672D01*
X130339206Y-58355671D01*
X130320206Y-58344702D01*
X130320205Y-58344701D01*
X130320204Y-58344701D01*
X130241090Y-58299024D01*
X130241088Y-58299023D01*
X130241086Y-58299022D01*
X130186371Y-58284362D01*
X130186370Y-58284362D01*
X130166874Y-58279138D01*
X130131653Y-58269700D01*
X130131651Y-58269700D01*
X130131650Y-58269700D01*
X130081706Y-58269700D01*
X130022575Y-58250487D01*
X129986030Y-58200187D01*
X129986030Y-58138013D01*
X130010571Y-58097965D01*
X130789023Y-57319513D01*
X131594326Y-56514210D01*
X131612512Y-56482711D01*
X131650976Y-56416090D01*
X131673471Y-56332136D01*
X131680299Y-56306655D01*
X131680300Y-56306648D01*
X131680300Y-54791118D01*
X131699513Y-54731987D01*
X131749813Y-54695442D01*
X131811987Y-54695442D01*
X131821528Y-54699087D01*
X131828891Y-54702338D01*
X131854421Y-54705300D01*
X132345578Y-54705299D01*
X132371109Y-54702338D01*
X132371111Y-54702337D01*
X132484053Y-54652469D01*
X132485674Y-54656141D01*
X132527659Y-54643717D01*
X132564522Y-54655694D01*
X132565947Y-54652469D01*
X132656241Y-54692337D01*
X132678891Y-54702338D01*
X132704421Y-54705300D01*
X133195578Y-54705299D01*
X133221109Y-54702338D01*
X133221111Y-54702337D01*
X133334053Y-54652469D01*
X133335674Y-54656141D01*
X133377659Y-54643717D01*
X133414522Y-54655694D01*
X133415947Y-54652469D01*
X133506241Y-54692337D01*
X133528891Y-54702338D01*
X133554421Y-54705300D01*
X134045578Y-54705299D01*
X134071109Y-54702338D01*
X134071111Y-54702337D01*
X134184053Y-54652469D01*
X134185674Y-54656141D01*
X134227659Y-54643717D01*
X134264522Y-54655694D01*
X134265947Y-54652469D01*
X134356241Y-54692337D01*
X134378891Y-54702338D01*
X134404421Y-54705300D01*
X134895578Y-54705299D01*
X134921109Y-54702338D01*
X134921111Y-54702337D01*
X135034053Y-54652469D01*
X135035674Y-54656141D01*
X135077659Y-54643717D01*
X135114522Y-54655694D01*
G37*
%TD.AperFunction*%
%TA.AperFunction,Conductor*%
G36*
X133471735Y-63840271D02*
G01*
X133628309Y-63996845D01*
X133656535Y-64052243D01*
X133653934Y-64095510D01*
X133599505Y-64286808D01*
X133599505Y-64286809D01*
X133579751Y-64500000D01*
X133599505Y-64713190D01*
X133599505Y-64713191D01*
X133599505Y-64713194D01*
X133599506Y-64713195D01*
X133626198Y-64807007D01*
X133653934Y-64904488D01*
X133651636Y-64966619D01*
X133628309Y-65003153D01*
X133471735Y-65159728D01*
X133416338Y-65187954D01*
X133354929Y-65178228D01*
X133310965Y-65134265D01*
X133300000Y-65088593D01*
X133300000Y-64750000D01*
X132633012Y-64750000D01*
X132665925Y-64692993D01*
X132700000Y-64565826D01*
X132700000Y-64434174D01*
X132665925Y-64307007D01*
X132633012Y-64250000D01*
X133300000Y-64250000D01*
X133300000Y-63911406D01*
X133319213Y-63852275D01*
X133369513Y-63815730D01*
X133431687Y-63815730D01*
X133471735Y-63840271D01*
G37*
%TD.AperFunction*%
%TA.AperFunction,Conductor*%
G36*
X149463610Y-57049513D02*
G01*
X149500155Y-57099813D01*
X149500155Y-57161987D01*
X149494857Y-57175083D01*
X149480904Y-57203623D01*
X149480903Y-57203627D01*
X149474146Y-57249999D01*
X149474147Y-57250000D01*
X150139400Y-57250000D01*
X150198531Y-57269213D01*
X150235076Y-57319513D01*
X150240000Y-57350600D01*
X150240000Y-58057323D01*
X150351805Y-58002666D01*
X150390209Y-57964263D01*
X150445607Y-57936037D01*
X150507015Y-57945763D01*
X150542286Y-57975659D01*
X150560144Y-57999856D01*
X150666938Y-58078673D01*
X150792216Y-58122509D01*
X150792219Y-58122510D01*
X150821970Y-58125300D01*
X151004817Y-58125300D01*
X151063948Y-58144513D01*
X151100493Y-58194813D01*
X151101989Y-58251938D01*
X151094700Y-58279138D01*
X151094700Y-58540449D01*
X151075487Y-58599580D01*
X151065235Y-58611584D01*
X150861584Y-58815235D01*
X150806186Y-58843461D01*
X150790449Y-58844700D01*
X150025237Y-58844700D01*
X149966106Y-58825487D01*
X149954102Y-58815235D01*
X148888867Y-57750000D01*
X149474147Y-57750000D01*
X149480902Y-57796370D01*
X149480904Y-57796378D01*
X149537334Y-57911807D01*
X149628194Y-58002666D01*
X149740000Y-58057323D01*
X149740000Y-57750000D01*
X149474147Y-57750000D01*
X148888867Y-57750000D01*
X148340902Y-57202035D01*
X148312676Y-57146637D01*
X148322402Y-57085229D01*
X148366366Y-57041265D01*
X148412037Y-57030300D01*
X149404479Y-57030300D01*
X149463610Y-57049513D01*
G37*
%TD.AperFunction*%
%TA.AperFunction,Conductor*%
G36*
X126678925Y-46779213D02*
G01*
X126690929Y-46789465D01*
X126720535Y-46819071D01*
X126748761Y-46874469D01*
X126750000Y-46890206D01*
X126750000Y-47525851D01*
X126796369Y-47519097D01*
X126796377Y-47519095D01*
X126911807Y-47462665D01*
X127002666Y-47371806D01*
X127029636Y-47316638D01*
X127072866Y-47271952D01*
X127134106Y-47261212D01*
X127189963Y-47288518D01*
X127191149Y-47289685D01*
X127245790Y-47344326D01*
X127343910Y-47400976D01*
X127343912Y-47400977D01*
X127453344Y-47430299D01*
X127453348Y-47430299D01*
X127453350Y-47430300D01*
X127566651Y-47430300D01*
X127708882Y-47430300D01*
X127768013Y-47449513D01*
X127804558Y-47499813D01*
X127804558Y-47561987D01*
X127800910Y-47571536D01*
X127797661Y-47578892D01*
X127794700Y-47604418D01*
X127794700Y-48095571D01*
X127794701Y-48095586D01*
X127797662Y-48121108D01*
X127797662Y-48121111D01*
X127847531Y-48234053D01*
X127843882Y-48235663D01*
X127856276Y-48277878D01*
X127844361Y-48314547D01*
X127847531Y-48315947D01*
X127797662Y-48428888D01*
X127797662Y-48428889D01*
X127794700Y-48454418D01*
X127794700Y-48945571D01*
X127794701Y-48945586D01*
X127797662Y-48971108D01*
X127797662Y-48971111D01*
X127847531Y-49084053D01*
X127843882Y-49085663D01*
X127856276Y-49127878D01*
X127844361Y-49164547D01*
X127847531Y-49165947D01*
X127797662Y-49278888D01*
X127797662Y-49278889D01*
X127794700Y-49304418D01*
X127794700Y-49795571D01*
X127794701Y-49795586D01*
X127797662Y-49821108D01*
X127797662Y-49821111D01*
X127847531Y-49934053D01*
X127843882Y-49935663D01*
X127856276Y-49977878D01*
X127844361Y-50014547D01*
X127847531Y-50015947D01*
X127797662Y-50128888D01*
X127797662Y-50128889D01*
X127794700Y-50154418D01*
X127794700Y-50645571D01*
X127794701Y-50645586D01*
X127797662Y-50671108D01*
X127797662Y-50671111D01*
X127847531Y-50784053D01*
X127843882Y-50785663D01*
X127856276Y-50827878D01*
X127844361Y-50864547D01*
X127847531Y-50865947D01*
X127797662Y-50978888D01*
X127797662Y-50978889D01*
X127794700Y-51004418D01*
X127794700Y-51495571D01*
X127794701Y-51495586D01*
X127797662Y-51521108D01*
X127797662Y-51521111D01*
X127847531Y-51634053D01*
X127843882Y-51635663D01*
X127856276Y-51677878D01*
X127844361Y-51714547D01*
X127847531Y-51715947D01*
X127797662Y-51828888D01*
X127797662Y-51828889D01*
X127794700Y-51854418D01*
X127794700Y-52345571D01*
X127794701Y-52345586D01*
X127797662Y-52371108D01*
X127797662Y-52371111D01*
X127847531Y-52484053D01*
X127843882Y-52485663D01*
X127856276Y-52527878D01*
X127844361Y-52564547D01*
X127847531Y-52565947D01*
X127797662Y-52678888D01*
X127797662Y-52678889D01*
X127794700Y-52704418D01*
X127794700Y-53195571D01*
X127794701Y-53195586D01*
X127797662Y-53221108D01*
X127797662Y-53221111D01*
X127843765Y-53325524D01*
X127868687Y-53350446D01*
X127896913Y-53405844D01*
X127887187Y-53467252D01*
X127881198Y-53477471D01*
X127864505Y-53502453D01*
X127850000Y-53575376D01*
X127850000Y-53750000D01*
X128649400Y-53750000D01*
X128708531Y-53769213D01*
X128745076Y-53819513D01*
X128750000Y-53850600D01*
X128750000Y-54149400D01*
X128730787Y-54208531D01*
X128680487Y-54245076D01*
X128649400Y-54250000D01*
X127850000Y-54250000D01*
X127850000Y-54424623D01*
X127854943Y-54449474D01*
X127847635Y-54511217D01*
X127805431Y-54556873D01*
X127756276Y-54569700D01*
X126943344Y-54569700D01*
X126833913Y-54599022D01*
X126833912Y-54599022D01*
X126777984Y-54631313D01*
X126741342Y-54652469D01*
X126735787Y-54655676D01*
X126020676Y-55370787D01*
X126020674Y-55370789D01*
X126020674Y-55370790D01*
X125964024Y-55468910D01*
X125953968Y-55506439D01*
X125937921Y-55566330D01*
X125937920Y-55566334D01*
X125934700Y-55578347D01*
X125934700Y-56711654D01*
X125942137Y-56739408D01*
X125943997Y-56746348D01*
X125957008Y-56794906D01*
X125964025Y-56821091D01*
X126006457Y-56894585D01*
X126006458Y-56894586D01*
X126020673Y-56919208D01*
X126315235Y-57213770D01*
X126343461Y-57269168D01*
X126344700Y-57284905D01*
X126344700Y-57378490D01*
X126336128Y-57419124D01*
X126287662Y-57528888D01*
X126287662Y-57528889D01*
X126284700Y-57554417D01*
X126284700Y-58109100D01*
X126265487Y-58168231D01*
X126215187Y-58204776D01*
X126184100Y-58209700D01*
X125629428Y-58209700D01*
X125629413Y-58209701D01*
X125603891Y-58212662D01*
X125603890Y-58212662D01*
X125558070Y-58232893D01*
X125496216Y-58239200D01*
X125471845Y-58230539D01*
X125454963Y-58221955D01*
X125454960Y-58221954D01*
X125387922Y-58202269D01*
X125387915Y-58202268D01*
X125315290Y-58191826D01*
X125300500Y-58189700D01*
X125300499Y-58189700D01*
X125030900Y-58189700D01*
X124971769Y-58170487D01*
X124935224Y-58120187D01*
X124930300Y-58089100D01*
X124930300Y-56443351D01*
X124930299Y-56443344D01*
X124900977Y-56333913D01*
X124900977Y-56333912D01*
X124898145Y-56329007D01*
X124844326Y-56235790D01*
X124764210Y-56155674D01*
X123739210Y-55130674D01*
X123695462Y-55105416D01*
X123641090Y-55074024D01*
X123641087Y-55074022D01*
X123641085Y-55074021D01*
X123576250Y-55056650D01*
X123576249Y-55056650D01*
X123561383Y-55052666D01*
X123531653Y-55044700D01*
X123531651Y-55044700D01*
X123531650Y-55044700D01*
X122694906Y-55044700D01*
X122635775Y-55025487D01*
X122623771Y-55015235D01*
X121459765Y-53851229D01*
X121431539Y-53795831D01*
X121430300Y-53780094D01*
X121430300Y-53383864D01*
X121449513Y-53324733D01*
X121499813Y-53288188D01*
X121561987Y-53288188D01*
X121606927Y-53317985D01*
X121629267Y-53343766D01*
X121665692Y-53385803D01*
X121665693Y-53385804D01*
X121665696Y-53385807D01*
X121787932Y-53464363D01*
X121927349Y-53505300D01*
X121927350Y-53505300D01*
X122072650Y-53505300D01*
X122072651Y-53505300D01*
X122212068Y-53464363D01*
X122334304Y-53385807D01*
X122429457Y-53275995D01*
X122489817Y-53143823D01*
X122489818Y-53143810D01*
X122491843Y-53136920D01*
X122494201Y-53137612D01*
X122516693Y-53091856D01*
X122517635Y-53090899D01*
X122829970Y-52778565D01*
X122885367Y-52750340D01*
X122889034Y-52749828D01*
X122932711Y-52744584D01*
X123074717Y-52688584D01*
X123196348Y-52596348D01*
X123288584Y-52474717D01*
X123344584Y-52332711D01*
X123355300Y-52243476D01*
X123355300Y-51556524D01*
X123344584Y-51467289D01*
X123344160Y-51463758D01*
X123356185Y-51402758D01*
X123372907Y-51380628D01*
X124043836Y-50709700D01*
X124723771Y-50029765D01*
X124779169Y-50001539D01*
X124794906Y-50000300D01*
X125148293Y-50000300D01*
X125207424Y-50019513D01*
X125243969Y-50069813D01*
X125243969Y-50131987D01*
X125219428Y-50172035D01*
X124735790Y-50655674D01*
X124655676Y-50735787D01*
X124599024Y-50833908D01*
X124590285Y-50866525D01*
X124573197Y-50930296D01*
X124573198Y-50930297D01*
X124569700Y-50943351D01*
X124569700Y-51030997D01*
X124550487Y-51090128D01*
X124506005Y-51124583D01*
X124425288Y-51156413D01*
X124425285Y-51156414D01*
X124303652Y-51248652D01*
X124211414Y-51370285D01*
X124211413Y-51370288D01*
X124155417Y-51512285D01*
X124155415Y-51512293D01*
X124144701Y-51601510D01*
X124144700Y-51601530D01*
X124144700Y-52288469D01*
X124144701Y-52288489D01*
X124155415Y-52377706D01*
X124155417Y-52377714D01*
X124211413Y-52519711D01*
X124211414Y-52519714D01*
X124211415Y-52519716D01*
X124211416Y-52519717D01*
X124303652Y-52641348D01*
X124425283Y-52733584D01*
X124425284Y-52733584D01*
X124425285Y-52733585D01*
X124425288Y-52733586D01*
X124567289Y-52789584D01*
X124656524Y-52800300D01*
X124656530Y-52800300D01*
X125343470Y-52800300D01*
X125343476Y-52800300D01*
X125432711Y-52789584D01*
X125574717Y-52733584D01*
X125696348Y-52641348D01*
X125788584Y-52519717D01*
X125844584Y-52377711D01*
X125855300Y-52288476D01*
X125855300Y-51601524D01*
X125844584Y-51512289D01*
X125788584Y-51370283D01*
X125696348Y-51248652D01*
X125596921Y-51173254D01*
X125561415Y-51122216D01*
X125562689Y-51060055D01*
X125586571Y-51021963D01*
X126643092Y-49965442D01*
X126698489Y-49937218D01*
X126759897Y-49946944D01*
X126768613Y-49951947D01*
X126787932Y-49964363D01*
X126927349Y-50005300D01*
X126927350Y-50005300D01*
X127072650Y-50005300D01*
X127072651Y-50005300D01*
X127212068Y-49964363D01*
X127334304Y-49885807D01*
X127429457Y-49775995D01*
X127489817Y-49643823D01*
X127510496Y-49500000D01*
X127489817Y-49356177D01*
X127489667Y-49355849D01*
X127452573Y-49274623D01*
X127429457Y-49224005D01*
X127334304Y-49114193D01*
X127212068Y-49035637D01*
X127072651Y-48994700D01*
X126927349Y-48994700D01*
X126859195Y-49014712D01*
X126787931Y-49035637D01*
X126759779Y-49053730D01*
X126705390Y-49069700D01*
X126443346Y-49069700D01*
X126391149Y-49083686D01*
X126373750Y-49088349D01*
X126373749Y-49088349D01*
X126333914Y-49099022D01*
X126333912Y-49099022D01*
X126235787Y-49155676D01*
X126027035Y-49364428D01*
X125971637Y-49392654D01*
X125910228Y-49382928D01*
X125866265Y-49338964D01*
X125855300Y-49293293D01*
X125855300Y-48801530D01*
X125855300Y-48801524D01*
X125844584Y-48712289D01*
X125788584Y-48570283D01*
X125696348Y-48448652D01*
X125574717Y-48356416D01*
X125574716Y-48356415D01*
X125574714Y-48356414D01*
X125574711Y-48356413D01*
X125432714Y-48300417D01*
X125432712Y-48300416D01*
X125432711Y-48300416D01*
X125432709Y-48300415D01*
X125432706Y-48300415D01*
X125343489Y-48289701D01*
X125343480Y-48289700D01*
X125343476Y-48289700D01*
X124656524Y-48289700D01*
X124656519Y-48289700D01*
X124656510Y-48289701D01*
X124567293Y-48300415D01*
X124567285Y-48300417D01*
X124425288Y-48356413D01*
X124425285Y-48356414D01*
X124303652Y-48448652D01*
X124211414Y-48570285D01*
X124211413Y-48570288D01*
X124155417Y-48712285D01*
X124155415Y-48712293D01*
X124144701Y-48801510D01*
X124144700Y-48801530D01*
X124144700Y-49350094D01*
X124125487Y-49409225D01*
X124115235Y-49421229D01*
X122521229Y-51015235D01*
X122465831Y-51043461D01*
X122450094Y-51044700D01*
X122156524Y-51044700D01*
X122156519Y-51044700D01*
X122156510Y-51044701D01*
X122067293Y-51055415D01*
X122067285Y-51055417D01*
X121925288Y-51111413D01*
X121925285Y-51111414D01*
X121803652Y-51203652D01*
X121711414Y-51325285D01*
X121711413Y-51325288D01*
X121655417Y-51467285D01*
X121655415Y-51467293D01*
X121644701Y-51556510D01*
X121644700Y-51556530D01*
X121644700Y-52243469D01*
X121644701Y-52243489D01*
X121655415Y-52332706D01*
X121655417Y-52332714D01*
X121713940Y-52481119D01*
X121712191Y-52481808D01*
X121722640Y-52533889D01*
X121696703Y-52590395D01*
X121677111Y-52606856D01*
X121665697Y-52614191D01*
X121665695Y-52614193D01*
X121642166Y-52641348D01*
X121609637Y-52678889D01*
X121606929Y-52682014D01*
X121553686Y-52714121D01*
X121491740Y-52708800D01*
X121444751Y-52668085D01*
X121430300Y-52616135D01*
X121430300Y-52443351D01*
X121430299Y-52443344D01*
X121400977Y-52333913D01*
X121400977Y-52333912D01*
X121390145Y-52315151D01*
X121344326Y-52235790D01*
X121264210Y-52155674D01*
X121017707Y-51909171D01*
X120993913Y-51862472D01*
X120991843Y-51863080D01*
X120989818Y-51856187D01*
X120989817Y-51856177D01*
X120929457Y-51724005D01*
X120834304Y-51614193D01*
X120793240Y-51587802D01*
X120753884Y-51539672D01*
X120750335Y-51477600D01*
X120776493Y-51432041D01*
X122223771Y-49984765D01*
X122279169Y-49956539D01*
X122294906Y-49955300D01*
X122843470Y-49955300D01*
X122843476Y-49955300D01*
X122932711Y-49944584D01*
X123074717Y-49888584D01*
X123196348Y-49796348D01*
X123288584Y-49674717D01*
X123344584Y-49532711D01*
X123355300Y-49443476D01*
X123355300Y-48756524D01*
X123344584Y-48667289D01*
X123288584Y-48525283D01*
X123248717Y-48472711D01*
X123228298Y-48413988D01*
X123246296Y-48354476D01*
X123257736Y-48340798D01*
X124264139Y-47334395D01*
X124319535Y-47306171D01*
X124380943Y-47315897D01*
X124414365Y-47348829D01*
X124416850Y-47346996D01*
X124421327Y-47353062D01*
X124500144Y-47459856D01*
X124606938Y-47538673D01*
X124732216Y-47582509D01*
X124732219Y-47582510D01*
X124761970Y-47585300D01*
X124761977Y-47585300D01*
X125238023Y-47585300D01*
X125238030Y-47585300D01*
X125267781Y-47582510D01*
X125393062Y-47538673D01*
X125499856Y-47459856D01*
X125499858Y-47459853D01*
X125505167Y-47455935D01*
X125538868Y-47439705D01*
X125583010Y-47427878D01*
X125595711Y-47424475D01*
X125595711Y-47424474D01*
X125646090Y-47410976D01*
X125744210Y-47354326D01*
X125808850Y-47289686D01*
X125864247Y-47261459D01*
X125925656Y-47271184D01*
X125969620Y-47315148D01*
X125970363Y-47316636D01*
X125997335Y-47371808D01*
X126088192Y-47462665D01*
X126203621Y-47519095D01*
X126203629Y-47519097D01*
X126250000Y-47525853D01*
X126250000Y-46890206D01*
X126269213Y-46831075D01*
X126279465Y-46819071D01*
X126309071Y-46789465D01*
X126364469Y-46761239D01*
X126380206Y-46760000D01*
X126619794Y-46760000D01*
X126678925Y-46779213D01*
G37*
%TD.AperFunction*%
%TA.AperFunction,Conductor*%
G36*
X129914771Y-54792070D02*
G01*
X129958735Y-54836033D01*
X129969700Y-54881705D01*
X129969700Y-55780094D01*
X129950487Y-55839225D01*
X129940235Y-55851229D01*
X129271229Y-56520235D01*
X129215831Y-56548461D01*
X129200094Y-56549700D01*
X129072380Y-56549700D01*
X129013249Y-56530487D01*
X128976704Y-56480187D01*
X128976704Y-56418013D01*
X128986220Y-56399333D01*
X128985855Y-56399147D01*
X129045533Y-56282020D01*
X129045534Y-56282017D01*
X129047439Y-56270000D01*
X127952561Y-56270000D01*
X127954464Y-56282018D01*
X128010549Y-56392091D01*
X128015159Y-56398436D01*
X128034372Y-56457567D01*
X128015159Y-56516698D01*
X128014715Y-56517305D01*
X127931855Y-56629576D01*
X127888585Y-56753236D01*
X127887521Y-56756278D01*
X127884701Y-56786358D01*
X127884700Y-56786366D01*
X127884700Y-56945094D01*
X127865487Y-57004225D01*
X127855238Y-57016224D01*
X127841164Y-57030300D01*
X127810790Y-57060674D01*
X127810788Y-57060675D01*
X127787032Y-57084430D01*
X127731634Y-57112656D01*
X127670226Y-57102928D01*
X127626263Y-57058964D01*
X127615299Y-57013296D01*
X127615299Y-56786362D01*
X127612479Y-56756278D01*
X127568144Y-56629575D01*
X127524555Y-56570515D01*
X127485285Y-56517306D01*
X127465630Y-56458320D01*
X127484400Y-56399047D01*
X127484843Y-56398431D01*
X127489451Y-56392089D01*
X127545533Y-56282020D01*
X127545534Y-56282017D01*
X127547439Y-56270000D01*
X126895900Y-56270000D01*
X126836769Y-56250787D01*
X126800224Y-56200487D01*
X126795300Y-56169400D01*
X126795300Y-55870600D01*
X126814513Y-55811469D01*
X126864813Y-55774924D01*
X126895900Y-55770000D01*
X127547438Y-55770000D01*
X127547438Y-55769999D01*
X127545535Y-55757981D01*
X127489450Y-55647908D01*
X127443577Y-55602035D01*
X127415351Y-55546637D01*
X127425077Y-55485229D01*
X127469041Y-55441265D01*
X127514712Y-55430300D01*
X127985288Y-55430300D01*
X128044419Y-55449513D01*
X128080964Y-55499813D01*
X128080964Y-55561987D01*
X128056423Y-55602035D01*
X128010550Y-55647907D01*
X127954466Y-55757979D01*
X127954465Y-55757982D01*
X127952561Y-55770000D01*
X129047438Y-55770000D01*
X129047438Y-55769999D01*
X129045535Y-55757981D01*
X128989450Y-55647908D01*
X128943577Y-55602035D01*
X128915351Y-55546637D01*
X128925077Y-55485229D01*
X128969041Y-55441265D01*
X129014712Y-55430300D01*
X129056649Y-55430300D01*
X129056651Y-55430300D01*
X129157196Y-55403359D01*
X129166090Y-55400976D01*
X129264210Y-55344326D01*
X129344326Y-55264210D01*
X129797967Y-54810568D01*
X129853363Y-54782344D01*
X129914771Y-54792070D01*
G37*
%TD.AperFunction*%
%TA.AperFunction,Conductor*%
G36*
X122267425Y-47949513D02*
G01*
X122303970Y-47999813D01*
X122303970Y-48061987D01*
X122279429Y-48102035D01*
X122235790Y-48145674D01*
X122235789Y-48145674D01*
X122158665Y-48222797D01*
X122103268Y-48251024D01*
X122099527Y-48251544D01*
X122067293Y-48255415D01*
X122067285Y-48255417D01*
X121925288Y-48311413D01*
X121925285Y-48311414D01*
X121803652Y-48403652D01*
X121711414Y-48525285D01*
X121711413Y-48525288D01*
X121655417Y-48667285D01*
X121655415Y-48667293D01*
X121644701Y-48756510D01*
X121644700Y-48756530D01*
X121644700Y-49305094D01*
X121625487Y-49364225D01*
X121615235Y-49376229D01*
X119630674Y-51360789D01*
X119578307Y-51451492D01*
X119574024Y-51458910D01*
X119574024Y-51458911D01*
X119557358Y-51521110D01*
X119547338Y-51558506D01*
X119546505Y-51560701D01*
X119544700Y-51568349D01*
X119544700Y-51587283D01*
X119525487Y-51646414D01*
X119475187Y-51682959D01*
X119413013Y-51682959D01*
X119368072Y-51653162D01*
X119334308Y-51614196D01*
X119334306Y-51614195D01*
X119334305Y-51614194D01*
X119334304Y-51614193D01*
X119212068Y-51535637D01*
X119072651Y-51494700D01*
X118927349Y-51494700D01*
X118801713Y-51531590D01*
X118739564Y-51529815D01*
X118702236Y-51506200D01*
X117615805Y-50419769D01*
X117587579Y-50364371D01*
X117591985Y-50315408D01*
X117602416Y-50285602D01*
X117605300Y-50254846D01*
X117605300Y-49845154D01*
X117602416Y-49814398D01*
X117557085Y-49684849D01*
X117475582Y-49574418D01*
X117471872Y-49571680D01*
X117365151Y-49492915D01*
X117235603Y-49447584D01*
X117235605Y-49447584D01*
X117225350Y-49446622D01*
X117204846Y-49444700D01*
X117204840Y-49444700D01*
X116682407Y-49444700D01*
X116623276Y-49425487D01*
X116611272Y-49415235D01*
X116459765Y-49263728D01*
X116431539Y-49208330D01*
X116430300Y-49192593D01*
X116430300Y-49014712D01*
X116449513Y-48955581D01*
X116499813Y-48919036D01*
X116561987Y-48919036D01*
X116590332Y-48936405D01*
X116591502Y-48934796D01*
X116597905Y-48939448D01*
X116707978Y-48995534D01*
X116750000Y-49002189D01*
X116750000Y-48730000D01*
X117250000Y-48730000D01*
X117250000Y-49002188D01*
X117292021Y-48995533D01*
X117402092Y-48939449D01*
X117489449Y-48852092D01*
X117545533Y-48742020D01*
X117545534Y-48742017D01*
X117547439Y-48730000D01*
X117250000Y-48730000D01*
X116750000Y-48730000D01*
X116750000Y-48330600D01*
X116769213Y-48271469D01*
X116819513Y-48234924D01*
X116850600Y-48230000D01*
X117547438Y-48230000D01*
X117547438Y-48229999D01*
X117545535Y-48217981D01*
X117489449Y-48107907D01*
X117484841Y-48101564D01*
X117465627Y-48042434D01*
X117484839Y-47983302D01*
X117485288Y-47982689D01*
X117493800Y-47971157D01*
X117544374Y-47934992D01*
X117574739Y-47930300D01*
X122208294Y-47930300D01*
X122267425Y-47949513D01*
G37*
%TD.AperFunction*%
%TD*%
M02*
