%TF.GenerationSoftware,KiCad,Pcbnew,8.0.0*%
%TF.CreationDate,2024-05-02T00:18:50-07:00*%
%TF.ProjectId,ece16,65636531-362e-46b6-9963-61645f706362,rev?*%
%TF.SameCoordinates,Original*%
%TF.FileFunction,Copper,L2,Bot*%
%TF.FilePolarity,Positive*%
%FSLAX46Y46*%
G04 Gerber Fmt 4.6, Leading zero omitted, Abs format (unit mm)*
G04 Created by KiCad (PCBNEW 8.0.0) date 2024-05-02 00:18:50*
%MOMM*%
%LPD*%
G01*
G04 APERTURE LIST*
G04 Aperture macros list*
%AMRoundRect*
0 Rectangle with rounded corners*
0 $1 Rounding radius*
0 $2 $3 $4 $5 $6 $7 $8 $9 X,Y pos of 4 corners*
0 Add a 4 corners polygon primitive as box body*
4,1,4,$2,$3,$4,$5,$6,$7,$8,$9,$2,$3,0*
0 Add four circle primitives for the rounded corners*
1,1,$1+$1,$2,$3*
1,1,$1+$1,$4,$5*
1,1,$1+$1,$6,$7*
1,1,$1+$1,$8,$9*
0 Add four rect primitives between the rounded corners*
20,1,$1+$1,$2,$3,$4,$5,0*
20,1,$1+$1,$4,$5,$6,$7,0*
20,1,$1+$1,$6,$7,$8,$9,0*
20,1,$1+$1,$8,$9,$2,$3,0*%
G04 Aperture macros list end*
%TA.AperFunction,ComponentPad*%
%ADD10R,1.700000X1.700000*%
%TD*%
%TA.AperFunction,ComponentPad*%
%ADD11O,1.700000X1.700000*%
%TD*%
%TA.AperFunction,ComponentPad*%
%ADD12O,2.100000X1.000000*%
%TD*%
%TA.AperFunction,ComponentPad*%
%ADD13RoundRect,0.250000X0.650000X-0.250000X0.650000X0.250000X-0.650000X0.250000X-0.650000X-0.250000X0*%
%TD*%
%TA.AperFunction,ComponentPad*%
%ADD14C,2.000000*%
%TD*%
%TA.AperFunction,ComponentPad*%
%ADD15RoundRect,0.250000X-0.625000X0.350000X-0.625000X-0.350000X0.625000X-0.350000X0.625000X0.350000X0*%
%TD*%
%TA.AperFunction,ComponentPad*%
%ADD16O,1.750000X1.200000*%
%TD*%
%TA.AperFunction,SMDPad,CuDef*%
%ADD17RoundRect,0.140000X0.140000X0.170000X-0.140000X0.170000X-0.140000X-0.170000X0.140000X-0.170000X0*%
%TD*%
%TA.AperFunction,SMDPad,CuDef*%
%ADD18RoundRect,0.135000X0.135000X0.185000X-0.135000X0.185000X-0.135000X-0.185000X0.135000X-0.185000X0*%
%TD*%
%TA.AperFunction,SMDPad,CuDef*%
%ADD19RoundRect,0.140000X-0.140000X-0.170000X0.140000X-0.170000X0.140000X0.170000X-0.140000X0.170000X0*%
%TD*%
%TA.AperFunction,SMDPad,CuDef*%
%ADD20RoundRect,0.135000X-0.185000X0.135000X-0.185000X-0.135000X0.185000X-0.135000X0.185000X0.135000X0*%
%TD*%
%TA.AperFunction,SMDPad,CuDef*%
%ADD21RoundRect,0.135000X0.185000X-0.135000X0.185000X0.135000X-0.185000X0.135000X-0.185000X-0.135000X0*%
%TD*%
%TA.AperFunction,SMDPad,CuDef*%
%ADD22RoundRect,0.040000X-0.380000X-0.160000X0.380000X-0.160000X0.380000X0.160000X-0.380000X0.160000X0*%
%TD*%
%TA.AperFunction,SMDPad,CuDef*%
%ADD23RoundRect,0.040000X0.380000X0.160000X-0.380000X0.160000X-0.380000X-0.160000X0.380000X-0.160000X0*%
%TD*%
%TA.AperFunction,ViaPad*%
%ADD24C,0.400000*%
%TD*%
%TA.AperFunction,Conductor*%
%ADD25C,0.250000*%
%TD*%
G04 APERTURE END LIST*
D10*
%TO.P,U4,1,GND*%
%TO.N,GND*%
X132200000Y-64500000D03*
D11*
%TO.P,U4,2,VCC_IN*%
%TO.N,+3V3*%
X134740000Y-64500000D03*
%TO.P,U4,3,SCL*%
%TO.N,/SCL*%
X137280000Y-64500000D03*
%TO.P,U4,4,SDA*%
%TO.N,/SDA*%
X139820000Y-64500000D03*
%TD*%
D12*
%TO.P,USB4105-GF-A1,S1,SHELL_GND*%
%TO.N,GND*%
X152982500Y-63320000D03*
%TO.P,USB4105-GF-A1,S2,SHELL_GND*%
X152982500Y-54680000D03*
D13*
%TO.P,USB4105-GF-A1,S3,SHELL_GND*%
X157162500Y-63320000D03*
%TO.P,USB4105-GF-A1,S4,SHELL_GND*%
X157162500Y-54680000D03*
%TD*%
D14*
%TO.P,TP1,1,1*%
%TO.N,Net-(U3-ST)*%
X127500000Y-64000000D03*
%TD*%
D15*
%TO.P,BT1,1,+*%
%TO.N,Net-(BT1-+)*%
X116450000Y-56000000D03*
D16*
%TO.P,BT1,2,-*%
%TO.N,GND*%
X116450000Y-58000000D03*
%TD*%
D17*
%TO.P,C12,1*%
%TO.N,GND*%
X139480000Y-58000000D03*
%TO.P,C12,2*%
%TO.N,/VLED*%
X138520000Y-58000000D03*
%TD*%
D18*
%TO.P,R9,1*%
%TO.N,+3V3*%
X139510000Y-61500000D03*
%TO.P,R9,2*%
%TO.N,Net-(U6-~{INT})*%
X138490000Y-61500000D03*
%TD*%
D19*
%TO.P,C13,1*%
%TO.N,/VLED*%
X138520000Y-56500000D03*
%TO.P,C13,2*%
%TO.N,GND*%
X139480000Y-56500000D03*
%TD*%
D20*
%TO.P,R14,1*%
%TO.N,+3V3*%
X133500000Y-57990000D03*
%TO.P,R14,2*%
%TO.N,/SDA*%
X133500000Y-59010000D03*
%TD*%
D21*
%TO.P,R8,1*%
%TO.N,+3V3*%
X133500000Y-61010000D03*
%TO.P,R8,2*%
%TO.N,/SCL*%
X133500000Y-59990000D03*
%TD*%
D17*
%TO.P,C14,1*%
%TO.N,GND*%
X139480000Y-58970000D03*
%TO.P,C14,2*%
%TO.N,+1.8V*%
X138520000Y-58970000D03*
%TD*%
D22*
%TO.P,U6,1,NC*%
%TO.N,unconnected-(U6-NC-Pad1)*%
X134805000Y-61400000D03*
%TO.P,U6,2,SCL*%
%TO.N,/SCL*%
X134805000Y-60600000D03*
%TO.P,U6,3,SDA*%
%TO.N,/SDA*%
X134805000Y-59800000D03*
%TO.P,U6,4,PGND*%
%TO.N,GND*%
X134805000Y-59000000D03*
%TO.P,U6,5,NC*%
%TO.N,unconnected-(U6-NC-Pad5)*%
X134805000Y-58200000D03*
%TO.P,U6,6,NC*%
%TO.N,unconnected-(U6-NC-Pad6)*%
X134805000Y-57400000D03*
%TO.P,U6,7,NC*%
%TO.N,unconnected-(U6-NC-Pad7)*%
X134805000Y-56600000D03*
D23*
%TO.P,U6,8,NC*%
%TO.N,unconnected-(U6-NC-Pad8)*%
X137195000Y-56600000D03*
%TO.P,U6,9,VLED+*%
%TO.N,/VLED*%
X137195000Y-57400000D03*
%TO.P,U6,10,VLED+*%
X137195000Y-58200000D03*
%TO.P,U6,11,VDD*%
%TO.N,+1.8V*%
X137195000Y-59000000D03*
%TO.P,U6,12,GND*%
%TO.N,GND*%
X137195000Y-59800000D03*
%TO.P,U6,13,~{INT}*%
%TO.N,Net-(U6-~{INT})*%
X137195000Y-60600000D03*
%TO.P,U6,14,NC*%
%TO.N,unconnected-(U6-NC-Pad14)*%
X137195000Y-61400000D03*
%TD*%
D19*
%TO.P,C15,1*%
%TO.N,+1.8V*%
X138520000Y-59970000D03*
%TO.P,C15,2*%
%TO.N,GND*%
X139480000Y-59970000D03*
%TD*%
D24*
%TO.N,+3V3*%
X144000000Y-65500000D03*
X120500000Y-52000000D03*
X132510000Y-57990000D03*
X153000000Y-48500000D03*
X147000000Y-58000000D03*
X132500000Y-61000000D03*
X119000000Y-52000000D03*
%TO.N,/SCL*%
X130000000Y-51500000D03*
%TO.N,Net-(D1-K)*%
X119000000Y-53000000D03*
X122000000Y-53000000D03*
%TO.N,+1.8V*%
X140500000Y-60500000D03*
%TO.N,+5V*%
X127000000Y-49500000D03*
X144000000Y-54500000D03*
%TO.N,/SDA*%
X130000000Y-50500000D03*
%TO.N,Net-(BT1-+)*%
X131500000Y-68500000D03*
X137500000Y-69000000D03*
%TO.N,/VLED*%
X148500000Y-55000000D03*
%TO.N,/Boot*%
X141000000Y-42500000D03*
X144000000Y-42000000D03*
%TO.N,GND*%
X129500000Y-56000000D03*
X120000000Y-44000000D03*
X119500000Y-44000000D03*
X151000000Y-56000000D03*
X119500000Y-43500000D03*
X150500000Y-58500000D03*
X119000000Y-49000000D03*
X125000000Y-54000000D03*
X125000000Y-54500000D03*
X119500000Y-48500000D03*
X119500000Y-49000000D03*
X151500000Y-48500000D03*
X152000000Y-48500000D03*
X120000000Y-43500000D03*
X125500000Y-54500000D03*
X129500000Y-55500000D03*
X125500000Y-54000000D03*
X154000000Y-47500000D03*
X151000000Y-58500000D03*
X150500000Y-56000000D03*
X154500000Y-47500000D03*
X119000000Y-48500000D03*
%TD*%
D25*
%TO.N,+3V3*%
X119000000Y-52000000D02*
X119500000Y-52000000D01*
X147500000Y-58000000D02*
X147000000Y-58000000D01*
X132500000Y-61000000D02*
X132510000Y-61010000D01*
X151000000Y-50500000D02*
X151000000Y-53500000D01*
X144000000Y-63500000D02*
X144000000Y-65500000D01*
X148975000Y-55525000D02*
X148611396Y-55525000D01*
X133500000Y-61010000D02*
X132500000Y-61000000D01*
X139510000Y-61500000D02*
X142000000Y-61500000D01*
X148611396Y-55525000D02*
X148500000Y-55636396D01*
X119500000Y-52000000D02*
X120500000Y-52000000D01*
X148500000Y-55636396D02*
X148500000Y-57000000D01*
X151000000Y-53500000D02*
X148975000Y-55525000D01*
X148500000Y-57000000D02*
X147500000Y-58000000D01*
X142000000Y-61500000D02*
X144000000Y-63500000D01*
X133500000Y-57990000D02*
X132510000Y-57990000D01*
X151000000Y-50500000D02*
X153000000Y-48500000D01*
%TO.N,/SCL*%
X136000000Y-63220000D02*
X136000000Y-61375000D01*
X137280000Y-64500000D02*
X136000000Y-63220000D01*
X133500000Y-59990000D02*
X132490000Y-59990000D01*
X136000000Y-61375000D02*
X135225000Y-60600000D01*
X132000000Y-53500000D02*
X130000000Y-51500000D01*
X132000000Y-56000000D02*
X132000000Y-53500000D01*
X131000000Y-57000000D02*
X132000000Y-56000000D01*
X133500000Y-59990000D02*
X134110000Y-60600000D01*
X135225000Y-60600000D02*
X134805000Y-60600000D01*
X134110000Y-60600000D02*
X134805000Y-60600000D01*
X132490000Y-59990000D02*
X131000000Y-58500000D01*
X131000000Y-58500000D02*
X131000000Y-57000000D01*
%TO.N,Net-(U6-~{INT})*%
X137590000Y-60600000D02*
X138490000Y-61500000D01*
X137195000Y-60600000D02*
X137590000Y-60600000D01*
%TO.N,Net-(D1-K)*%
X122000000Y-53000000D02*
X119000000Y-53000000D01*
%TO.N,+1.8V*%
X138520000Y-60279999D02*
X138845001Y-60605000D01*
X138490000Y-59000000D02*
X138520000Y-58970000D01*
X140395000Y-60605000D02*
X140500000Y-60500000D01*
X137195000Y-59000000D02*
X138490000Y-59000000D01*
X138845001Y-60605000D02*
X140395000Y-60605000D01*
X138520000Y-59970000D02*
X138520000Y-60279999D01*
%TO.N,+5V*%
X142000000Y-53000000D02*
X143500000Y-54500000D01*
X127000000Y-49500000D02*
X130000000Y-49500000D01*
X133500000Y-53000000D02*
X142000000Y-53000000D01*
X130000000Y-49500000D02*
X133500000Y-53000000D01*
X143500000Y-54500000D02*
X144000000Y-54500000D01*
%TO.N,/SDA*%
X131500000Y-58000000D02*
X132500000Y-59000000D01*
X133500000Y-59010000D02*
X134290000Y-59800000D01*
X132500000Y-59000000D02*
X132500000Y-59010000D01*
X134290000Y-59800000D02*
X134805000Y-59800000D01*
X132500000Y-56500000D02*
X132500000Y-53000000D01*
X139000000Y-64500000D02*
X139820000Y-64500000D01*
X131500000Y-58000000D02*
X131500000Y-57500000D01*
X136618851Y-63000000D02*
X137500000Y-63000000D01*
X136450000Y-60950000D02*
X136450000Y-62831149D01*
X131500000Y-57500000D02*
X132500000Y-56500000D01*
X133500000Y-59010000D02*
X132500000Y-59010000D01*
X136450000Y-62831149D02*
X136618851Y-63000000D01*
X135300000Y-59800000D02*
X136450000Y-60950000D01*
X132500000Y-53000000D02*
X130000000Y-50500000D01*
X134805000Y-59800000D02*
X135300000Y-59800000D01*
X137500000Y-63000000D02*
X139000000Y-64500000D01*
%TO.N,Net-(BT1-+)*%
X131500000Y-68500000D02*
X137000000Y-68500000D01*
X137000000Y-68500000D02*
X137500000Y-69000000D01*
%TO.N,/VLED*%
X137195000Y-58200000D02*
X138320000Y-58200000D01*
X138520000Y-56500000D02*
X138520000Y-56809999D01*
X138845001Y-57135000D02*
X147365000Y-57135000D01*
X137195000Y-57400000D02*
X137920000Y-57400000D01*
X138520000Y-56809999D02*
X138845001Y-57135000D01*
X147365000Y-57135000D02*
X148000000Y-56500000D01*
X138320000Y-58200000D02*
X138520000Y-58000000D01*
X148000000Y-56500000D02*
X148000000Y-55500000D01*
X138520000Y-58000000D02*
X138520000Y-56500000D01*
X148000000Y-55500000D02*
X148500000Y-55000000D01*
X137920000Y-57400000D02*
X138520000Y-58000000D01*
%TO.N,/Boot*%
X141000000Y-42500000D02*
X143500000Y-42500000D01*
X143500000Y-42500000D02*
X144000000Y-42000000D01*
%TO.N,GND*%
X134805000Y-59000000D02*
X135587702Y-59000000D01*
X135587702Y-59000000D02*
X136387702Y-59800000D01*
X136387702Y-59800000D02*
X137195000Y-59800000D01*
%TD*%
%TA.AperFunction,Conductor*%
%TO.N,+1.8V*%
G36*
X138713039Y-58739685D02*
G01*
X138758794Y-58792489D01*
X138770000Y-58844000D01*
X138770000Y-60096000D01*
X138750315Y-60163039D01*
X138703555Y-60203555D01*
X138270000Y-59770000D01*
X138270000Y-58844000D01*
X138289685Y-58776961D01*
X138342489Y-58731206D01*
X138394000Y-58720000D01*
X138646000Y-58720000D01*
X138713039Y-58739685D01*
G37*
%TD.AperFunction*%
%TD*%
%TA.AperFunction,Conductor*%
%TO.N,GND*%
G36*
X127743039Y-39019685D02*
G01*
X127788794Y-39072489D01*
X127800000Y-39124000D01*
X127800000Y-39275000D01*
X143200000Y-39275000D01*
X143200000Y-39124000D01*
X143219685Y-39056961D01*
X143272489Y-39011206D01*
X143324000Y-39000000D01*
X154999290Y-39000000D01*
X155000641Y-39000006D01*
X155213481Y-39002328D01*
X155222915Y-39002792D01*
X155647552Y-39039943D01*
X155658270Y-39041354D01*
X156077393Y-39115256D01*
X156087921Y-39117590D01*
X156499033Y-39227747D01*
X156509322Y-39230992D01*
X156909255Y-39376555D01*
X156919221Y-39380683D01*
X157304942Y-39560547D01*
X157314528Y-39565538D01*
X157683088Y-39778326D01*
X157692207Y-39784135D01*
X158040820Y-40028237D01*
X158049402Y-40034822D01*
X158375420Y-40308383D01*
X158383395Y-40315692D01*
X158684307Y-40616604D01*
X158691616Y-40624579D01*
X158965177Y-40950597D01*
X158971762Y-40959179D01*
X159215864Y-41307792D01*
X159221676Y-41316916D01*
X159434459Y-41685467D01*
X159439454Y-41695062D01*
X159488154Y-41799500D01*
X159596604Y-42032072D01*
X159619310Y-42080764D01*
X159623450Y-42090759D01*
X159769003Y-42490664D01*
X159772256Y-42500980D01*
X159882405Y-42912061D01*
X159884746Y-42922623D01*
X159958644Y-43341725D01*
X159960056Y-43352450D01*
X159997206Y-43777073D01*
X159997671Y-43786527D01*
X159999993Y-43999357D01*
X160000000Y-44000710D01*
X160000000Y-69999289D01*
X159999993Y-70000642D01*
X159997671Y-70213472D01*
X159997206Y-70222926D01*
X159960056Y-70647549D01*
X159958644Y-70658274D01*
X159884746Y-71077376D01*
X159882405Y-71087938D01*
X159772256Y-71499019D01*
X159769003Y-71509335D01*
X159623450Y-71909240D01*
X159619310Y-71919235D01*
X159439454Y-72304937D01*
X159434459Y-72314532D01*
X159221676Y-72683083D01*
X159215864Y-72692207D01*
X158971762Y-73040820D01*
X158965177Y-73049402D01*
X158691616Y-73375420D01*
X158684307Y-73383395D01*
X158383395Y-73684307D01*
X158375420Y-73691616D01*
X158049402Y-73965177D01*
X158040820Y-73971762D01*
X157692207Y-74215864D01*
X157683083Y-74221676D01*
X157314532Y-74434459D01*
X157304937Y-74439454D01*
X156919235Y-74619310D01*
X156909240Y-74623450D01*
X156509335Y-74769003D01*
X156499019Y-74772256D01*
X156087938Y-74882405D01*
X156077376Y-74884746D01*
X155658274Y-74958644D01*
X155647549Y-74960056D01*
X155222926Y-74997206D01*
X155213472Y-74997671D01*
X155007701Y-74999916D01*
X155000640Y-74999993D01*
X154999290Y-75000000D01*
X116002285Y-75000000D01*
X115997720Y-74999916D01*
X115035530Y-74964465D01*
X114822083Y-74962206D01*
X114812589Y-74961741D01*
X114387974Y-74924594D01*
X114377249Y-74923182D01*
X113958137Y-74849284D01*
X113947576Y-74846943D01*
X113536492Y-74736795D01*
X113526175Y-74733542D01*
X113126257Y-74587986D01*
X113116263Y-74583846D01*
X112730562Y-74403992D01*
X112720966Y-74398997D01*
X112352396Y-74186204D01*
X112343290Y-74180404D01*
X112202756Y-74082001D01*
X111994657Y-73936287D01*
X111986076Y-73929702D01*
X111660063Y-73656147D01*
X111652087Y-73648838D01*
X111351161Y-73347912D01*
X111343852Y-73339936D01*
X111070297Y-73013923D01*
X111063712Y-73005342D01*
X110898219Y-72768995D01*
X131999499Y-72768995D01*
X132026418Y-72904322D01*
X132026421Y-72904332D01*
X132079221Y-73031804D01*
X132079228Y-73031817D01*
X132155885Y-73146541D01*
X132155888Y-73146545D01*
X132253454Y-73244111D01*
X132253458Y-73244114D01*
X132368182Y-73320771D01*
X132368195Y-73320778D01*
X132495667Y-73373578D01*
X132495672Y-73373580D01*
X132495676Y-73373580D01*
X132495677Y-73373581D01*
X132631004Y-73400500D01*
X132631007Y-73400500D01*
X132768995Y-73400500D01*
X132860041Y-73382389D01*
X132904328Y-73373580D01*
X133031811Y-73320775D01*
X133146542Y-73244114D01*
X133244114Y-73146542D01*
X133320775Y-73031811D01*
X133373580Y-72904328D01*
X133400500Y-72768995D01*
X138799499Y-72768995D01*
X138826418Y-72904322D01*
X138826421Y-72904332D01*
X138879221Y-73031804D01*
X138879228Y-73031817D01*
X138955885Y-73146541D01*
X138955888Y-73146545D01*
X139053454Y-73244111D01*
X139053458Y-73244114D01*
X139168182Y-73320771D01*
X139168195Y-73320778D01*
X139295667Y-73373578D01*
X139295672Y-73373580D01*
X139295676Y-73373580D01*
X139295677Y-73373581D01*
X139431004Y-73400500D01*
X139431007Y-73400500D01*
X139568995Y-73400500D01*
X139660041Y-73382389D01*
X139704328Y-73373580D01*
X139831811Y-73320775D01*
X139946542Y-73244114D01*
X140044114Y-73146542D01*
X140120775Y-73031811D01*
X140173580Y-72904328D01*
X140200500Y-72768993D01*
X140200500Y-72631007D01*
X140200500Y-72631004D01*
X140173581Y-72495677D01*
X140173580Y-72495676D01*
X140173580Y-72495672D01*
X140173578Y-72495667D01*
X140120778Y-72368195D01*
X140120771Y-72368182D01*
X140044114Y-72253458D01*
X140044111Y-72253454D01*
X139946545Y-72155888D01*
X139946541Y-72155885D01*
X139831817Y-72079228D01*
X139831804Y-72079221D01*
X139704332Y-72026421D01*
X139704322Y-72026418D01*
X139568995Y-71999500D01*
X139568993Y-71999500D01*
X139431007Y-71999500D01*
X139431005Y-71999500D01*
X139295677Y-72026418D01*
X139295667Y-72026421D01*
X139168195Y-72079221D01*
X139168182Y-72079228D01*
X139053458Y-72155885D01*
X139053454Y-72155888D01*
X138955888Y-72253454D01*
X138955885Y-72253458D01*
X138879228Y-72368182D01*
X138879221Y-72368195D01*
X138826421Y-72495667D01*
X138826418Y-72495677D01*
X138799500Y-72631004D01*
X138799500Y-72631007D01*
X138799500Y-72768993D01*
X138799500Y-72768995D01*
X138799499Y-72768995D01*
X133400500Y-72768995D01*
X133400500Y-72768993D01*
X133400500Y-72631007D01*
X133400500Y-72631004D01*
X133373581Y-72495677D01*
X133373580Y-72495676D01*
X133373580Y-72495672D01*
X133373578Y-72495667D01*
X133320778Y-72368195D01*
X133320771Y-72368182D01*
X133244114Y-72253458D01*
X133244111Y-72253454D01*
X133146545Y-72155888D01*
X133146541Y-72155885D01*
X133031817Y-72079228D01*
X133031804Y-72079221D01*
X132904332Y-72026421D01*
X132904322Y-72026418D01*
X132768995Y-71999500D01*
X132768993Y-71999500D01*
X132631007Y-71999500D01*
X132631005Y-71999500D01*
X132495677Y-72026418D01*
X132495667Y-72026421D01*
X132368195Y-72079221D01*
X132368182Y-72079228D01*
X132253458Y-72155885D01*
X132253454Y-72155888D01*
X132155888Y-72253454D01*
X132155885Y-72253458D01*
X132079228Y-72368182D01*
X132079221Y-72368195D01*
X132026421Y-72495667D01*
X132026418Y-72495677D01*
X131999500Y-72631004D01*
X131999500Y-72631007D01*
X131999500Y-72768993D01*
X131999500Y-72768995D01*
X131999499Y-72768995D01*
X110898219Y-72768995D01*
X110819591Y-72656703D01*
X110813798Y-72647609D01*
X110600997Y-72279025D01*
X110596007Y-72269437D01*
X110588556Y-72253458D01*
X110416148Y-71883725D01*
X110412017Y-71873753D01*
X110266457Y-71473824D01*
X110263204Y-71463507D01*
X110162572Y-71087938D01*
X110153054Y-71052417D01*
X110150715Y-71041862D01*
X110082140Y-70652942D01*
X110076816Y-70622746D01*
X110076624Y-70621288D01*
X112649500Y-70621288D01*
X112681161Y-70861785D01*
X112743947Y-71096104D01*
X112836773Y-71320205D01*
X112836776Y-71320212D01*
X112958064Y-71530289D01*
X112958066Y-71530292D01*
X112958067Y-71530293D01*
X113105733Y-71722736D01*
X113105739Y-71722743D01*
X113277256Y-71894260D01*
X113277263Y-71894266D01*
X113390321Y-71981018D01*
X113469711Y-72041936D01*
X113679788Y-72163224D01*
X113903900Y-72256054D01*
X114138211Y-72318838D01*
X114318586Y-72342584D01*
X114378711Y-72350500D01*
X114378712Y-72350500D01*
X114621289Y-72350500D01*
X114669388Y-72344167D01*
X114861789Y-72318838D01*
X115096100Y-72256054D01*
X115320212Y-72163224D01*
X115530289Y-72041936D01*
X115722738Y-71894265D01*
X115894265Y-71722738D01*
X116041936Y-71530289D01*
X116163224Y-71320212D01*
X116256054Y-71096100D01*
X116318838Y-70861789D01*
X116350500Y-70621288D01*
X153649500Y-70621288D01*
X153681161Y-70861785D01*
X153743947Y-71096104D01*
X153836773Y-71320205D01*
X153836776Y-71320212D01*
X153958064Y-71530289D01*
X153958066Y-71530292D01*
X153958067Y-71530293D01*
X154105733Y-71722736D01*
X154105739Y-71722743D01*
X154277256Y-71894260D01*
X154277263Y-71894266D01*
X154390321Y-71981018D01*
X154469711Y-72041936D01*
X154679788Y-72163224D01*
X154903900Y-72256054D01*
X155138211Y-72318838D01*
X155318586Y-72342584D01*
X155378711Y-72350500D01*
X155378712Y-72350500D01*
X155621289Y-72350500D01*
X155669388Y-72344167D01*
X155861789Y-72318838D01*
X156096100Y-72256054D01*
X156320212Y-72163224D01*
X156530289Y-72041936D01*
X156722738Y-71894265D01*
X156894265Y-71722738D01*
X157041936Y-71530289D01*
X157163224Y-71320212D01*
X157256054Y-71096100D01*
X157318838Y-70861789D01*
X157350500Y-70621288D01*
X157350500Y-70378712D01*
X157318838Y-70138211D01*
X157256054Y-69903900D01*
X157163224Y-69679788D01*
X157041936Y-69469711D01*
X156894265Y-69277262D01*
X156894260Y-69277256D01*
X156722743Y-69105739D01*
X156722736Y-69105733D01*
X156530293Y-68958067D01*
X156530292Y-68958066D01*
X156530289Y-68958064D01*
X156320212Y-68836776D01*
X156320205Y-68836773D01*
X156096104Y-68743947D01*
X155861785Y-68681161D01*
X155621289Y-68649500D01*
X155621288Y-68649500D01*
X155378712Y-68649500D01*
X155378711Y-68649500D01*
X155138214Y-68681161D01*
X154903895Y-68743947D01*
X154679794Y-68836773D01*
X154679785Y-68836777D01*
X154469706Y-68958067D01*
X154277263Y-69105733D01*
X154277256Y-69105739D01*
X154105739Y-69277256D01*
X154105733Y-69277263D01*
X153958067Y-69469706D01*
X153836777Y-69679785D01*
X153836773Y-69679794D01*
X153743947Y-69903895D01*
X153681161Y-70138214D01*
X153649500Y-70378711D01*
X153649500Y-70621288D01*
X116350500Y-70621288D01*
X116350500Y-70378712D01*
X116318838Y-70138211D01*
X116256054Y-69903900D01*
X116163224Y-69679788D01*
X116041936Y-69469711D01*
X115894265Y-69277262D01*
X115894260Y-69277256D01*
X115722743Y-69105739D01*
X115722736Y-69105733D01*
X115530293Y-68958067D01*
X115530292Y-68958066D01*
X115530289Y-68958064D01*
X115320212Y-68836776D01*
X115320205Y-68836773D01*
X115096104Y-68743947D01*
X114861785Y-68681161D01*
X114621289Y-68649500D01*
X114621288Y-68649500D01*
X114378712Y-68649500D01*
X114378711Y-68649500D01*
X114138214Y-68681161D01*
X113903895Y-68743947D01*
X113679794Y-68836773D01*
X113679785Y-68836777D01*
X113469706Y-68958067D01*
X113277263Y-69105733D01*
X113277256Y-69105739D01*
X113105739Y-69277256D01*
X113105733Y-69277263D01*
X112958067Y-69469706D01*
X112836777Y-69679785D01*
X112836773Y-69679794D01*
X112743947Y-69903895D01*
X112681161Y-70138214D01*
X112649500Y-70378711D01*
X112649500Y-70621288D01*
X110076624Y-70621288D01*
X110075405Y-70612025D01*
X110054994Y-70378711D01*
X110038257Y-70187392D01*
X110037793Y-70177932D01*
X110035539Y-69965003D01*
X110035533Y-69963912D01*
X110034593Y-69277263D01*
X110033529Y-68500000D01*
X130794355Y-68500000D01*
X130814859Y-68668869D01*
X130814860Y-68668874D01*
X130875182Y-68827931D01*
X130937475Y-68918177D01*
X130971817Y-68967929D01*
X131077505Y-69061560D01*
X131099150Y-69080736D01*
X131249773Y-69159789D01*
X131249775Y-69159790D01*
X131414944Y-69200500D01*
X131585056Y-69200500D01*
X131750225Y-69159790D01*
X131788495Y-69139703D01*
X131846121Y-69125500D01*
X136689548Y-69125500D01*
X136756587Y-69145185D01*
X136777229Y-69161819D01*
X136814718Y-69199308D01*
X136842979Y-69243018D01*
X136875182Y-69327930D01*
X136875182Y-69327931D01*
X136937475Y-69418177D01*
X136971817Y-69467929D01*
X137077505Y-69561560D01*
X137099150Y-69580736D01*
X137249773Y-69659789D01*
X137249775Y-69659790D01*
X137414944Y-69700500D01*
X137585056Y-69700500D01*
X137750225Y-69659790D01*
X137829692Y-69618081D01*
X137900849Y-69580736D01*
X137900850Y-69580734D01*
X137900852Y-69580734D01*
X138028183Y-69467929D01*
X138124818Y-69327930D01*
X138185140Y-69168872D01*
X138205645Y-69000000D01*
X138185140Y-68831128D01*
X138124818Y-68672070D01*
X138122608Y-68668869D01*
X138090476Y-68622318D01*
X138028183Y-68532071D01*
X137900852Y-68419266D01*
X137900849Y-68419263D01*
X137750228Y-68340211D01*
X137750225Y-68340210D01*
X137750038Y-68340164D01*
X137749903Y-68340087D01*
X137743216Y-68337552D01*
X137743602Y-68336533D01*
X137692040Y-68307450D01*
X137490198Y-68105608D01*
X137490178Y-68105586D01*
X137398733Y-68014141D01*
X137347509Y-67979915D01*
X137296287Y-67945689D01*
X137296286Y-67945688D01*
X137296283Y-67945686D01*
X137296280Y-67945685D01*
X137215792Y-67912347D01*
X137182453Y-67898537D01*
X137172427Y-67896543D01*
X137122029Y-67886518D01*
X137061610Y-67874500D01*
X137061607Y-67874500D01*
X137061606Y-67874500D01*
X131846121Y-67874500D01*
X131788495Y-67860296D01*
X131768314Y-67849704D01*
X131750224Y-67840209D01*
X131585056Y-67799500D01*
X131414944Y-67799500D01*
X131249773Y-67840210D01*
X131099150Y-67919263D01*
X130971816Y-68032072D01*
X130875182Y-68172068D01*
X130814860Y-68331125D01*
X130814859Y-68331130D01*
X130794355Y-68500000D01*
X110033529Y-68500000D01*
X110027371Y-64000005D01*
X125994357Y-64000005D01*
X126014890Y-64247812D01*
X126014892Y-64247824D01*
X126075936Y-64488881D01*
X126175826Y-64716606D01*
X126311833Y-64924782D01*
X126311836Y-64924785D01*
X126480256Y-65107738D01*
X126676491Y-65260474D01*
X126895190Y-65378828D01*
X127114141Y-65453994D01*
X127123980Y-65457372D01*
X127130386Y-65459571D01*
X127375665Y-65500500D01*
X127624335Y-65500500D01*
X127869614Y-65459571D01*
X128104810Y-65378828D01*
X128323509Y-65260474D01*
X128519744Y-65107738D01*
X128688164Y-64924785D01*
X128824173Y-64716607D01*
X128924063Y-64488881D01*
X128985108Y-64247821D01*
X128985109Y-64247812D01*
X129005643Y-64000005D01*
X129005643Y-63999994D01*
X128985109Y-63752187D01*
X128985107Y-63752175D01*
X128924063Y-63511118D01*
X128824173Y-63283393D01*
X128688166Y-63075217D01*
X128631942Y-63014142D01*
X128519744Y-62892262D01*
X128323509Y-62739526D01*
X128323507Y-62739525D01*
X128323506Y-62739524D01*
X128104811Y-62621172D01*
X128104802Y-62621169D01*
X127869616Y-62540429D01*
X127624335Y-62499500D01*
X127375665Y-62499500D01*
X127130383Y-62540429D01*
X126895197Y-62621169D01*
X126895188Y-62621172D01*
X126676493Y-62739524D01*
X126480257Y-62892261D01*
X126311833Y-63075217D01*
X126175826Y-63283393D01*
X126075936Y-63511118D01*
X126014892Y-63752175D01*
X126014890Y-63752187D01*
X125994357Y-63999994D01*
X125994357Y-64000005D01*
X110027371Y-64000005D01*
X110016970Y-56400001D01*
X115074500Y-56400001D01*
X115074501Y-56400019D01*
X115085000Y-56502796D01*
X115085001Y-56502799D01*
X115140185Y-56669331D01*
X115140187Y-56669336D01*
X115150157Y-56685500D01*
X115232288Y-56818656D01*
X115356344Y-56942712D01*
X115420981Y-56982580D01*
X115467705Y-57034526D01*
X115478928Y-57103489D01*
X115451085Y-57167571D01*
X115443566Y-57175799D01*
X115335964Y-57283401D01*
X115234195Y-57423475D01*
X115155591Y-57577744D01*
X115102085Y-57742415D01*
X115100884Y-57749999D01*
X115100885Y-57750000D01*
X116169670Y-57750000D01*
X116149925Y-57769745D01*
X116100556Y-57855255D01*
X116075000Y-57950630D01*
X116075000Y-58049370D01*
X116100556Y-58144745D01*
X116149925Y-58230255D01*
X116169670Y-58250000D01*
X115100885Y-58250000D01*
X115102085Y-58257584D01*
X115155591Y-58422255D01*
X115234195Y-58576524D01*
X115335967Y-58716602D01*
X115458397Y-58839032D01*
X115598475Y-58940804D01*
X115752742Y-59019408D01*
X115917415Y-59072914D01*
X116088429Y-59100000D01*
X116200000Y-59100000D01*
X116200000Y-58280330D01*
X116219745Y-58300075D01*
X116305255Y-58349444D01*
X116400630Y-58375000D01*
X116499370Y-58375000D01*
X116594745Y-58349444D01*
X116680255Y-58300075D01*
X116700000Y-58280330D01*
X116700000Y-59100000D01*
X116811571Y-59100000D01*
X116982584Y-59072914D01*
X117147257Y-59019408D01*
X117301524Y-58940804D01*
X117441602Y-58839032D01*
X117564032Y-58716602D01*
X117665804Y-58576524D01*
X117744408Y-58422255D01*
X117797914Y-58257584D01*
X117799115Y-58250000D01*
X116730330Y-58250000D01*
X116750075Y-58230255D01*
X116799444Y-58144745D01*
X116825000Y-58049370D01*
X116825000Y-57950630D01*
X116799444Y-57855255D01*
X116750075Y-57769745D01*
X116730330Y-57750000D01*
X117799115Y-57750000D01*
X117799115Y-57749999D01*
X117797914Y-57742415D01*
X117744408Y-57577744D01*
X117665804Y-57423475D01*
X117564032Y-57283397D01*
X117456434Y-57175799D01*
X117422949Y-57114476D01*
X117427933Y-57044784D01*
X117469805Y-56988851D01*
X117478995Y-56982594D01*
X117543656Y-56942712D01*
X117667712Y-56818656D01*
X117759814Y-56669334D01*
X117814999Y-56502797D01*
X117825500Y-56400009D01*
X117825499Y-55599992D01*
X117822448Y-55570129D01*
X117814999Y-55497203D01*
X117814998Y-55497200D01*
X117759814Y-55330666D01*
X117667712Y-55181344D01*
X117543656Y-55057288D01*
X117450888Y-55000069D01*
X117394336Y-54965187D01*
X117394331Y-54965185D01*
X117377344Y-54959556D01*
X117227797Y-54910001D01*
X117227795Y-54910000D01*
X117125010Y-54899500D01*
X115774998Y-54899500D01*
X115774981Y-54899501D01*
X115672203Y-54910000D01*
X115672200Y-54910001D01*
X115505668Y-54965185D01*
X115505663Y-54965187D01*
X115356342Y-55057289D01*
X115232289Y-55181342D01*
X115140187Y-55330663D01*
X115140186Y-55330666D01*
X115085001Y-55497203D01*
X115085001Y-55497204D01*
X115085000Y-55497204D01*
X115074500Y-55599983D01*
X115074500Y-56400001D01*
X110016970Y-56400001D01*
X110012317Y-53000000D01*
X118294355Y-53000000D01*
X118314859Y-53168869D01*
X118314860Y-53168874D01*
X118375182Y-53327931D01*
X118437475Y-53418177D01*
X118471817Y-53467929D01*
X118577505Y-53561560D01*
X118599150Y-53580736D01*
X118749773Y-53659789D01*
X118749775Y-53659790D01*
X118914944Y-53700500D01*
X119085056Y-53700500D01*
X119250225Y-53659790D01*
X119288495Y-53639703D01*
X119346121Y-53625500D01*
X121653879Y-53625500D01*
X121711504Y-53639703D01*
X121749775Y-53659790D01*
X121914944Y-53700500D01*
X122085056Y-53700500D01*
X122250225Y-53659790D01*
X122361359Y-53601462D01*
X122400849Y-53580736D01*
X122400850Y-53580734D01*
X122400852Y-53580734D01*
X122528183Y-53467929D01*
X122624818Y-53327930D01*
X122685140Y-53168872D01*
X122705645Y-53000000D01*
X122685140Y-52831128D01*
X122624818Y-52672070D01*
X122528183Y-52532071D01*
X122400852Y-52419266D01*
X122400849Y-52419263D01*
X122250226Y-52340210D01*
X122085056Y-52299500D01*
X121914944Y-52299500D01*
X121749775Y-52340209D01*
X121724762Y-52353337D01*
X121711504Y-52360296D01*
X121653879Y-52374500D01*
X121286801Y-52374500D01*
X121219762Y-52354815D01*
X121174007Y-52302011D01*
X121164063Y-52232853D01*
X121170859Y-52206530D01*
X121185138Y-52168877D01*
X121185139Y-52168874D01*
X121185140Y-52168872D01*
X121205645Y-52000000D01*
X121185140Y-51831128D01*
X121124818Y-51672070D01*
X121122608Y-51668869D01*
X121090476Y-51622318D01*
X121028183Y-51532071D01*
X120900852Y-51419266D01*
X120900849Y-51419263D01*
X120750226Y-51340210D01*
X120585056Y-51299500D01*
X120414944Y-51299500D01*
X120249775Y-51340209D01*
X120224762Y-51353337D01*
X120211504Y-51360296D01*
X120153879Y-51374500D01*
X119346121Y-51374500D01*
X119288495Y-51360296D01*
X119268314Y-51349704D01*
X119250224Y-51340209D01*
X119085056Y-51299500D01*
X118914944Y-51299500D01*
X118749773Y-51340210D01*
X118599150Y-51419263D01*
X118471816Y-51532072D01*
X118375182Y-51672068D01*
X118314860Y-51831125D01*
X118314859Y-51831130D01*
X118294355Y-52000000D01*
X118314859Y-52168869D01*
X118314860Y-52168874D01*
X118375182Y-52327931D01*
X118445332Y-52429560D01*
X118467215Y-52495915D01*
X118449750Y-52563566D01*
X118445332Y-52570440D01*
X118375183Y-52672068D01*
X118375182Y-52672068D01*
X118314860Y-52831125D01*
X118314859Y-52831130D01*
X118294355Y-53000000D01*
X110012317Y-53000000D01*
X110007527Y-49500000D01*
X126294355Y-49500000D01*
X126314859Y-49668869D01*
X126314860Y-49668874D01*
X126375182Y-49827931D01*
X126437475Y-49918177D01*
X126471817Y-49967929D01*
X126577505Y-50061560D01*
X126599150Y-50080736D01*
X126735866Y-50152490D01*
X126749775Y-50159790D01*
X126914944Y-50200500D01*
X127085056Y-50200500D01*
X127250225Y-50159790D01*
X127288495Y-50139703D01*
X127346121Y-50125500D01*
X129213199Y-50125500D01*
X129280238Y-50145185D01*
X129325993Y-50197989D01*
X129335937Y-50267147D01*
X129329141Y-50293470D01*
X129314861Y-50331122D01*
X129314859Y-50331130D01*
X129294355Y-50500000D01*
X129314859Y-50668869D01*
X129314860Y-50668874D01*
X129375182Y-50827931D01*
X129445332Y-50929560D01*
X129467215Y-50995915D01*
X129449750Y-51063566D01*
X129445332Y-51070440D01*
X129375183Y-51172068D01*
X129375182Y-51172068D01*
X129314860Y-51331125D01*
X129314859Y-51331130D01*
X129294355Y-51500000D01*
X129314859Y-51668869D01*
X129314860Y-51668874D01*
X129375182Y-51827931D01*
X129437475Y-51918177D01*
X129471817Y-51967929D01*
X129599148Y-52080734D01*
X129749775Y-52159790D01*
X129749945Y-52159832D01*
X129750068Y-52159901D01*
X129756791Y-52162451D01*
X129756403Y-52163473D01*
X129807959Y-52192549D01*
X131338181Y-53722771D01*
X131371666Y-53784094D01*
X131374500Y-53810452D01*
X131374500Y-55689547D01*
X131354815Y-55756586D01*
X131338181Y-55777228D01*
X130601269Y-56514140D01*
X130601267Y-56514142D01*
X130557704Y-56557704D01*
X130514142Y-56601266D01*
X130496581Y-56627549D01*
X130445689Y-56703712D01*
X130445687Y-56703716D01*
X130420535Y-56764437D01*
X130420536Y-56764438D01*
X130398536Y-56817549D01*
X130398535Y-56817555D01*
X130374500Y-56938389D01*
X130374500Y-56938393D01*
X130374500Y-56938394D01*
X130374500Y-58438393D01*
X130374500Y-58561607D01*
X130376688Y-58572605D01*
X130398537Y-58682452D01*
X130406011Y-58700496D01*
X130406012Y-58700500D01*
X130406013Y-58700500D01*
X130445685Y-58796280D01*
X130445690Y-58796289D01*
X130479914Y-58847507D01*
X130479915Y-58847509D01*
X130514141Y-58898733D01*
X130605586Y-58990178D01*
X130605608Y-58990198D01*
X131971816Y-60356406D01*
X132005301Y-60417729D01*
X132000317Y-60487421D01*
X131974837Y-60524726D01*
X131976791Y-60526457D01*
X131971815Y-60532073D01*
X131875182Y-60672068D01*
X131814860Y-60831125D01*
X131814859Y-60831130D01*
X131794355Y-61000000D01*
X131814859Y-61168869D01*
X131814860Y-61168874D01*
X131875182Y-61327931D01*
X131937475Y-61418177D01*
X131971817Y-61467929D01*
X132077505Y-61561560D01*
X132099150Y-61580736D01*
X132230451Y-61649648D01*
X132249775Y-61659790D01*
X132414944Y-61700500D01*
X132585056Y-61700500D01*
X132750225Y-61659790D01*
X132781954Y-61643136D01*
X132840819Y-61628939D01*
X132852718Y-61629058D01*
X132915151Y-61648070D01*
X132915687Y-61647164D01*
X132919415Y-61649368D01*
X132919557Y-61649412D01*
X132919887Y-61649648D01*
X132950691Y-61667865D01*
X133060607Y-61732869D01*
X133085039Y-61739967D01*
X133214791Y-61777664D01*
X133214794Y-61777664D01*
X133214796Y-61777665D01*
X133250819Y-61780500D01*
X133749180Y-61780499D01*
X133785204Y-61777665D01*
X133807872Y-61771079D01*
X133877738Y-61771276D01*
X133936409Y-61809216D01*
X133945752Y-61822535D01*
X133986474Y-61876235D01*
X134039215Y-61945785D01*
X134157605Y-62035562D01*
X134157607Y-62035563D01*
X134172515Y-62041442D01*
X134295826Y-62090070D01*
X134382680Y-62100500D01*
X134382686Y-62100500D01*
X135227313Y-62100500D01*
X135227320Y-62100500D01*
X135235718Y-62099491D01*
X135304624Y-62111043D01*
X135356348Y-62158015D01*
X135374500Y-62222607D01*
X135374500Y-63111186D01*
X135354815Y-63178225D01*
X135302011Y-63223980D01*
X135232853Y-63233924D01*
X135208087Y-63227707D01*
X135203662Y-63226096D01*
X134975413Y-63164938D01*
X134975403Y-63164936D01*
X134740001Y-63144341D01*
X134739999Y-63144341D01*
X134504596Y-63164936D01*
X134504586Y-63164938D01*
X134276344Y-63226094D01*
X134276335Y-63226098D01*
X134062171Y-63325964D01*
X134062169Y-63325965D01*
X133868600Y-63461503D01*
X133746284Y-63583819D01*
X133684961Y-63617303D01*
X133615269Y-63612319D01*
X133559336Y-63570447D01*
X133542421Y-63539470D01*
X133493354Y-63407913D01*
X133493350Y-63407906D01*
X133407190Y-63292812D01*
X133407187Y-63292809D01*
X133292093Y-63206649D01*
X133292086Y-63206645D01*
X133157379Y-63156403D01*
X133157372Y-63156401D01*
X133097844Y-63150000D01*
X132450000Y-63150000D01*
X132450000Y-64066988D01*
X132392993Y-64034075D01*
X132265826Y-64000000D01*
X132134174Y-64000000D01*
X132007007Y-64034075D01*
X131950000Y-64066988D01*
X131950000Y-63150000D01*
X131302155Y-63150000D01*
X131242627Y-63156401D01*
X131242620Y-63156403D01*
X131107913Y-63206645D01*
X131107906Y-63206649D01*
X130992812Y-63292809D01*
X130992809Y-63292812D01*
X130906649Y-63407906D01*
X130906645Y-63407913D01*
X130856403Y-63542620D01*
X130856401Y-63542627D01*
X130850000Y-63602155D01*
X130850000Y-64250000D01*
X131766988Y-64250000D01*
X131734075Y-64307007D01*
X131700000Y-64434174D01*
X131700000Y-64565826D01*
X131734075Y-64692993D01*
X131766988Y-64750000D01*
X130850000Y-64750000D01*
X130850000Y-65397844D01*
X130856401Y-65457372D01*
X130856403Y-65457379D01*
X130906645Y-65592086D01*
X130906649Y-65592093D01*
X130992809Y-65707187D01*
X130992812Y-65707190D01*
X131107906Y-65793350D01*
X131107913Y-65793354D01*
X131242620Y-65843596D01*
X131242627Y-65843598D01*
X131302155Y-65849999D01*
X131302172Y-65850000D01*
X131950000Y-65850000D01*
X131950000Y-64933012D01*
X132007007Y-64965925D01*
X132134174Y-65000000D01*
X132265826Y-65000000D01*
X132392993Y-64965925D01*
X132450000Y-64933012D01*
X132450000Y-65850000D01*
X133097828Y-65850000D01*
X133097844Y-65849999D01*
X133157372Y-65843598D01*
X133157379Y-65843596D01*
X133292086Y-65793354D01*
X133292093Y-65793350D01*
X133407187Y-65707190D01*
X133407190Y-65707187D01*
X133493350Y-65592093D01*
X133493354Y-65592086D01*
X133542422Y-65460529D01*
X133584293Y-65404595D01*
X133649757Y-65380178D01*
X133718030Y-65395030D01*
X133746285Y-65416181D01*
X133868599Y-65538495D01*
X133945135Y-65592086D01*
X134062165Y-65674032D01*
X134062167Y-65674033D01*
X134062170Y-65674035D01*
X134276337Y-65773903D01*
X134504592Y-65835063D01*
X134675319Y-65850000D01*
X134739999Y-65855659D01*
X134740000Y-65855659D01*
X134740001Y-65855659D01*
X134804681Y-65850000D01*
X134975408Y-65835063D01*
X135203663Y-65773903D01*
X135417830Y-65674035D01*
X135611401Y-65538495D01*
X135778495Y-65371401D01*
X135908425Y-65185842D01*
X135963002Y-65142217D01*
X136032500Y-65135023D01*
X136094855Y-65166546D01*
X136111575Y-65185842D01*
X136241500Y-65371395D01*
X136241505Y-65371401D01*
X136408599Y-65538495D01*
X136485135Y-65592086D01*
X136602165Y-65674032D01*
X136602167Y-65674033D01*
X136602170Y-65674035D01*
X136816337Y-65773903D01*
X137044592Y-65835063D01*
X137215319Y-65850000D01*
X137279999Y-65855659D01*
X137280000Y-65855659D01*
X137280001Y-65855659D01*
X137344681Y-65850000D01*
X137515408Y-65835063D01*
X137743663Y-65773903D01*
X137957830Y-65674035D01*
X138151401Y-65538495D01*
X138318495Y-65371401D01*
X138448425Y-65185842D01*
X138503002Y-65142217D01*
X138572500Y-65135023D01*
X138634855Y-65166546D01*
X138651575Y-65185842D01*
X138781500Y-65371395D01*
X138781505Y-65371401D01*
X138948599Y-65538495D01*
X139025135Y-65592086D01*
X139142165Y-65674032D01*
X139142167Y-65674033D01*
X139142170Y-65674035D01*
X139356337Y-65773903D01*
X139584592Y-65835063D01*
X139755319Y-65850000D01*
X139819999Y-65855659D01*
X139820000Y-65855659D01*
X139820001Y-65855659D01*
X139884681Y-65850000D01*
X140055408Y-65835063D01*
X140283663Y-65773903D01*
X140497830Y-65674035D01*
X140691401Y-65538495D01*
X140858495Y-65371401D01*
X140994035Y-65177830D01*
X141093903Y-64963663D01*
X141155063Y-64735408D01*
X141175659Y-64500000D01*
X141155063Y-64264592D01*
X141093903Y-64036337D01*
X140994035Y-63822171D01*
X140985830Y-63810452D01*
X140858494Y-63628597D01*
X140691402Y-63461506D01*
X140691395Y-63461501D01*
X140497834Y-63325967D01*
X140497830Y-63325965D01*
X140402702Y-63281606D01*
X140283663Y-63226097D01*
X140283659Y-63226096D01*
X140283655Y-63226094D01*
X140055413Y-63164938D01*
X140055403Y-63164936D01*
X139820001Y-63144341D01*
X139819999Y-63144341D01*
X139584596Y-63164936D01*
X139584586Y-63164938D01*
X139356344Y-63226094D01*
X139356335Y-63226098D01*
X139142171Y-63325964D01*
X139142169Y-63325965D01*
X138973541Y-63444040D01*
X138907335Y-63466367D01*
X138839568Y-63449357D01*
X138814737Y-63430146D01*
X137992928Y-62608338D01*
X137992925Y-62608334D01*
X137992925Y-62608335D01*
X137985858Y-62601268D01*
X137985858Y-62601267D01*
X137898733Y-62514142D01*
X137898732Y-62514141D01*
X137898731Y-62514140D01*
X137847509Y-62479915D01*
X137796287Y-62445689D01*
X137796286Y-62445688D01*
X137796283Y-62445686D01*
X137796280Y-62445685D01*
X137715792Y-62412347D01*
X137682453Y-62398537D01*
X137672427Y-62396543D01*
X137622029Y-62386518D01*
X137561610Y-62374500D01*
X137561607Y-62374500D01*
X137561606Y-62374500D01*
X137199500Y-62374500D01*
X137132461Y-62354815D01*
X137086706Y-62302011D01*
X137075500Y-62250500D01*
X137075500Y-62224500D01*
X137095185Y-62157461D01*
X137147989Y-62111706D01*
X137199500Y-62100500D01*
X137617314Y-62100500D01*
X137617320Y-62100500D01*
X137704174Y-62090070D01*
X137741226Y-62075457D01*
X137810811Y-62069175D01*
X137872748Y-62101511D01*
X137874345Y-62103078D01*
X137962402Y-62191135D01*
X138100607Y-62272869D01*
X138100614Y-62272871D01*
X138254791Y-62317664D01*
X138254794Y-62317664D01*
X138254796Y-62317665D01*
X138290819Y-62320500D01*
X138689180Y-62320499D01*
X138725204Y-62317665D01*
X138879393Y-62272869D01*
X138936882Y-62238869D01*
X139004602Y-62221688D01*
X139063117Y-62238869D01*
X139120607Y-62272869D01*
X139120610Y-62272869D01*
X139120612Y-62272871D01*
X139274791Y-62317664D01*
X139274794Y-62317664D01*
X139274796Y-62317665D01*
X139310819Y-62320500D01*
X139709180Y-62320499D01*
X139745204Y-62317665D01*
X139899393Y-62272869D01*
X140037598Y-62191135D01*
X140037603Y-62191130D01*
X140066915Y-62161819D01*
X140128238Y-62128334D01*
X140154596Y-62125500D01*
X141689548Y-62125500D01*
X141756587Y-62145185D01*
X141777229Y-62161819D01*
X143338181Y-63722771D01*
X143371666Y-63784094D01*
X143374500Y-63810452D01*
X143374500Y-65151145D01*
X143366442Y-65195116D01*
X143314861Y-65331125D01*
X143314859Y-65331130D01*
X143294355Y-65500000D01*
X143314859Y-65668869D01*
X143314860Y-65668874D01*
X143375182Y-65827931D01*
X143394322Y-65855659D01*
X143471817Y-65967929D01*
X143577505Y-66061560D01*
X143599150Y-66080736D01*
X143749773Y-66159789D01*
X143749775Y-66159790D01*
X143914944Y-66200500D01*
X144085056Y-66200500D01*
X144250225Y-66159790D01*
X144329692Y-66118081D01*
X144400849Y-66080736D01*
X144400850Y-66080734D01*
X144400852Y-66080734D01*
X144528183Y-65967929D01*
X144624818Y-65827930D01*
X144685140Y-65668872D01*
X144705645Y-65500000D01*
X144685140Y-65331128D01*
X144633557Y-65195115D01*
X144625500Y-65151145D01*
X144625500Y-63570000D01*
X151462638Y-63570000D01*
X151470930Y-63611690D01*
X151470930Y-63611692D01*
X151546307Y-63793671D01*
X151546314Y-63793684D01*
X151655748Y-63957462D01*
X151655751Y-63957466D01*
X151795033Y-64096748D01*
X151795037Y-64096751D01*
X151958815Y-64206185D01*
X151958828Y-64206192D01*
X152140806Y-64281569D01*
X152140818Y-64281572D01*
X152334004Y-64319999D01*
X152334008Y-64320000D01*
X152732500Y-64320000D01*
X152732500Y-63620000D01*
X153232500Y-63620000D01*
X153232500Y-64320000D01*
X153630992Y-64320000D01*
X153630995Y-64319999D01*
X153824181Y-64281572D01*
X153824193Y-64281569D01*
X154006171Y-64206192D01*
X154006184Y-64206185D01*
X154169962Y-64096751D01*
X154169966Y-64096748D01*
X154309248Y-63957466D01*
X154309251Y-63957462D01*
X154418685Y-63793684D01*
X154418692Y-63793671D01*
X154494069Y-63611692D01*
X154494069Y-63611690D01*
X154502362Y-63570000D01*
X153699488Y-63570000D01*
X153716705Y-63560060D01*
X153772560Y-63504205D01*
X153812056Y-63435796D01*
X153832500Y-63359496D01*
X153832500Y-63280504D01*
X153812056Y-63204204D01*
X153772560Y-63135795D01*
X153716705Y-63079940D01*
X153699488Y-63070000D01*
X154502362Y-63070000D01*
X155762500Y-63070000D01*
X156595512Y-63070000D01*
X156578295Y-63079940D01*
X156522440Y-63135795D01*
X156482944Y-63204204D01*
X156462500Y-63280504D01*
X156462500Y-63359496D01*
X156482944Y-63435796D01*
X156522440Y-63504205D01*
X156578295Y-63560060D01*
X156595512Y-63570000D01*
X155762501Y-63570000D01*
X155762501Y-63619986D01*
X155772994Y-63722697D01*
X155828141Y-63889119D01*
X155828143Y-63889124D01*
X155920184Y-64038345D01*
X156044154Y-64162315D01*
X156193375Y-64254356D01*
X156193380Y-64254358D01*
X156359802Y-64309505D01*
X156359809Y-64309506D01*
X156462519Y-64319999D01*
X156912499Y-64319999D01*
X156912500Y-64319998D01*
X156912500Y-63620000D01*
X157412500Y-63620000D01*
X157412500Y-64319999D01*
X157862472Y-64319999D01*
X157862486Y-64319998D01*
X157965197Y-64309505D01*
X158131619Y-64254358D01*
X158131624Y-64254356D01*
X158280845Y-64162315D01*
X158404815Y-64038345D01*
X158496856Y-63889124D01*
X158496858Y-63889119D01*
X158552005Y-63722697D01*
X158552006Y-63722690D01*
X158562499Y-63619986D01*
X158562500Y-63619973D01*
X158562500Y-63570000D01*
X157729488Y-63570000D01*
X157746705Y-63560060D01*
X157802560Y-63504205D01*
X157842056Y-63435796D01*
X157862500Y-63359496D01*
X157862500Y-63280504D01*
X157842056Y-63204204D01*
X157802560Y-63135795D01*
X157746705Y-63079940D01*
X157729488Y-63070000D01*
X158562499Y-63070000D01*
X158562499Y-63020028D01*
X158562498Y-63020013D01*
X158552005Y-62917302D01*
X158496858Y-62750880D01*
X158496856Y-62750875D01*
X158404815Y-62601654D01*
X158280845Y-62477684D01*
X158131624Y-62385643D01*
X158131619Y-62385641D01*
X157965197Y-62330494D01*
X157965190Y-62330493D01*
X157862486Y-62320000D01*
X157412500Y-62320000D01*
X157412500Y-63020000D01*
X156912500Y-63020000D01*
X156912500Y-62320000D01*
X156462528Y-62320000D01*
X156462512Y-62320001D01*
X156359802Y-62330494D01*
X156193380Y-62385641D01*
X156193375Y-62385643D01*
X156044154Y-62477684D01*
X155920184Y-62601654D01*
X155828143Y-62750875D01*
X155828141Y-62750880D01*
X155772994Y-62917302D01*
X155772993Y-62917309D01*
X155762500Y-63020013D01*
X155762500Y-63070000D01*
X154502362Y-63070000D01*
X154494069Y-63028309D01*
X154494069Y-63028307D01*
X154418692Y-62846328D01*
X154418685Y-62846315D01*
X154309251Y-62682537D01*
X154309248Y-62682533D01*
X154169966Y-62543251D01*
X154169962Y-62543248D01*
X154006184Y-62433814D01*
X154006174Y-62433809D01*
X153996657Y-62429867D01*
X153942254Y-62386026D01*
X153920189Y-62319731D01*
X153937469Y-62252032D01*
X153941148Y-62246597D01*
X153943012Y-62243367D01*
X153943015Y-62243365D01*
X154018781Y-62112135D01*
X154058000Y-61965766D01*
X154058000Y-61814234D01*
X154018781Y-61667865D01*
X153943015Y-61536635D01*
X153835865Y-61429485D01*
X153770250Y-61391602D01*
X153704636Y-61353719D01*
X153631450Y-61334109D01*
X153558266Y-61314500D01*
X153406734Y-61314500D01*
X153260363Y-61353719D01*
X153129135Y-61429485D01*
X153129132Y-61429487D01*
X153021987Y-61536632D01*
X153021985Y-61536635D01*
X152946219Y-61667863D01*
X152916039Y-61780498D01*
X152907000Y-61814234D01*
X152907000Y-61965766D01*
X152946104Y-62111706D01*
X152946220Y-62112137D01*
X152946220Y-62112138D01*
X152958842Y-62134000D01*
X152975315Y-62201901D01*
X152952462Y-62267927D01*
X152897541Y-62311118D01*
X152851455Y-62320000D01*
X152334004Y-62320000D01*
X152140818Y-62358427D01*
X152140806Y-62358430D01*
X151958828Y-62433807D01*
X151958815Y-62433814D01*
X151795037Y-62543248D01*
X151795033Y-62543251D01*
X151655751Y-62682533D01*
X151655748Y-62682537D01*
X151546314Y-62846315D01*
X151546307Y-62846328D01*
X151470930Y-63028307D01*
X151470930Y-63028309D01*
X151462638Y-63070000D01*
X152265512Y-63070000D01*
X152248295Y-63079940D01*
X152192440Y-63135795D01*
X152152944Y-63204204D01*
X152132500Y-63280504D01*
X152132500Y-63359496D01*
X152152944Y-63435796D01*
X152192440Y-63504205D01*
X152248295Y-63560060D01*
X152265512Y-63570000D01*
X151462638Y-63570000D01*
X144625500Y-63570000D01*
X144625500Y-63438396D01*
X144623859Y-63430146D01*
X144601463Y-63317548D01*
X144591216Y-63292809D01*
X144586575Y-63281604D01*
X144554313Y-63203716D01*
X144554312Y-63203715D01*
X144554312Y-63203714D01*
X144514639Y-63144341D01*
X144485858Y-63101267D01*
X144485856Y-63101264D01*
X144395637Y-63011045D01*
X144395606Y-63011016D01*
X142490198Y-61105608D01*
X142490178Y-61105586D01*
X142398736Y-61014144D01*
X142398732Y-61014141D01*
X142336569Y-60972605D01*
X142296286Y-60945688D01*
X142215792Y-60912347D01*
X142182453Y-60898537D01*
X142172427Y-60896543D01*
X142122029Y-60886518D01*
X142061610Y-60874500D01*
X142061607Y-60874500D01*
X142061606Y-60874500D01*
X141286801Y-60874500D01*
X141219762Y-60854815D01*
X141174007Y-60802011D01*
X141164063Y-60732853D01*
X141170859Y-60706530D01*
X141185138Y-60668877D01*
X141185137Y-60668877D01*
X141185140Y-60668872D01*
X141205645Y-60500000D01*
X141185140Y-60331128D01*
X141124818Y-60172070D01*
X141028183Y-60032071D01*
X140906038Y-59923860D01*
X140900849Y-59919263D01*
X140750226Y-59840210D01*
X140585056Y-59799500D01*
X140414944Y-59799500D01*
X140414939Y-59799500D01*
X140409458Y-59800851D01*
X140339656Y-59797777D01*
X140282597Y-59757452D01*
X140258916Y-59705168D01*
X140258912Y-59705170D01*
X140258903Y-59705140D01*
X140257808Y-59702722D01*
X140257143Y-59699083D01*
X140212032Y-59543805D01*
X140205715Y-59533125D01*
X140188530Y-59465402D01*
X140205715Y-59406875D01*
X140212031Y-59396195D01*
X140257145Y-59240910D01*
X140258790Y-59220000D01*
X139730000Y-59220000D01*
X139730000Y-59855500D01*
X139710315Y-59922539D01*
X139657511Y-59968294D01*
X139606000Y-59979500D01*
X139424500Y-59979500D01*
X139357461Y-59959815D01*
X139311706Y-59907011D01*
X139300500Y-59855500D01*
X139300500Y-59735317D01*
X139300499Y-59735302D01*
X139298718Y-59712675D01*
X139297643Y-59699007D01*
X139280423Y-59639738D01*
X139275500Y-59605144D01*
X139275500Y-59334855D01*
X139280424Y-59300259D01*
X139297643Y-59240993D01*
X139300500Y-59204690D01*
X139300500Y-58735310D01*
X139297643Y-58699007D01*
X139292833Y-58682452D01*
X139252495Y-58543608D01*
X139249395Y-58536443D01*
X139251923Y-58535348D01*
X139237983Y-58480393D01*
X139251474Y-58434449D01*
X139249397Y-58433551D01*
X139252489Y-58426402D01*
X139252494Y-58426395D01*
X139297643Y-58270993D01*
X139299295Y-58250000D01*
X139730000Y-58250000D01*
X139730000Y-58720000D01*
X140258790Y-58720000D01*
X140257145Y-58699089D01*
X140212031Y-58543803D01*
X140208934Y-58536646D01*
X140211406Y-58535575D01*
X140197400Y-58480429D01*
X140210964Y-58434232D01*
X140208934Y-58433354D01*
X140212030Y-58426198D01*
X140257145Y-58270910D01*
X140258790Y-58250000D01*
X139730000Y-58250000D01*
X139299295Y-58250000D01*
X139300500Y-58234690D01*
X139300500Y-57884500D01*
X139320185Y-57817461D01*
X139372989Y-57771706D01*
X139424500Y-57760500D01*
X146183469Y-57760500D01*
X146250508Y-57780185D01*
X146296263Y-57832989D01*
X146306564Y-57899445D01*
X146305183Y-57910826D01*
X146294355Y-58000000D01*
X146314859Y-58168869D01*
X146314860Y-58168874D01*
X146375182Y-58327931D01*
X146390032Y-58349444D01*
X146471817Y-58467929D01*
X146577505Y-58561560D01*
X146599150Y-58580736D01*
X146722527Y-58645489D01*
X146749775Y-58659790D01*
X146914944Y-58700500D01*
X147085056Y-58700500D01*
X147250225Y-58659790D01*
X147288495Y-58639703D01*
X147346121Y-58625500D01*
X147561608Y-58625500D01*
X147561608Y-58625499D01*
X147633162Y-58611267D01*
X147633163Y-58611267D01*
X147645568Y-58608799D01*
X147682452Y-58601463D01*
X147746233Y-58575044D01*
X147796286Y-58554312D01*
X147872084Y-58503664D01*
X147898733Y-58485858D01*
X147985858Y-58398733D01*
X147985858Y-58398731D01*
X147996066Y-58388524D01*
X147996067Y-58388521D01*
X148985858Y-57398733D01*
X149054312Y-57296285D01*
X149095155Y-57197680D01*
X149101463Y-57182452D01*
X149115710Y-57110826D01*
X149125501Y-57061606D01*
X149125501Y-56938393D01*
X149125501Y-56933283D01*
X149125500Y-56933257D01*
X149125500Y-56222551D01*
X149145185Y-56155512D01*
X149197989Y-56109757D01*
X149202028Y-56107997D01*
X149271286Y-56079312D01*
X149338748Y-56034234D01*
X149373733Y-56010858D01*
X149460858Y-55923733D01*
X149460858Y-55923731D01*
X149471066Y-55913524D01*
X149471067Y-55913521D01*
X151397181Y-53987410D01*
X151458504Y-53953925D01*
X151528196Y-53958909D01*
X151584129Y-54000781D01*
X151608546Y-54066245D01*
X151593694Y-54134518D01*
X151587965Y-54143981D01*
X151546313Y-54206317D01*
X151546307Y-54206328D01*
X151470930Y-54388307D01*
X151470930Y-54388309D01*
X151462638Y-54430000D01*
X152265512Y-54430000D01*
X152248295Y-54439940D01*
X152192440Y-54495795D01*
X152152944Y-54564204D01*
X152132500Y-54640504D01*
X152132500Y-54719496D01*
X152152944Y-54795796D01*
X152192440Y-54864205D01*
X152248295Y-54920060D01*
X152265512Y-54930000D01*
X151462638Y-54930000D01*
X151470930Y-54971690D01*
X151470930Y-54971692D01*
X151546307Y-55153671D01*
X151546314Y-55153684D01*
X151655748Y-55317462D01*
X151655751Y-55317466D01*
X151795033Y-55456748D01*
X151795037Y-55456751D01*
X151958815Y-55566185D01*
X151958828Y-55566192D01*
X152140806Y-55641569D01*
X152140818Y-55641572D01*
X152334004Y-55679999D01*
X152334008Y-55680000D01*
X152851455Y-55680000D01*
X152918494Y-55699685D01*
X152964249Y-55752489D01*
X152974193Y-55821647D01*
X152958842Y-55866000D01*
X152946220Y-55887861D01*
X152946220Y-55887862D01*
X152946220Y-55887863D01*
X152946219Y-55887865D01*
X152907000Y-56034234D01*
X152907000Y-56185766D01*
X152918585Y-56229002D01*
X152946219Y-56332136D01*
X152977029Y-56385500D01*
X153021985Y-56463365D01*
X153129135Y-56570515D01*
X153260365Y-56646281D01*
X153406734Y-56685500D01*
X153406736Y-56685500D01*
X153558264Y-56685500D01*
X153558266Y-56685500D01*
X153704635Y-56646281D01*
X153835865Y-56570515D01*
X153943015Y-56463365D01*
X154018781Y-56332135D01*
X154058000Y-56185766D01*
X154058000Y-56034234D01*
X154018781Y-55887865D01*
X153943015Y-55756635D01*
X153943013Y-55756633D01*
X153938951Y-55749597D01*
X153941154Y-55748325D01*
X153920541Y-55695022D01*
X153934573Y-55626576D01*
X153983382Y-55576582D01*
X153996663Y-55570129D01*
X154006182Y-55566186D01*
X154006184Y-55566185D01*
X154169962Y-55456751D01*
X154169966Y-55456748D01*
X154309248Y-55317466D01*
X154309251Y-55317462D01*
X154418685Y-55153684D01*
X154418692Y-55153671D01*
X154494069Y-54971692D01*
X154494069Y-54971690D01*
X154502362Y-54930000D01*
X153699488Y-54930000D01*
X153716705Y-54920060D01*
X153772560Y-54864205D01*
X153812056Y-54795796D01*
X153832500Y-54719496D01*
X153832500Y-54640504D01*
X153812056Y-54564204D01*
X153772560Y-54495795D01*
X153716705Y-54439940D01*
X153699488Y-54430000D01*
X154502362Y-54430000D01*
X155762500Y-54430000D01*
X156595512Y-54430000D01*
X156578295Y-54439940D01*
X156522440Y-54495795D01*
X156482944Y-54564204D01*
X156462500Y-54640504D01*
X156462500Y-54719496D01*
X156482944Y-54795796D01*
X156522440Y-54864205D01*
X156578295Y-54920060D01*
X156595512Y-54930000D01*
X155762501Y-54930000D01*
X155762501Y-54979986D01*
X155772994Y-55082697D01*
X155828141Y-55249119D01*
X155828143Y-55249124D01*
X155920184Y-55398345D01*
X156044154Y-55522315D01*
X156193375Y-55614356D01*
X156193380Y-55614358D01*
X156359802Y-55669505D01*
X156359809Y-55669506D01*
X156462519Y-55679999D01*
X156912499Y-55679999D01*
X156912500Y-55679998D01*
X156912500Y-54980000D01*
X157412500Y-54980000D01*
X157412500Y-55679999D01*
X157862472Y-55679999D01*
X157862486Y-55679998D01*
X157965197Y-55669505D01*
X158131619Y-55614358D01*
X158131624Y-55614356D01*
X158280845Y-55522315D01*
X158404815Y-55398345D01*
X158496856Y-55249124D01*
X158496858Y-55249119D01*
X158552005Y-55082697D01*
X158552006Y-55082690D01*
X158562499Y-54979986D01*
X158562500Y-54979973D01*
X158562500Y-54930000D01*
X157729488Y-54930000D01*
X157746705Y-54920060D01*
X157802560Y-54864205D01*
X157842056Y-54795796D01*
X157862500Y-54719496D01*
X157862500Y-54640504D01*
X157842056Y-54564204D01*
X157802560Y-54495795D01*
X157746705Y-54439940D01*
X157729488Y-54430000D01*
X158562499Y-54430000D01*
X158562499Y-54380028D01*
X158562498Y-54380013D01*
X158552005Y-54277302D01*
X158496858Y-54110880D01*
X158496856Y-54110875D01*
X158404815Y-53961654D01*
X158280845Y-53837684D01*
X158131624Y-53745643D01*
X158131619Y-53745641D01*
X157965197Y-53690494D01*
X157965190Y-53690493D01*
X157862486Y-53680000D01*
X157412500Y-53680000D01*
X157412500Y-54380000D01*
X156912500Y-54380000D01*
X156912500Y-53680000D01*
X156462528Y-53680000D01*
X156462512Y-53680001D01*
X156359802Y-53690494D01*
X156193380Y-53745641D01*
X156193375Y-53745643D01*
X156044154Y-53837684D01*
X155920184Y-53961654D01*
X155828143Y-54110875D01*
X155828141Y-54110880D01*
X155772994Y-54277302D01*
X155772993Y-54277309D01*
X155762500Y-54380013D01*
X155762500Y-54430000D01*
X154502362Y-54430000D01*
X154494069Y-54388309D01*
X154494069Y-54388307D01*
X154418692Y-54206328D01*
X154418685Y-54206315D01*
X154309251Y-54042537D01*
X154309248Y-54042533D01*
X154169966Y-53903251D01*
X154169962Y-53903248D01*
X154006184Y-53793814D01*
X154006171Y-53793807D01*
X153824193Y-53718430D01*
X153824181Y-53718427D01*
X153630995Y-53680000D01*
X153232500Y-53680000D01*
X153232500Y-54380000D01*
X152732500Y-54380000D01*
X152732500Y-53680000D01*
X152334004Y-53680000D01*
X152140818Y-53718427D01*
X152140806Y-53718430D01*
X151958828Y-53793807D01*
X151958815Y-53793814D01*
X151795037Y-53903248D01*
X151795032Y-53903252D01*
X151744421Y-53953863D01*
X151683098Y-53987347D01*
X151613406Y-53982362D01*
X151557473Y-53940491D01*
X151533057Y-53875026D01*
X151547909Y-53806753D01*
X151553633Y-53797299D01*
X151554311Y-53796286D01*
X151601463Y-53682452D01*
X151625500Y-53561607D01*
X151625500Y-53438394D01*
X151625500Y-53438393D01*
X151625500Y-50810451D01*
X151645185Y-50743412D01*
X151661814Y-50722775D01*
X153192041Y-49192547D01*
X153243599Y-49163473D01*
X153243211Y-49162450D01*
X153249937Y-49159898D01*
X153250057Y-49159831D01*
X153250225Y-49159790D01*
X153400852Y-49080734D01*
X153528183Y-48967929D01*
X153624818Y-48827930D01*
X153685140Y-48668872D01*
X153705645Y-48500000D01*
X153685140Y-48331128D01*
X153624818Y-48172070D01*
X153528183Y-48032071D01*
X153400852Y-47919266D01*
X153400849Y-47919263D01*
X153250226Y-47840210D01*
X153085056Y-47799500D01*
X152914944Y-47799500D01*
X152749773Y-47840210D01*
X152599150Y-47919263D01*
X152471816Y-48032072D01*
X152375183Y-48172067D01*
X152342979Y-48256981D01*
X152314718Y-48300690D01*
X150601270Y-50014139D01*
X150514144Y-50101264D01*
X150514138Y-50101272D01*
X150445692Y-50203705D01*
X150445684Y-50203719D01*
X150419413Y-50267147D01*
X150412347Y-50284207D01*
X150408510Y-50293470D01*
X150398537Y-50317545D01*
X150398535Y-50317553D01*
X150374500Y-50438389D01*
X150374500Y-53189547D01*
X150354815Y-53256586D01*
X150338181Y-53277228D01*
X149139966Y-54475442D01*
X149078643Y-54508927D01*
X149008951Y-54503943D01*
X148970058Y-54480577D01*
X148912968Y-54430000D01*
X148900852Y-54419266D01*
X148900850Y-54419265D01*
X148900849Y-54419264D01*
X148750226Y-54340210D01*
X148585056Y-54299500D01*
X148414944Y-54299500D01*
X148249773Y-54340210D01*
X148099150Y-54419263D01*
X147971816Y-54532072D01*
X147875183Y-54672067D01*
X147842979Y-54756981D01*
X147814718Y-54800690D01*
X147601270Y-55014139D01*
X147514141Y-55101267D01*
X147505984Y-55113476D01*
X147497438Y-55126267D01*
X147479127Y-55153671D01*
X147445687Y-55203714D01*
X147445685Y-55203718D01*
X147412347Y-55284207D01*
X147406823Y-55297543D01*
X147398537Y-55317545D01*
X147398535Y-55317553D01*
X147374500Y-55438389D01*
X147374500Y-56189547D01*
X147354815Y-56256586D01*
X147338181Y-56277228D01*
X147142229Y-56473181D01*
X147080906Y-56506666D01*
X147054548Y-56509500D01*
X140383999Y-56509500D01*
X140316960Y-56489815D01*
X140271205Y-56437011D01*
X140259999Y-56385500D01*
X140259999Y-56265374D01*
X140259998Y-56265352D01*
X140257145Y-56229089D01*
X140212030Y-56073803D01*
X140129721Y-55934625D01*
X140129714Y-55934616D01*
X140015383Y-55820285D01*
X140015374Y-55820278D01*
X139876193Y-55737967D01*
X139876190Y-55737965D01*
X139730001Y-55695493D01*
X139730000Y-55695494D01*
X139730000Y-56385500D01*
X139710315Y-56452539D01*
X139657511Y-56498294D01*
X139606000Y-56509500D01*
X139424500Y-56509500D01*
X139357461Y-56489815D01*
X139311706Y-56437011D01*
X139300500Y-56385500D01*
X139300500Y-56265317D01*
X139300499Y-56265302D01*
X139298579Y-56240909D01*
X139297643Y-56229007D01*
X139295767Y-56222551D01*
X139252495Y-56073608D01*
X139252492Y-56073600D01*
X139247266Y-56064763D01*
X139230000Y-56001645D01*
X139230000Y-55695494D01*
X139229998Y-55695493D01*
X139083809Y-55737965D01*
X139083806Y-55737967D01*
X139063608Y-55749912D01*
X138995884Y-55767092D01*
X138937370Y-55749910D01*
X138916397Y-55737507D01*
X138916390Y-55737504D01*
X138760997Y-55692357D01*
X138760991Y-55692356D01*
X138724697Y-55689500D01*
X138724690Y-55689500D01*
X138315310Y-55689500D01*
X138315302Y-55689500D01*
X138279008Y-55692356D01*
X138279002Y-55692357D01*
X138123609Y-55737504D01*
X138123606Y-55737505D01*
X137984315Y-55819881D01*
X137984307Y-55819887D01*
X137898014Y-55906181D01*
X137836691Y-55939666D01*
X137766999Y-55934682D01*
X137764844Y-55933855D01*
X137732331Y-55921034D01*
X137704174Y-55909930D01*
X137617320Y-55899500D01*
X136772680Y-55899500D01*
X136707539Y-55907322D01*
X136685824Y-55909930D01*
X136547607Y-55964436D01*
X136547605Y-55964437D01*
X136429215Y-56054215D01*
X136339437Y-56172605D01*
X136339436Y-56172607D01*
X136284930Y-56310824D01*
X136284930Y-56310826D01*
X136274500Y-56397680D01*
X136274500Y-56802320D01*
X136284930Y-56889173D01*
X136310695Y-56954511D01*
X136316976Y-57024098D01*
X136310695Y-57045489D01*
X136293143Y-57089999D01*
X136284930Y-57110826D01*
X136274500Y-57197680D01*
X136274500Y-57602320D01*
X136284930Y-57689173D01*
X136310695Y-57754511D01*
X136316976Y-57824098D01*
X136310695Y-57845489D01*
X136289417Y-57899447D01*
X136284930Y-57910826D01*
X136274500Y-57997680D01*
X136274500Y-58402320D01*
X136284930Y-58489174D01*
X136296183Y-58517710D01*
X136310695Y-58554511D01*
X136316976Y-58624098D01*
X136310695Y-58645489D01*
X136310426Y-58646172D01*
X136284930Y-58710826D01*
X136274500Y-58797680D01*
X136274500Y-59202320D01*
X136279708Y-59245688D01*
X136284930Y-59289175D01*
X136310963Y-59355190D01*
X136317245Y-59424777D01*
X136310964Y-59446168D01*
X136285421Y-59510943D01*
X136274998Y-59597745D01*
X136274944Y-59598646D01*
X136274862Y-59598871D01*
X136274559Y-59601402D01*
X136273976Y-59601332D01*
X136251277Y-59664386D01*
X136195826Y-59706894D01*
X136126196Y-59712675D01*
X136064494Y-59679893D01*
X136063486Y-59678896D01*
X135792928Y-59408338D01*
X135792926Y-59408335D01*
X135752811Y-59368220D01*
X135719326Y-59306897D01*
X135717377Y-59265754D01*
X135725000Y-59202277D01*
X135725000Y-59200000D01*
X135540990Y-59200000D01*
X135473951Y-59180315D01*
X135466065Y-59174804D01*
X135452394Y-59164437D01*
X135452392Y-59164436D01*
X135327929Y-59115354D01*
X135272785Y-59072449D01*
X135249592Y-59006541D01*
X135265713Y-58938556D01*
X135316030Y-58890080D01*
X135327929Y-58884646D01*
X135422105Y-58847507D01*
X135452395Y-58835562D01*
X135466065Y-58825196D01*
X135531376Y-58800373D01*
X135540990Y-58800000D01*
X135724999Y-58800000D01*
X135724999Y-58797729D01*
X135714579Y-58710945D01*
X135714578Y-58710944D01*
X135689035Y-58646172D01*
X135682753Y-58576585D01*
X135689032Y-58555199D01*
X135715070Y-58489174D01*
X135725500Y-58402320D01*
X135725500Y-57997680D01*
X135715070Y-57910826D01*
X135689303Y-57845488D01*
X135683021Y-57775906D01*
X135689300Y-57754518D01*
X135715070Y-57689174D01*
X135725500Y-57602320D01*
X135725500Y-57197680D01*
X135715070Y-57110826D01*
X135689303Y-57045488D01*
X135683021Y-56975906D01*
X135689300Y-56954518D01*
X135715070Y-56889174D01*
X135725500Y-56802320D01*
X135725500Y-56397680D01*
X135715070Y-56310826D01*
X135660562Y-56172605D01*
X135570785Y-56054215D01*
X135452395Y-55964438D01*
X135452394Y-55964437D01*
X135452392Y-55964436D01*
X135314175Y-55909930D01*
X135301766Y-55908440D01*
X135227320Y-55899500D01*
X134382680Y-55899500D01*
X134317539Y-55907322D01*
X134295824Y-55909930D01*
X134157607Y-55964436D01*
X134157605Y-55964437D01*
X134039215Y-56054215D01*
X133949437Y-56172605D01*
X133949436Y-56172607D01*
X133894930Y-56310824D01*
X133894930Y-56310826D01*
X133884500Y-56397680D01*
X133884500Y-56802320D01*
X133894930Y-56889173D01*
X133920695Y-56954511D01*
X133926976Y-57024098D01*
X133920695Y-57045489D01*
X133894929Y-57110828D01*
X133894827Y-57111678D01*
X133894552Y-57112318D01*
X133892980Y-57118538D01*
X133891991Y-57118288D01*
X133867287Y-57175891D01*
X133809403Y-57215022D01*
X133761988Y-57220507D01*
X133749198Y-57219501D01*
X133749189Y-57219500D01*
X133749181Y-57219500D01*
X133749173Y-57219500D01*
X133250830Y-57219500D01*
X133250808Y-57219501D01*
X133214794Y-57222335D01*
X133060611Y-57267129D01*
X133060606Y-57267131D01*
X132925163Y-57347232D01*
X132862042Y-57364500D01*
X132856121Y-57364500D01*
X132798493Y-57350295D01*
X132795768Y-57348865D01*
X132792657Y-57347232D01*
X132774445Y-57337673D01*
X132724233Y-57289088D01*
X132708260Y-57221068D01*
X132731597Y-57155211D01*
X132744381Y-57140207D01*
X132985858Y-56898733D01*
X133054312Y-56796285D01*
X133101463Y-56682451D01*
X133123729Y-56570514D01*
X133125501Y-56561608D01*
X133125501Y-56433283D01*
X133125500Y-56433257D01*
X133125500Y-53707493D01*
X133145185Y-53640454D01*
X133197989Y-53594699D01*
X133267147Y-53584755D01*
X133296951Y-53592931D01*
X133317548Y-53601463D01*
X133438388Y-53625499D01*
X133438392Y-53625500D01*
X133438393Y-53625500D01*
X133438394Y-53625500D01*
X141689548Y-53625500D01*
X141756587Y-53645185D01*
X141777228Y-53661818D01*
X143014141Y-54898732D01*
X143014142Y-54898733D01*
X143074965Y-54959556D01*
X143101268Y-54985859D01*
X143203707Y-55054307D01*
X143203713Y-55054310D01*
X143203714Y-55054311D01*
X143317548Y-55101463D01*
X143377971Y-55113481D01*
X143438393Y-55125500D01*
X143438394Y-55125500D01*
X143653879Y-55125500D01*
X143711504Y-55139703D01*
X143749775Y-55159790D01*
X143914944Y-55200500D01*
X144085056Y-55200500D01*
X144250225Y-55159790D01*
X144329692Y-55118081D01*
X144400849Y-55080736D01*
X144400850Y-55080734D01*
X144400852Y-55080734D01*
X144528183Y-54967929D01*
X144624818Y-54827930D01*
X144685140Y-54668872D01*
X144705645Y-54500000D01*
X144685140Y-54331128D01*
X144624818Y-54172070D01*
X144605429Y-54143981D01*
X144582578Y-54110875D01*
X144528183Y-54032071D01*
X144400852Y-53919266D01*
X144400849Y-53919263D01*
X144250226Y-53840210D01*
X144085056Y-53799500D01*
X143914944Y-53799500D01*
X143797642Y-53828412D01*
X143727840Y-53825343D01*
X143680286Y-53795696D01*
X142492928Y-52608338D01*
X142492925Y-52608334D01*
X142492925Y-52608335D01*
X142485858Y-52601268D01*
X142485858Y-52601267D01*
X142398733Y-52514142D01*
X142398732Y-52514141D01*
X142398731Y-52514140D01*
X142347509Y-52479915D01*
X142296287Y-52445689D01*
X142296286Y-52445688D01*
X142296283Y-52445686D01*
X142296280Y-52445685D01*
X142215792Y-52412347D01*
X142182453Y-52398537D01*
X142172427Y-52396543D01*
X142122029Y-52386518D01*
X142061610Y-52374500D01*
X142061607Y-52374500D01*
X142061606Y-52374500D01*
X133810453Y-52374500D01*
X133743414Y-52354815D01*
X133722772Y-52338181D01*
X130492928Y-49108338D01*
X130492925Y-49108334D01*
X130492925Y-49108335D01*
X130485858Y-49101268D01*
X130485858Y-49101267D01*
X130398733Y-49014142D01*
X130398732Y-49014141D01*
X130398731Y-49014140D01*
X130347509Y-48979915D01*
X130296287Y-48945689D01*
X130296286Y-48945688D01*
X130296283Y-48945686D01*
X130296280Y-48945685D01*
X130215792Y-48912347D01*
X130182453Y-48898537D01*
X130172427Y-48896543D01*
X130122029Y-48886518D01*
X130061610Y-48874500D01*
X130061607Y-48874500D01*
X130061606Y-48874500D01*
X127346121Y-48874500D01*
X127288495Y-48860296D01*
X127268314Y-48849704D01*
X127250224Y-48840209D01*
X127085056Y-48799500D01*
X126914944Y-48799500D01*
X126749773Y-48840210D01*
X126599150Y-48919263D01*
X126471816Y-49032072D01*
X126375182Y-49172068D01*
X126314860Y-49331125D01*
X126314859Y-49331130D01*
X126294355Y-49500000D01*
X110007527Y-49500000D01*
X110000001Y-44000710D01*
X110000008Y-43999260D01*
X110002328Y-43786517D01*
X110002793Y-43777073D01*
X110016423Y-43621288D01*
X112649500Y-43621288D01*
X112681161Y-43861785D01*
X112743947Y-44096104D01*
X112836773Y-44320205D01*
X112836776Y-44320212D01*
X112958064Y-44530289D01*
X112958066Y-44530292D01*
X112958067Y-44530293D01*
X113105733Y-44722736D01*
X113105739Y-44722743D01*
X113277256Y-44894260D01*
X113277262Y-44894265D01*
X113469711Y-45041936D01*
X113679788Y-45163224D01*
X113903900Y-45256054D01*
X114138211Y-45318838D01*
X114318586Y-45342584D01*
X114378711Y-45350500D01*
X114378712Y-45350500D01*
X114621289Y-45350500D01*
X114669388Y-45344167D01*
X114861789Y-45318838D01*
X115096100Y-45256054D01*
X115320212Y-45163224D01*
X115530289Y-45041936D01*
X115722738Y-44894265D01*
X115894265Y-44722738D01*
X116041936Y-44530289D01*
X116163224Y-44320212D01*
X116256054Y-44096100D01*
X116318838Y-43861789D01*
X116350500Y-43621288D01*
X153649500Y-43621288D01*
X153681161Y-43861785D01*
X153743947Y-44096104D01*
X153836773Y-44320205D01*
X153836776Y-44320212D01*
X153958064Y-44530289D01*
X153958066Y-44530292D01*
X153958067Y-44530293D01*
X154105733Y-44722736D01*
X154105739Y-44722743D01*
X154277256Y-44894260D01*
X154277262Y-44894265D01*
X154469711Y-45041936D01*
X154679788Y-45163224D01*
X154903900Y-45256054D01*
X155138211Y-45318838D01*
X155318586Y-45342584D01*
X155378711Y-45350500D01*
X155378712Y-45350500D01*
X155621289Y-45350500D01*
X155669388Y-45344167D01*
X155861789Y-45318838D01*
X156096100Y-45256054D01*
X156320212Y-45163224D01*
X156530289Y-45041936D01*
X156722738Y-44894265D01*
X156894265Y-44722738D01*
X157041936Y-44530289D01*
X157163224Y-44320212D01*
X157256054Y-44096100D01*
X157318838Y-43861789D01*
X157350500Y-43621288D01*
X157350500Y-43378712D01*
X157318838Y-43138211D01*
X157256054Y-42903900D01*
X157163224Y-42679788D01*
X157041936Y-42469711D01*
X156935598Y-42331128D01*
X156894266Y-42277263D01*
X156894260Y-42277256D01*
X156722743Y-42105739D01*
X156722736Y-42105733D01*
X156530293Y-41958067D01*
X156530292Y-41958066D01*
X156530289Y-41958064D01*
X156320212Y-41836776D01*
X156320205Y-41836773D01*
X156096104Y-41743947D01*
X155861785Y-41681161D01*
X155621289Y-41649500D01*
X155621288Y-41649500D01*
X155378712Y-41649500D01*
X155378711Y-41649500D01*
X155138214Y-41681161D01*
X154903895Y-41743947D01*
X154679794Y-41836773D01*
X154679785Y-41836777D01*
X154469706Y-41958067D01*
X154277263Y-42105733D01*
X154277256Y-42105739D01*
X154105739Y-42277256D01*
X154105733Y-42277263D01*
X153958067Y-42469706D01*
X153836777Y-42679785D01*
X153836773Y-42679794D01*
X153743947Y-42903895D01*
X153681161Y-43138214D01*
X153649500Y-43378711D01*
X153649500Y-43621288D01*
X116350500Y-43621288D01*
X116350500Y-43378712D01*
X116318838Y-43138211D01*
X116256054Y-42903900D01*
X116163224Y-42679788D01*
X116059423Y-42500000D01*
X140294355Y-42500000D01*
X140314859Y-42668869D01*
X140314860Y-42668874D01*
X140375182Y-42827931D01*
X140419170Y-42891657D01*
X140471817Y-42967929D01*
X140569321Y-43054310D01*
X140599150Y-43080736D01*
X140749773Y-43159789D01*
X140749775Y-43159790D01*
X140914944Y-43200500D01*
X141085056Y-43200500D01*
X141250225Y-43159790D01*
X141288495Y-43139703D01*
X141346121Y-43125500D01*
X143561607Y-43125500D01*
X143622029Y-43113481D01*
X143682452Y-43101463D01*
X143732496Y-43080734D01*
X143796286Y-43054312D01*
X143847509Y-43020084D01*
X143898733Y-42985858D01*
X143985858Y-42898733D01*
X143985859Y-42898731D01*
X143992925Y-42891665D01*
X143992928Y-42891661D01*
X144192041Y-42692547D01*
X144243599Y-42663473D01*
X144243211Y-42662450D01*
X144249937Y-42659898D01*
X144250057Y-42659831D01*
X144250225Y-42659790D01*
X144400852Y-42580734D01*
X144528183Y-42467929D01*
X144624818Y-42327930D01*
X144685140Y-42168872D01*
X144705645Y-42000000D01*
X144685140Y-41831128D01*
X144624818Y-41672070D01*
X144528183Y-41532071D01*
X144400852Y-41419266D01*
X144400849Y-41419263D01*
X144250226Y-41340210D01*
X144085056Y-41299500D01*
X143914944Y-41299500D01*
X143749773Y-41340210D01*
X143599150Y-41419263D01*
X143471816Y-41532072D01*
X143375183Y-41672067D01*
X143342980Y-41756979D01*
X143314722Y-41800686D01*
X143277231Y-41838179D01*
X143215908Y-41871666D01*
X143189547Y-41874500D01*
X141346121Y-41874500D01*
X141288495Y-41860296D01*
X141268314Y-41849704D01*
X141250224Y-41840209D01*
X141085056Y-41799500D01*
X140914944Y-41799500D01*
X140749773Y-41840210D01*
X140599150Y-41919263D01*
X140471816Y-42032072D01*
X140375182Y-42172068D01*
X140314860Y-42331125D01*
X140314859Y-42331130D01*
X140294355Y-42500000D01*
X116059423Y-42500000D01*
X116041936Y-42469711D01*
X115935598Y-42331128D01*
X115894266Y-42277263D01*
X115894260Y-42277256D01*
X115722743Y-42105739D01*
X115722736Y-42105733D01*
X115530293Y-41958067D01*
X115530292Y-41958066D01*
X115530289Y-41958064D01*
X115320212Y-41836776D01*
X115320205Y-41836773D01*
X115096104Y-41743947D01*
X114861785Y-41681161D01*
X114621289Y-41649500D01*
X114621288Y-41649500D01*
X114378712Y-41649500D01*
X114378711Y-41649500D01*
X114138214Y-41681161D01*
X113903895Y-41743947D01*
X113679794Y-41836773D01*
X113679785Y-41836777D01*
X113469706Y-41958067D01*
X113277263Y-42105733D01*
X113277256Y-42105739D01*
X113105739Y-42277256D01*
X113105733Y-42277263D01*
X112958067Y-42469706D01*
X112836777Y-42679785D01*
X112836773Y-42679794D01*
X112743947Y-42903895D01*
X112681161Y-43138214D01*
X112649500Y-43378711D01*
X112649500Y-43621288D01*
X110016423Y-43621288D01*
X110037646Y-43378711D01*
X110039943Y-43352444D01*
X110041355Y-43341725D01*
X110115257Y-42922602D01*
X110117589Y-42912083D01*
X110227749Y-42500959D01*
X110230989Y-42490683D01*
X110376558Y-42090736D01*
X110380679Y-42080786D01*
X110560552Y-41695047D01*
X110565532Y-41685480D01*
X110778332Y-41316900D01*
X110784125Y-41307806D01*
X111028246Y-40959165D01*
X111034812Y-40950609D01*
X111308394Y-40624566D01*
X111315681Y-40616615D01*
X111616615Y-40315681D01*
X111624566Y-40308394D01*
X111950609Y-40034812D01*
X111959165Y-40028246D01*
X112307806Y-39784125D01*
X112316900Y-39778332D01*
X112685480Y-39565532D01*
X112695047Y-39560552D01*
X113080786Y-39380679D01*
X113090736Y-39376558D01*
X113490683Y-39230989D01*
X113500959Y-39227749D01*
X113912083Y-39117589D01*
X113922602Y-39115257D01*
X114341732Y-39041353D01*
X114352444Y-39039943D01*
X114777085Y-39002792D01*
X114786517Y-39002328D01*
X114999358Y-39000006D01*
X115000710Y-39000000D01*
X127676000Y-39000000D01*
X127743039Y-39019685D01*
G37*
%TD.AperFunction*%
%TD*%
M02*
