%TF.GenerationSoftware,KiCad,Pcbnew,8.0.0*%
%TF.CreationDate,2024-05-02T00:18:50-07:00*%
%TF.ProjectId,ece16,65636531-362e-46b6-9963-61645f706362,rev?*%
%TF.SameCoordinates,Original*%
%TF.FileFunction,Legend,Top*%
%TF.FilePolarity,Positive*%
%FSLAX46Y46*%
G04 Gerber Fmt 4.6, Leading zero omitted, Abs format (unit mm)*
G04 Created by KiCad (PCBNEW 8.0.0) date 2024-05-02 00:18:50*
%MOMM*%
%LPD*%
G01*
G04 APERTURE LIST*
%ADD10C,0.200000*%
%ADD11C,0.120000*%
%ADD12C,0.127000*%
%ADD13C,0.152400*%
%ADD14C,0.000000*%
%ADD15C,0.203200*%
%ADD16C,0.150000*%
G04 APERTURE END LIST*
D10*
%TO.C,SW2*%
X144900000Y-48600000D02*
X144900000Y-49400000D01*
X145900000Y-47300000D02*
X148400000Y-47300000D01*
X145900000Y-50700000D02*
X148300000Y-50700000D01*
X149300000Y-48600000D02*
X149300000Y-49400000D01*
X146100000Y-47800000D02*
G75*
G02*
X145900000Y-47800000I-100000J0D01*
G01*
X145900000Y-47800000D02*
G75*
G02*
X146100000Y-47800000I100000J0D01*
G01*
D11*
%TO.C,D4*%
X111765000Y-61700000D02*
X111765000Y-63985000D01*
X111765000Y-63985000D02*
X113235000Y-63985000D01*
X113235000Y-63985000D02*
X113235000Y-61700000D01*
D12*
%TO.C,S1*%
X131600000Y-70950000D02*
X131600000Y-74450000D01*
X131600000Y-74450000D02*
X132400000Y-74450000D01*
X132450000Y-70950000D02*
X131600000Y-70950000D01*
X139800000Y-70950000D02*
X140600000Y-70950000D01*
X140600000Y-70950000D02*
X140600000Y-74450000D01*
X140600000Y-74450000D02*
X139800000Y-74450000D01*
D10*
X131020000Y-70900000D02*
G75*
G02*
X130780000Y-70900000I-120000J0D01*
G01*
X130780000Y-70900000D02*
G75*
G02*
X131020000Y-70900000I120000J0D01*
G01*
D11*
%TO.C,R4*%
X124620000Y-46346359D02*
X124620000Y-46653641D01*
X125380000Y-46346359D02*
X125380000Y-46653641D01*
%TO.C,U1*%
X115500000Y-49440000D02*
X114700000Y-49440000D01*
X115500000Y-49440000D02*
X116300000Y-49440000D01*
X115500000Y-52560000D02*
X114700000Y-52560000D01*
X115500000Y-52560000D02*
X116300000Y-52560000D01*
X114200000Y-49490000D02*
X113960000Y-49160000D01*
X114440000Y-49160000D01*
X114200000Y-49490000D01*
G36*
X114200000Y-49490000D02*
G01*
X113960000Y-49160000D01*
X114440000Y-49160000D01*
X114200000Y-49490000D01*
G37*
%TO.C,C10*%
X147640000Y-60107836D02*
X147640000Y-59892164D01*
X148360000Y-60107836D02*
X148360000Y-59892164D01*
D12*
%TO.C,U2*%
X127800000Y-34225000D02*
X143200000Y-34225000D01*
X127800000Y-39275000D02*
X127800000Y-34225000D01*
X143200000Y-34225000D02*
X143200000Y-39275000D01*
X143200000Y-54725000D02*
X127800000Y-54725000D01*
D10*
X127150000Y-41050000D02*
G75*
G02*
X126950000Y-41050000I-100000J0D01*
G01*
X126950000Y-41050000D02*
G75*
G02*
X127150000Y-41050000I100000J0D01*
G01*
D11*
%TO.C,R15*%
X115092041Y-64620000D02*
X114784759Y-64620000D01*
X115092041Y-65380000D02*
X114784759Y-65380000D01*
D13*
%TO.C,MCP73831T1*%
X115293400Y-64049400D02*
X115623600Y-64049400D01*
X115623600Y-64049400D02*
X116233200Y-64049400D01*
X116233200Y-64049400D02*
X116563400Y-64049400D01*
X115623600Y-64049400D02*
G75*
G02*
X116233200Y-64049400I304800J0D01*
G01*
D11*
%TO.C,R5*%
X126120000Y-46346359D02*
X126120000Y-46653641D01*
X126880000Y-46346359D02*
X126880000Y-46653641D01*
%TO.C,U4*%
X130870000Y-65830000D02*
X130870000Y-64500000D01*
X132200000Y-65830000D02*
X130870000Y-65830000D01*
X133470000Y-63170000D02*
X141150000Y-63170000D01*
X133470000Y-65830000D02*
X133470000Y-63170000D01*
X133470000Y-65830000D02*
X141150000Y-65830000D01*
X141150000Y-65830000D02*
X141150000Y-63170000D01*
%TO.C,C19*%
X110640000Y-62392164D02*
X110640000Y-62607836D01*
X111360000Y-62392164D02*
X111360000Y-62607836D01*
%TO.C,C7*%
X130390000Y-60392164D02*
X130390000Y-60607836D01*
X131110000Y-60392164D02*
X131110000Y-60607836D01*
%TO.C,C1*%
X128140000Y-56607836D02*
X128140000Y-56392164D01*
X128860000Y-56607836D02*
X128860000Y-56392164D01*
%TO.C,C17*%
X154872164Y-48605000D02*
X155087836Y-48605000D01*
X154872164Y-49325000D02*
X155087836Y-49325000D01*
D14*
%TO.C,G\u002A\u002A\u002A*%
G36*
X145029473Y-69490451D02*
G01*
X145019924Y-69500000D01*
X145010375Y-69490451D01*
X145019924Y-69480902D01*
X145029473Y-69490451D01*
G37*
G36*
X145220451Y-73520075D02*
G01*
X145210902Y-73529624D01*
X145201353Y-73520075D01*
X145210902Y-73510526D01*
X145220451Y-73520075D01*
G37*
G36*
X145315939Y-73367293D02*
G01*
X145306391Y-73376842D01*
X145296842Y-73367293D01*
X145306391Y-73357744D01*
X145315939Y-73367293D01*
G37*
G36*
X145354135Y-73386391D02*
G01*
X145344586Y-73395940D01*
X145335037Y-73386391D01*
X145344586Y-73376842D01*
X145354135Y-73386391D01*
G37*
G36*
X145468721Y-73348195D02*
G01*
X145459172Y-73357744D01*
X145449624Y-73348195D01*
X145459172Y-73338647D01*
X145468721Y-73348195D01*
G37*
G36*
X145506917Y-73367293D02*
G01*
X145497368Y-73376842D01*
X145487819Y-73367293D01*
X145497368Y-73357744D01*
X145506917Y-73367293D01*
G37*
G36*
X145545112Y-73348195D02*
G01*
X145535563Y-73357744D01*
X145526015Y-73348195D01*
X145535563Y-73338647D01*
X145545112Y-73348195D01*
G37*
G36*
X145621503Y-73271804D02*
G01*
X145611954Y-73281353D01*
X145602406Y-73271804D01*
X145611954Y-73262256D01*
X145621503Y-73271804D01*
G37*
G36*
X145774285Y-73233609D02*
G01*
X145764736Y-73243158D01*
X145755187Y-73233609D01*
X145764736Y-73224060D01*
X145774285Y-73233609D01*
G37*
G36*
X149059097Y-69127594D02*
G01*
X149049548Y-69137143D01*
X149040000Y-69127594D01*
X149049548Y-69118045D01*
X149059097Y-69127594D01*
G37*
G36*
X149097293Y-69127594D02*
G01*
X149087744Y-69137143D01*
X149078195Y-69127594D01*
X149087744Y-69118045D01*
X149097293Y-69127594D01*
G37*
G36*
X149116391Y-69280376D02*
G01*
X149106842Y-69289925D01*
X149097293Y-69280376D01*
X149106842Y-69270827D01*
X149116391Y-69280376D01*
G37*
G36*
X149269172Y-68631053D02*
G01*
X149259624Y-68640601D01*
X149250075Y-68631053D01*
X149259624Y-68621504D01*
X149269172Y-68631053D01*
G37*
G36*
X149269172Y-68669248D02*
G01*
X149259624Y-68678797D01*
X149250075Y-68669248D01*
X149259624Y-68659699D01*
X149269172Y-68669248D01*
G37*
G36*
X149708421Y-69757820D02*
G01*
X149698872Y-69767368D01*
X149689323Y-69757820D01*
X149698872Y-69748271D01*
X149708421Y-69757820D01*
G37*
G36*
X149899398Y-68344586D02*
G01*
X149889849Y-68354135D01*
X149880300Y-68344586D01*
X149889849Y-68335038D01*
X149899398Y-68344586D01*
G37*
G36*
X149975789Y-68535564D02*
G01*
X149966240Y-68545113D01*
X149956691Y-68535564D01*
X149966240Y-68526015D01*
X149975789Y-68535564D01*
G37*
G36*
X145080401Y-73631479D02*
G01*
X145077779Y-73642832D01*
X145067669Y-73644210D01*
X145051949Y-73637223D01*
X145054937Y-73631479D01*
X145077601Y-73629193D01*
X145080401Y-73631479D01*
G37*
G36*
X145214085Y-73574185D02*
G01*
X145211463Y-73585539D01*
X145201353Y-73586917D01*
X145185633Y-73579930D01*
X145188621Y-73574185D01*
X145211286Y-73571900D01*
X145214085Y-73574185D01*
G37*
G36*
X145271378Y-73459599D02*
G01*
X145273664Y-73482264D01*
X145271378Y-73485063D01*
X145260024Y-73482441D01*
X145258646Y-73472331D01*
X145265634Y-73456611D01*
X145271378Y-73459599D01*
G37*
G36*
X145366867Y-73325915D02*
G01*
X145364245Y-73337268D01*
X145354135Y-73338647D01*
X145338415Y-73331659D01*
X145341403Y-73325915D01*
X145364068Y-73323629D01*
X145366867Y-73325915D01*
G37*
G36*
X145462355Y-73402306D02*
G01*
X145459734Y-73413659D01*
X145449624Y-73415038D01*
X145433904Y-73408050D01*
X145436892Y-73402306D01*
X145459556Y-73400020D01*
X145462355Y-73402306D01*
G37*
G36*
X145615137Y-73306817D02*
G01*
X145612516Y-73318171D01*
X145602406Y-73319549D01*
X145586686Y-73312561D01*
X145589674Y-73306817D01*
X145612338Y-73304531D01*
X145615137Y-73306817D01*
G37*
G36*
X148938145Y-69716441D02*
G01*
X148940431Y-69739106D01*
X148938145Y-69741905D01*
X148926791Y-69739283D01*
X148925413Y-69729173D01*
X148932401Y-69713453D01*
X148938145Y-69716441D01*
G37*
G36*
X148957159Y-69590714D02*
G01*
X148959681Y-69629814D01*
X148957159Y-69638459D01*
X148950188Y-69640858D01*
X148947526Y-69614586D01*
X148950527Y-69587475D01*
X148957159Y-69590714D01*
G37*
G36*
X148957557Y-69496419D02*
G01*
X148959833Y-69526267D01*
X148956049Y-69533023D01*
X148947369Y-69527327D01*
X148946019Y-69507957D01*
X148950683Y-69487579D01*
X148957557Y-69496419D01*
G37*
G36*
X148995438Y-69238997D02*
G01*
X148992817Y-69250351D01*
X148982706Y-69251729D01*
X148966987Y-69244742D01*
X148969974Y-69238997D01*
X148992639Y-69236712D01*
X148995438Y-69238997D01*
G37*
G36*
X149063872Y-69831111D02*
G01*
X149066271Y-69838082D01*
X149040000Y-69840744D01*
X149012888Y-69837743D01*
X149016127Y-69831111D01*
X149055227Y-69828589D01*
X149063872Y-69831111D01*
G37*
G36*
X149110025Y-68761554D02*
G01*
X149112310Y-68784218D01*
X149110025Y-68787017D01*
X149098671Y-68784396D01*
X149097293Y-68774286D01*
X149104280Y-68758566D01*
X149110025Y-68761554D01*
G37*
G36*
X149110025Y-69181704D02*
G01*
X149107403Y-69193058D01*
X149097293Y-69194436D01*
X149081573Y-69187448D01*
X149084561Y-69181704D01*
X149107225Y-69179419D01*
X149110025Y-69181704D01*
G37*
G36*
X149110025Y-69773734D02*
G01*
X149107403Y-69785088D01*
X149097293Y-69786466D01*
X149081573Y-69779479D01*
X149084561Y-69773734D01*
X149107225Y-69771449D01*
X149110025Y-69773734D01*
G37*
G36*
X149110025Y-69869223D02*
G01*
X149107403Y-69880577D01*
X149097293Y-69881955D01*
X149081573Y-69874967D01*
X149084561Y-69869223D01*
X149107225Y-69866937D01*
X149110025Y-69869223D01*
G37*
G36*
X149110339Y-69057171D02*
G01*
X149112615Y-69087018D01*
X149108831Y-69093775D01*
X149100151Y-69088079D01*
X149098800Y-69068709D01*
X149103465Y-69048331D01*
X149110339Y-69057171D01*
G37*
G36*
X149148220Y-68646967D02*
G01*
X149150506Y-68669632D01*
X149148220Y-68672431D01*
X149136866Y-68669809D01*
X149135488Y-68659699D01*
X149142476Y-68643980D01*
X149148220Y-68646967D01*
G37*
G36*
X149186416Y-68646967D02*
G01*
X149188701Y-68669632D01*
X149186416Y-68672431D01*
X149175062Y-68669809D01*
X149173684Y-68659699D01*
X149180671Y-68643980D01*
X149186416Y-68646967D01*
G37*
G36*
X149358295Y-68627870D02*
G01*
X149355674Y-68639223D01*
X149345563Y-68640601D01*
X149329844Y-68633614D01*
X149332832Y-68627870D01*
X149355496Y-68625584D01*
X149358295Y-68627870D01*
G37*
G36*
X149453784Y-68666065D02*
G01*
X149451162Y-68677419D01*
X149441052Y-68678797D01*
X149425333Y-68671809D01*
X149428320Y-68666065D01*
X149450985Y-68663779D01*
X149453784Y-68666065D01*
G37*
G36*
X149491979Y-69907418D02*
G01*
X149489358Y-69918772D01*
X149479248Y-69920150D01*
X149463528Y-69913163D01*
X149466516Y-69907418D01*
X149489180Y-69905133D01*
X149491979Y-69907418D01*
G37*
G36*
X149568370Y-68608772D02*
G01*
X149565749Y-68620125D01*
X149555639Y-68621504D01*
X149539919Y-68614516D01*
X149542907Y-68608772D01*
X149565571Y-68606486D01*
X149568370Y-68608772D01*
G37*
G36*
X149568370Y-69926516D02*
G01*
X149565749Y-69937870D01*
X149555639Y-69939248D01*
X149539919Y-69932261D01*
X149542907Y-69926516D01*
X149565571Y-69924231D01*
X149568370Y-69926516D01*
G37*
G36*
X149606566Y-69754637D02*
G01*
X149608852Y-69777301D01*
X149606566Y-69780100D01*
X149595212Y-69777479D01*
X149593834Y-69767368D01*
X149600822Y-69751649D01*
X149606566Y-69754637D01*
G37*
G36*
X149740564Y-69190855D02*
G01*
X149742841Y-69220703D01*
X149739057Y-69227459D01*
X149730376Y-69221764D01*
X149729026Y-69202393D01*
X149733690Y-69182015D01*
X149740564Y-69190855D01*
G37*
G36*
X149816955Y-69305442D02*
G01*
X149819232Y-69335289D01*
X149815448Y-69342046D01*
X149806767Y-69336350D01*
X149805417Y-69316980D01*
X149810081Y-69296602D01*
X149816955Y-69305442D01*
G37*
G36*
X149893346Y-68751607D02*
G01*
X149895623Y-68781455D01*
X149891838Y-68788211D01*
X149883158Y-68782515D01*
X149881808Y-68763145D01*
X149886472Y-68742767D01*
X149893346Y-68751607D01*
G37*
G36*
X149912130Y-68818847D02*
G01*
X149914415Y-68841512D01*
X149912130Y-68844311D01*
X149900776Y-68841689D01*
X149899398Y-68831579D01*
X149906386Y-68815859D01*
X149912130Y-68818847D01*
G37*
G36*
X149931144Y-68597632D02*
G01*
X149933666Y-68636731D01*
X149931144Y-68645376D01*
X149924173Y-68647775D01*
X149921511Y-68621504D01*
X149924512Y-68594392D01*
X149931144Y-68597632D01*
G37*
G36*
X150257083Y-66719289D02*
G01*
X150251387Y-66727969D01*
X150232017Y-66729319D01*
X150211639Y-66724655D01*
X150220479Y-66717781D01*
X150250326Y-66715504D01*
X150257083Y-66719289D01*
G37*
G36*
X150313182Y-66527118D02*
G01*
X150310561Y-66538471D01*
X150300451Y-66539850D01*
X150284731Y-66532862D01*
X150287719Y-66527118D01*
X150310383Y-66524832D01*
X150313182Y-66527118D01*
G37*
G36*
X145249857Y-73419812D02*
G01*
X145220026Y-73461580D01*
X145204665Y-73470553D01*
X145201353Y-73456193D01*
X145214280Y-73433047D01*
X145242505Y-73403674D01*
X145283657Y-73367293D01*
X145249857Y-73419812D01*
G37*
G36*
X145389380Y-73365470D02*
G01*
X145409721Y-73383222D01*
X145411428Y-73387518D01*
X145402365Y-73395367D01*
X145383495Y-73377779D01*
X145380958Y-73373891D01*
X145378707Y-73360823D01*
X145389380Y-73365470D01*
G37*
G36*
X145688210Y-73281572D02*
G01*
X145667784Y-73297403D01*
X145645894Y-73300060D01*
X145640601Y-73292945D01*
X145655581Y-73280680D01*
X145670240Y-73274066D01*
X145689954Y-73272732D01*
X145688210Y-73281572D01*
G37*
G36*
X149748933Y-69284617D02*
G01*
X149749833Y-69285503D01*
X149763296Y-69318517D01*
X149761661Y-69330731D01*
X149751821Y-69335165D01*
X149741483Y-69310553D01*
X149737145Y-69281072D01*
X149748933Y-69284617D01*
G37*
G36*
X149946150Y-68327751D02*
G01*
X149973032Y-68343162D01*
X149968529Y-68353127D01*
X149957818Y-68354135D01*
X149931921Y-68340265D01*
X149928180Y-68335256D01*
X149931254Y-68324404D01*
X149946150Y-68327751D01*
G37*
G36*
X145309948Y-73408276D02*
G01*
X145306391Y-73415038D01*
X145288396Y-73433276D01*
X145285039Y-73434135D01*
X145283736Y-73421799D01*
X145287293Y-73415038D01*
X145305287Y-73396799D01*
X145308645Y-73395940D01*
X145309948Y-73408276D01*
G37*
G36*
X145596273Y-73232526D02*
G01*
X145583308Y-73243158D01*
X145548492Y-73259318D01*
X145535563Y-73261671D01*
X145532147Y-73253790D01*
X145545112Y-73243158D01*
X145579928Y-73226998D01*
X145592857Y-73224645D01*
X145596273Y-73232526D01*
G37*
G36*
X149183878Y-68578291D02*
G01*
X149180590Y-68592857D01*
X149162174Y-68618121D01*
X149153142Y-68621504D01*
X149144392Y-68607423D01*
X149147680Y-68592857D01*
X149166096Y-68567593D01*
X149175128Y-68564210D01*
X149183878Y-68578291D01*
G37*
G36*
X149861185Y-68478746D02*
G01*
X149870751Y-68487820D01*
X149872292Y-68504690D01*
X149849520Y-68501886D01*
X149823007Y-68487820D01*
X149805110Y-68472988D01*
X149822312Y-68469079D01*
X149826654Y-68469014D01*
X149861185Y-68478746D01*
G37*
G36*
X150058509Y-68392318D02*
G01*
X150056744Y-68421555D01*
X150045947Y-68460455D01*
X150036990Y-68464887D01*
X150033088Y-68433480D01*
X150033082Y-68431653D01*
X150040526Y-68396001D01*
X150049421Y-68384487D01*
X150058509Y-68392318D01*
G37*
G36*
X150074286Y-68269160D02*
G01*
X150082736Y-68285383D01*
X150088705Y-68317310D01*
X150085545Y-68327136D01*
X150072089Y-68320704D01*
X150063639Y-68304481D01*
X150057670Y-68272554D01*
X150060830Y-68262729D01*
X150074286Y-68269160D01*
G37*
G36*
X150313958Y-66325223D02*
G01*
X150317033Y-66374984D01*
X150313572Y-66401614D01*
X150308410Y-66406078D01*
X150305513Y-66378652D01*
X150305267Y-66358421D01*
X150307147Y-66321437D01*
X150311460Y-66315826D01*
X150313958Y-66325223D01*
G37*
G36*
X149903122Y-68915303D02*
G01*
X149910186Y-68955759D01*
X149902648Y-69007741D01*
X149892477Y-69042253D01*
X149887465Y-69046816D01*
X149885897Y-69018367D01*
X149885927Y-68977863D01*
X149888600Y-68924281D01*
X149896055Y-68907639D01*
X149903122Y-68915303D01*
G37*
G36*
X150336009Y-66455179D02*
G01*
X150337626Y-66456656D01*
X150353411Y-66491823D01*
X150352201Y-66513949D01*
X150344100Y-66533300D01*
X150340862Y-66527088D01*
X150332902Y-66490776D01*
X150326286Y-66469795D01*
X150321317Y-66446888D01*
X150336009Y-66455179D01*
G37*
G36*
X150375280Y-66343466D02*
G01*
X150376261Y-66372744D01*
X150374306Y-66425774D01*
X150367626Y-66442239D01*
X150356729Y-66421526D01*
X150351339Y-66402832D01*
X150349944Y-66356140D01*
X150358079Y-66331216D01*
X150369719Y-66320818D01*
X150375280Y-66343466D01*
G37*
G36*
X145378515Y-73447301D02*
G01*
X145360936Y-73467648D01*
X145344586Y-73481806D01*
X145302144Y-73513829D01*
X145275612Y-73528042D01*
X145270010Y-73523173D01*
X145290357Y-73497949D01*
X145293526Y-73494744D01*
X145335366Y-73462194D01*
X145365143Y-73447021D01*
X145378515Y-73447301D01*
G37*
G36*
X148959277Y-69306457D02*
G01*
X148959445Y-69318571D01*
X148954463Y-69365204D01*
X148944511Y-69414060D01*
X148934560Y-69449853D01*
X148930462Y-69450132D01*
X148929576Y-69423609D01*
X148935440Y-69366204D01*
X148944511Y-69328120D01*
X148955334Y-69299485D01*
X148959277Y-69306457D01*
G37*
G36*
X149499064Y-68631201D02*
G01*
X149536541Y-68640601D01*
X149565366Y-68651479D01*
X149558670Y-68655590D01*
X149546090Y-68655892D01*
X149497627Y-68650002D01*
X149460150Y-68640601D01*
X149431325Y-68629724D01*
X149438021Y-68625613D01*
X149450601Y-68625311D01*
X149499064Y-68631201D01*
G37*
G36*
X149778056Y-69153387D02*
G01*
X149790270Y-69190962D01*
X149797914Y-69233131D01*
X149797145Y-69263154D01*
X149794943Y-69267062D01*
X149782350Y-69261018D01*
X149777410Y-69249688D01*
X149761061Y-69186509D01*
X149757982Y-69147140D01*
X149765115Y-69137143D01*
X149778056Y-69153387D01*
G37*
G36*
X149902814Y-68555658D02*
G01*
X149907903Y-68589610D01*
X149908947Y-68623327D01*
X149908446Y-68677220D01*
X149907168Y-68711081D01*
X149906216Y-68716992D01*
X149898163Y-68702131D01*
X149891892Y-68686784D01*
X149881371Y-68631913D01*
X149885491Y-68576267D01*
X149894916Y-68551711D01*
X149902814Y-68555658D01*
G37*
G36*
X148916397Y-69532920D02*
G01*
X148919891Y-69578219D01*
X148920595Y-69632065D01*
X148917940Y-69665929D01*
X148915117Y-69671880D01*
X148907883Y-69655861D01*
X148906315Y-69634811D01*
X148898410Y-69598842D01*
X148889010Y-69587048D01*
X148879170Y-69562361D01*
X148881767Y-69537879D01*
X148895943Y-69499484D01*
X148907825Y-69498189D01*
X148916397Y-69532920D01*
G37*
G36*
X145458872Y-73280868D02*
G01*
X145459148Y-73302582D01*
X145436441Y-73309683D01*
X145413689Y-73301849D01*
X145404276Y-73290902D01*
X145430526Y-73290902D01*
X145440075Y-73300451D01*
X145449624Y-73290902D01*
X145440075Y-73281353D01*
X145430526Y-73290902D01*
X145404276Y-73290902D01*
X145400590Y-73286616D01*
X145418764Y-73275296D01*
X145449775Y-73273980D01*
X145458872Y-73280868D01*
G37*
G36*
X149859440Y-69152584D02*
G01*
X149859860Y-69159888D01*
X149851685Y-69193879D01*
X149831730Y-69205461D01*
X149812219Y-69188288D01*
X149810964Y-69185274D01*
X149806736Y-69152760D01*
X149811099Y-69142685D01*
X149821255Y-69148111D01*
X149824349Y-69167381D01*
X149826658Y-69192486D01*
X149834495Y-69183038D01*
X149842105Y-69165789D01*
X149854721Y-69141794D01*
X149859440Y-69152584D01*
G37*
G36*
X149358469Y-69913150D02*
G01*
X149392690Y-69923557D01*
X149392645Y-69932405D01*
X149373514Y-69941000D01*
X149330551Y-69954632D01*
X149312046Y-69954049D01*
X149323387Y-69939661D01*
X149326466Y-69937411D01*
X149338369Y-69924936D01*
X149318496Y-69924709D01*
X149297819Y-69928417D01*
X149262637Y-69933757D01*
X149261134Y-69927996D01*
X149273225Y-69919868D01*
X149315450Y-69909437D01*
X149358469Y-69913150D01*
G37*
G36*
X150005026Y-68577605D02*
G01*
X149996516Y-68599361D01*
X149980564Y-68646902D01*
X149977926Y-68670978D01*
X149974616Y-68709068D01*
X149966241Y-68751333D01*
X149955740Y-68787969D01*
X149946049Y-68809174D01*
X149940103Y-68805146D01*
X149939548Y-68799098D01*
X149942231Y-68750222D01*
X149952041Y-68690591D01*
X149966100Y-68631946D01*
X149981528Y-68586032D01*
X149995445Y-68564591D01*
X149997141Y-68564210D01*
X150005026Y-68577605D01*
G37*
G36*
X149526992Y-68573683D02*
G01*
X149476268Y-68588608D01*
X149405532Y-68598781D01*
X149351929Y-68601545D01*
X149276280Y-68606061D01*
X149232972Y-68617823D01*
X149224527Y-68626278D01*
X149216465Y-68630573D01*
X149213387Y-68611955D01*
X149216199Y-68591613D01*
X149232124Y-68580106D01*
X149269365Y-68574976D01*
X149336127Y-68573761D01*
X149340789Y-68573759D01*
X149416938Y-68571736D01*
X149485896Y-68566470D01*
X149526992Y-68560221D01*
X149584285Y-68546682D01*
X149526992Y-68573683D01*
G37*
G36*
X149563789Y-69969324D02*
G01*
X149555639Y-69975494D01*
X149537876Y-69991757D01*
X149554792Y-69996155D01*
X149560413Y-69996249D01*
X149588763Y-70005513D01*
X149593834Y-70015639D01*
X149590212Y-70032442D01*
X149589060Y-70032458D01*
X149569917Y-70024910D01*
X149528609Y-70009121D01*
X149517443Y-70004890D01*
X149479620Y-69988652D01*
X149467163Y-69979134D01*
X149469699Y-69978261D01*
X149501806Y-69973242D01*
X149536541Y-69965977D01*
X149566790Y-69961061D01*
X149563789Y-69969324D01*
G37*
G36*
X149871799Y-68405246D02*
G01*
X149872116Y-68410777D01*
X149861727Y-68435675D01*
X149847318Y-68435769D01*
X149817794Y-68437843D01*
X149787640Y-68455406D01*
X149772412Y-68477814D01*
X149774071Y-68485891D01*
X149765733Y-68497824D01*
X149749988Y-68500972D01*
X149706522Y-68507504D01*
X149670225Y-68515661D01*
X149649674Y-68518972D01*
X149664849Y-68508865D01*
X149685311Y-68499017D01*
X149736594Y-68470927D01*
X149775773Y-68442241D01*
X149777515Y-68440551D01*
X149824448Y-68401165D01*
X149857327Y-68388940D01*
X149871799Y-68405246D01*
G37*
G36*
X150099337Y-68219338D02*
G01*
X150103107Y-68231406D01*
X150095321Y-68247425D01*
X150080115Y-68238958D01*
X150050870Y-68234283D01*
X150011681Y-68259957D01*
X149986230Y-68285961D01*
X149992297Y-68291563D01*
X149998689Y-68289864D01*
X150021790Y-68289535D01*
X150019315Y-68310496D01*
X150017154Y-68331245D01*
X150029837Y-68327494D01*
X150049674Y-68326181D01*
X150052180Y-68333910D01*
X150041668Y-68352971D01*
X150014494Y-68343214D01*
X149988143Y-68319040D01*
X149967275Y-68290446D01*
X149974758Y-68268486D01*
X149992117Y-68251605D01*
X150034744Y-68222893D01*
X150074175Y-68211465D01*
X150099337Y-68219338D01*
G37*
G36*
X147889543Y-69135715D02*
G01*
X147982523Y-69170286D01*
X148057351Y-69222680D01*
X148107955Y-69290557D01*
X148122959Y-69360930D01*
X148104309Y-69429297D01*
X148053954Y-69491153D01*
X147973839Y-69541994D01*
X147908729Y-69566410D01*
X147828997Y-69586221D01*
X147759495Y-69592013D01*
X147681768Y-69584396D01*
X147633000Y-69575543D01*
X147536417Y-69546063D01*
X147454616Y-69501376D01*
X147394414Y-69446785D01*
X147362632Y-69387592D01*
X147359398Y-69362792D01*
X147376715Y-69289226D01*
X147424334Y-69227195D01*
X147495758Y-69178003D01*
X147584488Y-69142954D01*
X147684028Y-69123354D01*
X147787878Y-69120506D01*
X147889543Y-69135715D01*
G37*
G36*
X149089902Y-68824735D02*
G01*
X149096483Y-68834841D01*
X149106363Y-68882795D01*
X149097395Y-68917249D01*
X149081493Y-68963082D01*
X149081076Y-68980387D01*
X149096108Y-68975539D01*
X149097074Y-68974947D01*
X149107761Y-68978099D01*
X149103965Y-68994519D01*
X149090589Y-69014612D01*
X149074379Y-69000285D01*
X149064744Y-68995749D01*
X149067064Y-69026458D01*
X149069005Y-69036880D01*
X149074644Y-69082053D01*
X149070089Y-69098637D01*
X149057487Y-69082690D01*
X149051609Y-69068783D01*
X149046561Y-69031492D01*
X149049882Y-68981116D01*
X149059222Y-68931601D01*
X149072230Y-68896896D01*
X149081923Y-68888872D01*
X149091445Y-68873524D01*
X149088119Y-68845902D01*
X149082077Y-68818412D01*
X149089902Y-68824735D01*
G37*
G36*
X147397594Y-70741353D02*
G01*
X147397594Y-70932331D01*
X147244812Y-70932331D01*
X147092030Y-70932331D01*
X147092030Y-71314286D01*
X147092030Y-71696241D01*
X146862857Y-71696241D01*
X146633684Y-71696241D01*
X146633684Y-71314286D01*
X146633684Y-70932331D01*
X146480902Y-70932331D01*
X146328120Y-70932331D01*
X146328120Y-70741353D01*
X146328120Y-70626767D01*
X146404511Y-70626767D01*
X146404511Y-70741353D01*
X146404511Y-70855940D01*
X146547744Y-70855940D01*
X146690977Y-70855940D01*
X146690977Y-71237895D01*
X146690977Y-71619850D01*
X146853308Y-71619850D01*
X147015639Y-71619850D01*
X147015639Y-71237895D01*
X147015639Y-70855940D01*
X147168421Y-70855940D01*
X147321203Y-70855940D01*
X147321203Y-70741353D01*
X147321203Y-70626767D01*
X146862857Y-70626767D01*
X146404511Y-70626767D01*
X146328120Y-70626767D01*
X146328120Y-70550376D01*
X146862857Y-70550376D01*
X147397594Y-70550376D01*
X147397594Y-70741353D01*
G37*
G36*
X147378496Y-71276090D02*
G01*
X147378496Y-71467068D01*
X147435789Y-71467068D01*
X147493082Y-71467068D01*
X147493082Y-71276090D01*
X147493082Y-71161504D01*
X147569473Y-71161504D01*
X147569473Y-71658045D01*
X147569473Y-72154586D01*
X147731804Y-72154586D01*
X147894135Y-72154586D01*
X147894135Y-71658045D01*
X147894135Y-71161504D01*
X147731804Y-71161504D01*
X147569473Y-71161504D01*
X147493082Y-71161504D01*
X147493082Y-71085113D01*
X147722255Y-71085113D01*
X147951428Y-71085113D01*
X147951428Y-71658045D01*
X147951428Y-72230977D01*
X147722255Y-72230977D01*
X147493082Y-72230977D01*
X147493082Y-72030451D01*
X147493082Y-71829925D01*
X147435789Y-71829925D01*
X147378496Y-71829925D01*
X147378496Y-72030451D01*
X147378496Y-72230977D01*
X147149323Y-72230977D01*
X146920150Y-72230977D01*
X146920150Y-71982707D01*
X146920474Y-71881352D01*
X146922070Y-71812103D01*
X146925875Y-71768875D01*
X146932825Y-71745581D01*
X146943856Y-71736132D01*
X146958345Y-71734436D01*
X146975061Y-71736853D01*
X146986033Y-71748508D01*
X146992463Y-71776001D01*
X146995549Y-71825938D01*
X146996494Y-71904919D01*
X146996541Y-71944511D01*
X146996541Y-72154586D01*
X147158872Y-72154586D01*
X147321203Y-72154586D01*
X147321203Y-71954060D01*
X147321203Y-71753534D01*
X147368947Y-71753534D01*
X147396291Y-71750807D01*
X147410529Y-71736396D01*
X147415909Y-71700954D01*
X147416691Y-71648496D01*
X147415452Y-71588339D01*
X147408901Y-71557016D01*
X147392791Y-71545179D01*
X147368947Y-71543459D01*
X147321203Y-71543459D01*
X147321203Y-71352481D01*
X147321203Y-71161504D01*
X147235263Y-71161504D01*
X147181557Y-71159005D01*
X147156161Y-71148627D01*
X147149356Y-71126052D01*
X147149323Y-71123308D01*
X147153504Y-71101975D01*
X147171870Y-71090448D01*
X147213157Y-71085815D01*
X147263909Y-71085113D01*
X147378496Y-71085113D01*
X147378496Y-71276090D01*
G37*
G36*
X150292585Y-66239152D02*
G01*
X150293569Y-66262654D01*
X150283745Y-66279148D01*
X150270493Y-66317513D01*
X150273410Y-66336621D01*
X150269105Y-66372921D01*
X150238882Y-66422290D01*
X150233369Y-66429031D01*
X150205394Y-66471984D01*
X150203430Y-66497453D01*
X150224710Y-66499749D01*
X150258123Y-66479917D01*
X150275267Y-66468739D01*
X150266636Y-66482617D01*
X150253911Y-66497882D01*
X150220551Y-66526042D01*
X150193528Y-66532220D01*
X150178136Y-66538838D01*
X150174920Y-66577719D01*
X150175964Y-66593614D01*
X150174892Y-66646535D01*
X150164655Y-66684526D01*
X150162392Y-66687857D01*
X150154287Y-66708056D01*
X150167611Y-66711729D01*
X150184134Y-66717487D01*
X150182232Y-66721728D01*
X150159730Y-66725381D01*
X150132051Y-66714572D01*
X150117751Y-66697833D01*
X150119005Y-66692659D01*
X150110258Y-66682397D01*
X150080973Y-66680336D01*
X150044235Y-66692160D01*
X150038129Y-66711729D01*
X150029083Y-66733790D01*
X150016749Y-66734931D01*
X149981218Y-66741027D01*
X149959455Y-66753300D01*
X149951298Y-66755970D01*
X149966402Y-66735606D01*
X149979069Y-66721278D01*
X150013984Y-66721278D01*
X150023533Y-66730827D01*
X150033082Y-66721278D01*
X150023533Y-66711729D01*
X150013984Y-66721278D01*
X149979069Y-66721278D01*
X149981516Y-66718510D01*
X150026084Y-66678665D01*
X150070450Y-66664684D01*
X150100877Y-66665135D01*
X150149579Y-66666414D01*
X150164344Y-66657232D01*
X150148806Y-66633986D01*
X150140712Y-66625653D01*
X150112596Y-66610075D01*
X150092967Y-66621288D01*
X150073129Y-66636430D01*
X150071055Y-66627671D01*
X150083580Y-66603063D01*
X150102075Y-66578045D01*
X150128571Y-66578045D01*
X150143104Y-66596588D01*
X150147669Y-66597143D01*
X150166211Y-66582610D01*
X150166766Y-66578045D01*
X150152234Y-66559502D01*
X150147669Y-66558947D01*
X150129126Y-66573480D01*
X150128571Y-66578045D01*
X150102075Y-66578045D01*
X150107538Y-66570656D01*
X150117067Y-66559992D01*
X150157000Y-66509521D01*
X150195405Y-66449149D01*
X150200328Y-66440091D01*
X150225768Y-66399330D01*
X150245565Y-66380671D01*
X150250227Y-66381406D01*
X150255948Y-66374448D01*
X150252871Y-66340631D01*
X150252387Y-66337931D01*
X150251168Y-66292303D01*
X150261265Y-66254194D01*
X150278146Y-66234744D01*
X150292585Y-66239152D01*
G37*
G36*
X145587726Y-69168201D02*
G01*
X145708106Y-69199906D01*
X145810035Y-69253753D01*
X145843246Y-69281137D01*
X145892541Y-69346522D01*
X145907077Y-69412829D01*
X145890080Y-69476974D01*
X145844777Y-69535872D01*
X145774393Y-69586442D01*
X145682155Y-69625597D01*
X145571289Y-69650254D01*
X145449624Y-69657413D01*
X145303703Y-69641286D01*
X145182053Y-69597123D01*
X145081992Y-69523952D01*
X145041909Y-69486519D01*
X145015343Y-69464930D01*
X145009084Y-69462703D01*
X145007281Y-69484573D01*
X145003686Y-69534570D01*
X144999013Y-69602708D01*
X144998076Y-69616673D01*
X144997805Y-69753055D01*
X145019440Y-69873698D01*
X145066522Y-69996357D01*
X145078949Y-70021983D01*
X145104535Y-70074716D01*
X145121241Y-70111869D01*
X145124962Y-70122610D01*
X145108982Y-70124755D01*
X145072443Y-70118354D01*
X145039481Y-70113691D01*
X145033073Y-70119976D01*
X145033279Y-70120204D01*
X145059645Y-70134180D01*
X145105673Y-70148614D01*
X145109669Y-70149582D01*
X145172706Y-70164511D01*
X145115413Y-70164958D01*
X145064053Y-70162395D01*
X145029473Y-70156464D01*
X144910713Y-70101548D01*
X144865156Y-70062300D01*
X144901922Y-70062300D01*
X144914887Y-70072932D01*
X144949702Y-70089093D01*
X144962631Y-70091445D01*
X144966047Y-70083565D01*
X144953082Y-70072932D01*
X144918267Y-70056772D01*
X144905338Y-70054419D01*
X144901922Y-70062300D01*
X144865156Y-70062300D01*
X144852562Y-70051450D01*
X145015338Y-70051450D01*
X145029328Y-70042297D01*
X145031843Y-70039830D01*
X145046928Y-70014790D01*
X145044883Y-70005585D01*
X145030676Y-70011316D01*
X145021152Y-70029139D01*
X145015338Y-70051450D01*
X144852562Y-70051450D01*
X144817310Y-70021080D01*
X144752541Y-69919427D01*
X144751617Y-69916096D01*
X144790262Y-69916096D01*
X144793629Y-69930311D01*
X144807840Y-69956352D01*
X144814640Y-69945489D01*
X144814247Y-69921473D01*
X144806067Y-69895287D01*
X144797170Y-69893438D01*
X144790262Y-69916096D01*
X144751617Y-69916096D01*
X144723606Y-69815113D01*
X144762105Y-69815113D01*
X144771654Y-69824662D01*
X144781203Y-69815113D01*
X144771654Y-69805564D01*
X144762105Y-69815113D01*
X144723606Y-69815113D01*
X144719679Y-69800957D01*
X144717806Y-69767368D01*
X144723909Y-69767368D01*
X144730897Y-69783088D01*
X144736641Y-69780100D01*
X144738927Y-69757436D01*
X144736641Y-69754637D01*
X144725288Y-69757258D01*
X144723909Y-69767368D01*
X144717806Y-69767368D01*
X144716208Y-69738722D01*
X144718900Y-69720070D01*
X144784455Y-69720070D01*
X144792963Y-69751193D01*
X144807641Y-69767350D01*
X144808123Y-69767368D01*
X144824852Y-69753774D01*
X144830771Y-69745320D01*
X144833021Y-69732251D01*
X144822349Y-69736898D01*
X144803831Y-69734835D01*
X144800300Y-69717568D01*
X144794970Y-69695463D01*
X144788392Y-69696520D01*
X144784455Y-69720070D01*
X144718900Y-69720070D01*
X144732746Y-69624135D01*
X144743007Y-69624135D01*
X144752556Y-69633684D01*
X144760978Y-69625262D01*
X144800300Y-69625262D01*
X144804862Y-69650862D01*
X144815695Y-69641610D01*
X144824938Y-69614560D01*
X144826196Y-69588713D01*
X144817617Y-69587041D01*
X144801711Y-69613539D01*
X144800300Y-69625262D01*
X144760978Y-69625262D01*
X144762105Y-69624135D01*
X144752556Y-69614586D01*
X144743007Y-69624135D01*
X144732746Y-69624135D01*
X144734197Y-69614080D01*
X144744140Y-69590790D01*
X144766005Y-69590790D01*
X144772365Y-69590372D01*
X144792158Y-69572071D01*
X144814117Y-69543311D01*
X144815034Y-69527466D01*
X144799159Y-69533265D01*
X144780519Y-69560432D01*
X144766005Y-69590790D01*
X144744140Y-69590790D01*
X144781957Y-69502208D01*
X144791222Y-69490451D01*
X144819398Y-69490451D01*
X144828947Y-69500000D01*
X144838496Y-69490451D01*
X144828947Y-69480902D01*
X144819398Y-69490451D01*
X144791222Y-69490451D01*
X144848946Y-69417204D01*
X144897983Y-69417204D01*
X144905357Y-69417799D01*
X144912918Y-69414060D01*
X144972180Y-69414060D01*
X144981729Y-69423609D01*
X144991278Y-69414060D01*
X144981729Y-69404511D01*
X144972180Y-69414060D01*
X144912918Y-69414060D01*
X144930846Y-69405195D01*
X144959789Y-69384696D01*
X144962781Y-69374273D01*
X145011883Y-69374273D01*
X145015394Y-69399043D01*
X145021914Y-69399339D01*
X145026473Y-69373779D01*
X145023421Y-69362735D01*
X145014941Y-69355501D01*
X145011883Y-69374273D01*
X144962781Y-69374273D01*
X144963812Y-69370680D01*
X144943783Y-69373742D01*
X144919206Y-69393556D01*
X144897983Y-69417204D01*
X144848946Y-69417204D01*
X144855019Y-69409498D01*
X144948913Y-69342345D01*
X145010375Y-69317855D01*
X145061177Y-69295286D01*
X145105864Y-69266465D01*
X145207965Y-69207770D01*
X145328447Y-69171950D01*
X145458104Y-69158822D01*
X145587726Y-69168201D01*
G37*
G36*
X150348297Y-65088455D02*
G01*
X150404703Y-65115920D01*
X150457110Y-65161686D01*
X150507668Y-65229337D01*
X150558525Y-65322461D01*
X150611829Y-65444643D01*
X150669728Y-65599472D01*
X150690926Y-65660430D01*
X150745211Y-65827642D01*
X150784586Y-65972841D01*
X150811142Y-66108220D01*
X150826968Y-66245968D01*
X150834154Y-66398278D01*
X150835187Y-66502012D01*
X150830902Y-66693322D01*
X150817523Y-66889051D01*
X150794261Y-67093999D01*
X150760332Y-67312964D01*
X150714949Y-67550745D01*
X150657324Y-67812141D01*
X150586672Y-68101951D01*
X150548804Y-68249098D01*
X150486861Y-68487486D01*
X150426069Y-68723602D01*
X150367495Y-68953180D01*
X150312205Y-69171953D01*
X150261265Y-69375654D01*
X150215742Y-69560018D01*
X150176701Y-69720779D01*
X150145208Y-69853671D01*
X150122330Y-69954426D01*
X150120213Y-69964163D01*
X150088150Y-70095397D01*
X150054680Y-70192213D01*
X150016815Y-70258357D01*
X149971572Y-70297576D01*
X149915966Y-70313614D01*
X149847011Y-70310218D01*
X149844721Y-70309857D01*
X149773009Y-70298390D01*
X149741203Y-70412788D01*
X149695160Y-70528322D01*
X149629983Y-70618459D01*
X149556240Y-70674200D01*
X149525361Y-70693089D01*
X149512436Y-70715746D01*
X149513436Y-70755075D01*
X149519181Y-70792875D01*
X149532081Y-70909257D01*
X149534016Y-71024895D01*
X149525096Y-71125499D01*
X149516325Y-71166690D01*
X149493296Y-71217083D01*
X149451453Y-71281635D01*
X149399115Y-71347622D01*
X149395020Y-71352249D01*
X149342752Y-71413238D01*
X149310121Y-71461576D01*
X149290093Y-71511949D01*
X149275632Y-71579047D01*
X149269890Y-71613491D01*
X149253825Y-71698093D01*
X149230493Y-71802532D01*
X149203741Y-71910103D01*
X149189587Y-71962327D01*
X149164583Y-72054185D01*
X149149587Y-72120489D01*
X149143401Y-72172199D01*
X149144830Y-72220277D01*
X149152675Y-72275683D01*
X149154319Y-72285238D01*
X149164365Y-72430622D01*
X149140263Y-72559637D01*
X149081264Y-72674449D01*
X148986618Y-72777222D01*
X148982706Y-72780579D01*
X148921775Y-72824220D01*
X148845035Y-72868054D01*
X148766951Y-72904699D01*
X148701988Y-72926770D01*
X148692597Y-72928661D01*
X148646302Y-72939404D01*
X148621405Y-72950876D01*
X148620024Y-72953596D01*
X148627929Y-72976431D01*
X148648115Y-73021930D01*
X148667171Y-73061729D01*
X148707039Y-73170579D01*
X148715657Y-73268543D01*
X148693123Y-73351366D01*
X148659514Y-73397409D01*
X148590548Y-73441220D01*
X148509241Y-73453565D01*
X148426541Y-73433254D01*
X148409774Y-73424586D01*
X148356758Y-73401849D01*
X148309246Y-73402878D01*
X148256989Y-73430043D01*
X148205236Y-73471872D01*
X148109140Y-73536066D01*
X148004206Y-73565803D01*
X147887766Y-73561259D01*
X147757150Y-73522611D01*
X147714751Y-73504370D01*
X147648781Y-73476810D01*
X147603563Y-73466256D01*
X147566865Y-73470446D01*
X147554453Y-73474713D01*
X147427902Y-73516465D01*
X147275264Y-73555526D01*
X147108650Y-73589372D01*
X146940167Y-73615483D01*
X146813542Y-73628997D01*
X146707460Y-73637867D01*
X146632917Y-73645380D01*
X146583377Y-73653194D01*
X146552303Y-73662963D01*
X146533159Y-73676346D01*
X146519408Y-73694997D01*
X146513542Y-73705020D01*
X146475152Y-73753350D01*
X146423544Y-73781446D01*
X146352774Y-73790445D01*
X146256898Y-73781484D01*
X146184770Y-73767943D01*
X146146836Y-73765760D01*
X146102661Y-73777406D01*
X146042788Y-73806142D01*
X145994095Y-73833704D01*
X145910101Y-73878494D01*
X145839564Y-73902740D01*
X145771497Y-73906724D01*
X145694913Y-73890726D01*
X145598826Y-73855029D01*
X145573759Y-73844466D01*
X145482386Y-73807504D01*
X145413481Y-73787132D01*
X145355413Y-73782737D01*
X145296549Y-73793702D01*
X145225259Y-73819413D01*
X145210902Y-73825274D01*
X145098054Y-73860699D01*
X144995259Y-73872065D01*
X144907351Y-73860689D01*
X144839160Y-73827890D01*
X144795521Y-73774984D01*
X144781203Y-73708099D01*
X144785883Y-73659340D01*
X145002194Y-73659340D01*
X145020124Y-73663282D01*
X145023663Y-73663308D01*
X145060007Y-73657053D01*
X145118165Y-73640809D01*
X145173368Y-73622352D01*
X145275636Y-73592727D01*
X145368787Y-73583952D01*
X145464479Y-73596771D01*
X145574370Y-73631929D01*
X145621503Y-73650975D01*
X145693550Y-73680938D01*
X145751418Y-73704357D01*
X145786746Y-73717879D01*
X145793383Y-73719884D01*
X145813358Y-73711069D01*
X145856443Y-73687382D01*
X145912115Y-73654665D01*
X146012100Y-73599271D01*
X146092321Y-73567615D01*
X146161199Y-73557657D01*
X146227155Y-73567358D01*
X146246954Y-73573563D01*
X146295119Y-73587040D01*
X146324209Y-73589145D01*
X146328120Y-73585618D01*
X146314191Y-73559549D01*
X146277025Y-73516413D01*
X146223557Y-73462569D01*
X146160720Y-73404374D01*
X146095447Y-73348187D01*
X146034673Y-73300364D01*
X145985330Y-73267265D01*
X145974812Y-73261650D01*
X145895064Y-73233483D01*
X145796926Y-73214471D01*
X145693531Y-73205650D01*
X145598014Y-73208059D01*
X145523509Y-73222735D01*
X145516466Y-73225427D01*
X145470607Y-73243226D01*
X145439856Y-73253261D01*
X145439571Y-73253325D01*
X145403279Y-73269435D01*
X145350445Y-73302437D01*
X145289265Y-73345974D01*
X145227938Y-73393687D01*
X145174661Y-73439219D01*
X145137632Y-73476211D01*
X145124962Y-73497330D01*
X145137168Y-73503808D01*
X145145965Y-73499800D01*
X145157375Y-73498578D01*
X145146544Y-73524978D01*
X145145913Y-73526160D01*
X145134620Y-73562237D01*
X145145672Y-73578365D01*
X145155376Y-73599096D01*
X145147564Y-73610150D01*
X145115605Y-73617272D01*
X145093381Y-73607082D01*
X145072414Y-73592317D01*
X145083802Y-73591587D01*
X145105864Y-73596543D01*
X145138027Y-73602847D01*
X145136675Y-73595042D01*
X145119175Y-73580286D01*
X145097894Y-73556828D01*
X145109379Y-73543805D01*
X145109626Y-73543716D01*
X145122973Y-73527030D01*
X145117573Y-73517915D01*
X145097866Y-73515686D01*
X145091874Y-73525555D01*
X145074434Y-73555557D01*
X145042648Y-73598067D01*
X145035498Y-73606721D01*
X145006766Y-73643133D01*
X145002194Y-73659340D01*
X144785883Y-73659340D01*
X144786613Y-73651740D01*
X144799685Y-73607192D01*
X144800241Y-73606126D01*
X144807371Y-73585791D01*
X144796581Y-73573421D01*
X144760637Y-73565291D01*
X144709526Y-73559398D01*
X144400174Y-73517559D01*
X144120520Y-73457301D01*
X143866057Y-73377199D01*
X143632275Y-73275828D01*
X143414667Y-73151764D01*
X143410112Y-73148824D01*
X143266661Y-73040179D01*
X143151333Y-72919560D01*
X143066640Y-72790758D01*
X143015097Y-72657562D01*
X142999135Y-72529124D01*
X143014863Y-72405150D01*
X143057706Y-72298658D01*
X143118960Y-72222073D01*
X143153811Y-72196880D01*
X143212795Y-72160506D01*
X143285932Y-72118956D01*
X143326293Y-72097273D01*
X143391579Y-72062362D01*
X143442694Y-72031010D01*
X143481269Y-71998180D01*
X143508933Y-71958839D01*
X143527318Y-71907952D01*
X143538053Y-71840486D01*
X143542770Y-71751405D01*
X143543098Y-71635676D01*
X143540668Y-71488264D01*
X143539672Y-71438421D01*
X143535269Y-71192563D01*
X143532814Y-70979582D01*
X143532559Y-70794199D01*
X143534756Y-70631134D01*
X143539657Y-70485107D01*
X143547514Y-70350837D01*
X143558579Y-70223045D01*
X143573105Y-70096451D01*
X143591343Y-69965775D01*
X143613546Y-69825735D01*
X143617935Y-69799415D01*
X143655653Y-69608264D01*
X144512386Y-69608264D01*
X144512712Y-69799693D01*
X144543826Y-69968911D01*
X144605491Y-70115558D01*
X144697473Y-70239274D01*
X144819536Y-70339699D01*
X144971445Y-70416471D01*
X145152965Y-70469231D01*
X145255664Y-70486616D01*
X145348985Y-70500101D01*
X145412638Y-70512551D01*
X145454974Y-70526581D01*
X145484345Y-70544807D01*
X145504455Y-70564539D01*
X145530704Y-70606372D01*
X145543203Y-70660591D01*
X145541250Y-70730620D01*
X145524146Y-70819882D01*
X145491189Y-70931799D01*
X145441680Y-71069795D01*
X145374917Y-71237291D01*
X145358824Y-71276090D01*
X145270232Y-71528475D01*
X145212415Y-71788933D01*
X145185155Y-72060882D01*
X145188237Y-72347741D01*
X145221443Y-72652927D01*
X145258378Y-72859313D01*
X145275694Y-72938361D01*
X145292116Y-73003053D01*
X145305229Y-73044335D01*
X145310230Y-73053855D01*
X145334899Y-73055948D01*
X145384088Y-73046527D01*
X145440075Y-73029911D01*
X145510960Y-73009462D01*
X145580976Y-72998879D01*
X145664938Y-72996551D01*
X145729123Y-72998487D01*
X145883930Y-73017352D01*
X146023248Y-73061997D01*
X146154080Y-73135824D01*
X146283427Y-73242238D01*
X146334387Y-73292693D01*
X146471353Y-73434154D01*
X146748270Y-73426946D01*
X146874760Y-73422322D01*
X146976331Y-73414767D01*
X147066239Y-73402553D01*
X147157741Y-73383958D01*
X147244812Y-73362332D01*
X147250454Y-73360595D01*
X147883185Y-73360595D01*
X147906458Y-73371303D01*
X147956148Y-73375334D01*
X148014220Y-73359651D01*
X148080283Y-73312756D01*
X148131314Y-73270194D01*
X148177918Y-73236285D01*
X148193669Y-73226816D01*
X148252437Y-73210247D01*
X148329935Y-73205984D01*
X148408882Y-73213606D01*
X148471997Y-73232691D01*
X148473895Y-73233659D01*
X148510983Y-73251458D01*
X148522537Y-73246774D01*
X148516871Y-73214827D01*
X148515609Y-73209670D01*
X148497426Y-73162021D01*
X148466329Y-73102224D01*
X148450419Y-73076137D01*
X148398086Y-72995056D01*
X148276063Y-73083846D01*
X148198991Y-73137579D01*
X148106735Y-73198502D01*
X148017245Y-73254807D01*
X148003529Y-73263112D01*
X147930629Y-73309084D01*
X147890878Y-73340717D01*
X147883185Y-73360595D01*
X147250454Y-73360595D01*
X147489243Y-73287073D01*
X147714129Y-73192410D01*
X147933538Y-73072009D01*
X148038592Y-73004845D01*
X148190013Y-72898921D01*
X148310922Y-72802063D01*
X148406329Y-72709303D01*
X148481246Y-72615676D01*
X148540683Y-72516214D01*
X148549619Y-72498346D01*
X148609783Y-72357629D01*
X148656096Y-72208455D01*
X148688721Y-72047174D01*
X148707824Y-71870141D01*
X148713568Y-71673705D01*
X148706117Y-71454221D01*
X148685635Y-71208040D01*
X148652287Y-70931513D01*
X148627815Y-70760451D01*
X148593258Y-70559925D01*
X149307368Y-70559925D01*
X149316917Y-70569474D01*
X149326466Y-70559925D01*
X149316917Y-70550376D01*
X149307368Y-70559925D01*
X148593258Y-70559925D01*
X148580094Y-70483534D01*
X148982706Y-70483534D01*
X148992255Y-70493083D01*
X149001804Y-70483534D01*
X148992255Y-70473985D01*
X148982706Y-70483534D01*
X148580094Y-70483534D01*
X148563638Y-70388045D01*
X148944511Y-70388045D01*
X148954060Y-70397594D01*
X148963609Y-70388045D01*
X148954060Y-70378496D01*
X148944511Y-70388045D01*
X148563638Y-70388045D01*
X148553848Y-70331237D01*
X148553740Y-70330752D01*
X148982706Y-70330752D01*
X148992255Y-70340301D01*
X149001804Y-70330752D01*
X148992255Y-70321203D01*
X148982706Y-70330752D01*
X148553740Y-70330752D01*
X148528154Y-70216165D01*
X148849022Y-70216165D01*
X148858571Y-70225714D01*
X148868120Y-70216165D01*
X148858571Y-70206616D01*
X148849022Y-70216165D01*
X148528154Y-70216165D01*
X148495084Y-70068062D01*
X149765714Y-70068062D01*
X149782343Y-70089961D01*
X149822587Y-70103308D01*
X149859923Y-70104322D01*
X149874735Y-70088513D01*
X149893466Y-70042304D01*
X149916800Y-69963546D01*
X149945422Y-69850092D01*
X149958160Y-69796000D01*
X149982619Y-69692649D01*
X150014482Y-69561191D01*
X150051556Y-69410491D01*
X150091650Y-69249414D01*
X150132572Y-69086822D01*
X150165943Y-68955714D01*
X150208314Y-68790239D01*
X150254162Y-68611205D01*
X150300725Y-68429394D01*
X150345241Y-68255592D01*
X150384949Y-68100581D01*
X150408059Y-68010376D01*
X150487118Y-67679212D01*
X150550575Y-67364797D01*
X150598081Y-67070069D01*
X150629286Y-66797965D01*
X150643841Y-66551422D01*
X150641397Y-66333377D01*
X150626163Y-66175839D01*
X150596407Y-66024301D01*
X150549432Y-65851810D01*
X150488619Y-65669581D01*
X150423601Y-65503554D01*
X150378184Y-65402509D01*
X150340940Y-65335580D01*
X150309821Y-65300085D01*
X150282777Y-65293338D01*
X150268905Y-65300902D01*
X150245721Y-65338774D01*
X150253155Y-65391398D01*
X150280527Y-65445489D01*
X150317937Y-65520126D01*
X150357990Y-65622559D01*
X150397462Y-65742845D01*
X150433127Y-65871038D01*
X150461760Y-65997194D01*
X150465124Y-66014662D01*
X150479631Y-66103887D01*
X150489900Y-66198202D01*
X150496466Y-66306088D01*
X150499866Y-66436030D01*
X150500660Y-66578045D01*
X150498716Y-66731385D01*
X150492619Y-66878083D01*
X150481568Y-67022917D01*
X150464764Y-67170663D01*
X150441405Y-67326099D01*
X150410691Y-67494002D01*
X150371820Y-67679148D01*
X150323993Y-67886315D01*
X150266408Y-68120280D01*
X150198266Y-68385820D01*
X150196569Y-68392331D01*
X150121507Y-68680401D01*
X150055530Y-68933725D01*
X149998070Y-69154510D01*
X149948559Y-69344964D01*
X149906430Y-69507297D01*
X149871114Y-69643716D01*
X149842044Y-69756430D01*
X149818652Y-69847648D01*
X149800371Y-69919578D01*
X149786631Y-69974429D01*
X149776867Y-70014408D01*
X149770509Y-70041725D01*
X149766989Y-70058587D01*
X149765741Y-70067204D01*
X149765714Y-70068062D01*
X148495084Y-70068062D01*
X148465903Y-69937376D01*
X148435661Y-69831028D01*
X148874486Y-69831028D01*
X148877107Y-69842381D01*
X148887218Y-69843759D01*
X148902937Y-69836772D01*
X148899949Y-69831028D01*
X148877285Y-69828742D01*
X148874486Y-69831028D01*
X148435661Y-69831028D01*
X148418987Y-69772392D01*
X148799114Y-69772392D01*
X148806792Y-69812650D01*
X148835826Y-69824369D01*
X148844870Y-69817721D01*
X148831916Y-69807199D01*
X148814748Y-69777205D01*
X148815670Y-69770856D01*
X148830014Y-69770856D01*
X148844153Y-69783290D01*
X148849022Y-69786466D01*
X148890177Y-69800459D01*
X148925413Y-69803368D01*
X148973157Y-69801757D01*
X148925413Y-69786466D01*
X148877785Y-69774014D01*
X148849022Y-69769564D01*
X148830014Y-69770856D01*
X148815670Y-69770856D01*
X148817458Y-69758536D01*
X148837658Y-69737907D01*
X148851838Y-69740462D01*
X148865205Y-69742855D01*
X148861607Y-69734085D01*
X148856933Y-69703075D01*
X148862252Y-69654608D01*
X148863226Y-69649969D01*
X148877259Y-69585940D01*
X148887013Y-69671880D01*
X148896766Y-69757820D01*
X148973157Y-69754239D01*
X149017371Y-69753138D01*
X149026591Y-69756601D01*
X149003884Y-69765958D01*
X149001804Y-69766659D01*
X148971724Y-69778381D01*
X148976531Y-69783812D01*
X148992255Y-69785424D01*
X149011782Y-69790009D01*
X148999369Y-69801200D01*
X148973157Y-69813686D01*
X148937966Y-69833329D01*
X148937675Y-69846598D01*
X148944511Y-69849918D01*
X149050483Y-69886042D01*
X149133928Y-69907009D01*
X149189898Y-69911656D01*
X149199860Y-69909906D01*
X149224477Y-69905790D01*
X149215973Y-69915672D01*
X149211273Y-69931564D01*
X149234592Y-69946791D01*
X149275797Y-69958895D01*
X149324754Y-69965417D01*
X149371329Y-69963897D01*
X149392728Y-69958566D01*
X149441968Y-69944536D01*
X149475716Y-69940701D01*
X149481296Y-69946875D01*
X149456108Y-69960532D01*
X149442196Y-69965892D01*
X149376498Y-69989630D01*
X149480392Y-70020192D01*
X149548704Y-70039941D01*
X149588280Y-70049387D01*
X149606999Y-70049109D01*
X149612736Y-70039687D01*
X149613224Y-70029962D01*
X149617990Y-70017209D01*
X149629672Y-70031577D01*
X149644132Y-70042143D01*
X149656050Y-70017788D01*
X149657401Y-70012808D01*
X149659471Y-69971276D01*
X149650502Y-69950081D01*
X149635242Y-69947743D01*
X149631282Y-69968850D01*
X149625721Y-69981962D01*
X149610242Y-69958338D01*
X149601842Y-69939942D01*
X149584653Y-69885672D01*
X149580215Y-69839567D01*
X149580891Y-69834905D01*
X149586932Y-69818401D01*
X149591430Y-69839203D01*
X149592576Y-69853308D01*
X149596629Y-69890044D01*
X149603965Y-69892213D01*
X149614568Y-69872406D01*
X149625460Y-69853257D01*
X149625644Y-69867354D01*
X149621222Y-69891465D01*
X149617404Y-69926488D01*
X149623383Y-69935030D01*
X149624466Y-69934080D01*
X149636599Y-69907464D01*
X149649380Y-69858410D01*
X149653176Y-69838630D01*
X149667248Y-69757820D01*
X149664740Y-69838171D01*
X149666145Y-69891179D01*
X149672691Y-69926696D01*
X149675777Y-69932069D01*
X149686825Y-69928070D01*
X149689724Y-69909010D01*
X149695110Y-69874636D01*
X149709127Y-69814658D01*
X149729145Y-69739970D01*
X149737468Y-69711056D01*
X149763655Y-69619598D01*
X149778760Y-69560240D01*
X149783477Y-69528748D01*
X149778498Y-69520888D01*
X149767183Y-69529601D01*
X149751931Y-69560446D01*
X149741398Y-69605038D01*
X149736008Y-69638462D01*
X149732986Y-69637765D01*
X149730762Y-69601064D01*
X149730380Y-69591841D01*
X149733365Y-69542574D01*
X149744395Y-69511675D01*
X149747202Y-69509187D01*
X149758766Y-69483637D01*
X149759668Y-69438570D01*
X149759419Y-69436443D01*
X149756647Y-69405836D01*
X149759312Y-69407420D01*
X149760567Y-69412382D01*
X149770434Y-69436320D01*
X149785087Y-69424929D01*
X149787126Y-69421930D01*
X149797479Y-69413513D01*
X149794533Y-69440070D01*
X149792870Y-69447481D01*
X149787193Y-69485119D01*
X149790743Y-69500000D01*
X149800600Y-69483270D01*
X149813626Y-69441116D01*
X149819009Y-69418835D01*
X149831188Y-69367720D01*
X149851444Y-69286315D01*
X149878057Y-69181245D01*
X149909309Y-69059139D01*
X149943480Y-68926622D01*
X149978851Y-68790322D01*
X150013703Y-68656866D01*
X150046316Y-68532881D01*
X150074970Y-68424993D01*
X150097947Y-68339829D01*
X150112580Y-68287293D01*
X150159598Y-68120254D01*
X150196339Y-67981647D01*
X150222426Y-67873120D01*
X150237486Y-67796323D01*
X150241143Y-67752904D01*
X150236312Y-67743232D01*
X150209373Y-67745697D01*
X150152388Y-67752328D01*
X150071753Y-67762281D01*
X149973863Y-67774714D01*
X149865113Y-67788783D01*
X149751900Y-67803645D01*
X149640619Y-67818457D01*
X149537665Y-67832376D01*
X149449434Y-67844558D01*
X149382321Y-67854161D01*
X149342722Y-67860341D01*
X149334789Y-67862088D01*
X149328013Y-67881605D01*
X149312632Y-67932570D01*
X149290166Y-68009603D01*
X149262138Y-68107324D01*
X149230068Y-68220353D01*
X149195479Y-68343310D01*
X149159891Y-68470814D01*
X149124827Y-68597485D01*
X149091807Y-68717944D01*
X149069735Y-68799354D01*
X149044931Y-68896004D01*
X149025473Y-68980896D01*
X149012895Y-69046579D01*
X149008732Y-69085600D01*
X149009550Y-69091586D01*
X149011105Y-69110898D01*
X149004066Y-69109894D01*
X148993536Y-69123549D01*
X148975714Y-69167962D01*
X148952771Y-69236889D01*
X148926882Y-69324084D01*
X148916386Y-69361948D01*
X148888061Y-69464291D01*
X148860569Y-69560375D01*
X148836687Y-69640703D01*
X148819193Y-69695781D01*
X148816382Y-69703833D01*
X148799114Y-69772392D01*
X148418987Y-69772392D01*
X148363891Y-69578641D01*
X148247726Y-69254807D01*
X148117323Y-68965647D01*
X147972593Y-68710934D01*
X147813451Y-68490443D01*
X147717097Y-68380873D01*
X147594313Y-68251274D01*
X147469196Y-68243307D01*
X147391815Y-68242495D01*
X147319315Y-68248548D01*
X147277124Y-68257437D01*
X147217589Y-68290166D01*
X147149840Y-68347391D01*
X147082956Y-68419554D01*
X147026018Y-68497096D01*
X146994374Y-68555113D01*
X146956678Y-68673681D01*
X146935027Y-68815662D01*
X146929820Y-68969621D01*
X146941459Y-69124126D01*
X146969530Y-69264821D01*
X146986525Y-69319637D01*
X147006506Y-69353275D01*
X147039252Y-69373246D01*
X147094543Y-69387061D01*
X147138886Y-69394889D01*
X147227799Y-69418512D01*
X147302184Y-69454356D01*
X147353365Y-69497365D01*
X147371024Y-69530122D01*
X147366240Y-69585004D01*
X147326977Y-69638418D01*
X147256905Y-69687022D01*
X147159695Y-69727476D01*
X147151328Y-69730114D01*
X146991185Y-69768036D01*
X146812891Y-69791072D01*
X146634092Y-69797655D01*
X146491158Y-69788696D01*
X146351208Y-69764042D01*
X146243944Y-69729727D01*
X146170027Y-69687948D01*
X146130117Y-69640901D01*
X146128817Y-69628474D01*
X146201957Y-69628474D01*
X146222318Y-69627195D01*
X146235471Y-69614033D01*
X146249362Y-69597362D01*
X146246119Y-69614632D01*
X146244816Y-69618749D01*
X146242397Y-69644393D01*
X146258505Y-69664219D01*
X146299414Y-69682317D01*
X146371400Y-69702782D01*
X146375182Y-69703750D01*
X146448623Y-69715289D01*
X146549259Y-69721349D01*
X146666531Y-69722242D01*
X146789880Y-69718283D01*
X146908748Y-69709783D01*
X147012575Y-69697057D01*
X147082481Y-69682782D01*
X147182698Y-69648598D01*
X147252280Y-69609433D01*
X147288181Y-69567266D01*
X147292556Y-69546467D01*
X147282076Y-69522350D01*
X147246471Y-69500124D01*
X147179494Y-69475917D01*
X147177969Y-69475441D01*
X147103565Y-69459103D01*
X147010249Y-69448949D01*
X146904120Y-69444507D01*
X146791279Y-69445307D01*
X146677825Y-69450876D01*
X146569859Y-69460744D01*
X146473481Y-69474438D01*
X146394791Y-69491488D01*
X146339888Y-69511421D01*
X146314873Y-69533767D01*
X146314334Y-69542195D01*
X146303352Y-69565367D01*
X146292040Y-69571707D01*
X146275108Y-69570724D01*
X146278844Y-69559771D01*
X146284150Y-69540209D01*
X146268256Y-69541059D01*
X146240335Y-69559572D01*
X146222976Y-69576508D01*
X146201986Y-69608889D01*
X146201957Y-69628474D01*
X146128817Y-69628474D01*
X146124874Y-69590784D01*
X146154958Y-69539792D01*
X146221028Y-69490124D01*
X146323746Y-69443975D01*
X146381889Y-69425004D01*
X146490451Y-69392864D01*
X146496226Y-69293562D01*
X146494120Y-69191826D01*
X146479569Y-69070648D01*
X146455375Y-68945608D01*
X146424337Y-68832283D01*
X146403014Y-68775039D01*
X146327784Y-68639693D01*
X146223795Y-68508494D01*
X146100015Y-68390201D01*
X145965411Y-68293572D01*
X145850676Y-68235608D01*
X145786671Y-68213873D01*
X145719113Y-68200675D01*
X145635477Y-68194199D01*
X145554367Y-68192661D01*
X145463563Y-68193190D01*
X145398506Y-68197343D01*
X145346768Y-68207519D01*
X145295920Y-68226117D01*
X145236692Y-68253980D01*
X145106886Y-68337229D01*
X144983066Y-68454423D01*
X144867717Y-68601475D01*
X144763323Y-68774294D01*
X144672372Y-68968791D01*
X144597349Y-69180879D01*
X144543082Y-69394985D01*
X144512386Y-69608264D01*
X143655653Y-69608264D01*
X143684121Y-69463989D01*
X143765380Y-69159553D01*
X143863154Y-68881417D01*
X143978889Y-68624891D01*
X143980607Y-68621504D01*
X144123783Y-68376603D01*
X144289572Y-68162118D01*
X144479309Y-67976748D01*
X144694328Y-67819189D01*
X144935963Y-67688138D01*
X144937571Y-67687395D01*
X145206059Y-67583445D01*
X145486194Y-67512577D01*
X145773907Y-67474088D01*
X146065133Y-67467275D01*
X146355804Y-67491435D01*
X146641853Y-67545864D01*
X146919213Y-67629860D01*
X147183817Y-67742719D01*
X147431597Y-67883739D01*
X147658487Y-68052216D01*
X147798646Y-68181985D01*
X147966880Y-68374114D01*
X148125897Y-68598393D01*
X148272465Y-68849251D01*
X148403349Y-69121115D01*
X148515316Y-69408411D01*
X148522446Y-69429207D01*
X148553162Y-69517916D01*
X148579672Y-69591319D01*
X148599584Y-69643028D01*
X148610506Y-69666656D01*
X148611623Y-69667374D01*
X148618004Y-69648204D01*
X148633414Y-69596417D01*
X148656657Y-69516198D01*
X148686535Y-69411731D01*
X148721850Y-69287201D01*
X148761406Y-69146792D01*
X148800479Y-69007312D01*
X148887261Y-68697441D01*
X148965200Y-68420827D01*
X149035375Y-68173842D01*
X149098864Y-67952858D01*
X149156742Y-67754248D01*
X149158414Y-67748612D01*
X149361759Y-67748612D01*
X149362418Y-67776112D01*
X149371783Y-67781203D01*
X149396470Y-67778850D01*
X149453379Y-67772255D01*
X149536858Y-67762108D01*
X149641253Y-67749103D01*
X149760912Y-67733932D01*
X149830326Y-67725026D01*
X149954702Y-67708787D01*
X150065726Y-67693878D01*
X150158024Y-67681056D01*
X150226221Y-67671075D01*
X150264942Y-67664691D01*
X150271758Y-67662958D01*
X150278813Y-67641618D01*
X150289877Y-67594368D01*
X150302855Y-67532042D01*
X150315650Y-67465473D01*
X150326167Y-67405497D01*
X150332310Y-67362947D01*
X150332572Y-67348612D01*
X150313872Y-67352157D01*
X150264424Y-67364318D01*
X150190270Y-67383456D01*
X150097453Y-67407932D01*
X149992018Y-67436107D01*
X149880008Y-67466340D01*
X149767466Y-67496992D01*
X149660437Y-67526424D01*
X149564963Y-67552997D01*
X149487088Y-67575071D01*
X149432857Y-67591006D01*
X149408311Y-67599163D01*
X149407695Y-67599507D01*
X149399967Y-67618041D01*
X149385531Y-67661555D01*
X149376143Y-67692017D01*
X149361759Y-67748612D01*
X149158414Y-67748612D01*
X149210089Y-67574384D01*
X149231287Y-67504388D01*
X149441996Y-67504388D01*
X149448876Y-67513835D01*
X149468722Y-67508927D01*
X149520045Y-67495172D01*
X149597540Y-67474021D01*
X149695903Y-67446926D01*
X149809830Y-67415339D01*
X149873174Y-67397700D01*
X149994927Y-67363400D01*
X150105488Y-67331591D01*
X150199132Y-67303975D01*
X150270133Y-67282251D01*
X150312764Y-67268122D01*
X150321451Y-67264546D01*
X150342788Y-67240151D01*
X150358381Y-67201118D01*
X150365018Y-67161527D01*
X150359488Y-67135457D01*
X150351719Y-67131880D01*
X150324566Y-67137965D01*
X150268506Y-67154803D01*
X150189621Y-67180264D01*
X150093994Y-67212221D01*
X149987709Y-67248545D01*
X149876847Y-67287107D01*
X149767494Y-67325780D01*
X149665731Y-67362434D01*
X149577642Y-67394942D01*
X149509310Y-67421174D01*
X149466818Y-67439003D01*
X149455668Y-67445397D01*
X149443808Y-67475366D01*
X149441996Y-67504388D01*
X149231287Y-67504388D01*
X149259982Y-67409638D01*
X149283187Y-67334794D01*
X149491617Y-67334794D01*
X149504513Y-67336643D01*
X149528372Y-67328504D01*
X149583142Y-67310177D01*
X149663464Y-67283443D01*
X149763979Y-67250086D01*
X149879326Y-67211886D01*
X149954200Y-67187127D01*
X150101693Y-67137600D01*
X150215603Y-67097340D01*
X150299016Y-67064929D01*
X150355019Y-67038945D01*
X150386699Y-67017970D01*
X150397141Y-67000582D01*
X150390525Y-66986415D01*
X150370347Y-66989341D01*
X150319051Y-67002959D01*
X150241708Y-67025746D01*
X150143390Y-67056176D01*
X150029167Y-67092723D01*
X149941455Y-67121464D01*
X149799588Y-67168862D01*
X149690239Y-67206668D01*
X149609421Y-67236517D01*
X149553142Y-67260047D01*
X149517416Y-67278895D01*
X149498252Y-67294698D01*
X149492276Y-67305809D01*
X149491617Y-67334794D01*
X149283187Y-67334794D01*
X149307498Y-67256382D01*
X149335503Y-67168281D01*
X149536541Y-67168281D01*
X149553834Y-67167194D01*
X149602372Y-67155527D01*
X149677141Y-67134710D01*
X149773127Y-67106173D01*
X149885319Y-67071346D01*
X149961466Y-67047014D01*
X150098282Y-67002475D01*
X150202862Y-66967374D01*
X150279482Y-66939934D01*
X150332417Y-66918381D01*
X150365944Y-66900939D01*
X150384338Y-66885832D01*
X150391877Y-66871286D01*
X150392493Y-66868052D01*
X150394719Y-66835273D01*
X150391889Y-66826316D01*
X150370834Y-66832731D01*
X150320374Y-66850411D01*
X150246793Y-66877011D01*
X150156374Y-66910183D01*
X150055401Y-66947580D01*
X149950156Y-66986857D01*
X149846924Y-67025666D01*
X149751988Y-67061661D01*
X149671630Y-67092496D01*
X149612134Y-67115823D01*
X149579783Y-67129296D01*
X149577114Y-67130607D01*
X149545772Y-67153235D01*
X149536541Y-67168281D01*
X149335503Y-67168281D01*
X149353715Y-67110989D01*
X149381995Y-67024200D01*
X149601758Y-67024200D01*
X149607111Y-67034870D01*
X149613695Y-67036391D01*
X149626412Y-67025664D01*
X149624220Y-67020107D01*
X149627088Y-66994612D01*
X149643608Y-66967588D01*
X149665000Y-66943102D01*
X149668748Y-66949809D01*
X149664515Y-66971902D01*
X149664343Y-67001482D01*
X149687439Y-67004141D01*
X149692146Y-67002991D01*
X149716167Y-66989124D01*
X149708489Y-66969631D01*
X149703056Y-66945415D01*
X149730637Y-66918283D01*
X149734982Y-66915378D01*
X149772003Y-66896485D01*
X149795122Y-66902678D01*
X149801757Y-66909662D01*
X149810175Y-66929207D01*
X149789185Y-66932827D01*
X149758453Y-66941012D01*
X149749150Y-66960114D01*
X149766940Y-66976323D01*
X149780514Y-66972923D01*
X149774788Y-66959232D01*
X149771012Y-66942404D01*
X149789813Y-66946063D01*
X149827728Y-66946669D01*
X149883690Y-66932395D01*
X149946607Y-66908116D01*
X150005389Y-66878703D01*
X150048945Y-66849028D01*
X150066151Y-66824669D01*
X150060681Y-66794640D01*
X150050993Y-66788120D01*
X150033356Y-66804298D01*
X150030196Y-66844026D01*
X150031294Y-66851607D01*
X150021955Y-66858713D01*
X150014311Y-66855164D01*
X149987211Y-66857416D01*
X149963247Y-66874325D01*
X149924278Y-66895608D01*
X149896525Y-66896422D01*
X149872487Y-66896004D01*
X149871852Y-66904488D01*
X149869238Y-66920797D01*
X149863457Y-66921804D01*
X149837298Y-66910391D01*
X149836552Y-66888216D01*
X149851763Y-66876661D01*
X149855360Y-66873598D01*
X149896036Y-66873598D01*
X149899398Y-66882879D01*
X149934277Y-66870923D01*
X149971015Y-66846491D01*
X150006308Y-66811664D01*
X150012132Y-66791953D01*
X149999661Y-66788807D01*
X149975191Y-66799224D01*
X149943391Y-66822806D01*
X149913821Y-66850587D01*
X149896036Y-66873598D01*
X149855360Y-66873598D01*
X149877028Y-66855144D01*
X149880300Y-66843674D01*
X149871932Y-66832631D01*
X149851192Y-66845797D01*
X149823254Y-66861427D01*
X149812401Y-66860271D01*
X149819598Y-66844582D01*
X149850175Y-66819525D01*
X149853409Y-66817373D01*
X149883853Y-66800636D01*
X149892245Y-66803011D01*
X149891073Y-66805237D01*
X149885924Y-66824318D01*
X149908628Y-66818724D01*
X149946974Y-66796023D01*
X149986053Y-66777675D01*
X150011605Y-66777101D01*
X150037748Y-66774303D01*
X150060722Y-66757753D01*
X150093071Y-66738303D01*
X150115667Y-66747140D01*
X150147430Y-66757696D01*
X150196511Y-66758493D01*
X150251862Y-66751579D01*
X150302435Y-66739005D01*
X150337185Y-66722819D01*
X150345063Y-66705071D01*
X150344823Y-66704630D01*
X150342780Y-66693750D01*
X150349908Y-66698997D01*
X150366393Y-66720737D01*
X150367293Y-66724645D01*
X150350230Y-66740088D01*
X150306938Y-66755824D01*
X150249261Y-66769095D01*
X150189043Y-66777137D01*
X150140730Y-66777465D01*
X150094996Y-66775637D01*
X150082777Y-66781741D01*
X150088048Y-66786385D01*
X150103740Y-66813188D01*
X150099238Y-66827426D01*
X150095613Y-66843268D01*
X150120664Y-66837436D01*
X150157642Y-66824286D01*
X150217258Y-66804558D01*
X150276578Y-66785679D01*
X150395939Y-66748390D01*
X150395939Y-66491338D01*
X150395382Y-66397245D01*
X150393855Y-66318609D01*
X150391573Y-66262399D01*
X150388755Y-66235583D01*
X150387952Y-66234286D01*
X150365512Y-66228342D01*
X150349540Y-66222610D01*
X150327987Y-66221326D01*
X150330200Y-66246483D01*
X150334809Y-66266751D01*
X150324404Y-66254821D01*
X150316093Y-66241861D01*
X150286545Y-66214353D01*
X150262255Y-66211054D01*
X150243900Y-66212591D01*
X150246182Y-66206821D01*
X150275077Y-66191431D01*
X150284377Y-66189346D01*
X150323388Y-66176018D01*
X150336822Y-66168730D01*
X150354541Y-66162027D01*
X150350019Y-66174042D01*
X150348943Y-66193683D01*
X150356617Y-66196090D01*
X150374553Y-66180640D01*
X150376842Y-66167444D01*
X150364090Y-66142553D01*
X150352969Y-66139615D01*
X150328514Y-66148310D01*
X150276675Y-66171765D01*
X150203857Y-66206921D01*
X150116460Y-66250719D01*
X150063166Y-66278073D01*
X149797235Y-66415714D01*
X149707897Y-66673534D01*
X149665153Y-66797929D01*
X149634306Y-66890807D01*
X149614216Y-66956555D01*
X149603747Y-66999557D01*
X149601758Y-67024200D01*
X149381995Y-67024200D01*
X149399711Y-66969830D01*
X149446563Y-66829278D01*
X149454004Y-66807218D01*
X149512830Y-66637023D01*
X149577129Y-66457991D01*
X149641552Y-66284174D01*
X149850031Y-66284174D01*
X149858600Y-66290057D01*
X149882573Y-66284682D01*
X149926611Y-66266443D01*
X149995376Y-66233738D01*
X150089601Y-66186930D01*
X150179354Y-66140257D01*
X150256626Y-66096871D01*
X150314965Y-66060639D01*
X150347919Y-66035430D01*
X150352582Y-66029213D01*
X150354007Y-65992467D01*
X150344186Y-65928934D01*
X150325438Y-65847530D01*
X150300084Y-65757174D01*
X150270443Y-65666783D01*
X150238833Y-65585276D01*
X150234598Y-65575568D01*
X150183880Y-65461136D01*
X150145064Y-65546922D01*
X150121959Y-65599879D01*
X150089739Y-65676270D01*
X150051315Y-65768925D01*
X150009596Y-65870673D01*
X149967492Y-65974342D01*
X149927914Y-66072763D01*
X149893770Y-66158763D01*
X149867971Y-66225173D01*
X149853426Y-66264821D01*
X149852205Y-66268636D01*
X149850031Y-66284174D01*
X149641552Y-66284174D01*
X149645079Y-66274657D01*
X149714859Y-66091556D01*
X149784646Y-65913225D01*
X149852620Y-65744199D01*
X149916959Y-65589013D01*
X149975842Y-65452203D01*
X150027447Y-65338306D01*
X150069953Y-65251855D01*
X150098955Y-65201218D01*
X150162400Y-65130858D01*
X150237028Y-65089713D01*
X150315290Y-65081196D01*
X150348297Y-65088455D01*
G37*
D11*
%TO.C,C16*%
X158620000Y-50572836D02*
X158620000Y-50357164D01*
X159340000Y-50572836D02*
X159340000Y-50357164D01*
%TO.C,U5*%
X145000000Y-58765000D02*
X144200000Y-58765000D01*
X145000000Y-58765000D02*
X145800000Y-58765000D01*
X145000000Y-61885000D02*
X144200000Y-61885000D01*
X145000000Y-61885000D02*
X145800000Y-61885000D01*
X146540000Y-62165000D02*
X146060000Y-62165000D01*
X146300000Y-61835000D01*
X146540000Y-62165000D01*
G36*
X146540000Y-62165000D02*
G01*
X146060000Y-62165000D01*
X146300000Y-61835000D01*
X146540000Y-62165000D01*
G37*
D10*
%TO.C,USB4105-GF-A1*%
X154512500Y-54530000D02*
X155762500Y-54530000D01*
X154512500Y-63470000D02*
X155762500Y-63470000D01*
X158482500Y-63470000D02*
X159762500Y-63470000D01*
X159762500Y-54530000D02*
X158482500Y-54530000D01*
X151262500Y-62250000D02*
G75*
G02*
X151062500Y-62250000I-100000J0D01*
G01*
X151062500Y-62250000D02*
G75*
G02*
X151262500Y-62250000I100000J0D01*
G01*
D11*
%TO.C,R2*%
X147620000Y-39846359D02*
X147620000Y-40153641D01*
X148380000Y-39846359D02*
X148380000Y-40153641D01*
%TO.C,C4*%
X151107836Y-47140000D02*
X150892164Y-47140000D01*
X151107836Y-47860000D02*
X150892164Y-47860000D01*
%TO.C,D1*%
X121500000Y-52710000D02*
X121500000Y-48850000D01*
X121500000Y-52710000D02*
X123500000Y-52710000D01*
X123500000Y-52710000D02*
X123500000Y-48850000D01*
%TO.C,C21*%
X124640000Y-44607836D02*
X124640000Y-44392164D01*
X125360000Y-44607836D02*
X125360000Y-44392164D01*
D10*
%TO.C,SW1*%
X144900000Y-43600000D02*
X144900000Y-44400000D01*
X145900000Y-42300000D02*
X148400000Y-42300000D01*
X145900000Y-45700000D02*
X148300000Y-45700000D01*
X149300000Y-43600000D02*
X149300000Y-44400000D01*
X146100000Y-42800000D02*
G75*
G02*
X145900000Y-42800000I-100000J0D01*
G01*
X145900000Y-42800000D02*
G75*
G02*
X146100000Y-42800000I100000J0D01*
G01*
D15*
%TO.C,U3*%
X125750000Y-57675000D02*
X126250000Y-57675000D01*
X125750000Y-58175000D02*
X125750000Y-57675000D01*
X129250000Y-57675000D02*
X129750000Y-57675000D01*
X129750000Y-57675000D02*
X129750000Y-58175000D01*
X129750000Y-61175000D02*
X129750000Y-61675000D01*
X129750000Y-61675000D02*
X129250000Y-61675000D01*
D11*
%TO.C,R7*%
X150653641Y-60120000D02*
X150346359Y-60120000D01*
X150653641Y-60880000D02*
X150346359Y-60880000D01*
D16*
%TO.C,TP1*%
X128900000Y-64000000D02*
G75*
G02*
X126100000Y-64000000I-1400000J0D01*
G01*
X126100000Y-64000000D02*
G75*
G02*
X128900000Y-64000000I1400000J0D01*
G01*
D11*
%TO.C,R1*%
X150600000Y-52311359D02*
X150600000Y-52618641D01*
X151360000Y-52311359D02*
X151360000Y-52618641D01*
%TO.C,C11*%
X141640000Y-60107836D02*
X141640000Y-59892164D01*
X142360000Y-60107836D02*
X142360000Y-59892164D01*
%TO.C,C5*%
X116640000Y-47892164D02*
X116640000Y-48107836D01*
X117360000Y-47892164D02*
X117360000Y-48107836D01*
%TO.C,R6*%
X150653641Y-57120000D02*
X150346359Y-57120000D01*
X150653641Y-57880000D02*
X150346359Y-57880000D01*
%TO.C,C9*%
X148107836Y-41215000D02*
X147892164Y-41215000D01*
X148107836Y-41935000D02*
X147892164Y-41935000D01*
%TO.C,C18*%
X118568400Y-61892164D02*
X118568400Y-62107836D01*
X119288400Y-61892164D02*
X119288400Y-62107836D01*
%TO.C,D2*%
X124000000Y-48335000D02*
X124000000Y-52195000D01*
X126000000Y-48335000D02*
X124000000Y-48335000D01*
X126000000Y-48335000D02*
X126000000Y-52195000D01*
%TO.C,C20*%
X126140000Y-44607836D02*
X126140000Y-44392164D01*
X126860000Y-44607836D02*
X126860000Y-44392164D01*
%TO.C,C2*%
X126640000Y-56607836D02*
X126640000Y-56392164D01*
X127360000Y-56607836D02*
X127360000Y-56392164D01*
D12*
%TO.C,PAM2401-SCADJ1*%
X156480000Y-49965000D02*
X153480000Y-49965000D01*
X156480000Y-52965000D02*
X153480000Y-52965000D01*
D10*
X158130000Y-53040000D02*
G75*
G02*
X157930000Y-53040000I-100000J0D01*
G01*
X157930000Y-53040000D02*
G75*
G02*
X158130000Y-53040000I100000J0D01*
G01*
D11*
%TO.C,C6*%
X113640000Y-47892164D02*
X113640000Y-48107836D01*
X114360000Y-47892164D02*
X114360000Y-48107836D01*
%TO.C,C3*%
X145640000Y-39892164D02*
X145640000Y-40107836D01*
X146360000Y-39892164D02*
X146360000Y-40107836D01*
%TO.C,R13*%
X116774759Y-64620000D02*
X117082041Y-64620000D01*
X116774759Y-65380000D02*
X117082041Y-65380000D01*
%TO.C,R3*%
X150600000Y-50311359D02*
X150600000Y-50618641D01*
X151360000Y-50311359D02*
X151360000Y-50618641D01*
%TO.C,BT1*%
X110090000Y-53940000D02*
X110090000Y-60060000D01*
X110090000Y-56500000D02*
X114450000Y-56500000D01*
X110090000Y-60060000D02*
X117910000Y-60060000D01*
X112350000Y-54700000D02*
X112350000Y-55700000D01*
X112350000Y-55200000D02*
X110090000Y-55200000D01*
X112350000Y-55700000D02*
X110090000Y-55700000D01*
X112350000Y-55700000D02*
X113950000Y-55700000D01*
X112350000Y-58300000D02*
X113950000Y-58300000D01*
X112350000Y-59300000D02*
X112350000Y-58300000D01*
X113950000Y-54700000D02*
X112350000Y-54700000D01*
X113950000Y-55700000D02*
X113950000Y-54700000D01*
X113950000Y-58300000D02*
X113950000Y-59300000D01*
X113950000Y-59300000D02*
X112350000Y-59300000D01*
X114450000Y-56500000D02*
X114450000Y-57500000D01*
X114450000Y-57500000D02*
X110090000Y-57500000D01*
X116310000Y-53940000D02*
X116310000Y-54860000D01*
X116310000Y-54860000D02*
X117910000Y-54860000D01*
X116310000Y-55140000D02*
X116310000Y-54860000D01*
X116310000Y-55140000D02*
X117525000Y-55140000D01*
X116310000Y-59140000D02*
X116310000Y-58860000D01*
X116310000Y-60060000D02*
X116310000Y-59140000D01*
X117910000Y-53940000D02*
X110090000Y-53940000D01*
X117910000Y-54860000D02*
X117910000Y-53940000D01*
X117910000Y-59140000D02*
X116310000Y-59140000D01*
X117910000Y-60060000D02*
X117910000Y-59140000D01*
%TO.C,C8*%
X124140000Y-60392164D02*
X124140000Y-60607836D01*
X124860000Y-60392164D02*
X124860000Y-60607836D01*
%TD*%
M02*
