M48
; DRILL file {KiCad 8.0.0} date 2024-05-02T00:18:44-0700
; FORMAT={-:-/ absolute / inch / decimal}
; #@! TF.CreationDate,2024-05-02T00:18:44-07:00
; #@! TF.GenerationSoftware,Kicad,Pcbnew,8.0.0
; #@! TF.FileFunction,Plated,1,2,PTH
FMAT,2
INCH
; #@! TA.AperFunction,Plated,PTH,ViaDrill
T1C0.0079
; #@! TA.AperFunction,Plated,PTH,ComponentDrill
T2C0.0236
; #@! TA.AperFunction,Plated,PTH,ComponentDrill
T3C0.0295
; #@! TA.AperFunction,Plated,PTH,ComponentDrill
T4C0.0394
%
G90
G05
T1
X4.685Y-1.9094
X4.685Y-1.9291
X4.685Y-2.0472
X4.685Y-2.0866
X4.7047Y-1.7126
X4.7047Y-1.7323
X4.7047Y-1.9094
X4.7047Y-1.9291
X4.7244Y-1.7126
X4.7244Y-1.7323
X4.7441Y-2.0472
X4.8031Y-2.0866
X4.9213Y-2.126
X4.9213Y-2.1457
X4.9409Y-2.126
X4.9409Y-2.1457
X5.0Y-1.9488
X5.0984Y-2.185
X5.0984Y-2.2047
X5.1181Y-1.9882
X5.1181Y-2.0276
X5.1772Y-2.6969
X5.2165Y-2.4016
X5.2169Y-2.2831
X5.4134Y-2.7165
X5.5315Y-2.3819
X5.5512Y-1.6732
X5.6693Y-1.6535
X5.6693Y-2.1457
X5.6693Y-2.5787
X5.7874Y-2.2835
X5.8465Y-2.1654
X5.9252Y-2.2047
X5.9252Y-2.3031
X5.9449Y-2.2047
X5.9449Y-2.3031
X5.9646Y-1.9094
X5.9843Y-1.9094
X6.0236Y-1.9094
X6.063Y-1.8701
X6.0827Y-1.8701
T3
X4.5846Y-2.2047
X4.5846Y-2.2835
T4
X5.0197Y-2.5197
X5.2047Y-2.5394
X5.3047Y-2.5394
X5.4047Y-2.5394
X5.5047Y-2.5394
T2
G00X6.0013Y-2.1528
M15
G01X6.0446Y-2.1528
M16
G05
G00X6.0013Y-2.4929
M15
G01X6.0446Y-2.4929
M16
G05
G00X6.1718Y-2.1528
M15
G01X6.2032Y-2.1528
M16
G05
G00X6.1718Y-2.4929
M15
G01X6.2032Y-2.4929
M16
G05
M30
