%TF.GenerationSoftware,KiCad,Pcbnew,8.0.0*%
%TF.CreationDate,2024-05-02T00:18:50-07:00*%
%TF.ProjectId,ece16,65636531-362e-46b6-9963-61645f706362,rev?*%
%TF.SameCoordinates,Original*%
%TF.FileFunction,Soldermask,Bot*%
%TF.FilePolarity,Negative*%
%FSLAX46Y46*%
G04 Gerber Fmt 4.6, Leading zero omitted, Abs format (unit mm)*
G04 Created by KiCad (PCBNEW 8.0.0) date 2024-05-02 00:18:50*
%MOMM*%
%LPD*%
G01*
G04 APERTURE LIST*
G04 Aperture macros list*
%AMRoundRect*
0 Rectangle with rounded corners*
0 $1 Rounding radius*
0 $2 $3 $4 $5 $6 $7 $8 $9 X,Y pos of 4 corners*
0 Add a 4 corners polygon primitive as box body*
4,1,4,$2,$3,$4,$5,$6,$7,$8,$9,$2,$3,0*
0 Add four circle primitives for the rounded corners*
1,1,$1+$1,$2,$3*
1,1,$1+$1,$4,$5*
1,1,$1+$1,$6,$7*
1,1,$1+$1,$8,$9*
0 Add four rect primitives between the rounded corners*
20,1,$1+$1,$2,$3,$4,$5,0*
20,1,$1+$1,$4,$5,$6,$7,0*
20,1,$1+$1,$6,$7,$8,$9,0*
20,1,$1+$1,$8,$9,$2,$3,0*%
G04 Aperture macros list end*
%ADD10C,0.900000*%
%ADD11C,3.200000*%
%ADD12R,1.700000X1.700000*%
%ADD13O,1.700000X1.700000*%
%ADD14C,0.650000*%
%ADD15O,2.304000X1.204000*%
%ADD16RoundRect,0.301000X0.701000X-0.301000X0.701000X0.301000X-0.701000X0.301000X-0.701000X-0.301000X0*%
%ADD17C,2.000000*%
%ADD18RoundRect,0.250000X-0.625000X0.350000X-0.625000X-0.350000X0.625000X-0.350000X0.625000X0.350000X0*%
%ADD19O,1.750000X1.200000*%
%ADD20RoundRect,0.140000X0.140000X0.170000X-0.140000X0.170000X-0.140000X-0.170000X0.140000X-0.170000X0*%
%ADD21RoundRect,0.135000X0.135000X0.185000X-0.135000X0.185000X-0.135000X-0.185000X0.135000X-0.185000X0*%
%ADD22RoundRect,0.140000X-0.140000X-0.170000X0.140000X-0.170000X0.140000X0.170000X-0.140000X0.170000X0*%
%ADD23RoundRect,0.135000X-0.185000X0.135000X-0.185000X-0.135000X0.185000X-0.135000X0.185000X0.135000X0*%
%ADD24RoundRect,0.135000X0.185000X-0.135000X0.185000X0.135000X-0.185000X0.135000X-0.185000X-0.135000X0*%
%ADD25RoundRect,0.060400X-0.461600X-0.241600X0.461600X-0.241600X0.461600X0.241600X-0.461600X0.241600X0*%
%ADD26RoundRect,0.060400X0.461600X0.241600X-0.461600X0.241600X-0.461600X-0.241600X0.461600X-0.241600X0*%
G04 APERTURE END LIST*
D10*
%TO.C,S1*%
X132700000Y-72700000D03*
X139500000Y-72700000D03*
%TD*%
D11*
%TO.C,H1*%
X114500000Y-43500000D03*
%TD*%
D12*
%TO.C,U4*%
X132200000Y-64500000D03*
D13*
X134740000Y-64500000D03*
X137280000Y-64500000D03*
X139820000Y-64500000D03*
%TD*%
D14*
%TO.C,USB4105-GF-A1*%
X153482500Y-61890000D03*
X153482500Y-56110000D03*
D15*
X152982500Y-63320000D03*
X152982500Y-54680000D03*
D16*
X157162500Y-63320000D03*
X157162500Y-54680000D03*
%TD*%
D11*
%TO.C,H3*%
X114500000Y-70500000D03*
%TD*%
D17*
%TO.C,TP1*%
X127500000Y-64000000D03*
%TD*%
D11*
%TO.C,H2*%
X155500000Y-70500000D03*
%TD*%
%TO.C,H4*%
X155500000Y-43500000D03*
%TD*%
D18*
%TO.C,BT1*%
X116450000Y-56000000D03*
D19*
X116450000Y-58000000D03*
%TD*%
D20*
%TO.C,C12*%
X139480000Y-58000000D03*
X138520000Y-58000000D03*
%TD*%
D21*
%TO.C,R9*%
X139510000Y-61500000D03*
X138490000Y-61500000D03*
%TD*%
D22*
%TO.C,C13*%
X138520000Y-56500000D03*
X139480000Y-56500000D03*
%TD*%
D23*
%TO.C,R14*%
X133500000Y-57990000D03*
X133500000Y-59010000D03*
%TD*%
D24*
%TO.C,R8*%
X133500000Y-61010000D03*
X133500000Y-59990000D03*
%TD*%
D20*
%TO.C,C14*%
X139480000Y-58970000D03*
X138520000Y-58970000D03*
%TD*%
D25*
%TO.C,U6*%
X134805000Y-61400000D03*
X134805000Y-60600000D03*
X134805000Y-59800000D03*
X134805000Y-59000000D03*
X134805000Y-58200000D03*
X134805000Y-57400000D03*
X134805000Y-56600000D03*
D26*
X137195000Y-56600000D03*
X137195000Y-57400000D03*
X137195000Y-58200000D03*
X137195000Y-59000000D03*
X137195000Y-59800000D03*
X137195000Y-60600000D03*
X137195000Y-61400000D03*
%TD*%
D22*
%TO.C,C15*%
X138520000Y-59970000D03*
X139480000Y-59970000D03*
%TD*%
M02*
